<svg width="31" height="34" viewBox="0 0 31 34" fill="none" xmlns="http://www.w3.org/2000/svg">
<g clip-path="url(#clip0_370_8035)">
<g clip-path="url(#clip1_370_8035)">
<g clip-path="url(#clip2_370_8035)">
<path d="M30.0133 23.5723C28.5237 23.5723 27.7247 24.1224 27.0826 24.5646C26.5106 24.9585 26.0971 25.2431 25.1599 25.2431C24.2231 25.2431 23.8095 24.9583 23.2376 24.5646C22.5954 24.1224 21.7964 23.5723 20.3067 23.5723C18.8171 23.5723 18.0181 24.1224 17.3762 24.5646C16.804 24.9585 16.3907 25.2431 15.4535 25.2431C14.5167 25.2431 14.1034 24.9583 13.5315 24.5646C12.8892 24.1224 12.0902 23.5723 10.6007 23.5723C9.11121 23.5723 8.31223 24.1224 7.67003 24.5646C7.09808 24.9585 6.68479 25.2431 5.74766 25.2431C4.81076 25.2431 4.39747 24.9583 3.82529 24.5646C3.18332 24.1224 2.38434 23.5723 0.894818 23.5723C0.402556 23.5723 0.00341797 23.9731 0.00341797 24.4674V29.7751C0.00341797 30.2693 0.402556 30.6701 0.894818 30.6701H30.0133C30.5055 30.6701 30.9047 30.2693 30.9047 29.7751V24.4674C30.9047 23.9731 30.5055 23.5723 30.0133 23.5723ZM29.1219 28.8801H1.78621V25.4798C2.17522 25.5989 2.46638 25.7993 2.81718 26.0408C3.45916 26.4828 4.25838 27.0331 5.74789 27.0331C7.23717 27.0331 8.0364 26.4828 8.67837 26.0408C9.25055 25.6469 9.66383 25.3624 10.6007 25.3624C11.5376 25.3624 11.9509 25.6469 12.5231 26.0408C13.1651 26.4828 13.9643 27.0331 15.4535 27.0331C16.9431 27.0331 17.7423 26.4828 18.3843 26.0408C18.9562 25.6469 19.3697 25.3624 20.3067 25.3624C21.2438 25.3624 21.6571 25.6469 22.2292 26.0408C22.8713 26.4828 23.6705 27.0331 25.1599 27.0331C26.6495 27.0331 27.4487 26.4828 28.0907 26.0408C28.4417 25.7991 28.7328 25.5989 29.1219 25.4798V28.8801Z" fill="white"/>
<path d="M7.07692 18.0503C6.46278 18.5451 5.62158 19.223 5.62158 20.5565C5.62158 21.0507 6.02072 21.4515 6.51299 21.4515C7.00525 21.4515 7.40439 21.0507 7.40439 20.5565C7.40439 20.1226 7.62057 19.9074 8.193 19.4462C8.80715 18.9513 9.64833 18.2735 9.64833 16.9402C9.64833 15.6067 8.80715 14.9287 8.193 14.4338C7.62057 13.9726 7.40439 13.7574 7.40439 13.3236C7.40439 12.8898 7.62057 12.6746 8.19276 12.2135C8.80715 11.7186 9.64833 11.0408 9.64833 9.70739C9.64833 8.37395 8.80715 7.69621 8.19276 7.20123C7.62057 6.7401 7.40439 6.52492 7.40439 6.09125C7.40439 5.65734 7.62057 5.44217 8.19276 4.98127C8.80715 4.48629 9.64833 3.80832 9.64833 2.47511C9.64833 1.98084 9.24919 1.58008 8.75693 1.58008C8.26467 1.58008 7.86553 1.98084 7.86553 2.47511C7.86553 2.90878 7.64934 3.12397 7.07715 3.5851C6.46278 4.07984 5.62158 4.75781 5.62158 6.09101C5.62158 7.42445 6.46278 8.10243 7.07715 8.59717C7.64934 9.05831 7.86553 9.27348 7.86553 9.70739C7.86553 10.1411 7.64934 10.3562 7.07692 10.8174C6.46278 11.3123 5.62158 11.9901 5.62158 13.3236C5.62158 14.657 6.46278 15.3349 7.07692 15.8299C7.64934 16.291 7.86553 16.5062 7.86553 16.9399C7.86553 17.3738 7.64934 17.5892 7.07692 18.0503Z" fill="white"/>
<path d="M12.2915 18.0503C11.6772 18.5451 10.8359 19.223 10.8359 20.5565C10.8359 21.0507 11.2351 21.4515 11.7273 21.4515C12.2196 21.4515 12.6187 21.0507 12.6187 20.5565C12.6187 20.1226 12.8351 19.9074 13.4073 19.4462C14.0215 18.9513 14.8627 18.2735 14.8627 16.9402C14.8627 15.6067 14.0215 14.9287 13.4073 14.4338C12.8351 13.9726 12.6187 13.7574 12.6187 13.3236C12.6187 12.8898 12.8351 12.6746 13.4073 12.2135C14.0215 11.7186 14.8627 11.0408 14.8627 9.70739C14.8627 8.37395 14.0215 7.69621 13.4073 7.20123C12.8351 6.7401 12.6187 6.52492 12.6187 6.09125C12.6187 5.65734 12.8351 5.44217 13.4073 4.98127C14.0215 4.48629 14.8627 3.80832 14.8627 2.47511C14.8627 1.98084 14.4635 1.58008 13.9713 1.58008C13.479 1.58008 13.0799 1.98084 13.0799 2.47511C13.0799 2.90878 12.8637 3.12397 12.2915 3.5851C11.6774 4.08007 10.8359 4.75781 10.8359 6.09125C10.8359 7.42445 11.6774 8.10243 12.2915 8.59717C12.8637 9.05854 13.0799 9.27348 13.0799 9.70739C13.0799 10.1411 12.8637 10.3562 12.2915 10.8174C11.6772 11.3123 10.8359 11.9901 10.8359 13.3236C10.8359 14.657 11.6772 15.3349 12.2915 15.8299C12.8637 16.291 13.0799 16.5062 13.0799 16.9402C13.0799 17.3738 12.8637 17.5892 12.2915 18.0503Z" fill="white"/>
<path d="M17.5061 18.0503C16.892 18.5451 16.0508 19.223 16.0508 20.5565C16.0508 21.0507 16.4499 21.4515 16.9422 21.4515C17.4344 21.4515 17.8336 21.0507 17.8336 20.5565C17.8336 20.1226 18.0498 19.9074 18.6222 19.4462C19.2364 18.9513 20.0775 18.2735 20.0775 16.9402C20.0775 15.6067 19.2364 14.9287 18.6222 14.4338C18.0498 13.9726 17.8336 13.7574 17.8336 13.3236C17.8336 12.8898 18.0498 12.6746 18.622 12.2135C19.2364 11.7186 20.0775 11.0408 20.0775 9.70739C20.0775 8.37395 19.2364 7.69621 18.622 7.20123C18.0498 6.7401 17.8336 6.52492 17.8336 6.09125C17.8336 5.65734 18.0498 5.44217 18.622 4.98127C19.2364 4.48629 20.0775 3.80832 20.0775 2.47511C20.0775 1.98084 19.6784 1.58008 19.1861 1.58008C18.6939 1.58008 18.2947 1.98084 18.2947 2.47511C18.2947 2.90878 18.0785 3.12397 17.5063 3.5851C16.892 4.08007 16.0508 4.75781 16.0508 6.09125C16.0508 7.42445 16.892 8.10243 17.5063 8.59717C18.0785 9.05854 18.2947 9.27348 18.2947 9.70739C18.2947 10.1411 18.0785 10.3562 17.5061 10.8174C16.892 11.3123 16.0508 11.9901 16.0508 13.3236C16.0508 14.657 16.892 15.3349 17.5061 15.8299C18.0785 16.291 18.2947 16.5062 18.2947 16.9402C18.2947 17.3738 18.0785 17.5892 17.5061 18.0503Z" fill="white"/>
<path d="M22.7207 18.0503C22.1066 18.5451 21.2654 19.223 21.2654 20.5565C21.2654 21.0507 21.6643 21.4515 22.1565 21.4515C22.6491 21.4515 23.0479 21.0507 23.0479 20.5565C23.0479 20.1226 23.2643 19.9074 23.8365 19.4462C24.4507 18.9513 25.2919 18.2735 25.2919 16.9402C25.2919 15.6067 24.4507 14.9287 23.8365 14.4338C23.2643 13.9726 23.0479 13.7574 23.0479 13.3236C23.0479 12.8898 23.2643 12.6746 23.8365 12.2135C24.4507 11.7186 25.2919 11.0408 25.2919 9.70739C25.2919 8.37395 24.4507 7.69621 23.8365 7.20123C23.2643 6.7401 23.0479 6.52492 23.0479 6.09125C23.0479 5.65734 23.2643 5.44217 23.8365 4.98127C24.4507 4.48629 25.2919 3.80832 25.2919 2.47511C25.2919 1.98084 24.8927 1.58008 24.4005 1.58008C23.9082 1.58008 23.5091 1.98084 23.5091 2.47511C23.5091 2.90878 23.2929 3.12397 22.7207 3.5851C22.1064 4.08007 21.2651 4.75781 21.2651 6.09125C21.2651 7.42445 22.1064 8.10243 22.7205 8.59717C23.2929 9.05854 23.5091 9.27348 23.5091 9.70739C23.5091 10.1411 23.2929 10.3562 22.7205 10.8174C22.1064 11.3123 21.2651 11.9901 21.2651 13.3236C21.2651 14.657 22.1064 15.3349 22.7205 15.8299C23.2929 16.291 23.5091 16.5062 23.5091 16.9402C23.5091 17.3738 23.2929 17.5892 22.7207 18.0503Z" fill="white"/>
</g>
</g>
</g>
<defs>
<clipPath id="clip0_370_8035">
<rect width="30.9067" height="32.9613" fill="white" transform="translate(0 0.0976562)"/>
</clipPath>
<clipPath id="clip1_370_8035">
<rect width="30.9067" height="32.9613" fill="white" transform="translate(0 0.0976562)"/>
</clipPath>
<clipPath id="clip2_370_8035">
<rect width="30.9013" height="32.9613" fill="white" transform="translate(0.00292969 0.0976562)"/>
</clipPath>
</defs>
</svg>
