<svg width="32" height="32" viewBox="0 0 32 32" fill="none" xmlns="http://www.w3.org/2000/svg">
<g clip-path="url(#clip0_370_7814)">
<g clip-path="url(#clip1_370_7814)">
<g clip-path="url(#clip2_370_7814)">
<mask id="mask0_370_7814" style="mask-type:luminance" maskUnits="userSpaceOnUse" x="-1" y="0" width="33" height="32">
<path d="M31.6802 0.292969H-0.00146484V31.9746H31.6802V0.292969Z" fill="white"/>
</mask>
<g mask="url(#mask0_370_7814)">
<path d="M24.5249 15.0209L14.7257 24.8199C14.1433 25.4023 14.5556 26.4043 15.3821 26.4043H25.1812C25.6938 26.4043 26.1094 25.9888 26.1094 25.4761V15.6771C26.1094 14.8532 25.1089 14.4368 24.5249 15.0209ZM24.253 24.548H17.6229L24.253 17.918V24.548Z" fill="white"/>
<path d="M30.0949 1.5811L1.28183 30.3941C0.699495 30.9764 1.11172 31.9786 1.93817 31.9786H30.7513C31.2639 31.9786 31.6794 31.563 31.6794 31.0504V2.23739C31.6794 1.41057 30.6768 0.999075 30.0949 1.5811ZM27.3479 30.1222V29.1941C27.3479 28.6815 26.9323 28.2658 26.4197 28.2658C25.9071 28.2658 25.4916 28.6815 25.4916 29.1941V30.1222H23.0165V29.1941C23.0165 28.6815 22.6008 28.2658 22.0882 28.2658C21.5757 28.2658 21.16 28.6815 21.16 29.1941V30.1222H18.685V29.1941C18.685 28.6815 18.2694 28.2658 17.7568 28.2658C17.2442 28.2658 16.8286 28.6815 16.8286 29.1941V30.1222H14.3535V29.1941C14.3535 28.6815 13.9379 28.2658 13.4253 28.2658C12.9127 28.2658 12.4971 28.6815 12.4971 29.1941V30.1222H10.022V29.1941C10.022 28.6815 9.60643 28.2658 9.09383 28.2658C8.58124 28.2658 8.16567 28.6815 8.16567 29.1941V30.1222H4.17897L29.8231 4.47824V8.46481H28.8949C28.3823 8.46481 27.9667 8.88039 27.9667 9.39299C27.9667 9.90559 28.3823 10.3212 28.8949 10.3212H29.8231V12.7963H28.8949C28.3823 12.7963 27.9667 13.2118 27.9667 13.7244C27.9667 14.2371 28.3823 14.6526 28.8949 14.6526H29.8231V17.1278H28.8949C28.3823 17.1278 27.9667 17.5433 27.9667 18.056C27.9667 18.5686 28.3823 18.9841 28.8949 18.9841H29.8231V21.4592H28.8949C28.3823 21.4592 27.9667 21.8749 27.9667 22.3874C27.9667 22.9 28.3823 23.3155 28.8949 23.3155H29.8231V25.7907H28.8949C28.3823 25.7907 27.9667 26.2063 27.9667 26.7189C27.9667 27.2315 28.3823 27.6471 28.8949 27.6471H29.8231V30.1222H27.3479Z" fill="white"/>
<path d="M4.20824 24.7937C37.8585 -8.85658 11.739 17.2628 22.1147 6.88729C22.1146 6.88747 22.1148 6.8871 22.1147 6.88729C22.2053 6.79671 22.2693 6.70438 22.3126 6.61317L24.6815 1.61897C24.8496 1.26442 24.7767 0.842345 24.4991 0.564882C24.2218 0.287358 23.7996 0.214342 23.4451 0.382589L18.4508 2.75154C18.3619 2.79374 18.2703 2.85592 18.1923 2.93383L0.270305 20.8557C-0.091931 21.218 -0.0921784 21.806 0.270305 22.1684L2.89561 24.7937C3.25803 25.1561 3.84576 25.1562 4.20824 24.7937ZM19.4157 6.96086L6.8002 19.5763L5.48757 18.2638L18.1028 5.64862C18.3876 6.20571 18.8506 6.67189 19.4157 6.96086ZM20.8239 5.41985C20.1666 5.47009 19.5938 4.89877 19.6441 4.24008L21.8886 3.17552L20.8239 5.41985ZM4.17495 19.5763L5.48757 20.889L3.5519 22.8248L2.23921 21.5121L4.17495 19.5763Z" fill="white"/>
</g>
</g>
</g>
</g>
<defs>
<clipPath id="clip0_370_7814">
<rect width="31.6817" height="31.6817" fill="white" transform="translate(0 0.291016)"/>
</clipPath>
<clipPath id="clip1_370_7814">
<rect width="31.6817" height="31.6817" fill="white" transform="translate(0 0.291016)"/>
</clipPath>
<clipPath id="clip2_370_7814">
<rect width="31.6817" height="31.6817" fill="white" transform="translate(0 0.291016)"/>
</clipPath>
</defs>
</svg>
