<svg width="56" height="58" viewBox="0 0 56 58" fill="none" xmlns="http://www.w3.org/2000/svg">
<rect width="56" height="57.5" rx="28" fill="#00B0F0" fill-opacity="0.11"/>
<path d="M21.0062 27C21 27.1687 21 27.3313 21 27.5V28.5C21 28.6687 21 28.8313 21.0062 29H20C18.8937 29 18 29.8938 18 31C18 32.1063 18.8937 33 20 33H21.7687C23.6188 38.2437 28.625 42 34.5 42H36C37.1063 42 38 41.1063 38 40C38 38.8937 37.1063 38 36 38H34.5C30.8813 38 27.7375 35.975 26.1313 33H34C35.1063 33 36 32.1063 36 31C36 29.8938 35.1063 29 34 29H25.0125C25.0062 28.8375 25 28.6687 25 28.5V27.5C25 27.3313 25.0062 27.1625 25.0125 27H34C35.1063 27 36 26.1062 36 25C36 23.8938 35.1063 23 34 23H26.1313C27.7375 20.025 30.8813 18 34.5 18H36C37.1063 18 38 17.1063 38 16C38 14.8937 37.1063 14 36 14H34.5C28.625 14 23.6188 17.7562 21.7687 23H20C18.8937 23 18 23.8938 18 25C18 26.1062 18.8937 27 20 27H21.0062Z" fill="#3563E9"/>
</svg>
