<svg width="32" height="32" viewBox="0 0 32 32" fill="none" xmlns="http://www.w3.org/2000/svg">
<g clip-path="url(#clip0_370_7921)">
<g clip-path="url(#clip1_370_7921)">
<g clip-path="url(#clip2_370_7921)">
<path d="M30.4937 0.25H0.984141C0.440919 0.25 0.000488281 0.690431 0.000488281 1.23365V30.7432C0.000488281 31.2864 0.440919 31.7269 0.984141 31.7269H30.4937C31.037 31.7269 31.4774 31.2864 31.4774 30.7432V1.23365C31.4774 0.690431 31.037 0.25 30.4937 0.25ZM29.5101 29.7596H1.96779V28.7759H2.95145C3.49467 28.7759 3.9351 28.3355 3.9351 27.7923C3.9351 27.2491 3.49467 26.8086 2.95145 26.8086H1.96779V25.825H2.95145C3.49467 25.825 3.9351 25.3845 3.9351 24.8413C3.9351 24.2981 3.49467 23.8577 2.95145 23.8577H1.96779V22.874H2.95145C3.49467 22.874 3.9351 22.4336 3.9351 21.8904C3.9351 21.3472 3.49467 20.9067 2.95145 20.9067H1.96779V19.9231H2.95145C3.49467 19.9231 3.9351 19.4826 3.9351 18.9394C3.9351 18.3962 3.49467 17.9558 2.95145 17.9558H1.96779V8.11923H2.95145C3.49467 8.11923 3.9351 7.67879 3.9351 7.13557C3.9351 6.59235 3.49467 6.15192 2.95145 6.15192H1.96779V5.16827H2.95145C3.49467 5.16827 3.9351 4.72783 3.9351 4.18461C3.9351 3.64139 3.49467 3.20096 2.95145 3.20096H1.96779V2.21731H29.5101V29.7596Z" fill="white"/>
<path d="M14.7551 12.0528C14.212 12.0528 13.7715 12.4933 13.7715 13.0365C13.7715 13.5797 14.212 14.0201 14.7551 14.0201H15.908C16.2049 14.8572 16.869 15.5214 17.7061 15.8183V16.9711C17.7061 17.5143 18.1465 17.9547 18.6897 17.9547C19.233 17.9547 19.6734 17.5143 19.6734 16.9711V15.9874H21.6407V16.9711C21.6407 17.5143 22.0811 17.9547 22.6244 17.9547C23.1677 17.9547 23.608 17.5143 23.608 16.9711V15.8183C24.4451 15.5214 25.1093 14.8572 25.4061 14.0201H26.559C27.1023 14.0201 27.5426 13.5797 27.5426 13.0365C27.5426 12.4933 27.1023 12.0528 26.559 12.0528H25.5753V10.147H26.559C27.1023 10.147 27.5426 9.70656 27.5426 9.16333C27.5426 8.62012 27.1023 8.17968 26.559 8.17968H25.427C25.1414 7.31382 24.4653 6.62422 23.608 6.32009V5.16725C23.608 4.62403 23.1677 4.18359 22.6244 4.18359C22.0811 4.18359 21.6407 4.62403 21.6407 5.16725V6.1509H19.6734V5.16725C19.6734 4.62403 19.233 4.18359 18.6897 4.18359C18.1465 4.18359 17.7061 4.62403 17.7061 5.16725V6.32009C16.8488 6.62416 16.1729 7.31382 15.8872 8.17968H14.7551C14.212 8.17968 13.7715 8.62012 13.7715 9.16333C13.7715 9.70656 14.212 10.147 14.7551 10.147H15.7388V12.0528H14.7551ZM17.7061 9.10186C17.7061 8.5595 18.1474 8.11821 18.6897 8.11821H22.6244C23.1667 8.11821 23.608 8.5595 23.608 9.10186V13.0365C23.608 13.5788 23.1667 14.0201 22.6244 14.0201H18.6897C18.1474 14.0201 17.7061 13.5788 17.7061 13.0365V9.10186Z" fill="white"/>
<path d="M14.7551 21.8892H26.559C27.1023 21.8892 27.5426 21.4487 27.5426 20.9055C27.5426 20.3623 27.1023 19.9219 26.559 19.9219H14.7551C14.212 19.9219 13.7715 20.3623 13.7715 20.9055C13.7715 21.4487 14.212 21.8892 14.7551 21.8892Z" fill="white"/>
<path d="M14.7551 25.8247H15.7388V26.8084C15.7388 27.3516 16.1792 27.792 16.7224 27.792C17.2657 27.792 17.7061 27.3516 17.7061 26.8084V25.8247H19.6734V26.8084C19.6734 27.3516 20.1138 27.792 20.6571 27.792C21.2003 27.792 21.6407 27.3516 21.6407 26.8084V25.8247H23.608V26.8084C23.608 27.3516 24.0484 27.792 24.5917 27.792C25.135 27.792 25.5753 27.3516 25.5753 26.8084V25.8247H26.559C27.1023 25.8247 27.5426 25.3843 27.5426 24.8411C27.5426 24.2979 27.1023 23.8574 26.559 23.8574H14.7551C14.212 23.8574 13.7715 24.2979 13.7715 24.8411C13.7715 25.3843 14.212 25.8247 14.7551 25.8247Z" fill="white"/>
<path d="M6.886 13.0365C7.42921 13.0365 7.86965 12.596 7.86965 12.0528V5.16725C7.86965 4.62403 7.42921 4.18359 6.886 4.18359C6.34278 4.18359 5.90234 4.62403 5.90234 5.16725V12.0528C5.90234 12.596 6.34278 13.0365 6.886 13.0365Z" fill="white"/>
<path d="M10.8206 16.9711C11.3638 16.9711 11.8042 16.5306 11.8042 15.9874V5.16725C11.8042 4.62403 11.3638 4.18359 10.8206 4.18359C10.2773 4.18359 9.83691 4.62403 9.83691 5.16725V15.9874C9.83691 16.5306 10.2773 16.9711 10.8206 16.9711Z" fill="white"/>
<path d="M6.886 27.7915H8.8533C9.39652 27.7915 9.83696 27.3511 9.83696 26.8079C9.83696 26.2647 9.39652 25.8242 8.8533 25.8242H6.886C6.34278 25.8242 5.90234 26.2647 5.90234 26.8079C5.90234 27.3511 6.34278 27.7915 6.886 27.7915Z" fill="white"/>
<path d="M6.886 23.8579H8.8533C9.39652 23.8579 9.83696 23.4175 9.83696 22.8743C9.83696 22.3311 9.39652 21.8906 8.8533 21.8906H6.886C6.34278 21.8906 5.90234 22.3311 5.90234 22.8743C5.90234 23.4175 6.34278 23.8579 6.886 23.8579Z" fill="white"/>
<path d="M6.886 19.9224H8.8533C9.39652 19.9224 9.83696 19.4819 9.83696 18.9387C9.83696 18.3955 9.39652 17.9551 8.8533 17.9551H6.886C6.34278 17.9551 5.90234 18.3955 5.90234 18.9387C5.90234 19.4819 6.34278 19.9224 6.886 19.9224Z" fill="white"/>
</g>
</g>
</g>
<defs>
<clipPath id="clip0_370_7921">
<rect width="31.4769" height="31.4769" fill="white" transform="translate(0 0.511719)"/>
</clipPath>
<clipPath id="clip1_370_7921">
<rect width="31.4769" height="31.4769" fill="white" transform="translate(0 0.511719)"/>
</clipPath>
<clipPath id="clip2_370_7921">
<rect width="31.4769" height="31.4769" fill="white" transform="translate(0 0.511719)"/>
</clipPath>
</defs>
</svg>
