<svg width="330" height="707" viewBox="0 0 330 707" fill="none" xmlns="http://www.w3.org/2000/svg">
<path d="M0.93934 693.939C0.353553 694.525 0.353553 695.475 0.93934 696.061L10.4853 705.607C11.0711 706.192 12.0208 706.192 12.6066 705.607C13.1924 705.021 13.1924 704.071 12.6066 703.485L4.12132 695L12.6066 686.515C13.1924 685.929 13.1924 684.979 12.6066 684.393C12.0208 683.808 11.0711 683.808 10.4853 684.393L0.93934 693.939ZM2 696.5H4.01316V693.5H2V696.5ZM8.03947 696.5H12.0658V693.5H8.03947V696.5ZM16.0921 696.5H20.1184V693.5H16.0921V696.5ZM24.1447 696.5H28.1711V693.5H24.1447V696.5ZM32.1974 696.5H36.2237V693.5H32.1974V696.5ZM40.25 696.5H44.2763V693.5H40.25V696.5ZM48.3026 696.5H52.3289V693.5H48.3026V696.5ZM56.3553 696.5H60.3816V693.5H56.3553V696.5ZM64.4079 696.5H68.4342V693.5H64.4079V696.5ZM72.4605 696.5H76.4868V693.5H72.4605V696.5ZM80.5131 696.5H84.5395V693.5H80.5131V696.5ZM88.5658 696.5H92.5921V693.5H88.5658V696.5ZM96.6184 696.5H100.645V693.5H96.6184V696.5ZM104.671 696.5H108.697V693.5H104.671V696.5ZM112.724 696.5H116.75V693.5H112.724V696.5ZM120.776 696.5H124.803V693.5H120.776V696.5ZM128.829 696.5H132.855V693.5H128.829V696.5ZM136.882 696.5H140.908V693.5H136.882V696.5ZM144.934 696.5H148.961V693.5H144.934V696.5ZM152.987 696.5H157.013V693.5H152.987V696.5ZM161.039 696.5H165.066V693.5H161.039V696.5ZM169.092 696.5H173.118V693.5H169.092V696.5ZM177.145 696.5H181.171V693.5H177.145V696.5ZM185.197 696.5H189.224V693.5H185.197V696.5ZM193.25 696.5H197.276V693.5H193.25V696.5ZM201.303 696.5H205.329V693.5H201.303V696.5ZM209.355 696.5H213.382V693.5H209.355V696.5ZM217.408 696.5H221.434V693.5H217.408V696.5ZM225.461 696.5H229.487V693.5H225.461V696.5ZM233.513 696.5H237.54V693.5H233.513V696.5ZM241.566 696.5H245.592V693.5H241.566V696.5ZM249.619 696.5H253.645V693.5H249.619V696.5ZM257.671 696.5H261.698V693.5H257.671V696.5ZM265.724 696.5H269.75V693.5H265.724V696.5ZM273.776 696.5H277.803V693.5H273.776V696.5ZM281.829 696.5H285.855V693.5H281.829V696.5ZM289.882 696.5H293.908V693.5H289.882V696.5ZM297.934 696.5H301.961V693.5H297.934V696.5ZM305.987 696.5H308V693.5H305.987V696.5ZM308 696.5C308.71 696.5 309.413 696.466 310.106 696.398L309.816 693.412C309.219 693.47 308.613 693.5 308 693.5V696.5ZM314.243 695.579C315.603 695.167 316.906 694.624 318.138 693.964L316.721 691.32C315.662 691.887 314.542 692.354 313.373 692.708L314.243 695.579ZM321.64 691.62C322.728 690.726 323.726 689.728 324.62 688.64L322.302 686.736C321.532 687.672 320.672 688.532 319.736 689.302L321.64 691.62ZM326.964 685.138C327.624 683.906 328.167 682.603 328.579 681.243L325.708 680.373C325.354 681.542 324.887 682.662 324.32 683.721L326.964 685.138ZM329.398 677.106C329.466 676.413 329.5 675.71 329.5 675H326.5C326.5 675.613 326.47 676.219 326.412 676.816L329.398 677.106ZM329.5 675V673.009H326.5V675H329.5ZM329.5 669.027V665.046H326.5V669.027H329.5ZM329.5 661.064V657.082H326.5V661.064H329.5ZM329.5 653.101V649.119H326.5V653.101H329.5ZM329.5 645.137V641.156H326.5V645.137H329.5ZM329.5 637.174V633.192H326.5V637.174H329.5ZM329.5 629.21V625.229H326.5V629.21H329.5ZM329.5 621.247V617.265H326.5V621.247H329.5ZM329.5 613.284V609.302H326.5V613.284H329.5ZM329.5 605.32V601.338H326.5V605.32H329.5ZM329.5 597.357V593.375H326.5V597.357H329.5ZM329.5 589.393V585.412H326.5V589.393H329.5ZM329.5 581.43V577.448H326.5V581.43H329.5ZM329.5 573.466V569.485H326.5V573.466H329.5ZM329.5 565.503V561.521H326.5V565.503H329.5ZM329.5 557.54V553.558H326.5V557.54H329.5ZM329.5 549.576V545.595H326.5V549.576H329.5ZM329.5 541.613V537.631H326.5V541.613H329.5ZM329.5 533.649V529.668H326.5V533.649H329.5ZM329.5 525.686V521.704H326.5V525.686H329.5ZM329.5 517.723V513.741H326.5V517.723H329.5ZM329.5 509.759V505.777H326.5V509.759H329.5ZM329.5 501.796V497.814H326.5V501.796H329.5ZM329.5 493.832V489.851H326.5V493.832H329.5ZM329.5 485.869V481.887H326.5V485.869H329.5ZM329.5 477.906V473.924H326.5V477.906H329.5ZM329.5 469.942V465.96H326.5V469.942H329.5ZM329.5 461.979V457.997H326.5V461.979H329.5ZM329.5 454.015V450.034H326.5V454.015H329.5ZM329.5 446.052V442.07H326.5V446.052H329.5ZM329.5 438.089V434.107H326.5V438.089H329.5ZM329.5 430.125V426.143H326.5V430.125H329.5ZM329.5 422.162V418.18H326.5V422.162H329.5ZM329.5 414.198V410.217H326.5V414.198H329.5ZM329.5 406.235V402.253H326.5V406.235H329.5ZM329.5 398.271V394.29H326.5V398.271H329.5ZM329.5 390.308V386.326H326.5V390.308H329.5ZM329.5 382.345V378.363H326.5V382.345H329.5ZM329.5 374.381V370.399H326.5V374.381H329.5ZM329.5 366.418V362.436H326.5V366.418H329.5ZM329.5 358.454V354.472H326.5V358.454H329.5ZM329.5 350.491V346.509H326.5V350.491H329.5ZM329.5 342.527V338.546H326.5V342.527H329.5ZM329.5 334.564V330.582H326.5V334.564H329.5ZM329.5 326.6V322.619H326.5V326.6H329.5ZM329.5 318.637V314.655H326.5V318.637H329.5ZM329.5 310.674V306.692H326.5V310.674H329.5ZM329.5 302.71V298.728H326.5V302.71H329.5ZM329.5 294.747V290.765H326.5V294.747H329.5ZM329.5 286.783V282.802H326.5V286.783H329.5ZM329.5 278.82V274.838H326.5V278.82H329.5ZM329.5 270.856V266.875H326.5V270.856H329.5ZM329.5 262.893V258.911H326.5V262.893H329.5ZM329.5 254.929V250.948H326.5V254.929H329.5ZM329.5 246.966V242.984H326.5V246.966H329.5ZM329.5 239.003V235.021H326.5V239.003H329.5ZM329.5 231.039V227.057H326.5V231.039H329.5ZM329.5 223.076V219.094H326.5V223.076H329.5ZM329.5 215.112V211.131H326.5V215.112H329.5ZM329.5 207.149V203.167H326.5V207.149H329.5ZM329.5 199.185V195.204H326.5V199.185H329.5ZM329.5 191.222V187.24H326.5V191.222H329.5ZM329.5 183.259V179.277H326.5V183.259H329.5ZM329.5 175.295V171.313H326.5V175.295H329.5ZM329.5 167.332V163.35H326.5V167.332H329.5ZM329.5 159.368V155.387H326.5V159.368H329.5ZM329.5 151.405V147.423H326.5V151.405H329.5ZM329.5 143.441V139.46H326.5V143.441H329.5ZM329.5 135.478V131.496H326.5V135.478H329.5ZM329.5 127.515V123.533H326.5V127.515H329.5ZM329.5 119.551V115.57H326.5V119.551H329.5ZM329.5 111.588V107.606H326.5V111.588H329.5ZM329.5 103.625V99.6429H326.5V103.625H329.5ZM329.5 95.6612V91.6795H326.5V95.6612H329.5ZM329.5 87.6978V83.7161H326.5V87.6978H329.5ZM329.5 79.7344V75.7528H326.5V79.7344H329.5ZM329.5 71.7711V67.7894H326.5V71.7711H329.5ZM329.5 63.8077V59.826H326.5V63.8077H329.5ZM329.5 55.8443V51.8626H326.5V55.8443H329.5ZM329.5 47.8809V43.8992H326.5V47.8809H329.5ZM329.5 39.9175V35.9358H326.5V39.9175H329.5ZM329.5 31.9542V27.9725H326.5V31.9542H329.5ZM329.5 23.9908V22H326.5V23.9908H329.5ZM329.5 22C329.5 21.2897 329.466 20.587 329.398 19.8936L326.412 20.1842C326.47 20.7812 326.5 21.3869 326.5 22H329.5ZM328.579 15.7574C328.167 14.3968 327.624 13.0935 326.964 11.8622L324.32 13.2786C324.887 14.3377 325.354 15.4581 325.708 16.6273L328.579 15.7574ZM324.62 8.3597C323.726 7.27209 322.728 6.27382 321.64 5.38022L319.736 7.69818C320.672 8.46775 321.532 9.32753 322.302 10.2642L324.62 8.3597ZM318.138 3.03575C316.906 2.37622 315.603 1.83292 314.243 1.42071L313.373 4.29183C314.542 4.64605 315.662 5.11304 316.721 5.68029L318.138 3.03575ZM310.106 0.60198C309.413 0.534495 308.71 0.5 308 0.5V3.5C308.613 3.5 309.219 3.52977 309.816 3.58787L310.106 0.60198ZM308 0.5H306.047V3.5H308V0.5ZM302.141 0.5H298.234V3.5H302.141V0.5ZM294.328 0.5H290.422V3.5H294.328V0.5ZM286.516 0.5H282.609V3.5H286.516V0.5ZM278.703 0.5H274.797V3.5H278.703V0.5ZM270.891 0.5H266.984V3.5H270.891V0.5ZM263.078 0.5H259.172V3.5H263.078V0.5ZM255.266 0.5H251.359V3.5H255.266V0.5ZM247.453 0.5H243.547V3.5H247.453V0.5ZM239.641 0.5H235.734V3.5H239.641V0.5ZM231.828 0.5H227.922V3.5H231.828V0.5ZM224.016 0.5H220.109V3.5H224.016V0.5ZM216.203 0.5H212.297V3.5H216.203V0.5ZM208.391 0.5H204.484V3.5H208.391V0.5ZM200.578 0.5H196.672V3.5H200.578V0.5ZM192.766 0.5H188.859V3.5H192.766V0.5ZM184.953 0.5H183V3.5H184.953V0.5ZM0.93934 693.939C0.353553 694.525 0.353553 695.475 0.93934 696.061L10.4853 705.607C11.0711 706.192 12.0208 706.192 12.6066 705.607C13.1924 705.021 13.1924 704.071 12.6066 703.485L4.12132 695L12.6066 686.515C13.1924 685.929 13.1924 684.979 12.6066 684.393C12.0208 683.808 11.0711 683.808 10.4853 684.393L0.93934 693.939ZM2 696.5H4.01316V693.5H2V696.5ZM8.03947 696.5H12.0658V693.5H8.03947V696.5ZM16.0921 696.5H20.1184V693.5H16.0921V696.5ZM24.1447 696.5H28.1711V693.5H24.1447V696.5ZM32.1974 696.5H36.2237V693.5H32.1974V696.5ZM40.25 696.5H44.2763V693.5H40.25V696.5ZM48.3026 696.5H52.3289V693.5H48.3026V696.5ZM56.3553 696.5H60.3816V693.5H56.3553V696.5ZM64.4079 696.5H68.4342V693.5H64.4079V696.5ZM72.4605 696.5H76.4868V693.5H72.4605V696.5ZM80.5131 696.5H84.5395V693.5H80.5131V696.5ZM88.5658 696.5H92.5921V693.5H88.5658V696.5ZM96.6184 696.5H100.645V693.5H96.6184V696.5ZM104.671 696.5H108.697V693.5H104.671V696.5ZM112.724 696.5H116.75V693.5H112.724V696.5ZM120.776 696.5H124.803V693.5H120.776V696.5ZM128.829 696.5H132.855V693.5H128.829V696.5ZM136.882 696.5H140.908V693.5H136.882V696.5ZM144.934 696.5H148.961V693.5H144.934V696.5ZM152.987 696.5H157.013V693.5H152.987V696.5ZM161.039 696.5H165.066V693.5H161.039V696.5ZM169.092 696.5H173.118V693.5H169.092V696.5ZM177.145 696.5H181.171V693.5H177.145V696.5ZM185.197 696.5H189.224V693.5H185.197V696.5ZM193.25 696.5H197.276V693.5H193.25V696.5ZM201.303 696.5H205.329V693.5H201.303V696.5ZM209.355 696.5H213.382V693.5H209.355V696.5ZM217.408 696.5H221.434V693.5H217.408V696.5ZM225.461 696.5H229.487V693.5H225.461V696.5ZM233.513 696.5H237.54V693.5H233.513V696.5ZM241.566 696.5H245.592V693.5H241.566V696.5ZM249.619 696.5H253.645V693.5H249.619V696.5ZM257.671 696.5H261.698V693.5H257.671V696.5ZM265.724 696.5H269.75V693.5H265.724V696.5ZM273.776 696.5H277.803V693.5H273.776V696.5ZM281.829 696.5H285.855V693.5H281.829V696.5ZM289.882 696.5H293.908V693.5H289.882V696.5ZM297.934 696.5H301.961V693.5H297.934V696.5ZM305.987 696.5H308V693.5H305.987V696.5ZM308 696.5C308.71 696.5 309.413 696.466 310.106 696.398L309.816 693.412C309.219 693.47 308.613 693.5 308 693.5V696.5ZM314.243 695.579C315.603 695.167 316.906 694.624 318.138 693.964L316.721 691.32C315.662 691.887 314.542 692.354 313.373 692.708L314.243 695.579ZM321.64 691.62C322.728 690.726 323.726 689.728 324.62 688.64L322.302 686.736C321.532 687.672 320.672 688.532 319.736 689.302L321.64 691.62ZM326.964 685.138C327.624 683.906 328.167 682.603 328.579 681.243L325.708 680.373C325.354 681.542 324.887 682.662 324.32 683.721L326.964 685.138ZM329.398 677.106C329.466 676.413 329.5 675.71 329.5 675H326.5C326.5 675.613 326.47 676.219 326.412 676.816L329.398 677.106ZM329.5 675V673.009H326.5V675H329.5ZM329.5 669.027V665.046H326.5V669.027H329.5ZM329.5 661.064V657.082H326.5V661.064H329.5ZM329.5 653.101V649.119H326.5V653.101H329.5ZM329.5 645.137V641.156H326.5V645.137H329.5ZM329.5 637.174V633.192H326.5V637.174H329.5ZM329.5 629.21V625.229H326.5V629.21H329.5ZM329.5 621.247V617.265H326.5V621.247H329.5ZM329.5 613.284V609.302H326.5V613.284H329.5ZM329.5 605.32V601.338H326.5V605.32H329.5ZM329.5 597.357V593.375H326.5V597.357H329.5ZM329.5 589.393V585.412H326.5V589.393H329.5ZM329.5 581.43V577.448H326.5V581.43H329.5ZM329.5 573.466V569.485H326.5V573.466H329.5ZM329.5 565.503V561.521H326.5V565.503H329.5ZM329.5 557.54V553.558H326.5V557.54H329.5ZM329.5 549.576V545.595H326.5V549.576H329.5ZM329.5 541.613V537.631H326.5V541.613H329.5ZM329.5 533.649V529.668H326.5V533.649H329.5ZM329.5 525.686V521.704H326.5V525.686H329.5ZM329.5 517.723V513.741H326.5V517.723H329.5ZM329.5 509.759V505.777H326.5V509.759H329.5ZM329.5 501.796V497.814H326.5V501.796H329.5ZM329.5 493.832V489.851H326.5V493.832H329.5ZM329.5 485.869V481.887H326.5V485.869H329.5ZM329.5 477.906V473.924H326.5V477.906H329.5ZM329.5 469.942V465.96H326.5V469.942H329.5ZM329.5 461.979V457.997H326.5V461.979H329.5ZM329.5 454.015V450.034H326.5V454.015H329.5ZM329.5 446.052V442.07H326.5V446.052H329.5ZM329.5 438.089V434.107H326.5V438.089H329.5ZM329.5 430.125V426.143H326.5V430.125H329.5ZM329.5 422.162V418.18H326.5V422.162H329.5ZM329.5 414.198V410.217H326.5V414.198H329.5ZM329.5 406.235V402.253H326.5V406.235H329.5ZM329.5 398.271V394.29H326.5V398.271H329.5ZM329.5 390.308V386.326H326.5V390.308H329.5ZM329.5 382.345V378.363H326.5V382.345H329.5ZM329.5 374.381V370.399H326.5V374.381H329.5ZM329.5 366.418V362.436H326.5V366.418H329.5ZM329.5 358.454V354.472H326.5V358.454H329.5ZM329.5 350.491V346.509H326.5V350.491H329.5ZM329.5 342.527V338.546H326.5V342.527H329.5ZM329.5 334.564V330.582H326.5V334.564H329.5ZM329.5 326.6V322.619H326.5V326.6H329.5ZM329.5 318.637V314.655H326.5V318.637H329.5ZM329.5 310.674V306.692H326.5V310.674H329.5ZM329.5 302.71V298.728H326.5V302.71H329.5ZM329.5 294.747V290.765H326.5V294.747H329.5ZM329.5 286.783V282.802H326.5V286.783H329.5ZM329.5 278.82V274.838H326.5V278.82H329.5ZM329.5 270.856V266.875H326.5V270.856H329.5ZM329.5 262.893V258.911H326.5V262.893H329.5ZM329.5 254.929V250.948H326.5V254.929H329.5ZM329.5 246.966V242.984H326.5V246.966H329.5ZM329.5 239.003V235.021H326.5V239.003H329.5ZM329.5 231.039V227.057H326.5V231.039H329.5ZM329.5 223.076V219.094H326.5V223.076H329.5ZM329.5 215.112V211.131H326.5V215.112H329.5ZM329.5 207.149V203.167H326.5V207.149H329.5ZM329.5 199.185V195.204H326.5V199.185H329.5ZM329.5 191.222V187.24H326.5V191.222H329.5ZM329.5 183.259V179.277H326.5V183.259H329.5ZM329.5 175.295V171.313H326.5V175.295H329.5ZM329.5 167.332V163.35H326.5V167.332H329.5ZM329.5 159.368V155.387H326.5V159.368H329.5ZM329.5 151.405V147.423H326.5V151.405H329.5ZM329.5 143.441V139.46H326.5V143.441H329.5ZM329.5 135.478V131.496H326.5V135.478H329.5ZM329.5 127.515V123.533H326.5V127.515H329.5ZM329.5 119.551V115.57H326.5V119.551H329.5ZM329.5 111.588V107.606H326.5V111.588H329.5ZM329.5 103.625V99.6429H326.5V103.625H329.5ZM329.5 95.6612V91.6795H326.5V95.6612H329.5ZM329.5 87.6978V83.7161H326.5V87.6978H329.5ZM329.5 79.7344V75.7528H326.5V79.7344H329.5ZM329.5 71.7711V67.7894H326.5V71.7711H329.5ZM329.5 63.8077V59.826H326.5V63.8077H329.5ZM329.5 55.8443V51.8626H326.5V55.8443H329.5ZM329.5 47.8809V43.8992H326.5V47.8809H329.5ZM329.5 39.9175V35.9358H326.5V39.9175H329.5ZM329.5 31.9542V27.9725H326.5V31.9542H329.5ZM329.5 23.9908V22H326.5V23.9908H329.5ZM329.5 22C329.5 21.2897 329.466 20.587 329.398 19.8936L326.412 20.1842C326.47 20.7812 326.5 21.3869 326.5 22H329.5ZM328.579 15.7574C328.167 14.3968 327.624 13.0935 326.964 11.8622L324.32 13.2786C324.887 14.3377 325.354 15.4581 325.708 16.6273L328.579 15.7574ZM324.62 8.3597C323.726 7.27209 322.728 6.27382 321.64 5.38022L319.736 7.69818C320.672 8.46775 321.532 9.32753 322.302 10.2642L324.62 8.3597ZM318.138 3.03575C316.906 2.37622 315.603 1.83292 314.243 1.42071L313.373 4.29183C314.542 4.64605 315.662 5.11304 316.721 5.68029L318.138 3.03575ZM310.106 0.60198C309.413 0.534495 308.71 0.5 308 0.5V3.5C308.613 3.5 309.219 3.52977 309.816 3.58787L310.106 0.60198ZM308 0.5H306.047V3.5H308V0.5ZM302.141 0.5H298.234V3.5H302.141V0.5ZM294.328 0.5H290.422V3.5H294.328V0.5ZM286.516 0.5H282.609V3.5H286.516V0.5ZM278.703 0.5H274.797V3.5H278.703V0.5ZM270.891 0.5H266.984V3.5H270.891V0.5ZM263.078 0.5H259.172V3.5H263.078V0.5ZM255.266 0.5H251.359V3.5H255.266V0.5ZM247.453 0.5H243.547V3.5H247.453V0.5ZM239.641 0.5H235.734V3.5H239.641V0.5ZM231.828 0.5H227.922V3.5H231.828V0.5ZM224.016 0.5H220.109V3.5H224.016V0.5ZM216.203 0.5H212.297V3.5H216.203V0.5ZM208.391 0.5H204.484V3.5H208.391V0.5ZM200.578 0.5H196.672V3.5H200.578V0.5ZM192.766 0.5H188.859V3.5H192.766V0.5ZM184.953 0.5H183V3.5H184.953V0.5Z" fill="url(#paint0_linear_147_281)"/>
<defs>
<linearGradient id="paint0_linear_147_281" x1="167.95" y1="41.6432" x2="167.95" y2="695.001" gradientUnits="userSpaceOnUse">
<stop stop-color="#3284FF"/>
<stop offset="1" stop-color="#01D1FF"/>
</linearGradient>
</defs>
</svg>
