<svg width="101" height="270" viewBox="0 0 101 270" fill="none" xmlns="http://www.w3.org/2000/svg">
<g clip-path="url(#clip0_165_85)">
<path d="M100.041 262.325C100.431 262.657 100.431 263.194 100.041 263.525L93.6766 268.929C93.2861 269.261 92.653 269.261 92.2624 268.929C91.8719 268.597 91.8719 268.06 92.2624 267.728L97.9193 262.925L92.2624 258.123C91.8719 257.791 91.8719 257.253 92.2624 256.921C92.653 256.59 93.2861 256.59 93.6766 256.921L100.041 262.325ZM99.3335 1.69884H98.0106V0.000732422H99.3335V1.69884ZM95.3647 1.69884H92.7189V0.000732422H95.3647V1.69884ZM90.0731 1.69884H87.4272V0.000732422H90.0731V1.69884ZM84.7814 1.69884H82.1356V0.000732422H84.7814V1.69884ZM79.4897 1.69884H76.8439V0.000732422H79.4897V1.69884ZM74.1981 1.69884H71.5522V0.000732422H74.1981V1.69884ZM68.9064 1.69884H66.2606V0.000732422H68.9064V1.69884ZM63.6147 1.69884H60.9689V0.000732422H63.6147V1.69884ZM58.3231 1.69884H55.6772V0.000732422H58.3231V1.69884ZM53.0314 1.69884H50.3856V0.000732422H53.0314V1.69884ZM47.7398 1.69884H45.0939V0.000732422H47.7398V1.69884ZM42.4481 1.69884H39.8023V0.000732422H42.4481V1.69884ZM37.1564 1.69884H34.5106V0.000732422H37.1564V1.69884ZM31.8648 1.69884H29.2189V0.000732422H31.8648V1.69884ZM26.5731 1.69884H23.9272V0.000732422H26.5731V1.69884ZM21.2814 1.69884H18.6356V0.000732422H21.2814V1.69884ZM15.9897 1.69884H14.6668V0.000732422H15.9897V1.69884ZM14.6668 1.69884C14.2581 1.69884 13.8543 1.7157 13.4563 1.74858L13.2626 0.0584569C13.7249 0.020258 14.1933 0.000732422 14.6668 0.000732422V1.69884ZM11.085 2.14705C10.3056 2.34756 9.55862 2.61189 8.85258 2.93297L7.90827 1.43606C8.72916 1.06274 9.59806 0.755212 10.5051 0.521886L11.085 2.14705ZM6.84295 4.07517C6.21852 4.51077 5.64533 4.99745 5.13229 5.52762L3.58698 4.44962C4.18271 3.83398 4.84822 3.26893 5.5733 2.76312L6.84295 4.07517ZM3.78703 7.23391C3.40886 7.83338 3.09753 8.46757 2.86138 9.12934L0.947304 8.63697C1.22211 7.86687 1.5843 7.12913 2.02399 6.43214L3.78703 7.23391ZM2.39208 11.1427C2.35335 11.4806 2.3335 11.8235 2.3335 12.1706H0.333496C0.333496 11.7685 0.356491 11.3708 0.401482 10.9782L2.39208 11.1427ZM2.3335 12.1706V13.3H0.333496V12.1706H2.3335ZM2.3335 15.5587V17.8176H0.333496V15.5587H2.3335ZM2.3335 20.0764V22.3352H0.333496V20.0764H2.3335ZM2.3335 24.594V26.8528H0.333496V24.594H2.3335ZM2.3335 29.1116V31.3705H0.333496V29.1116H2.3335ZM2.3335 33.6293V35.888H0.333496V33.6293H2.3335ZM2.3335 38.1469V40.4057H0.333496V38.1469H2.3335ZM2.3335 42.6645V44.9233H0.333496V42.6645H2.3335ZM2.3335 47.1821V49.4409H0.333496V47.1821H2.3335ZM2.3335 51.6998V53.9585H0.333496V51.6998H2.3335ZM2.3335 56.2173V58.4762H0.333496V56.2173H2.3335ZM2.3335 60.735V62.9938H0.333496V60.735H2.3335ZM2.3335 65.2526V67.5114H0.333496V65.2526H2.3335ZM2.3335 69.7702V72.0291H0.333496V69.7702H2.3335ZM2.3335 74.2878V76.5466H0.333496V74.2878H2.3335ZM2.3335 78.8055V81.0643H0.333496V78.8055H2.3335ZM2.3335 83.3231V85.5816H0.333496V83.3231H2.3335ZM2.3335 87.841V90.0994H0.333496V87.841H2.3335ZM2.3335 92.3579V94.6173H0.333496V92.3579H2.3335ZM2.3335 96.8758V99.1351H0.333496V96.8758H2.3335ZM2.3335 101.394V103.652H0.333496V101.394H2.3335ZM2.3335 105.911V108.17H0.333496V105.911H2.3335ZM2.3335 110.428V112.688H0.333496V110.428H2.3335ZM2.3335 114.946V117.206H0.333496V114.946H2.3335ZM2.3335 119.464V121.723H0.333496V119.464H2.3335ZM2.3335 123.982V126.24H0.333496V123.982H2.3335ZM2.3335 128.499V130.758H0.333496V128.499H2.3335ZM2.3335 133.017V135.276H0.333496V133.017H2.3335ZM2.3335 137.535V139.793H0.333496V137.535H2.3335ZM2.3335 142.052V144.311H0.333496V142.052H2.3335ZM2.3335 146.569V148.829H0.333496V146.569H2.3335ZM2.3335 151.087V153.347H0.333496V151.087H2.3335ZM2.3335 155.605V157.864H0.333496V155.605H2.3335ZM2.3335 160.123V162.381H0.333496V160.123H2.3335ZM2.3335 164.64V166.899H0.333496V164.64H2.3335ZM2.3335 169.158V171.417H0.333496V169.158H2.3335ZM2.3335 173.675V175.934H0.333496V173.675H2.3335ZM2.3335 178.193V180.452H0.333496V178.193H2.3335ZM2.3335 182.71V184.97H0.333496V182.71H2.3335ZM2.3335 187.228V189.487H0.333496V187.228H2.3335ZM2.3335 191.746V194.004H0.333496V191.746H2.3335ZM2.3335 196.264V198.522H0.333496V196.264H2.3335ZM2.3335 200.781V203.04H0.333496V200.781H2.3335ZM2.3335 205.299V207.557H0.333496V205.299H2.3335ZM2.3335 209.816V212.075H0.333496V209.816H2.3335ZM2.3335 214.334V216.593H0.333496V214.334H2.3335ZM2.3335 218.851V221.111H0.333496V218.851H2.3335ZM2.3335 223.369V225.628H0.333496V223.369H2.3335ZM2.3335 227.887V230.145H0.333496V227.887H2.3335ZM2.3335 232.405V234.663H0.333496V232.405H2.3335ZM2.3335 236.922V239.181H0.333496V236.922H2.3335ZM2.3335 241.44V243.698H0.333496V241.44H2.3335ZM2.3335 245.957V248.216H0.333496V245.957H2.3335ZM2.3335 250.474V251.604H0.333496V250.474H2.3335ZM2.3335 251.604C2.3335 251.952 2.35335 252.295 2.39207 252.633L0.401482 252.797C0.356491 252.404 0.333496 252.007 0.333496 251.604H2.3335ZM2.86138 254.646C3.09753 255.307 3.40885 255.941 3.78703 256.541L2.02399 257.343C1.5843 256.646 1.22211 255.908 0.947296 255.138L2.86138 254.646ZM5.13228 258.247C5.64532 258.777 6.21851 259.265 6.84294 259.7L5.57329 261.012C4.84821 260.506 4.1827 259.941 3.58698 259.326L5.13228 258.247ZM8.85257 260.842C9.55862 261.163 10.3056 261.427 11.085 261.628L10.5051 263.253C9.59805 263.02 8.72916 262.713 7.90826 262.339L8.85257 260.842ZM13.4563 262.027C13.8543 262.06 14.2581 262.076 14.6668 262.076V263.774C14.1933 263.774 13.7248 263.754 13.2626 263.716L13.4563 262.027ZM14.6668 262.076H15.9897V263.774H14.6668V262.076ZM18.6356 262.076H21.2814V263.774H18.6356V262.076ZM23.9272 262.076H26.5731V263.774H23.9272V262.076ZM29.2189 262.076H31.8647V263.774H29.2189V262.076ZM34.5106 262.076H37.1564V263.774H34.5106V262.076ZM39.8022 262.076H42.4481V263.774H39.8022V262.076ZM45.0939 262.076H47.7397V263.774H45.0939V262.076ZM50.3856 262.076H53.0314V263.774H50.3856V262.076ZM55.6772 262.076H58.3231V263.774H55.6772V262.076ZM60.9689 262.076H63.6147V263.774H60.9689V262.076ZM66.2606 262.076H68.9064V263.774H66.2606V262.076ZM71.5522 262.076H74.1981V263.774H71.5522V262.076ZM76.8439 262.076H79.4897V263.774H76.8439V262.076ZM82.1356 262.076H84.7814V263.774H82.1356V262.076ZM87.4272 262.076H90.0731V263.774H87.4272V262.076ZM92.7189 262.076H95.3647V263.774H92.7189V262.076ZM98.0106 262.076H99.3335V263.774H98.0106V262.076ZM100.041 262.325C100.431 262.657 100.431 263.194 100.041 263.525L93.6766 268.929C93.2861 269.261 92.653 269.261 92.2624 268.929C91.8719 268.597 91.8719 268.06 92.2624 267.728L97.9193 262.925L92.2624 258.123C91.8719 257.791 91.8719 257.253 92.2624 256.921C92.653 256.59 93.2861 256.59 93.6766 256.921L100.041 262.325ZM99.3335 1.69884H98.0106V0.000732422H99.3335V1.69884ZM95.3647 1.69884H92.7189V0.000732422H95.3647V1.69884ZM90.0731 1.69884H87.4272V0.000732422H90.0731V1.69884ZM84.7814 1.69884H82.1356V0.000732422H84.7814V1.69884ZM79.4897 1.69884H76.8439V0.000732422H79.4897V1.69884ZM74.1981 1.69884H71.5522V0.000732422H74.1981V1.69884ZM68.9064 1.69884H66.2606V0.000732422H68.9064V1.69884ZM63.6147 1.69884H60.9689V0.000732422H63.6147V1.69884ZM58.3231 1.69884H55.6772V0.000732422H58.3231V1.69884ZM53.0314 1.69884H50.3856V0.000732422H53.0314V1.69884ZM47.7398 1.69884H45.0939V0.000732422H47.7398V1.69884ZM42.4481 1.69884H39.8023V0.000732422H42.4481V1.69884ZM37.1564 1.69884H34.5106V0.000732422H37.1564V1.69884ZM31.8648 1.69884H29.2189V0.000732422H31.8648V1.69884ZM26.5731 1.69884H23.9272V0.000732422H26.5731V1.69884ZM21.2814 1.69884H18.6356V0.000732422H21.2814V1.69884ZM15.9897 1.69884H14.6668V0.000732422H15.9897V1.69884ZM14.6668 1.69884C14.2581 1.69884 13.8543 1.7157 13.4563 1.74858L13.2626 0.0584569C13.7249 0.020258 14.1933 0.000732422 14.6668 0.000732422V1.69884ZM11.085 2.14705C10.3056 2.34756 9.55862 2.61189 8.85258 2.93297L7.90827 1.43606C8.72916 1.06274 9.59806 0.755212 10.5051 0.521886L11.085 2.14705ZM6.84295 4.07517C6.21852 4.51077 5.64533 4.99745 5.13229 5.52762L3.58698 4.44962C4.18271 3.83398 4.84822 3.26893 5.5733 2.76312L6.84295 4.07517ZM3.78703 7.23391C3.40886 7.83338 3.09753 8.46757 2.86138 9.12934L0.947304 8.63697C1.22211 7.86687 1.5843 7.12913 2.02399 6.43214L3.78703 7.23391ZM2.39208 11.1427C2.35335 11.4806 2.3335 11.8235 2.3335 12.1706H0.333496C0.333496 11.7685 0.356491 11.3708 0.401482 10.9782L2.39208 11.1427ZM2.3335 12.1706V13.3H0.333496V12.1706H2.3335ZM2.3335 15.5587V17.8176H0.333496V15.5587H2.3335ZM2.3335 20.0764V22.3352H0.333496V20.0764H2.3335ZM2.3335 24.594V26.8528H0.333496V24.594H2.3335ZM2.3335 29.1116V31.3705H0.333496V29.1116H2.3335ZM2.3335 33.6293V35.888H0.333496V33.6293H2.3335ZM2.3335 38.1469V40.4057H0.333496V38.1469H2.3335ZM2.3335 42.6645V44.9233H0.333496V42.6645H2.3335ZM2.3335 47.1821V49.4409H0.333496V47.1821H2.3335ZM2.3335 51.6998V53.9585H0.333496V51.6998H2.3335ZM2.3335 56.2173V58.4762H0.333496V56.2173H2.3335ZM2.3335 60.735V62.9938H0.333496V60.735H2.3335ZM2.3335 65.2526V67.5114H0.333496V65.2526H2.3335ZM2.3335 69.7702V72.0291H0.333496V69.7702H2.3335ZM2.3335 74.2878V76.5466H0.333496V74.2878H2.3335ZM2.3335 78.8055V81.0643H0.333496V78.8055H2.3335ZM2.3335 83.3231V85.5816H0.333496V83.3231H2.3335ZM2.3335 87.841V90.0994H0.333496V87.841H2.3335ZM2.3335 92.3579V94.6173H0.333496V92.3579H2.3335ZM2.3335 96.8758V99.1351H0.333496V96.8758H2.3335ZM2.3335 101.394V103.652H0.333496V101.394H2.3335ZM2.3335 105.911V108.17H0.333496V105.911H2.3335ZM2.3335 110.428V112.688H0.333496V110.428H2.3335ZM2.3335 114.946V117.206H0.333496V114.946H2.3335ZM2.3335 119.464V121.723H0.333496V119.464H2.3335ZM2.3335 123.982V126.24H0.333496V123.982H2.3335ZM2.3335 128.499V130.758H0.333496V128.499H2.3335ZM2.3335 133.017V135.276H0.333496V133.017H2.3335ZM2.3335 137.535V139.793H0.333496V137.535H2.3335ZM2.3335 142.052V144.311H0.333496V142.052H2.3335ZM2.3335 146.569V148.829H0.333496V146.569H2.3335ZM2.3335 151.087V153.347H0.333496V151.087H2.3335ZM2.3335 155.605V157.864H0.333496V155.605H2.3335ZM2.3335 160.123V162.381H0.333496V160.123H2.3335ZM2.3335 164.64V166.899H0.333496V164.64H2.3335ZM2.3335 169.158V171.417H0.333496V169.158H2.3335ZM2.3335 173.675V175.934H0.333496V173.675H2.3335ZM2.3335 178.193V180.452H0.333496V178.193H2.3335ZM2.3335 182.71V184.97H0.333496V182.71H2.3335ZM2.3335 187.228V189.487H0.333496V187.228H2.3335ZM2.3335 191.746V194.004H0.333496V191.746H2.3335ZM2.3335 196.264V198.522H0.333496V196.264H2.3335ZM2.3335 200.781V203.04H0.333496V200.781H2.3335ZM2.3335 205.299V207.557H0.333496V205.299H2.3335ZM2.3335 209.816V212.075H0.333496V209.816H2.3335ZM2.3335 214.334V216.593H0.333496V214.334H2.3335ZM2.3335 218.851V221.111H0.333496V218.851H2.3335ZM2.3335 223.369V225.628H0.333496V223.369H2.3335ZM2.3335 227.887V230.145H0.333496V227.887H2.3335ZM2.3335 232.405V234.663H0.333496V232.405H2.3335ZM2.3335 236.922V239.181H0.333496V236.922H2.3335ZM2.3335 241.44V243.698H0.333496V241.44H2.3335ZM2.3335 245.957V248.216H0.333496V245.957H2.3335ZM2.3335 250.474V251.604H0.333496V250.474H2.3335ZM2.3335 251.604C2.3335 251.952 2.35335 252.295 2.39207 252.633L0.401482 252.797C0.356491 252.404 0.333496 252.007 0.333496 251.604H2.3335ZM2.86138 254.646C3.09753 255.307 3.40885 255.941 3.78703 256.541L2.02399 257.343C1.5843 256.646 1.22211 255.908 0.947296 255.138L2.86138 254.646ZM5.13228 258.247C5.64532 258.777 6.21851 259.265 6.84294 259.7L5.57329 261.012C4.84821 260.506 4.1827 259.941 3.58698 259.326L5.13228 258.247ZM8.85257 260.842C9.55862 261.163 10.3056 261.427 11.085 261.628L10.5051 263.253C9.59805 263.02 8.72916 262.713 7.90826 262.339L8.85257 260.842ZM13.4563 262.027C13.8543 262.06 14.2581 262.076 14.6668 262.076V263.774C14.1933 263.774 13.7248 263.754 13.2626 263.716L13.4563 262.027ZM14.6668 262.076H15.9897V263.774H14.6668V262.076ZM18.6356 262.076H21.2814V263.774H18.6356V262.076ZM23.9272 262.076H26.5731V263.774H23.9272V262.076ZM29.2189 262.076H31.8647V263.774H29.2189V262.076ZM34.5106 262.076H37.1564V263.774H34.5106V262.076ZM39.8022 262.076H42.4481V263.774H39.8022V262.076ZM45.0939 262.076H47.7397V263.774H45.0939V262.076ZM50.3856 262.076H53.0314V263.774H50.3856V262.076ZM55.6772 262.076H58.3231V263.774H55.6772V262.076ZM60.9689 262.076H63.6147V263.774H60.9689V262.076ZM66.2606 262.076H68.9064V263.774H66.2606V262.076ZM71.5522 262.076H74.1981V263.774H71.5522V262.076ZM76.8439 262.076H79.4897V263.774H76.8439V262.076ZM82.1356 262.076H84.7814V263.774H82.1356V262.076ZM87.4272 262.076H90.0731V263.774H87.4272V262.076ZM92.7189 262.076H95.3647V263.774H92.7189V262.076ZM98.0106 262.076H99.3335V263.774H98.0106V262.076Z" fill="url(#paint0_linear_165_85)"/>
</g>
<defs>
<linearGradient id="paint0_linear_165_85" x1="49.4466" y1="15.8419" x2="49.4466" y2="262.926" gradientUnits="userSpaceOnUse">
<stop stop-color="#3284FF"/>
<stop offset="1" stop-color="#01D1FF"/>
</linearGradient>
<clipPath id="clip0_165_85">
<rect width="101" height="270" fill="white"/>
</clipPath>
</defs>
</svg>
