<svg width="101" height="279" viewBox="0 0 101 279" fill="none" xmlns="http://www.w3.org/2000/svg">
<mask id="mask0_181_147" style="mask-type:luminance" maskUnits="userSpaceOnUse" x="19" y="0" width="82" height="279">
<path d="M101 0H19V279H101V0Z" fill="white"/>
</mask>
<g mask="url(#mask0_181_147)">
<path d="M100.222 271.069C100.539 271.412 100.539 271.967 100.222 272.309L95.055 277.893C94.738 278.237 94.224 278.237 93.9068 277.893C93.5898 277.55 93.5898 276.996 93.9068 276.652L98.4996 271.689L93.9068 266.727C93.5898 266.384 93.5898 265.828 93.9068 265.485C94.224 265.143 94.738 265.143 95.055 265.485L100.222 271.069ZM99.6477 1.75569H98.5737V0.000976562H99.6477V1.75569ZM96.4255 1.75569H94.2775V0.000976562H96.4255V1.75569ZM92.1294 1.75569H89.9812V0.000976562H92.1294V1.75569ZM87.8332 1.75569H85.6851V0.000976562H87.8332V1.75569ZM83.5369 1.75569H81.3888V0.000976562H83.5369V1.75569ZM79.2408 1.75569H77.0926V0.000976562H79.2408V1.75569ZM74.9445 1.75569H72.7965V0.000976562H74.9445V1.75569ZM70.6483 1.75569H68.5002V0.000976562H70.6483V1.75569ZM66.3522 1.75569H64.204V0.000976562H66.3522V1.75569ZM62.0559 1.75569H59.9078V0.000976562H62.0559V1.75569ZM57.7598 1.75569H55.6116V0.000976562H57.7598V1.75569ZM53.4635 1.75569H51.3155V0.000976562H53.4635V1.75569ZM49.1673 1.75569H47.0192V0.000976562H49.1673V1.75569ZM44.8712 1.75569H42.723V0.000976562H44.8712V1.75569ZM40.5749 1.75569H38.4268V0.000976562H40.5749V1.75569ZM36.2787 1.75569H34.1306V0.000976562H36.2787V1.75569ZM31.9825 1.75569H30.9084V0.000976562H31.9825V1.75569ZM30.9084 1.75569C30.5766 1.75569 30.2488 1.77311 29.9256 1.80709L29.7684 0.0606252C30.1437 0.021153 30.524 0.000976562 30.9084 0.000976562V1.75569ZM28.0004 2.21884C27.3676 2.42603 26.7612 2.69917 26.188 3.03096L25.4213 1.48415C26.0878 1.09838 26.7932 0.780605 27.5296 0.539502L28.0004 2.21884ZM24.5564 4.21123C24.0494 4.66135 23.5841 5.16425 23.1675 5.71209L21.9129 4.59816C22.3966 3.962 22.9369 3.37811 23.5256 2.85544L24.5564 4.21123ZM22.0753 7.47526C21.7683 8.09471 21.5156 8.75004 21.3238 9.43387L19.7698 8.92509C19.9929 8.12932 20.287 7.36699 20.644 6.64676L22.0753 7.47526ZM20.9428 11.5143C20.9114 11.8635 20.8952 12.2178 20.8952 12.5765H19.2715C19.2715 12.161 19.2902 11.75 19.3267 11.3444L20.9428 11.5143ZM20.8952 12.5765V13.7436H19.2715V12.5765H20.8952ZM20.8952 16.0775V18.4117H19.2715V16.0775H20.8952ZM20.8952 20.7458V23.0799H19.2715V20.7458H20.8952ZM20.8952 25.414V27.7481H19.2715V25.414H20.8952ZM20.8952 30.0822V32.4164H19.2715V30.0822H20.8952ZM20.8952 34.7505V37.0845H19.2715V34.7505H20.8952ZM20.8952 39.4187V41.7528H19.2715V39.4187H20.8952ZM20.8952 44.0869V46.421H19.2715V44.0869H20.8952ZM20.8952 48.7551V51.0891H19.2715V48.7551H20.8952ZM20.8952 53.4233V55.7573H19.2715V53.4233H20.8952ZM20.8952 58.0914V60.4256H19.2715V58.0914H20.8952ZM20.8952 62.7597V65.0938H19.2715V62.7597H20.8952ZM20.8952 67.4279V69.762H19.2715V67.4279H20.8952ZM20.8952 72.0961V74.4303H19.2715V72.0961H20.8952ZM20.8952 76.7643V79.0984H19.2715V76.7643H20.8952ZM20.8952 81.4326V83.7667H19.2715V81.4326H20.8952ZM20.8952 86.1008V88.4345H19.2715V86.1008H20.8952ZM20.8952 90.7693V93.1029H19.2715V90.7693H20.8952ZM20.8952 95.4367V97.7714H19.2715V95.4367H20.8952ZM20.8952 100.105V102.44H19.2715V100.105H20.8952ZM20.8952 104.774V107.107H19.2715V104.774H20.8952ZM20.8952 109.442V111.776H19.2715V109.442H20.8952ZM20.8952 114.109V116.444H19.2715V114.109H20.8952ZM20.8952 118.778V121.113H19.2715V118.778H20.8952ZM20.8952 123.446V125.781H19.2715V123.446H20.8952ZM20.8952 128.115V130.448H19.2715V128.115H20.8952ZM20.8952 132.783V135.117H19.2715V132.783H20.8952ZM20.8952 137.451V139.785H19.2715V137.451H20.8952ZM20.8952 142.12V144.453H19.2715V142.12H20.8952ZM20.8952 146.787V149.122H19.2715V146.787H20.8952ZM20.8952 151.455V153.79H19.2715V151.455H20.8952ZM20.8952 156.123V158.459H19.2715V156.123H20.8952ZM20.8952 160.792V163.126H19.2715V160.792H20.8952ZM20.8952 165.461V167.794H19.2715V165.461H20.8952ZM20.8952 170.128V172.463H19.2715V170.128H20.8952ZM20.8952 174.797V177.131H19.2715V174.797H20.8952ZM20.8952 179.464V181.799H19.2715V179.464H20.8952ZM20.8952 184.133V186.467H19.2715V184.133H20.8952ZM20.8952 188.801V191.136H19.2715V188.801H20.8952ZM20.8952 193.469V195.803H19.2715V193.469H20.8952ZM20.8952 198.138V200.471H19.2715V198.138H20.8952ZM20.8952 202.806V205.14H19.2715V202.806H20.8952ZM20.8952 207.474V209.808H19.2715V207.474H20.8952ZM20.8952 212.143V214.476H19.2715V212.143H20.8952ZM20.8952 216.81V219.144H19.2715V216.81H20.8952ZM20.8952 221.479V223.813H19.2715V221.479H20.8952ZM20.8952 226.146V228.482H19.2715V226.146H20.8952ZM20.8952 230.815V233.149H19.2715V230.815H20.8952ZM20.8952 235.483V237.817H19.2715V235.483H20.8952ZM20.8952 240.152V242.485H19.2715V240.152H20.8952ZM20.8952 244.82V247.154H19.2715V244.82H20.8952ZM20.8952 249.488V251.821H19.2715V249.488H20.8952ZM20.8952 254.156V256.49H19.2715V254.156H20.8952ZM20.8952 258.823V259.991H19.2715V258.823H20.8952ZM20.8952 259.991C20.8952 260.351 20.9114 260.705 20.9428 261.054L19.3267 261.224C19.2902 260.818 19.2715 260.407 19.2715 259.991H20.8952ZM21.3238 263.134C21.5156 263.817 21.7683 264.473 22.0753 265.093L20.644 265.921C20.287 265.201 19.9929 264.438 19.7698 263.643L21.3238 263.134ZM23.1675 266.855C23.5841 267.403 24.0494 267.907 24.5564 268.357L23.5256 269.713C22.9369 269.19 22.3966 268.606 21.9129 267.97L23.1675 266.855ZM26.188 269.537C26.7612 269.869 27.3676 270.141 28.0004 270.349L27.5296 272.028C26.7932 271.788 26.0878 271.47 25.4213 271.084L26.188 269.537ZM29.9256 270.761C30.2488 270.796 30.5766 270.812 30.9084 270.812V272.567C30.524 272.567 30.1436 272.546 29.7684 272.507L29.9256 270.761ZM30.9084 270.812H31.9825V272.567H30.9084V270.812ZM34.1306 270.812H36.2787V272.567H34.1306V270.812ZM38.4268 270.812H40.5749V272.567H38.4268V270.812ZM42.723 270.812H44.8711V272.567H42.723V270.812ZM47.0192 270.812H49.1673V272.567H47.0192V270.812ZM51.3154 270.812H53.4635V272.567H51.3154V270.812ZM55.6116 270.812H57.7597V272.567H55.6116V270.812ZM59.9078 270.812H62.0559V272.567H59.9078V270.812ZM64.204 270.812H66.3522V272.567H64.204V270.812ZM68.5002 270.812H70.6483V272.567H68.5002V270.812ZM72.7965 270.812H74.9445V272.567H72.7965V270.812ZM77.0926 270.812H79.2408V272.567H77.0926V270.812ZM81.3888 270.812H83.5369V272.567H81.3888V270.812ZM85.6851 270.812H87.8332V272.567H85.6851V270.812ZM89.9812 270.812H92.1294V272.567H89.9812V270.812ZM94.2775 270.812H96.4255V272.567H94.2775V270.812ZM98.5737 270.812H99.6477V272.567H98.5737V270.812ZM100.222 271.069C100.539 271.412 100.539 271.967 100.222 272.309L95.055 277.893C94.738 278.237 94.224 278.237 93.9068 277.893C93.5898 277.55 93.5898 276.996 93.9068 276.652L98.4996 271.689L93.9068 266.727C93.5898 266.384 93.5898 265.828 93.9068 265.485C94.224 265.143 94.738 265.143 95.055 265.485L100.222 271.069ZM99.6477 1.75569H98.5737V0.000976562H99.6477V1.75569ZM96.4255 1.75569H94.2775V0.000976562H96.4255V1.75569ZM92.1294 1.75569H89.9812V0.000976562H92.1294V1.75569ZM87.8332 1.75569H85.6851V0.000976562H87.8332V1.75569ZM83.5369 1.75569H81.3888V0.000976562H83.5369V1.75569ZM79.2408 1.75569H77.0926V0.000976562H79.2408V1.75569ZM74.9445 1.75569H72.7965V0.000976562H74.9445V1.75569ZM70.6483 1.75569H68.5002V0.000976562H70.6483V1.75569ZM66.3522 1.75569H64.204V0.000976562H66.3522V1.75569ZM62.0559 1.75569H59.9078V0.000976562H62.0559V1.75569ZM57.7598 1.75569H55.6116V0.000976562H57.7598V1.75569ZM53.4635 1.75569H51.3155V0.000976562H53.4635V1.75569ZM49.1673 1.75569H47.0192V0.000976562H49.1673V1.75569ZM44.8712 1.75569H42.723V0.000976562H44.8712V1.75569ZM40.5749 1.75569H38.4268V0.000976562H40.5749V1.75569ZM36.2787 1.75569H34.1306V0.000976562H36.2787V1.75569ZM31.9825 1.75569H30.9084V0.000976562H31.9825V1.75569ZM30.9084 1.75569C30.5766 1.75569 30.2488 1.77311 29.9256 1.80709L29.7684 0.0606252C30.1437 0.021153 30.524 0.000976562 30.9084 0.000976562V1.75569ZM28.0004 2.21884C27.3676 2.42603 26.7612 2.69917 26.188 3.03096L25.4213 1.48415C26.0878 1.09838 26.7932 0.780605 27.5296 0.539502L28.0004 2.21884ZM24.5564 4.21123C24.0494 4.66135 23.5841 5.16425 23.1675 5.71209L21.9129 4.59816C22.3966 3.962 22.9369 3.37811 23.5256 2.85544L24.5564 4.21123ZM22.0753 7.47526C21.7683 8.09471 21.5156 8.75004 21.3238 9.43387L19.7698 8.92509C19.9929 8.12932 20.287 7.36699 20.644 6.64676L22.0753 7.47526ZM20.9428 11.5143C20.9114 11.8635 20.8952 12.2178 20.8952 12.5765H19.2715C19.2715 12.161 19.2902 11.75 19.3267 11.3444L20.9428 11.5143ZM20.8952 12.5765V13.7436H19.2715V12.5765H20.8952ZM20.8952 16.0775V18.4117H19.2715V16.0775H20.8952ZM20.8952 20.7458V23.0799H19.2715V20.7458H20.8952ZM20.8952 25.414V27.7481H19.2715V25.414H20.8952ZM20.8952 30.0822V32.4164H19.2715V30.0822H20.8952ZM20.8952 34.7505V37.0845H19.2715V34.7505H20.8952ZM20.8952 39.4187V41.7528H19.2715V39.4187H20.8952ZM20.8952 44.0869V46.421H19.2715V44.0869H20.8952ZM20.8952 48.7551V51.0891H19.2715V48.7551H20.8952ZM20.8952 53.4233V55.7573H19.2715V53.4233H20.8952ZM20.8952 58.0914V60.4256H19.2715V58.0914H20.8952ZM20.8952 62.7597V65.0938H19.2715V62.7597H20.8952ZM20.8952 67.4279V69.762H19.2715V67.4279H20.8952ZM20.8952 72.0961V74.4303H19.2715V72.0961H20.8952ZM20.8952 76.7643V79.0984H19.2715V76.7643H20.8952ZM20.8952 81.4326V83.7667H19.2715V81.4326H20.8952ZM20.8952 86.1008V88.4345H19.2715V86.1008H20.8952ZM20.8952 90.7693V93.1029H19.2715V90.7693H20.8952ZM20.8952 95.4367V97.7714H19.2715V95.4367H20.8952ZM20.8952 100.105V102.44H19.2715V100.105H20.8952ZM20.8952 104.774V107.107H19.2715V104.774H20.8952ZM20.8952 109.442V111.776H19.2715V109.442H20.8952ZM20.8952 114.109V116.444H19.2715V114.109H20.8952ZM20.8952 118.778V121.113H19.2715V118.778H20.8952ZM20.8952 123.446V125.781H19.2715V123.446H20.8952ZM20.8952 128.115V130.448H19.2715V128.115H20.8952ZM20.8952 132.783V135.117H19.2715V132.783H20.8952ZM20.8952 137.451V139.785H19.2715V137.451H20.8952ZM20.8952 142.12V144.453H19.2715V142.12H20.8952ZM20.8952 146.787V149.122H19.2715V146.787H20.8952ZM20.8952 151.455V153.79H19.2715V151.455H20.8952ZM20.8952 156.123V158.459H19.2715V156.123H20.8952ZM20.8952 160.792V163.126H19.2715V160.792H20.8952ZM20.8952 165.461V167.794H19.2715V165.461H20.8952ZM20.8952 170.128V172.463H19.2715V170.128H20.8952ZM20.8952 174.797V177.131H19.2715V174.797H20.8952ZM20.8952 179.464V181.799H19.2715V179.464H20.8952ZM20.8952 184.133V186.467H19.2715V184.133H20.8952ZM20.8952 188.801V191.136H19.2715V188.801H20.8952ZM20.8952 193.469V195.803H19.2715V193.469H20.8952ZM20.8952 198.138V200.471H19.2715V198.138H20.8952ZM20.8952 202.806V205.14H19.2715V202.806H20.8952ZM20.8952 207.474V209.808H19.2715V207.474H20.8952ZM20.8952 212.143V214.476H19.2715V212.143H20.8952ZM20.8952 216.81V219.144H19.2715V216.81H20.8952ZM20.8952 221.479V223.813H19.2715V221.479H20.8952ZM20.8952 226.146V228.482H19.2715V226.146H20.8952ZM20.8952 230.815V233.149H19.2715V230.815H20.8952ZM20.8952 235.483V237.817H19.2715V235.483H20.8952ZM20.8952 240.152V242.485H19.2715V240.152H20.8952ZM20.8952 244.82V247.154H19.2715V244.82H20.8952ZM20.8952 249.488V251.821H19.2715V249.488H20.8952ZM20.8952 254.156V256.49H19.2715V254.156H20.8952ZM20.8952 258.823V259.991H19.2715V258.823H20.8952ZM20.8952 259.991C20.8952 260.351 20.9114 260.705 20.9428 261.054L19.3267 261.224C19.2902 260.818 19.2715 260.407 19.2715 259.991H20.8952ZM21.3238 263.134C21.5156 263.817 21.7683 264.473 22.0753 265.093L20.644 265.921C20.287 265.201 19.9929 264.438 19.7698 263.643L21.3238 263.134ZM23.1675 266.855C23.5841 267.403 24.0494 267.907 24.5564 268.357L23.5256 269.713C22.9369 269.19 22.3966 268.606 21.9129 267.97L23.1675 266.855ZM26.188 269.537C26.7612 269.869 27.3676 270.141 28.0004 270.349L27.5296 272.028C26.7932 271.788 26.0878 271.47 25.4213 271.084L26.188 269.537ZM29.9256 270.761C30.2488 270.796 30.5766 270.812 30.9084 270.812V272.567C30.524 272.567 30.1436 272.546 29.7684 272.507L29.9256 270.761ZM30.9084 270.812H31.9825V272.567H30.9084V270.812ZM34.1306 270.812H36.2787V272.567H34.1306V270.812ZM38.4268 270.812H40.5749V272.567H38.4268V270.812ZM42.723 270.812H44.8711V272.567H42.723V270.812ZM47.0192 270.812H49.1673V272.567H47.0192V270.812ZM51.3154 270.812H53.4635V272.567H51.3154V270.812ZM55.6116 270.812H57.7597V272.567H55.6116V270.812ZM59.9078 270.812H62.0559V272.567H59.9078V270.812ZM64.204 270.812H66.3522V272.567H64.204V270.812ZM68.5002 270.812H70.6483V272.567H68.5002V270.812ZM72.7965 270.812H74.9445V272.567H72.7965V270.812ZM77.0926 270.812H79.2408V272.567H77.0926V270.812ZM81.3888 270.812H83.5369V272.567H81.3888V270.812ZM85.6851 270.812H87.8332V272.567H85.6851V270.812ZM89.9812 270.812H92.1294V272.567H89.9812V270.812ZM94.2775 270.812H96.4255V272.567H94.2775V270.812ZM98.5737 270.812H99.6477V272.567H98.5737V270.812Z" fill="url(#paint0_linear_181_147)"/>
</g>
<defs>
<linearGradient id="paint0_linear_181_147" x1="59.1455" y1="16.3702" x2="59.1455" y2="271.69" gradientUnits="userSpaceOnUse">
<stop stop-color="#3284FF"/>
<stop offset="1" stop-color="#01D1FF"/>
</linearGradient>
</defs>
</svg>
