<svg width="114" height="357" viewBox="0 0 114 357" fill="none" xmlns="http://www.w3.org/2000/svg">
<path d="M113.045 347.704C113.485 348.144 113.485 348.856 113.045 349.296L105.886 356.455C105.447 356.894 104.734 356.894 104.295 356.455C103.856 356.016 103.856 355.303 104.295 354.864L110.659 348.5L104.295 342.136C103.856 341.697 103.856 340.984 104.295 340.545C104.734 340.106 105.447 340.106 105.886 340.545L113.045 347.704ZM112.25 2.375H110.762V0.125H112.25V2.375ZM107.785 2.375H104.809V0.125H107.785V2.375ZM101.832 2.375H98.8555V0.125H101.832V2.375ZM95.8789 2.375H92.9023V0.125H95.8789V2.375ZM89.9258 2.375H86.9492V0.125H89.9258V2.375ZM83.9727 2.375H80.9961V0.125H83.9727V2.375ZM78.0195 2.375H75.043V0.125H78.0195V2.375ZM72.0664 2.375H69.0898V0.125H72.0664V2.375ZM66.1133 2.375H63.1367V0.125H66.1133V2.375ZM60.1602 2.375H57.1836V0.125H60.1602V2.375ZM54.207 2.375H51.2305V0.125H54.207V2.375ZM48.2539 2.375H45.2773V0.125H48.2539V2.375ZM42.3008 2.375H39.3242V0.125H42.3008V2.375ZM36.3477 2.375H33.3711V0.125H36.3477V2.375ZM30.3945 2.375H27.418V0.125H30.3945V2.375ZM24.4414 2.375H21.4648V0.125H24.4414V2.375ZM18.4883 2.375H17V0.125H18.4883V2.375ZM17 2.375C16.5402 2.375 16.0859 2.39733 15.6381 2.4409L15.4202 0.201485C15.9403 0.150871 16.4673 0.125 17 0.125V2.375ZM12.9705 2.96887C12.0936 3.23454 11.2533 3.58478 10.459 4.01022L9.39661 2.02681C10.3201 1.53216 11.2976 1.12469 12.3181 0.815529L12.9705 2.96887ZM8.19814 5.52364C7.49565 6.10081 6.85081 6.74565 6.27364 7.44813L4.53516 6.01977C5.20536 5.20407 5.95406 4.45536 6.76978 3.78516L8.19814 5.52364ZM4.76022 9.70897C4.33478 10.5033 3.98454 11.3436 3.71887 12.2205L1.56553 11.5681C1.87469 10.5476 2.28217 9.57013 2.77681 8.64662L4.76022 9.70897ZM3.1909 14.8881C3.14733 15.3359 3.125 15.7902 3.125 16.25H0.875C0.875 15.7173 0.900871 15.1903 0.951485 14.6702L3.1909 14.8881ZM3.125 16.25V17.7465H0.875V16.25H3.125ZM3.125 20.7394V23.7323H0.875V20.7394H3.125ZM3.125 26.7252V29.7182H0.875V26.7252H3.125ZM3.125 32.7111V35.704H0.875V32.7111H3.125ZM3.125 38.6969V41.6899H0.875V38.6969H3.125ZM3.125 44.6828V47.6757H0.875V44.6828H3.125ZM3.125 50.6686V53.6616H0.875V50.6686H3.125ZM3.125 56.6545V59.6474H0.875V56.6545H3.125ZM3.125 62.6403V65.6332H0.875V62.6403H3.125ZM3.125 68.6262V71.6191H0.875V68.6262H3.125ZM3.125 74.612V77.6049H0.875V74.612H3.125ZM3.125 80.5979V83.5908H0.875V80.5979H3.125ZM3.125 86.5837V89.5767H0.875V86.5837H3.125ZM3.125 92.5696V95.5625H0.875V92.5696H3.125ZM3.125 98.5554V101.548H0.875V98.5554H3.125ZM3.125 104.541V107.534H0.875V104.541H3.125ZM3.125 110.527V113.52H0.875V110.527H3.125ZM3.125 116.513V119.506H0.875V116.513H3.125ZM3.125 122.499V125.492H0.875V122.499H3.125ZM3.125 128.485V131.478H0.875V128.485H3.125ZM3.125 134.471V137.464H0.875V134.471H3.125ZM3.125 140.456V143.449H0.875V140.456H3.125ZM3.125 146.442V149.435H0.875V146.442H3.125ZM3.125 152.428V155.421H0.875V152.428H3.125ZM3.125 158.414V161.407H0.875V158.414H3.125ZM3.125 164.4V167.393H0.875V164.4H3.125ZM3.125 170.386V173.379H0.875V170.386H3.125ZM3.125 176.371V179.364H0.875V176.371H3.125ZM3.125 182.357V185.35H0.875V182.357H3.125ZM3.125 188.343V191.336H0.875V188.343H3.125ZM3.125 194.329V197.322H0.875V194.329H3.125ZM3.125 200.315V203.308H0.875V200.315H3.125ZM3.125 206.301V209.294H0.875V206.301H3.125ZM3.125 212.287V215.279H0.875V212.287H3.125ZM3.125 218.272V221.265H0.875V218.272H3.125ZM3.125 224.258V227.251H0.875V224.258H3.125ZM3.125 230.244V233.237H0.875V230.244H3.125ZM3.125 236.23V239.223H0.875V236.23H3.125ZM3.125 242.216V245.209H0.875V242.216H3.125ZM3.125 248.202V251.194H0.875V248.202H3.125ZM3.125 254.187V257.18H0.875V254.187H3.125ZM3.125 260.173V263.166H0.875V260.173H3.125ZM3.125 266.159V269.152H0.875V266.159H3.125ZM3.125 272.145V275.138H0.875V272.145H3.125ZM3.125 278.131V281.124H0.875V278.131H3.125ZM3.125 284.117V287.11H0.875V284.117H3.125ZM3.125 290.102V293.095H0.875V290.102H3.125ZM3.125 296.088V299.081H0.875V296.088H3.125ZM3.125 302.074V305.067H0.875V302.074H3.125ZM3.125 308.06V311.053H0.875V308.06H3.125ZM3.125 314.046V317.039H0.875V314.046H3.125ZM3.125 320.032V323.025H0.875V320.032H3.125ZM3.125 326.017V329.01H0.875V326.017H3.125ZM3.125 332.003V333.5H0.875V332.003H3.125ZM3.125 333.5C3.125 333.96 3.14733 334.414 3.1909 334.862L0.951485 335.08C0.900871 334.56 0.875 334.033 0.875 333.5H3.125ZM3.71887 337.53C3.98454 338.406 4.33478 339.247 4.76022 340.041L2.77681 341.103C2.28217 340.18 1.87469 339.202 1.56553 338.182L3.71887 337.53ZM6.27364 342.302C6.85081 343.004 7.49565 343.649 8.19814 344.226L6.76978 345.965C5.95406 345.295 5.20536 344.546 4.53516 343.73L6.27364 342.302ZM10.459 345.74C11.2533 346.165 12.0936 346.515 12.9705 346.781L12.3181 348.934C11.2976 348.625 10.3201 348.218 9.39661 347.723L10.459 345.74ZM15.6381 347.309C16.0859 347.353 16.5402 347.375 17 347.375V349.625C16.4673 349.625 15.9403 349.599 15.4202 349.549L15.6381 347.309ZM17 347.375H18.4883V349.625H17V347.375ZM21.4648 347.375H24.4414V349.625H21.4648V347.375ZM27.418 347.375H30.3945V349.625H27.418V347.375ZM33.3711 347.375H36.3477V349.625H33.3711V347.375ZM39.3242 347.375H42.3008V349.625H39.3242V347.375ZM45.2773 347.375H48.2539V349.625H45.2773V347.375ZM51.2305 347.375H54.207V349.625H51.2305V347.375ZM57.1836 347.375H60.1602V349.625H57.1836V347.375ZM63.1367 347.375H66.1133V349.625H63.1367V347.375ZM69.0898 347.375H72.0664V349.625H69.0898V347.375ZM75.043 347.375H78.0195V349.625H75.043V347.375ZM80.9961 347.375H83.9727V349.625H80.9961V347.375ZM86.9492 347.375H89.9258V349.625H86.9492V347.375ZM92.9023 347.375H95.8789V349.625H92.9023V347.375ZM98.8555 347.375H101.832V349.625H98.8555V347.375ZM104.809 347.375H107.785V349.625H104.809V347.375ZM110.762 347.375H112.25V349.625H110.762V347.375ZM113.045 347.704C113.485 348.144 113.485 348.856 113.045 349.296L105.886 356.455C105.447 356.894 104.734 356.894 104.295 356.455C103.856 356.016 103.856 355.303 104.295 354.864L110.659 348.5L104.295 342.136C103.856 341.697 103.856 340.984 104.295 340.545C104.734 340.106 105.447 340.106 105.886 340.545L113.045 347.704ZM112.25 2.375H110.762V0.125H112.25V2.375ZM107.785 2.375H104.809V0.125H107.785V2.375ZM101.832 2.375H98.8555V0.125H101.832V2.375ZM95.8789 2.375H92.9023V0.125H95.8789V2.375ZM89.9258 2.375H86.9492V0.125H89.9258V2.375ZM83.9727 2.375H80.9961V0.125H83.9727V2.375ZM78.0195 2.375H75.043V0.125H78.0195V2.375ZM72.0664 2.375H69.0898V0.125H72.0664V2.375ZM66.1133 2.375H63.1367V0.125H66.1133V2.375ZM60.1602 2.375H57.1836V0.125H60.1602V2.375ZM54.207 2.375H51.2305V0.125H54.207V2.375ZM48.2539 2.375H45.2773V0.125H48.2539V2.375ZM42.3008 2.375H39.3242V0.125H42.3008V2.375ZM36.3477 2.375H33.3711V0.125H36.3477V2.375ZM30.3945 2.375H27.418V0.125H30.3945V2.375ZM24.4414 2.375H21.4648V0.125H24.4414V2.375ZM18.4883 2.375H17V0.125H18.4883V2.375ZM17 2.375C16.5402 2.375 16.0859 2.39733 15.6381 2.4409L15.4202 0.201485C15.9403 0.150871 16.4673 0.125 17 0.125V2.375ZM12.9705 2.96887C12.0936 3.23454 11.2533 3.58478 10.459 4.01022L9.39661 2.02681C10.3201 1.53216 11.2976 1.12469 12.3181 0.815529L12.9705 2.96887ZM8.19814 5.52364C7.49565 6.10081 6.85081 6.74565 6.27364 7.44813L4.53516 6.01977C5.20536 5.20407 5.95406 4.45536 6.76978 3.78516L8.19814 5.52364ZM4.76022 9.70897C4.33478 10.5033 3.98454 11.3436 3.71887 12.2205L1.56553 11.5681C1.87469 10.5476 2.28217 9.57013 2.77681 8.64662L4.76022 9.70897ZM3.1909 14.8881C3.14733 15.3359 3.125 15.7902 3.125 16.25H0.875C0.875 15.7173 0.900871 15.1903 0.951485 14.6702L3.1909 14.8881ZM3.125 16.25V17.7465H0.875V16.25H3.125ZM3.125 20.7394V23.7323H0.875V20.7394H3.125ZM3.125 26.7252V29.7182H0.875V26.7252H3.125ZM3.125 32.7111V35.704H0.875V32.7111H3.125ZM3.125 38.6969V41.6899H0.875V38.6969H3.125ZM3.125 44.6828V47.6757H0.875V44.6828H3.125ZM3.125 50.6686V53.6616H0.875V50.6686H3.125ZM3.125 56.6545V59.6474H0.875V56.6545H3.125ZM3.125 62.6403V65.6332H0.875V62.6403H3.125ZM3.125 68.6262V71.6191H0.875V68.6262H3.125ZM3.125 74.612V77.6049H0.875V74.612H3.125ZM3.125 80.5979V83.5908H0.875V80.5979H3.125ZM3.125 86.5837V89.5767H0.875V86.5837H3.125ZM3.125 92.5696V95.5625H0.875V92.5696H3.125ZM3.125 98.5554V101.548H0.875V98.5554H3.125ZM3.125 104.541V107.534H0.875V104.541H3.125ZM3.125 110.527V113.52H0.875V110.527H3.125ZM3.125 116.513V119.506H0.875V116.513H3.125ZM3.125 122.499V125.492H0.875V122.499H3.125ZM3.125 128.485V131.478H0.875V128.485H3.125ZM3.125 134.471V137.464H0.875V134.471H3.125ZM3.125 140.456V143.449H0.875V140.456H3.125ZM3.125 146.442V149.435H0.875V146.442H3.125ZM3.125 152.428V155.421H0.875V152.428H3.125ZM3.125 158.414V161.407H0.875V158.414H3.125ZM3.125 164.4V167.393H0.875V164.4H3.125ZM3.125 170.386V173.379H0.875V170.386H3.125ZM3.125 176.371V179.364H0.875V176.371H3.125ZM3.125 182.357V185.35H0.875V182.357H3.125ZM3.125 188.343V191.336H0.875V188.343H3.125ZM3.125 194.329V197.322H0.875V194.329H3.125ZM3.125 200.315V203.308H0.875V200.315H3.125ZM3.125 206.301V209.294H0.875V206.301H3.125ZM3.125 212.287V215.279H0.875V212.287H3.125ZM3.125 218.272V221.265H0.875V218.272H3.125ZM3.125 224.258V227.251H0.875V224.258H3.125ZM3.125 230.244V233.237H0.875V230.244H3.125ZM3.125 236.23V239.223H0.875V236.23H3.125ZM3.125 242.216V245.209H0.875V242.216H3.125ZM3.125 248.202V251.194H0.875V248.202H3.125ZM3.125 254.187V257.18H0.875V254.187H3.125ZM3.125 260.173V263.166H0.875V260.173H3.125ZM3.125 266.159V269.152H0.875V266.159H3.125ZM3.125 272.145V275.138H0.875V272.145H3.125ZM3.125 278.131V281.124H0.875V278.131H3.125ZM3.125 284.117V287.11H0.875V284.117H3.125ZM3.125 290.102V293.095H0.875V290.102H3.125ZM3.125 296.088V299.081H0.875V296.088H3.125ZM3.125 302.074V305.067H0.875V302.074H3.125ZM3.125 308.06V311.053H0.875V308.06H3.125ZM3.125 314.046V317.039H0.875V314.046H3.125ZM3.125 320.032V323.025H0.875V320.032H3.125ZM3.125 326.017V329.01H0.875V326.017H3.125ZM3.125 332.003V333.5H0.875V332.003H3.125ZM3.125 333.5C3.125 333.96 3.14733 334.414 3.1909 334.862L0.951485 335.08C0.900871 334.56 0.875 334.033 0.875 333.5H3.125ZM3.71887 337.53C3.98454 338.406 4.33478 339.247 4.76022 340.041L2.77681 341.103C2.28217 340.18 1.87469 339.202 1.56553 338.182L3.71887 337.53ZM6.27364 342.302C6.85081 343.004 7.49565 343.649 8.19814 344.226L6.76978 345.965C5.95406 345.295 5.20536 344.546 4.53516 343.73L6.27364 342.302ZM10.459 345.74C11.2533 346.165 12.0936 346.515 12.9705 346.781L12.3181 348.934C11.2976 348.625 10.3201 348.218 9.39661 347.723L10.459 345.74ZM15.6381 347.309C16.0859 347.353 16.5402 347.375 17 347.375V349.625C16.4673 349.625 15.9403 349.599 15.4202 349.549L15.6381 347.309ZM17 347.375H18.4883V349.625H17V347.375ZM21.4648 347.375H24.4414V349.625H21.4648V347.375ZM27.418 347.375H30.3945V349.625H27.418V347.375ZM33.3711 347.375H36.3477V349.625H33.3711V347.375ZM39.3242 347.375H42.3008V349.625H39.3242V347.375ZM45.2773 347.375H48.2539V349.625H45.2773V347.375ZM51.2305 347.375H54.207V349.625H51.2305V347.375ZM57.1836 347.375H60.1602V349.625H57.1836V347.375ZM63.1367 347.375H66.1133V349.625H63.1367V347.375ZM69.0898 347.375H72.0664V349.625H69.0898V347.375ZM75.043 347.375H78.0195V349.625H75.043V347.375ZM80.9961 347.375H83.9727V349.625H80.9961V347.375ZM86.9492 347.375H89.9258V349.625H86.9492V347.375ZM92.9023 347.375H95.8789V349.625H92.9023V347.375ZM98.8555 347.375H101.832V349.625H98.8555V347.375ZM104.809 347.375H107.785V349.625H104.809V347.375ZM110.762 347.375H112.25V349.625H110.762V347.375Z" fill="url(#paint0_linear_147_791)"/>
<defs>
<linearGradient id="paint0_linear_147_791" x1="56.1273" y1="21.1145" x2="56.1273" y2="348.501" gradientUnits="userSpaceOnUse">
<stop stop-color="#3284FF"/>
<stop offset="1" stop-color="#01D1FF"/>
</linearGradient>
</defs>
</svg>
