<svg width="151" height="477" viewBox="0 0 151 477" fill="none" xmlns="http://www.w3.org/2000/svg">
<path d="M150.061 463.939C150.646 464.525 150.646 465.475 150.061 466.061L140.515 475.607C139.929 476.192 138.979 476.192 138.393 475.607C137.808 475.021 137.808 474.071 138.393 473.485L146.879 465L138.393 456.515C137.808 455.929 137.808 454.979 138.393 454.393C138.979 453.808 139.929 453.808 140.515 454.393L150.061 463.939ZM149 3.5H147.016V0.5H149V3.5ZM143.047 3.5H139.078V0.5H143.047V3.5ZM135.109 3.5H131.141V0.5H135.109V3.5ZM127.172 3.5H123.203V0.5H127.172V3.5ZM119.234 3.5H115.266V0.5H119.234V3.5ZM111.297 3.5H107.328V0.5H111.297V3.5ZM103.359 3.5H99.3906V0.5H103.359V3.5ZM95.4219 3.5H91.4531V0.5H95.4219V3.5ZM87.4844 3.5H83.5156V0.5H87.4844V3.5ZM79.5469 3.5H75.5781V0.5H79.5469V3.5ZM71.6094 3.5H67.6406V0.5H71.6094V3.5ZM63.6719 3.5H59.7031V0.5H63.6719V3.5ZM55.7344 3.5H51.7656V0.5H55.7344V3.5ZM47.7969 3.5H43.8281V0.5H47.7969V3.5ZM39.8594 3.5H35.8906V0.5H39.8594V3.5ZM31.9219 3.5H27.9531V0.5H31.9219V3.5ZM23.9844 3.5H22V0.5H23.9844V3.5ZM22 3.5C21.3869 3.5 20.7812 3.52977 20.1842 3.58787L19.8936 0.60198C20.587 0.534495 21.2897 0.5 22 0.5V3.5ZM16.6273 4.29182C15.4581 4.64605 14.3377 5.11304 13.2786 5.68029L11.8622 3.03575C13.0935 2.37622 14.3969 1.83292 15.7574 1.4207L16.6273 4.29182ZM10.2642 7.69818C9.32753 8.46775 8.46774 9.32753 7.69818 10.2642L5.38022 8.3597C6.27382 7.27209 7.27208 6.27382 8.3597 5.38022L10.2642 7.69818ZM5.6803 13.2786C5.11304 14.3377 4.64606 15.4581 4.29182 16.6273L1.4207 15.7574C1.83292 14.3968 2.37622 13.0935 3.03575 11.8622L5.6803 13.2786ZM3.58788 20.1842C3.52977 20.7812 3.5 21.3869 3.5 22H0.5C0.5 21.2897 0.5345 20.587 0.601974 19.8936L3.58788 20.1842ZM3.5 22V23.9953H0.5V22H3.5ZM3.5 27.9858V31.9764H0.5V27.9858H3.5ZM3.5 35.967V39.9575H0.5V35.967H3.5ZM3.5 43.9481V47.9387H0.5V43.9481H3.5ZM3.5 51.9292V55.9198H0.5V51.9292H3.5ZM3.5 59.9104V63.9009H0.5V59.9104H3.5ZM3.5 67.8915V71.8821H0.5V67.8915H3.5ZM3.5 75.8726V79.8632H0.5V75.8726H3.5ZM3.5 83.8538V87.8443H0.5V83.8538H3.5ZM3.5 91.8349V95.8255H0.5V91.8349H3.5ZM3.5 99.816V103.807H0.5V99.816H3.5ZM3.5 107.797V111.788H0.5V107.797H3.5ZM3.5 115.778V119.769H0.5V115.778H3.5ZM3.5 123.759V127.75H0.5V123.759H3.5ZM3.5 131.741V135.731H0.5V131.741H3.5ZM3.5 139.722V143.712H0.5V139.722H3.5ZM3.5 147.703V151.693H0.5V147.703H3.5ZM3.5 155.684V159.674H0.5V155.684H3.5ZM3.5 163.665V167.656H0.5V163.665H3.5ZM3.5 171.646V175.637H0.5V171.646H3.5ZM3.5 179.627V183.618H0.5V179.627H3.5ZM3.5 187.608V191.599H0.5V187.608H3.5ZM3.5 195.59V199.58H0.5V195.59H3.5ZM3.5 203.571V207.561H0.5V203.571H3.5ZM3.5 211.552V215.542H0.5V211.552H3.5ZM3.5 219.533V223.524H0.5V219.533H3.5ZM3.5 227.514V231.505H0.5V227.514H3.5ZM3.5 235.495V239.486H0.5V235.495H3.5ZM3.5 243.476V247.467H0.5V243.476H3.5ZM3.5 251.458V255.448H0.5V251.458H3.5ZM3.5 259.439V263.429H0.5V259.439H3.5ZM3.5 267.42V271.41H0.5V267.42H3.5ZM3.5 275.401V279.392H0.5V275.401H3.5ZM3.5 283.382V287.373H0.5V283.382H3.5ZM3.5 291.363V295.354H0.5V291.363H3.5ZM3.5 299.344V303.335H0.5V299.344H3.5ZM3.5 307.326V311.316H0.5V307.326H3.5ZM3.5 315.307V319.297H0.5V315.307H3.5ZM3.5 323.288V327.278H0.5V323.288H3.5ZM3.5 331.269V335.26H0.5V331.269H3.5ZM3.5 339.25V343.241H0.5V339.25H3.5ZM3.5 347.231V351.222H0.5V347.231H3.5ZM3.5 355.212V359.203H0.5V355.212H3.5ZM3.5 363.194V367.184H0.5V363.194H3.5ZM3.5 371.175V375.165H0.5V371.175H3.5ZM3.5 379.156V383.146H0.5V379.156H3.5ZM3.5 387.137V391.128H0.5V387.137H3.5ZM3.5 395.118V399.109H0.5V395.118H3.5ZM3.5 403.099V407.09H0.5V403.099H3.5ZM3.5 411.08V415.071H0.5V411.08H3.5ZM3.5 419.062V423.052H0.5V419.062H3.5ZM3.5 427.043V431.033H0.5V427.043H3.5ZM3.5 435.024V439.014H0.5V435.024H3.5ZM3.5 443.005V445H0.5V443.005H3.5ZM3.5 445C3.5 445.613 3.52977 446.219 3.58788 446.816L0.601974 447.106C0.5345 446.413 0.5 445.71 0.5 445H3.5ZM4.29182 450.373C4.64606 451.542 5.11304 452.662 5.6803 453.721L3.03575 455.138C2.37622 453.906 1.83292 452.603 1.4207 451.243L4.29182 450.373ZM7.69818 456.736C8.46774 457.672 9.32753 458.532 10.2642 459.302L8.3597 461.62C7.27209 460.726 6.27382 459.728 5.38022 458.64L7.69818 456.736ZM13.2786 461.32C14.3377 461.887 15.4581 462.354 16.6273 462.708L15.7574 465.579C14.3969 465.167 13.0935 464.624 11.8622 463.964L13.2786 461.32ZM20.1842 463.412C20.7812 463.47 21.3869 463.5 22 463.5V466.5C21.2897 466.5 20.587 466.466 19.8936 466.398L20.1842 463.412ZM22 463.5H23.9844V466.5H22V463.5ZM27.9531 463.5H31.9219V466.5H27.9531V463.5ZM35.8906 463.5H39.8594V466.5H35.8906V463.5ZM43.8281 463.5H47.7969V466.5H43.8281V463.5ZM51.7656 463.5H55.7344V466.5H51.7656V463.5ZM59.7031 463.5H63.6719V466.5H59.7031V463.5ZM67.6406 463.5H71.6094V466.5H67.6406V463.5ZM75.5781 463.5H79.5469V466.5H75.5781V463.5ZM83.5156 463.5H87.4844V466.5H83.5156V463.5ZM91.4531 463.5H95.4219V466.5H91.4531V463.5ZM99.3906 463.5H103.359V466.5H99.3906V463.5ZM107.328 463.5H111.297V466.5H107.328V463.5ZM115.266 463.5H119.234V466.5H115.266V463.5ZM123.203 463.5H127.172V466.5H123.203V463.5ZM131.141 463.5H135.109V466.5H131.141V463.5ZM139.078 463.5H143.047V466.5H139.078V463.5ZM147.016 463.5H149V466.5H147.016V463.5ZM150.061 463.939C150.646 464.525 150.646 465.475 150.061 466.061L140.515 475.607C139.929 476.192 138.979 476.192 138.393 475.607C137.808 475.021 137.808 474.071 138.393 473.485L146.879 465L138.393 456.515C137.808 455.929 137.808 454.979 138.393 454.393C138.979 453.808 139.929 453.808 140.515 454.393L150.061 463.939ZM149 3.5H147.016V0.5H149V3.5ZM143.047 3.5H139.078V0.5H143.047V3.5ZM135.109 3.5H131.141V0.5H135.109V3.5ZM127.172 3.5H123.203V0.5H127.172V3.5ZM119.234 3.5H115.266V0.5H119.234V3.5ZM111.297 3.5H107.328V0.5H111.297V3.5ZM103.359 3.5H99.3906V0.5H103.359V3.5ZM95.4219 3.5H91.4531V0.5H95.4219V3.5ZM87.4844 3.5H83.5156V0.5H87.4844V3.5ZM79.5469 3.5H75.5781V0.5H79.5469V3.5ZM71.6094 3.5H67.6406V0.5H71.6094V3.5ZM63.6719 3.5H59.7031V0.5H63.6719V3.5ZM55.7344 3.5H51.7656V0.5H55.7344V3.5ZM47.7969 3.5H43.8281V0.5H47.7969V3.5ZM39.8594 3.5H35.8906V0.5H39.8594V3.5ZM31.9219 3.5H27.9531V0.5H31.9219V3.5ZM23.9844 3.5H22V0.5H23.9844V3.5ZM22 3.5C21.3869 3.5 20.7812 3.52977 20.1842 3.58787L19.8936 0.60198C20.587 0.534495 21.2897 0.5 22 0.5V3.5ZM16.6273 4.29182C15.4581 4.64605 14.3377 5.11304 13.2786 5.68029L11.8622 3.03575C13.0935 2.37622 14.3969 1.83292 15.7574 1.4207L16.6273 4.29182ZM10.2642 7.69818C9.32753 8.46775 8.46774 9.32753 7.69818 10.2642L5.38022 8.3597C6.27382 7.27209 7.27208 6.27382 8.3597 5.38022L10.2642 7.69818ZM5.6803 13.2786C5.11304 14.3377 4.64606 15.4581 4.29182 16.6273L1.4207 15.7574C1.83292 14.3968 2.37622 13.0935 3.03575 11.8622L5.6803 13.2786ZM3.58788 20.1842C3.52977 20.7812 3.5 21.3869 3.5 22H0.5C0.5 21.2897 0.5345 20.587 0.601974 19.8936L3.58788 20.1842ZM3.5 22V23.9953H0.5V22H3.5ZM3.5 27.9858V31.9764H0.5V27.9858H3.5ZM3.5 35.967V39.9575H0.5V35.967H3.5ZM3.5 43.9481V47.9387H0.5V43.9481H3.5ZM3.5 51.9292V55.9198H0.5V51.9292H3.5ZM3.5 59.9104V63.9009H0.5V59.9104H3.5ZM3.5 67.8915V71.8821H0.5V67.8915H3.5ZM3.5 75.8726V79.8632H0.5V75.8726H3.5ZM3.5 83.8538V87.8443H0.5V83.8538H3.5ZM3.5 91.8349V95.8255H0.5V91.8349H3.5ZM3.5 99.816V103.807H0.5V99.816H3.5ZM3.5 107.797V111.788H0.5V107.797H3.5ZM3.5 115.778V119.769H0.5V115.778H3.5ZM3.5 123.759V127.75H0.5V123.759H3.5ZM3.5 131.741V135.731H0.5V131.741H3.5ZM3.5 139.722V143.712H0.5V139.722H3.5ZM3.5 147.703V151.693H0.5V147.703H3.5ZM3.5 155.684V159.674H0.5V155.684H3.5ZM3.5 163.665V167.656H0.5V163.665H3.5ZM3.5 171.646V175.637H0.5V171.646H3.5ZM3.5 179.627V183.618H0.5V179.627H3.5ZM3.5 187.608V191.599H0.5V187.608H3.5ZM3.5 195.59V199.58H0.5V195.59H3.5ZM3.5 203.571V207.561H0.5V203.571H3.5ZM3.5 211.552V215.542H0.5V211.552H3.5ZM3.5 219.533V223.524H0.5V219.533H3.5ZM3.5 227.514V231.505H0.5V227.514H3.5ZM3.5 235.495V239.486H0.5V235.495H3.5ZM3.5 243.476V247.467H0.5V243.476H3.5ZM3.5 251.458V255.448H0.5V251.458H3.5ZM3.5 259.439V263.429H0.5V259.439H3.5ZM3.5 267.42V271.41H0.5V267.42H3.5ZM3.5 275.401V279.392H0.5V275.401H3.5ZM3.5 283.382V287.373H0.5V283.382H3.5ZM3.5 291.363V295.354H0.5V291.363H3.5ZM3.5 299.344V303.335H0.5V299.344H3.5ZM3.5 307.326V311.316H0.5V307.326H3.5ZM3.5 315.307V319.297H0.5V315.307H3.5ZM3.5 323.288V327.278H0.5V323.288H3.5ZM3.5 331.269V335.26H0.5V331.269H3.5ZM3.5 339.25V343.241H0.5V339.25H3.5ZM3.5 347.231V351.222H0.5V347.231H3.5ZM3.5 355.212V359.203H0.5V355.212H3.5ZM3.5 363.194V367.184H0.5V363.194H3.5ZM3.5 371.175V375.165H0.5V371.175H3.5ZM3.5 379.156V383.146H0.5V379.156H3.5ZM3.5 387.137V391.128H0.5V387.137H3.5ZM3.5 395.118V399.109H0.5V395.118H3.5ZM3.5 403.099V407.09H0.5V403.099H3.5ZM3.5 411.08V415.071H0.5V411.08H3.5ZM3.5 419.062V423.052H0.5V419.062H3.5ZM3.5 427.043V431.033H0.5V427.043H3.5ZM3.5 435.024V439.014H0.5V435.024H3.5ZM3.5 443.005V445H0.5V443.005H3.5ZM3.5 445C3.5 445.613 3.52977 446.219 3.58788 446.816L0.601974 447.106C0.5345 446.413 0.5 445.71 0.5 445H3.5ZM4.29182 450.373C4.64606 451.542 5.11304 452.662 5.6803 453.721L3.03575 455.138C2.37622 453.906 1.83292 452.603 1.4207 451.243L4.29182 450.373ZM7.69818 456.736C8.46774 457.672 9.32753 458.532 10.2642 459.302L8.3597 461.62C7.27209 460.726 6.27382 459.728 5.38022 458.64L7.69818 456.736ZM13.2786 461.32C14.3377 461.887 15.4581 462.354 16.6273 462.708L15.7574 465.579C14.3969 465.167 13.0935 464.624 11.8622 463.964L13.2786 461.32ZM20.1842 463.412C20.7812 463.47 21.3869 463.5 22 463.5V466.5C21.2897 466.5 20.587 466.466 19.8936 466.398L20.1842 463.412ZM22 463.5H23.9844V466.5H22V463.5ZM27.9531 463.5H31.9219V466.5H27.9531V463.5ZM35.8906 463.5H39.8594V466.5H35.8906V463.5ZM43.8281 463.5H47.7969V466.5H43.8281V463.5ZM51.7656 463.5H55.7344V466.5H51.7656V463.5ZM59.7031 463.5H63.6719V466.5H59.7031V463.5ZM67.6406 463.5H71.6094V466.5H67.6406V463.5ZM75.5781 463.5H79.5469V466.5H75.5781V463.5ZM83.5156 463.5H87.4844V466.5H83.5156V463.5ZM91.4531 463.5H95.4219V466.5H91.4531V463.5ZM99.3906 463.5H103.359V466.5H99.3906V463.5ZM107.328 463.5H111.297V466.5H107.328V463.5ZM115.266 463.5H119.234V466.5H115.266V463.5ZM123.203 463.5H127.172V466.5H123.203V463.5ZM131.141 463.5H135.109V466.5H131.141V463.5ZM139.078 463.5H143.047V466.5H139.078V463.5ZM147.016 463.5H149V466.5H147.016V463.5Z" fill="url(#paint0_linear_147_411)"/>
<defs>
<linearGradient id="paint0_linear_147_411" x1="74.1697" y1="28.486" x2="74.1697" y2="465.001" gradientUnits="userSpaceOnUse">
<stop stop-color="#3284FF"/>
<stop offset="1" stop-color="#01D1FF"/>
</linearGradient>
</defs>
</svg>
