<svg width="220" height="471" viewBox="0 0 220 471" fill="none" xmlns="http://www.w3.org/2000/svg">
<path d="M0.959397 462.294C0.568873 462.685 0.568873 463.318 0.959397 463.709L7.32336 470.073C7.71388 470.463 8.34705 470.463 8.73757 470.073C9.1281 469.682 9.1281 469.049 8.73757 468.658L3.08072 463.001L8.73757 457.345C9.1281 456.954 9.1281 456.321 8.73757 455.93C8.34705 455.54 7.71388 455.54 7.32336 455.93L0.959397 462.294ZM1.6665 464.001H3.00861V462.001H1.6665V464.001ZM5.69282 464.001H8.37703V462.001H5.69282V464.001ZM11.0612 464.001H13.7455V462.001H11.0612V464.001ZM16.4297 464.001H19.1139V462.001H16.4297V464.001ZM21.7981 464.001H24.4823V462.001H21.7981V464.001ZM27.1665 464.001H29.8507V462.001H27.1665V464.001ZM32.5349 464.001H35.2191V462.001H32.5349V464.001ZM37.9033 464.001H40.5876V462.001H37.9033V464.001ZM43.2718 464.001H45.956V462.001H43.2718V464.001ZM48.6402 464.001H51.3244V462.001H48.6402V464.001ZM54.0086 464.001H56.6928V462.001H54.0086V464.001ZM59.377 464.001H62.0612V462.001H59.377V464.001ZM64.7455 464.001H67.4297V462.001H64.7455V464.001ZM70.1139 464.001H72.7981V462.001H70.1139V464.001ZM75.4823 464.001H78.1665V462.001H75.4823V464.001ZM80.8507 464.001H83.5349V462.001H80.8507V464.001ZM86.2192 464.001H88.9034V462.001H86.2192V464.001ZM91.5876 464.001H94.2718V462.001H91.5876V464.001ZM96.956 464.001H99.6402V462.001H96.956V464.001ZM102.324 464.001H105.009V462.001H102.324V464.001ZM107.693 464.001H110.377V462.001H107.693V464.001ZM113.061 464.001H115.745V462.001H113.061V464.001ZM118.43 464.001H121.114V462.001H118.43V464.001ZM123.798 464.001H126.482V462.001H123.798V464.001ZM129.167 464.001H131.851V462.001H129.167V464.001ZM134.535 464.001H137.219V462.001H134.535V464.001ZM139.903 464.001H142.588V462.001H139.903V464.001ZM145.272 464.001H147.956V462.001H145.272V464.001ZM150.64 464.001H153.324V462.001H150.64V464.001ZM156.009 464.001H158.693V462.001H156.009V464.001ZM161.377 464.001H164.061V462.001H161.377V464.001ZM166.745 464.001H169.43V462.001H166.745V464.001ZM172.114 464.001H174.798V462.001H172.114V464.001ZM177.482 464.001H180.166V462.001H177.482V464.001ZM182.851 464.001H185.535V462.001H182.851V464.001ZM188.219 464.001H190.903V462.001H188.219V464.001ZM193.587 464.001H196.272V462.001H193.587V464.001ZM198.956 464.001H201.64V462.001H198.956V464.001ZM204.324 464.001H205.666V462.001H204.324V464.001ZM205.666 464.001C206.14 464.001 206.608 463.978 207.071 463.933L206.877 461.943C206.479 461.982 206.075 462.001 205.666 462.001V464.001ZM209.828 463.388C210.735 463.113 211.604 462.751 212.425 462.311L211.481 460.548C210.775 460.926 210.028 461.237 209.248 461.474L209.828 463.388ZM214.76 460.748C215.485 460.152 216.151 459.487 216.746 458.762L215.201 457.492C214.688 458.116 214.115 458.69 213.49 459.203L214.76 460.748ZM218.309 456.427C218.749 455.606 219.111 454.737 219.386 453.83L217.472 453.25C217.236 454.029 216.924 454.776 216.546 455.482L218.309 456.427ZM219.932 451.072C219.977 450.61 220 450.142 220 449.668H218C218 450.077 217.98 450.481 217.941 450.879L219.932 451.072ZM220 449.668V448.341H218V449.668H220ZM220 445.686V443.032H218V445.686H220ZM220 440.377V437.723H218V440.377H220ZM220 435.069V432.414H218V435.069H220ZM220 429.76V427.105H218V429.76H220ZM220 424.451V421.796H218V424.451H220ZM220 419.142V416.487H218V419.142H220ZM220 413.833V411.178H218V413.833H220ZM220 408.524V405.869H218V408.524H220ZM220 403.215V400.56H218V403.215H220ZM220 397.906V395.251H218V397.906H220ZM220 392.597V389.943H218V392.597H220ZM220 387.288V384.634H218V387.288H220ZM220 381.979V379.325H218V381.979H220ZM220 376.67V374.016H218V376.67H220ZM220 371.361V368.707H218V371.361H220ZM220 366.052V363.398H218V366.052H220ZM220 360.743V358.089H218V360.743H220ZM220 355.434V352.78H218V355.434H220ZM220 350.125V347.471H218V350.125H220ZM220 344.816V342.162H218V344.816H220ZM220 339.508V336.853H218V339.508H220ZM220 334.199V331.544H218V334.199H220ZM220 328.89V326.235H218V328.89H220ZM220 323.581V320.926H218V323.581H220ZM220 318.272V315.617H218V318.272H220ZM220 312.963V310.308H218V312.963H220ZM220 307.654V304.999H218V307.654H220ZM220 302.345V299.691H218V302.345H220ZM220 297.036V294.382H218V297.036H220ZM220 291.727V289.073H218V291.727H220ZM220 286.418V283.764H218V286.418H220ZM220 281.109V278.455H218V281.109H220ZM220 275.8V273.146H218V275.8H220ZM220 270.491V267.837H218V270.491H220ZM220 265.182V262.528H218V265.182H220ZM220 259.874V257.219H218V259.874H220ZM220 254.565V251.91H218V254.565H220ZM220 249.256V246.601H218V249.256H220ZM220 243.947V241.292H218V243.947H220ZM220 238.638V235.983H218V238.638H220ZM220 233.329V230.674H218V233.329H220ZM220 228.02V225.365H218V228.02H220ZM220 222.711V220.057H218V222.711H220ZM220 217.402V214.748H218V217.402H220ZM220 212.093V209.439H218V212.093H220ZM220 206.784V204.13H218V206.784H220ZM220 201.475V198.821H218V201.475H220ZM220 196.166V193.512H218V196.166H220ZM220 190.857V188.203H218V190.857H220ZM220 185.548V182.894H218V185.548H220ZM220 180.24V177.585H218V180.24H220ZM220 174.931V172.276H218V174.931H220ZM220 169.622V166.967H218V169.622H220ZM220 164.313V161.658H218V164.313H220ZM220 159.004V156.349H218V159.004H220ZM220 153.695V151.04H218V153.695H220ZM220 148.386V145.731H218V148.386H220ZM220 143.077V140.422H218V143.077H220ZM220 137.768V135.113H218V137.768H220ZM220 132.459V129.804H218V132.459H220ZM220 127.15V124.495H218V127.15H220ZM220 121.841V119.186H218V121.841H220ZM220 116.532V113.877H218V116.532H220ZM220 111.223V108.569H218V111.223H220ZM220 105.914V103.26H218V105.914H220ZM220 100.605V97.9506H218V100.605H220ZM220 95.2961V92.6417H218V95.2961H220ZM220 89.9872V87.3327H218V89.9872H220ZM220 84.6782V82.0237H218V84.6782H220ZM220 79.3693V76.7148H218V79.3693H220ZM220 74.0603V71.4058H218V74.0603H220ZM220 68.7513V66.0969H218V68.7513H220ZM220 63.4424V60.7879H218V63.4424H220ZM220 58.1334V55.4789H218V58.1334H220ZM220 52.8244V50.17H218V52.8244H220ZM220 47.5155V44.861H218V47.5155H220ZM220 42.2065V39.552H218V42.2065H220ZM220 36.8976V34.2431H218V36.8976H220ZM220 31.5886V28.9341H218V31.5886H220ZM220 26.2796V23.6252H218V26.2796H220ZM220 20.9707V18.3162H218V20.9707H220ZM220 15.6617V14.3348H218V15.6617H220ZM220 14.3348C220 13.8613 219.977 13.3928 219.932 12.9305L217.941 13.1243C217.98 13.5223 218 13.9261 218 14.3348H220ZM219.386 10.1731C219.111 9.26603 218.749 8.39714 218.309 7.57624L216.546 8.52055C216.924 9.22659 217.236 9.97353 217.472 10.753L219.386 10.1731ZM216.746 5.24126C216.151 4.51619 215.485 3.85068 214.76 3.25494L213.49 4.80025C214.115 5.31329 214.688 5.88648 215.201 6.51092L216.746 5.24126ZM212.425 1.69196C211.604 1.25227 210.735 0.890074 209.828 0.615267L209.248 2.52935C210.028 2.7655 210.775 3.07682 211.481 3.45499L212.425 1.69196ZM207.071 0.0694512C206.608 0.0244616 206.14 0.00146484 205.667 0.00146484V2.00146C206.075 2.00146 206.479 2.02131 206.877 2.06005L207.071 0.0694512ZM205.667 0.00146484H204.364V2.00146H205.667V0.00146484ZM201.76 0.00146484H199.156V2.00146H201.76V0.00146484ZM196.552 0.00146484H193.948V2.00146H196.552V0.00146484ZM191.344 0.00146484H188.739V2.00146H191.344V0.00146484ZM186.135 0.00146484H183.531V2.00146H186.135V0.00146484ZM180.927 0.00146484H178.323V2.00146H180.927V0.00146484ZM175.719 0.00146484H173.114V2.00146H175.719V0.00146484ZM170.51 0.00146484H167.906V2.00146H170.51V0.00146484ZM165.302 0.00146484H162.698V2.00146H165.302V0.00146484ZM160.094 0.00146484H157.489V2.00146H160.094V0.00146484ZM154.885 0.00146484H152.281V2.00146H154.885V0.00146484ZM149.677 0.00146484H147.073V2.00146H149.677V0.00146484ZM144.469 0.00146484H141.864V2.00146H144.469V0.00146484ZM139.26 0.00146484H136.656V2.00146H139.26V0.00146484ZM134.052 0.00146484H131.448V2.00146H134.052V0.00146484ZM128.844 0.00146484H126.239V2.00146H128.844V0.00146484ZM123.635 0.00146484H122.333V2.00146H123.635V0.00146484ZM0.959397 462.294C0.568873 462.685 0.568873 463.318 0.959397 463.709L7.32336 470.073C7.71388 470.463 8.34705 470.463 8.73757 470.073C9.1281 469.682 9.1281 469.049 8.73757 468.658L3.08072 463.001L8.73757 457.345C9.1281 456.954 9.1281 456.321 8.73757 455.93C8.34705 455.54 7.71388 455.54 7.32336 455.93L0.959397 462.294ZM1.6665 464.001H3.00861V462.001H1.6665V464.001ZM5.69282 464.001H8.37703V462.001H5.69282V464.001ZM11.0612 464.001H13.7455V462.001H11.0612V464.001ZM16.4297 464.001H19.1139V462.001H16.4297V464.001ZM21.7981 464.001H24.4823V462.001H21.7981V464.001ZM27.1665 464.001H29.8507V462.001H27.1665V464.001ZM32.5349 464.001H35.2191V462.001H32.5349V464.001ZM37.9033 464.001H40.5876V462.001H37.9033V464.001ZM43.2718 464.001H45.956V462.001H43.2718V464.001ZM48.6402 464.001H51.3244V462.001H48.6402V464.001ZM54.0086 464.001H56.6928V462.001H54.0086V464.001ZM59.377 464.001H62.0612V462.001H59.377V464.001ZM64.7455 464.001H67.4297V462.001H64.7455V464.001ZM70.1139 464.001H72.7981V462.001H70.1139V464.001ZM75.4823 464.001H78.1665V462.001H75.4823V464.001ZM80.8507 464.001H83.5349V462.001H80.8507V464.001ZM86.2192 464.001H88.9034V462.001H86.2192V464.001ZM91.5876 464.001H94.2718V462.001H91.5876V464.001ZM96.956 464.001H99.6402V462.001H96.956V464.001ZM102.324 464.001H105.009V462.001H102.324V464.001ZM107.693 464.001H110.377V462.001H107.693V464.001ZM113.061 464.001H115.745V462.001H113.061V464.001ZM118.43 464.001H121.114V462.001H118.43V464.001ZM123.798 464.001H126.482V462.001H123.798V464.001ZM129.167 464.001H131.851V462.001H129.167V464.001ZM134.535 464.001H137.219V462.001H134.535V464.001ZM139.903 464.001H142.588V462.001H139.903V464.001ZM145.272 464.001H147.956V462.001H145.272V464.001ZM150.64 464.001H153.324V462.001H150.64V464.001ZM156.009 464.001H158.693V462.001H156.009V464.001ZM161.377 464.001H164.061V462.001H161.377V464.001ZM166.745 464.001H169.43V462.001H166.745V464.001ZM172.114 464.001H174.798V462.001H172.114V464.001ZM177.482 464.001H180.166V462.001H177.482V464.001ZM182.851 464.001H185.535V462.001H182.851V464.001ZM188.219 464.001H190.903V462.001H188.219V464.001ZM193.587 464.001H196.272V462.001H193.587V464.001ZM198.956 464.001H201.64V462.001H198.956V464.001ZM204.324 464.001H205.666V462.001H204.324V464.001ZM205.666 464.001C206.14 464.001 206.608 463.978 207.071 463.933L206.877 461.943C206.479 461.982 206.075 462.001 205.666 462.001V464.001ZM209.828 463.388C210.735 463.113 211.604 462.751 212.425 462.311L211.481 460.548C210.775 460.926 210.028 461.237 209.248 461.474L209.828 463.388ZM214.76 460.748C215.485 460.152 216.151 459.487 216.746 458.762L215.201 457.492C214.688 458.116 214.115 458.69 213.49 459.203L214.76 460.748ZM218.309 456.427C218.749 455.606 219.111 454.737 219.386 453.83L217.472 453.25C217.236 454.029 216.924 454.776 216.546 455.482L218.309 456.427ZM219.932 451.072C219.977 450.61 220 450.142 220 449.668H218C218 450.077 217.98 450.481 217.941 450.879L219.932 451.072ZM220 449.668V448.341H218V449.668H220ZM220 445.686V443.032H218V445.686H220ZM220 440.377V437.723H218V440.377H220ZM220 435.069V432.414H218V435.069H220ZM220 429.76V427.105H218V429.76H220ZM220 424.451V421.796H218V424.451H220ZM220 419.142V416.487H218V419.142H220ZM220 413.833V411.178H218V413.833H220ZM220 408.524V405.869H218V408.524H220ZM220 403.215V400.56H218V403.215H220ZM220 397.906V395.251H218V397.906H220ZM220 392.597V389.943H218V392.597H220ZM220 387.288V384.634H218V387.288H220ZM220 381.979V379.325H218V381.979H220ZM220 376.67V374.016H218V376.67H220ZM220 371.361V368.707H218V371.361H220ZM220 366.052V363.398H218V366.052H220ZM220 360.743V358.089H218V360.743H220ZM220 355.434V352.78H218V355.434H220ZM220 350.125V347.471H218V350.125H220ZM220 344.816V342.162H218V344.816H220ZM220 339.508V336.853H218V339.508H220ZM220 334.199V331.544H218V334.199H220ZM220 328.89V326.235H218V328.89H220ZM220 323.581V320.926H218V323.581H220ZM220 318.272V315.617H218V318.272H220ZM220 312.963V310.308H218V312.963H220ZM220 307.654V304.999H218V307.654H220ZM220 302.345V299.691H218V302.345H220ZM220 297.036V294.382H218V297.036H220ZM220 291.727V289.073H218V291.727H220ZM220 286.418V283.764H218V286.418H220ZM220 281.109V278.455H218V281.109H220ZM220 275.8V273.146H218V275.8H220ZM220 270.491V267.837H218V270.491H220ZM220 265.182V262.528H218V265.182H220ZM220 259.874V257.219H218V259.874H220ZM220 254.565V251.91H218V254.565H220ZM220 249.256V246.601H218V249.256H220ZM220 243.947V241.292H218V243.947H220ZM220 238.638V235.983H218V238.638H220ZM220 233.329V230.674H218V233.329H220ZM220 228.02V225.365H218V228.02H220ZM220 222.711V220.057H218V222.711H220ZM220 217.402V214.748H218V217.402H220ZM220 212.093V209.439H218V212.093H220ZM220 206.784V204.13H218V206.784H220ZM220 201.475V198.821H218V201.475H220ZM220 196.166V193.512H218V196.166H220ZM220 190.857V188.203H218V190.857H220ZM220 185.548V182.894H218V185.548H220ZM220 180.24V177.585H218V180.24H220ZM220 174.931V172.276H218V174.931H220ZM220 169.622V166.967H218V169.622H220ZM220 164.313V161.658H218V164.313H220ZM220 159.004V156.349H218V159.004H220ZM220 153.695V151.04H218V153.695H220ZM220 148.386V145.731H218V148.386H220ZM220 143.077V140.422H218V143.077H220ZM220 137.768V135.113H218V137.768H220ZM220 132.459V129.804H218V132.459H220ZM220 127.15V124.495H218V127.15H220ZM220 121.841V119.186H218V121.841H220ZM220 116.532V113.877H218V116.532H220ZM220 111.223V108.569H218V111.223H220ZM220 105.914V103.26H218V105.914H220ZM220 100.605V97.9506H218V100.605H220ZM220 95.2961V92.6417H218V95.2961H220ZM220 89.9872V87.3327H218V89.9872H220ZM220 84.6782V82.0237H218V84.6782H220ZM220 79.3693V76.7148H218V79.3693H220ZM220 74.0603V71.4058H218V74.0603H220ZM220 68.7513V66.0969H218V68.7513H220ZM220 63.4424V60.7879H218V63.4424H220ZM220 58.1334V55.4789H218V58.1334H220ZM220 52.8244V50.17H218V52.8244H220ZM220 47.5155V44.861H218V47.5155H220ZM220 42.2065V39.552H218V42.2065H220ZM220 36.8976V34.2431H218V36.8976H220ZM220 31.5886V28.9341H218V31.5886H220ZM220 26.2796V23.6252H218V26.2796H220ZM220 20.9707V18.3162H218V20.9707H220ZM220 15.6617V14.3348H218V15.6617H220ZM220 14.3348C220 13.8613 219.977 13.3928 219.932 12.9305L217.941 13.1243C217.98 13.5223 218 13.9261 218 14.3348H220ZM219.386 10.1731C219.111 9.26603 218.749 8.39714 218.309 7.57624L216.546 8.52055C216.924 9.22659 217.236 9.97353 217.472 10.753L219.386 10.1731ZM216.746 5.24126C216.151 4.51619 215.485 3.85068 214.76 3.25494L213.49 4.80025C214.115 5.31329 214.688 5.88648 215.201 6.51092L216.746 5.24126ZM212.425 1.69196C211.604 1.25227 210.735 0.890074 209.828 0.615267L209.248 2.52935C210.028 2.7655 210.775 3.07682 211.481 3.45499L212.425 1.69196ZM207.071 0.0694512C206.608 0.0244616 206.14 0.00146484 205.667 0.00146484V2.00146C206.075 2.00146 206.479 2.02131 206.877 2.06005L207.071 0.0694512ZM205.667 0.00146484H204.364V2.00146H205.667V0.00146484ZM201.76 0.00146484H199.156V2.00146H201.76V0.00146484ZM196.552 0.00146484H193.948V2.00146H196.552V0.00146484ZM191.344 0.00146484H188.739V2.00146H191.344V0.00146484ZM186.135 0.00146484H183.531V2.00146H186.135V0.00146484ZM180.927 0.00146484H178.323V2.00146H180.927V0.00146484ZM175.719 0.00146484H173.114V2.00146H175.719V0.00146484ZM170.51 0.00146484H167.906V2.00146H170.51V0.00146484ZM165.302 0.00146484H162.698V2.00146H165.302V0.00146484ZM160.094 0.00146484H157.489V2.00146H160.094V0.00146484ZM154.885 0.00146484H152.281V2.00146H154.885V0.00146484ZM149.677 0.00146484H147.073V2.00146H149.677V0.00146484ZM144.469 0.00146484H141.864V2.00146H144.469V0.00146484ZM139.26 0.00146484H136.656V2.00146H139.26V0.00146484ZM134.052 0.00146484H131.448V2.00146H134.052V0.00146484ZM128.844 0.00146484H126.239V2.00146H128.844V0.00146484ZM123.635 0.00146484H122.333V2.00146H123.635V0.00146484Z" fill="url(#paint0_linear_147_1041)"/>
<defs>
<linearGradient id="paint0_linear_147_1041" x1="112.3" y1="27.4303" x2="112.3" y2="463.002" gradientUnits="userSpaceOnUse">
<stop stop-color="#3284FF"/>
<stop offset="1" stop-color="#01D1FF"/>
</linearGradient>
</defs>
</svg>
