<svg width="248" height="536" viewBox="0 0 248 536" fill="none" xmlns="http://www.w3.org/2000/svg">
<g clip-path="url(#clip0_164_81)">
<path d="M1.2045 526.347C0.765166 526.791 0.765166 527.511 1.2045 527.955L8.36396 535.196C8.8033 535.64 9.51561 535.64 9.95495 535.196C10.3943 534.752 10.3943 534.031 9.95495 533.587L3.59099 527.151L9.95495 520.715C10.3943 520.271 10.3943 519.55 9.95495 519.106C9.51561 518.662 8.8033 518.662 8.36396 519.106L1.2045 526.347ZM2 528.289H3.50987V526.013H2V528.289ZM6.5296 528.289H9.54934V526.013H6.5296V528.289ZM12.5691 528.289H15.5888V526.013H12.5691V528.289ZM18.6086 528.289H21.6283V526.013H18.6086V528.289ZM24.648 528.289H27.6678V526.013H24.648V528.289ZM30.6875 528.289H33.7072V526.013H30.6875V528.289ZM36.727 528.289H39.7467V526.013H36.727V528.289ZM42.7664 528.289H45.7862V526.013H42.7664V528.289ZM48.8059 528.289H51.8257V526.013H48.8059V528.289ZM54.8454 528.289H57.8651V526.013H54.8454V528.289ZM60.8849 528.289H63.9046V526.013H60.8849V528.289ZM66.9243 528.289H69.9441V526.013H66.9243V528.289ZM72.9638 528.289H75.9836V526.013H72.9638V528.289ZM79.0033 528.289H82.023V526.013H79.0033V528.289ZM85.0428 528.289H88.0625V526.013H85.0428V528.289ZM91.0822 528.289H94.102V526.013H91.0822V528.289ZM97.1217 528.289H100.141V526.013H97.1217V528.289ZM103.161 528.289H106.181V526.013H103.161V528.289ZM109.201 528.289H112.22V526.013H109.201V528.289ZM115.24 528.289H118.26V526.013H115.24V528.289ZM121.28 528.289H124.299V526.013H121.28V528.289ZM127.319 528.289H130.339V526.013H127.319V528.289ZM133.359 528.289H136.378V526.013H133.359V528.289ZM139.398 528.289H142.418V526.013H139.398V528.289ZM145.437 528.289H148.457V526.013H145.437V528.289ZM151.477 528.289H154.497V526.013H151.477V528.289ZM157.516 528.289H160.536V526.013H157.516V528.289ZM163.556 528.289H166.576V526.013H163.556V528.289ZM169.595 528.289H172.615V526.013H169.595V528.289ZM175.635 528.289H178.654V526.013H175.635V528.289ZM181.674 528.289H184.694V526.013H181.674V528.289ZM187.714 528.289H190.733V526.013H187.714V528.289ZM193.753 528.289H196.773V526.013H193.753V528.289ZM199.793 528.289H202.812V526.013H199.793V528.289ZM205.832 528.289H208.852V526.013H205.832V528.289ZM211.872 528.289H214.891V526.013H211.872V528.289ZM217.911 528.289H220.931V526.013H217.911V528.289ZM223.95 528.289H226.97V526.013H223.95V528.289ZM229.99 528.289H231.5V526.013H229.99V528.289ZM231.5 528.289C232.033 528.289 232.56 528.262 233.08 528.212L232.862 525.946C232.414 525.991 231.96 526.013 231.5 526.013V528.289ZM236.182 527.59C237.202 527.277 238.18 526.866 239.103 526.365L238.041 524.36C237.247 524.79 236.406 525.143 235.53 525.412L236.182 527.59ZM241.73 524.587C242.546 523.91 243.295 523.152 243.965 522.327L242.226 520.883C241.649 521.593 241.004 522.245 240.302 522.829L241.73 524.587ZM245.723 519.67C246.218 518.737 246.625 517.748 246.934 516.716L244.781 516.057C244.515 516.943 244.165 517.793 243.74 518.596L245.723 519.67ZM247.549 513.579C247.599 513.053 247.625 512.52 247.625 511.981H245.375C245.375 512.446 245.353 512.905 245.309 513.359L247.549 513.579ZM247.625 511.981V510.471H245.375V511.981H247.625ZM247.625 507.451V504.431H245.375V507.451H247.625ZM247.625 501.411V498.391H245.375V501.411H247.625ZM247.625 495.37V492.35H245.375V495.37H247.625ZM247.625 489.331V486.311H245.375V489.331H247.625ZM247.625 483.29V480.27H245.375V483.29H247.625ZM247.625 477.25V474.23H245.375V477.25H247.625ZM247.625 471.21V468.19H245.375V471.21H247.625ZM247.625 465.17V462.149H245.375V465.17H247.625ZM247.625 459.13V456.11H245.375V459.13H247.625ZM247.625 453.09V450.069H245.375V453.09H247.625ZM247.625 447.049V444.029H245.375V447.049H247.625ZM247.625 441.009V437.989H245.375V441.009H247.625ZM247.625 434.969V431.949H245.375V434.969H247.625ZM247.625 428.928V425.909H245.375V428.928H247.625ZM247.625 422.889V419.868H245.375V422.889H247.625ZM247.625 416.848V413.828H245.375V416.848H247.625ZM247.625 410.809V407.788H245.375V410.809H247.625ZM247.625 404.768V401.748H245.375V404.768H247.625ZM247.625 398.727V395.708H245.375V398.727H247.625ZM247.625 392.688V389.668H245.375V392.688H247.625ZM247.625 386.647V383.627H245.375V386.647H247.625ZM247.625 380.608V377.587H245.375V380.608H247.625ZM247.625 374.567V371.547H245.375V374.567H247.625ZM247.625 368.527V365.507H245.375V368.527H247.625ZM247.625 362.487V359.467H245.375V362.487H247.625ZM247.625 356.446V353.426H245.375V356.446H247.625ZM247.625 350.406V347.387H245.375V350.406H247.625ZM247.625 344.366V341.346H245.375V344.366H247.625ZM247.625 338.326V335.306H245.375V338.326H247.625ZM247.625 332.286V329.266H245.375V332.286H247.625ZM247.625 326.246V323.225H245.375V326.246H247.625ZM247.625 320.205V317.186H245.375V320.205H247.625ZM247.625 314.166V311.145H245.375V314.166H247.625ZM247.625 308.125V305.105H245.375V308.125H247.625ZM247.625 302.085V299.065H245.375V302.085H247.625ZM247.625 296.045V293.025H245.375V296.045H247.625ZM247.625 290.004V286.985H245.375V290.004H247.625ZM247.625 283.965V280.944H245.375V283.965H247.625ZM247.625 277.924V274.904H245.375V277.924H247.625ZM247.625 271.885V268.864H245.375V271.885H247.625ZM247.625 265.844V262.824H245.375V265.844H247.625ZM247.625 259.803V256.783H245.375V259.803H247.625ZM247.625 253.764V250.744H245.375V253.764H247.625ZM247.625 247.723V244.703H245.375V247.723H247.625ZM247.625 241.683V238.664H245.375V241.683H247.625ZM247.625 235.643V232.623H245.375V235.643H247.625ZM247.625 229.603V226.582H245.375V229.603H247.625ZM247.625 223.563V220.543H245.375V223.563H247.625ZM247.625 217.523V214.502H245.375V217.523H247.625ZM247.625 211.482V208.463H245.375V211.482H247.625ZM247.625 205.443V202.422H245.375V205.443H247.625ZM247.625 199.402V196.382H245.375V199.402H247.625ZM247.625 193.363V190.342H245.375V193.363H247.625ZM247.625 187.322V184.302H245.375V187.322H247.625ZM247.625 181.281V178.261H245.375V181.281H247.625ZM247.625 175.242V172.222H245.375V175.242H247.625ZM247.625 169.201V166.181H245.375V169.201H247.625ZM247.625 163.161V160.142H245.375V163.161H247.625ZM247.625 157.121V154.101H245.375V157.121H247.625ZM247.625 151.081V148.061H245.375V151.081H247.625ZM247.625 145.041V142.021H245.375V145.041H247.625ZM247.625 139.001V135.98H245.375V139.001H247.625ZM247.625 132.96V129.941H245.375V132.96H247.625ZM247.625 126.921V123.9H245.375V126.921H247.625ZM247.625 120.88V117.86H245.375V120.88H247.625ZM247.625 114.841V111.82H245.375V114.841H247.625ZM247.625 108.8V105.78H245.375V108.8H247.625ZM247.625 102.76V99.7397H245.375V102.76H247.625ZM247.625 96.7197V93.6996H245.375V96.7197H247.625ZM247.625 90.6796V87.6595H245.375V90.6796H247.625ZM247.625 84.6394V81.6194H245.375V84.6394H247.625ZM247.625 78.5993V75.5792H245.375V78.5993H247.625ZM247.625 72.5592V69.539H245.375V72.5592H247.625ZM247.625 66.5189V63.4989H245.375V66.5189H247.625ZM247.625 60.4788V57.4587H245.375V60.4788H247.625ZM247.625 54.4387V51.4186H245.375V54.4387H247.625ZM247.625 48.3985V45.3785H245.375V48.3985H247.625ZM247.625 42.3584V39.3383H245.375V42.3584H247.625ZM247.625 36.3183V33.2982H245.375V36.3183H247.625ZM247.625 30.2781V27.258H245.375V30.2781H247.625ZM247.625 24.2379V21.2178H245.375V24.2379H247.625ZM247.625 18.1977V16.6868H245.375V18.1977H247.625ZM247.625 16.6868C247.625 16.1481 247.599 15.6151 247.549 15.0891L245.309 15.3095C245.353 15.7624 245.375 16.2218 245.375 16.6868H247.625ZM246.934 11.9519C246.625 10.9199 246.218 9.93133 245.723 8.99736L243.74 10.0717C244.165 10.8751 244.515 11.7249 244.781 12.6117L246.934 11.9519ZM243.965 6.34078C243.295 5.51584 242.546 4.75866 241.73 4.08087L240.302 5.83903C241.004 6.42273 241.649 7.07487 242.226 7.78531L243.965 6.34078ZM239.103 2.30261C238.18 1.80236 237.202 1.39028 236.182 1.07762L235.53 3.25534C236.406 3.52401 237.247 3.87822 238.041 4.30848L239.103 2.30261ZM233.08 0.456623C232.56 0.405437 232.033 0.379272 231.5 0.379272V2.65474C231.96 2.65474 232.414 2.67733 232.862 2.72139L233.08 0.456623ZM231.5 0.379272H230.035V2.65474H231.5V0.379272ZM227.105 0.379272H224.176V2.65474H227.105V0.379272ZM221.246 0.379272H218.316V2.65474H221.246V0.379272ZM215.387 0.379272H212.457V2.65474H215.387V0.379272ZM209.527 0.379272H206.598V2.65474H209.527V0.379272ZM203.668 0.379272H200.738V2.65474H203.668V0.379272ZM197.809 0.379272H194.879V2.65474H197.809V0.379272ZM191.949 0.379272H189.02V2.65474H191.949V0.379272ZM186.09 0.379272H183.16V2.65474H186.09V0.379272ZM180.23 0.379272H177.301V2.65474H180.23V0.379272ZM174.371 0.379272H171.441V2.65474H174.371V0.379272ZM168.512 0.379272H165.582V2.65474H168.512V0.379272ZM162.652 0.379272H159.723V2.65474H162.652V0.379272ZM156.793 0.379272H153.863V2.65474H156.793V0.379272ZM150.934 0.379272H148.004V2.65474H150.934V0.379272ZM145.074 0.379272H142.145V2.65474H145.074V0.379272ZM139.215 0.379272H137.75V2.65474H139.215V0.379272ZM1.2045 526.347C0.765166 526.791 0.765166 527.511 1.2045 527.955L8.36396 535.196C8.8033 535.64 9.51561 535.64 9.95495 535.196C10.3943 534.752 10.3943 534.031 9.95495 533.587L3.59099 527.151L9.95495 520.715C10.3943 520.271 10.3943 519.55 9.95495 519.106C9.51561 518.662 8.8033 518.662 8.36396 519.106L1.2045 526.347ZM2 528.289H3.50987V526.013H2V528.289ZM6.5296 528.289H9.54934V526.013H6.5296V528.289ZM12.5691 528.289H15.5888V526.013H12.5691V528.289ZM18.6086 528.289H21.6283V526.013H18.6086V528.289ZM24.648 528.289H27.6678V526.013H24.648V528.289ZM30.6875 528.289H33.7072V526.013H30.6875V528.289ZM36.727 528.289H39.7467V526.013H36.727V528.289ZM42.7664 528.289H45.7862V526.013H42.7664V528.289ZM48.8059 528.289H51.8257V526.013H48.8059V528.289ZM54.8454 528.289H57.8651V526.013H54.8454V528.289ZM60.8849 528.289H63.9046V526.013H60.8849V528.289ZM66.9243 528.289H69.9441V526.013H66.9243V528.289ZM72.9638 528.289H75.9836V526.013H72.9638V528.289ZM79.0033 528.289H82.023V526.013H79.0033V528.289ZM85.0428 528.289H88.0625V526.013H85.0428V528.289ZM91.0822 528.289H94.102V526.013H91.0822V528.289ZM97.1217 528.289H100.141V526.013H97.1217V528.289ZM103.161 528.289H106.181V526.013H103.161V528.289ZM109.201 528.289H112.22V526.013H109.201V528.289ZM115.24 528.289H118.26V526.013H115.24V528.289ZM121.28 528.289H124.299V526.013H121.28V528.289ZM127.319 528.289H130.339V526.013H127.319V528.289ZM133.359 528.289H136.378V526.013H133.359V528.289ZM139.398 528.289H142.418V526.013H139.398V528.289ZM145.437 528.289H148.457V526.013H145.437V528.289ZM151.477 528.289H154.497V526.013H151.477V528.289ZM157.516 528.289H160.536V526.013H157.516V528.289ZM163.556 528.289H166.576V526.013H163.556V528.289ZM169.595 528.289H172.615V526.013H169.595V528.289ZM175.635 528.289H178.654V526.013H175.635V528.289ZM181.674 528.289H184.694V526.013H181.674V528.289ZM187.714 528.289H190.733V526.013H187.714V528.289ZM193.753 528.289H196.773V526.013H193.753V528.289ZM199.793 528.289H202.812V526.013H199.793V528.289ZM205.832 528.289H208.852V526.013H205.832V528.289ZM211.872 528.289H214.891V526.013H211.872V528.289ZM217.911 528.289H220.931V526.013H217.911V528.289ZM223.95 528.289H226.97V526.013H223.95V528.289ZM229.99 528.289H231.5V526.013H229.99V528.289ZM231.5 528.289C232.033 528.289 232.56 528.262 233.08 528.212L232.862 525.946C232.414 525.991 231.96 526.013 231.5 526.013V528.289ZM236.182 527.59C237.202 527.277 238.18 526.866 239.103 526.365L238.041 524.36C237.247 524.79 236.406 525.143 235.53 525.412L236.182 527.59ZM241.73 524.587C242.546 523.91 243.295 523.152 243.965 522.327L242.226 520.883C241.649 521.593 241.004 522.245 240.302 522.829L241.73 524.587ZM245.723 519.67C246.218 518.737 246.625 517.748 246.934 516.716L244.781 516.057C244.515 516.943 244.165 517.793 243.74 518.596L245.723 519.67ZM247.549 513.579C247.599 513.053 247.625 512.52 247.625 511.981H245.375C245.375 512.446 245.353 512.905 245.309 513.359L247.549 513.579ZM247.625 511.981V510.471H245.375V511.981H247.625ZM247.625 507.451V504.431H245.375V507.451H247.625ZM247.625 501.411V498.391H245.375V501.411H247.625ZM247.625 495.37V492.35H245.375V495.37H247.625ZM247.625 489.331V486.311H245.375V489.331H247.625ZM247.625 483.29V480.27H245.375V483.29H247.625ZM247.625 477.25V474.23H245.375V477.25H247.625ZM247.625 471.21V468.19H245.375V471.21H247.625ZM247.625 465.17V462.149H245.375V465.17H247.625ZM247.625 459.13V456.11H245.375V459.13H247.625ZM247.625 453.09V450.069H245.375V453.09H247.625ZM247.625 447.049V444.029H245.375V447.049H247.625ZM247.625 441.009V437.989H245.375V441.009H247.625ZM247.625 434.969V431.949H245.375V434.969H247.625ZM247.625 428.928V425.909H245.375V428.928H247.625ZM247.625 422.889V419.868H245.375V422.889H247.625ZM247.625 416.848V413.828H245.375V416.848H247.625ZM247.625 410.809V407.788H245.375V410.809H247.625ZM247.625 404.768V401.748H245.375V404.768H247.625ZM247.625 398.727V395.708H245.375V398.727H247.625ZM247.625 392.688V389.668H245.375V392.688H247.625ZM247.625 386.647V383.627H245.375V386.647H247.625ZM247.625 380.608V377.587H245.375V380.608H247.625ZM247.625 374.567V371.547H245.375V374.567H247.625ZM247.625 368.527V365.507H245.375V368.527H247.625ZM247.625 362.487V359.467H245.375V362.487H247.625ZM247.625 356.446V353.426H245.375V356.446H247.625ZM247.625 350.406V347.387H245.375V350.406H247.625ZM247.625 344.366V341.346H245.375V344.366H247.625ZM247.625 338.326V335.306H245.375V338.326H247.625ZM247.625 332.286V329.266H245.375V332.286H247.625ZM247.625 326.246V323.225H245.375V326.246H247.625ZM247.625 320.205V317.186H245.375V320.205H247.625ZM247.625 314.166V311.145H245.375V314.166H247.625ZM247.625 308.125V305.105H245.375V308.125H247.625ZM247.625 302.085V299.065H245.375V302.085H247.625ZM247.625 296.045V293.025H245.375V296.045H247.625ZM247.625 290.004V286.985H245.375V290.004H247.625ZM247.625 283.965V280.944H245.375V283.965H247.625ZM247.625 277.924V274.904H245.375V277.924H247.625ZM247.625 271.885V268.864H245.375V271.885H247.625ZM247.625 265.844V262.824H245.375V265.844H247.625ZM247.625 259.803V256.783H245.375V259.803H247.625ZM247.625 253.764V250.744H245.375V253.764H247.625ZM247.625 247.723V244.703H245.375V247.723H247.625ZM247.625 241.683V238.664H245.375V241.683H247.625ZM247.625 235.643V232.623H245.375V235.643H247.625ZM247.625 229.603V226.582H245.375V229.603H247.625ZM247.625 223.563V220.543H245.375V223.563H247.625ZM247.625 217.523V214.502H245.375V217.523H247.625ZM247.625 211.482V208.463H245.375V211.482H247.625ZM247.625 205.443V202.422H245.375V205.443H247.625ZM247.625 199.402V196.382H245.375V199.402H247.625ZM247.625 193.363V190.342H245.375V193.363H247.625ZM247.625 187.322V184.302H245.375V187.322H247.625ZM247.625 181.281V178.261H245.375V181.281H247.625ZM247.625 175.242V172.222H245.375V175.242H247.625ZM247.625 169.201V166.181H245.375V169.201H247.625ZM247.625 163.161V160.142H245.375V163.161H247.625ZM247.625 157.121V154.101H245.375V157.121H247.625ZM247.625 151.081V148.061H245.375V151.081H247.625ZM247.625 145.041V142.021H245.375V145.041H247.625ZM247.625 139.001V135.98H245.375V139.001H247.625ZM247.625 132.96V129.941H245.375V132.96H247.625ZM247.625 126.921V123.9H245.375V126.921H247.625ZM247.625 120.88V117.86H245.375V120.88H247.625ZM247.625 114.841V111.82H245.375V114.841H247.625ZM247.625 108.8V105.78H245.375V108.8H247.625ZM247.625 102.76V99.7397H245.375V102.76H247.625ZM247.625 96.7197V93.6996H245.375V96.7197H247.625ZM247.625 90.6796V87.6595H245.375V90.6796H247.625ZM247.625 84.6394V81.6194H245.375V84.6394H247.625ZM247.625 78.5993V75.5792H245.375V78.5993H247.625ZM247.625 72.5592V69.539H245.375V72.5592H247.625ZM247.625 66.5189V63.4989H245.375V66.5189H247.625ZM247.625 60.4788V57.4587H245.375V60.4788H247.625ZM247.625 54.4387V51.4186H245.375V54.4387H247.625ZM247.625 48.3985V45.3785H245.375V48.3985H247.625ZM247.625 42.3584V39.3383H245.375V42.3584H247.625ZM247.625 36.3183V33.2982H245.375V36.3183H247.625ZM247.625 30.2781V27.258H245.375V30.2781H247.625ZM247.625 24.2379V21.2178H245.375V24.2379H247.625ZM247.625 18.1977V16.6868H245.375V18.1977H247.625ZM247.625 16.6868C247.625 16.1481 247.599 15.6151 247.549 15.0891L245.309 15.3095C245.353 15.7624 245.375 16.2218 245.375 16.6868H247.625ZM246.934 11.9519C246.625 10.9199 246.218 9.93133 245.723 8.99736L243.74 10.0717C244.165 10.8751 244.515 11.7249 244.781 12.6117L246.934 11.9519ZM243.965 6.34078C243.295 5.51584 242.546 4.75866 241.73 4.08087L240.302 5.83903C241.004 6.42273 241.649 7.07487 242.226 7.78531L243.965 6.34078ZM239.103 2.30261C238.18 1.80236 237.202 1.39028 236.182 1.07762L235.53 3.25534C236.406 3.52401 237.247 3.87822 238.041 4.30848L239.103 2.30261ZM233.08 0.456623C232.56 0.405437 232.033 0.379272 231.5 0.379272V2.65474C231.96 2.65474 232.414 2.67733 232.862 2.72139L233.08 0.456623ZM231.5 0.379272H230.035V2.65474H231.5V0.379272ZM227.105 0.379272H224.176V2.65474H227.105V0.379272ZM221.246 0.379272H218.316V2.65474H221.246V0.379272ZM215.387 0.379272H212.457V2.65474H215.387V0.379272ZM209.527 0.379272H206.598V2.65474H209.527V0.379272ZM203.668 0.379272H200.738V2.65474H203.668V0.379272ZM197.809 0.379272H194.879V2.65474H197.809V0.379272ZM191.949 0.379272H189.02V2.65474H191.949V0.379272ZM186.09 0.379272H183.16V2.65474H186.09V0.379272ZM180.23 0.379272H177.301V2.65474H180.23V0.379272ZM174.371 0.379272H171.441V2.65474H174.371V0.379272ZM168.512 0.379272H165.582V2.65474H168.512V0.379272ZM162.652 0.379272H159.723V2.65474H162.652V0.379272ZM156.793 0.379272H153.863V2.65474H156.793V0.379272ZM150.934 0.379272H148.004V2.65474H150.934V0.379272ZM145.074 0.379272H142.145V2.65474H145.074V0.379272ZM139.215 0.379272H137.75V2.65474H139.215V0.379272Z" fill="url(#paint0_linear_164_81)"/>
</g>
<defs>
<linearGradient id="paint0_linear_164_81" x1="126.463" y1="31.586" x2="126.463" y2="527.152" gradientUnits="userSpaceOnUse">
<stop stop-color="#3284FF"/>
<stop offset="1" stop-color="#01D1FF"/>
</linearGradient>
<clipPath id="clip0_164_81">
<rect width="248" height="536" fill="white"/>
</clipPath>
</defs>
</svg>
