<svg width="34" height="35" viewBox="0 0 34 35" fill="none" xmlns="http://www.w3.org/2000/svg">
<g clip-path="url(#clip0_370_8114)">
<g clip-path="url(#clip1_370_8114)">
<path d="M29.614 29.1933H4.41742C3.26003 29.1933 2.31836 28.2521 2.31836 27.0947V21.8447C2.31836 21.2644 2.78845 20.7949 3.36815 20.7949H30.6627C31.243 20.7949 31.7125 21.2644 31.7125 21.8447V27.0947C31.7125 28.2521 30.7714 29.1933 29.614 29.1933ZM4.41794 22.8945V27.0947L29.6151 27.0937L29.6129 22.8945H4.41794Z" fill="white"/>
<path d="M3.3681 22.8945C3.09946 22.8945 2.83092 22.7919 2.6259 22.5869C2.21585 22.1768 2.21585 21.5125 2.6259 21.1024L6.82454 16.9032C7.02137 16.7064 7.28844 16.5957 7.56674 16.5957H13.8665C14.4462 16.5957 14.9163 17.0652 14.9163 17.6455C14.9163 18.2258 14.4462 18.6953 13.8665 18.6953H8.00146L4.11041 22.5869C3.90528 22.7919 3.63674 22.8945 3.3681 22.8945Z" fill="white"/>
<path d="M30.6615 22.8945C30.3929 22.8945 30.1242 22.7919 29.9192 22.5869L26.0276 18.6953H23.314C22.7337 18.6953 22.2642 18.2258 22.2642 17.6455C22.2642 17.0652 22.7337 16.5957 23.314 16.5957H26.4623C26.7411 16.5957 27.0077 16.7064 27.2045 16.9033L31.4037 21.1025C31.8137 21.5125 31.8137 22.1768 31.4037 22.587C31.1986 22.7919 30.9301 22.8945 30.6615 22.8945Z" fill="white"/>
<path d="M6.54858 26.0429C5.96889 26.0429 5.49365 25.5734 5.49365 24.9932C5.49365 24.4129 5.95861 23.9434 6.53829 23.9434H6.54858C7.12881 23.9434 7.59838 24.4129 7.59838 24.9932C7.59838 25.5734 7.12881 26.0429 6.54858 26.0429Z" fill="white"/>
<path d="M12.8159 26.0429H9.66649C9.08679 26.0429 8.6167 25.5734 8.6167 24.9932C8.6167 24.4129 9.08679 23.9434 9.66649 23.9434H12.8159C13.3956 23.9434 13.8657 24.4129 13.8657 24.9932C13.8657 25.5734 13.3957 26.0429 12.8159 26.0429Z" fill="white"/>
<path d="M17.0151 18.6952C16.4354 18.6952 15.9653 18.2256 15.9653 17.6454C15.9653 17.0651 16.4354 16.5956 17.0151 16.5956C19.3305 16.5956 21.2137 14.7123 21.2137 12.3964C21.2137 10.0805 19.3305 8.19724 17.0151 8.19724C14.6996 8.19724 12.8159 10.0805 12.8159 12.3964C12.8159 12.9767 12.3458 13.4462 11.7661 13.4462C11.1864 13.4462 10.7163 12.9767 10.7163 12.3964C10.7163 8.92307 13.5417 6.09766 17.0151 6.09766C20.4878 6.09766 23.3133 8.92307 23.3133 12.3964C23.3133 15.8697 20.4878 18.6952 17.0151 18.6952Z" fill="white"/>
<path d="M11.7661 15.545C11.4973 15.545 11.2288 15.4424 11.0238 15.2374L8.92424 13.1378C8.51419 12.7277 8.51419 12.0635 8.92424 11.6533C9.33429 11.2431 9.9986 11.2432 10.4087 11.6533L11.7661 13.0107L13.1235 11.6533C13.5335 11.2432 14.1979 11.2432 14.6081 11.6533C15.0181 12.0634 15.018 12.7276 14.6081 13.1378L12.5085 15.2374C12.3032 15.4424 12.0347 15.545 11.7661 15.545Z" fill="white"/>
</g>
</g>
<defs>
<clipPath id="clip0_370_8114">
<rect width="33.5933" height="33.5933" fill="white" transform="translate(0.220215 0.849609)"/>
</clipPath>
<clipPath id="clip1_370_8114">
<rect width="33.5933" height="33.5933" fill="white" transform="translate(0.220215 0.849609)"/>
</clipPath>
</defs>
</svg>
