<svg width="74" height="74" viewBox="0 0 74 74" fill="none" xmlns="http://www.w3.org/2000/svg">
<rect x="0.885742" y="0.542969" width="72.9429" height="72.9429" rx="36.4714" fill="#E89271"/>
<path fill-rule="evenodd" clip-rule="evenodd" d="M21.5005 52.4744C21.5005 51.8176 22.0329 51.2852 22.6898 51.2852H51.2326C51.8895 51.2852 52.4219 51.8176 52.4219 52.4744C52.4219 53.1313 51.8895 53.6637 51.2326 53.6637H22.6898C22.0329 53.6637 21.5005 53.1313 21.5005 52.4744Z" fill="white"/>
<path fill-rule="evenodd" clip-rule="evenodd" d="M21.5005 32.4645C21.5005 30.9355 22.7465 29.6895 24.2755 29.6895H26.8126C28.3416 29.6895 29.5876 30.9355 29.5876 32.4645V46.1333C29.5876 47.6623 28.3416 48.9083 26.8126 48.9083H24.2755C22.7465 48.9083 21.5005 47.6623 21.5005 46.1333V32.4645ZM24.2755 32.068C24.0602 32.068 23.8791 32.2491 23.8791 32.4645V46.1333C23.8791 46.3486 24.0602 46.5297 24.2755 46.5297H26.8126C27.0279 46.5297 27.209 46.3486 27.209 46.1333V32.4645C27.209 32.2491 27.0279 32.068 26.8126 32.068H24.2755Z" fill="white"/>
<path fill-rule="evenodd" clip-rule="evenodd" d="M32.916 27.4039C32.916 25.8749 34.162 24.6289 35.691 24.6289H38.2281C39.7571 24.6289 41.0031 25.8749 41.0031 27.4039V46.1312C41.0031 47.6602 39.7571 48.9062 38.2281 48.9062H35.691C34.162 48.9062 32.916 47.6602 32.916 46.1312V27.4039ZM35.691 27.0075C35.4757 27.0075 35.2946 27.1886 35.2946 27.4039V46.1312C35.2946 46.3465 35.4757 46.5276 35.691 46.5276H38.2281C38.4434 46.5276 38.6245 46.3465 38.6245 46.1312V27.4039C38.6245 27.1886 38.4434 27.0075 38.2281 27.0075H35.691Z" fill="white"/>
<path fill-rule="evenodd" clip-rule="evenodd" d="M44.332 22.3463C44.332 20.8173 45.5781 19.5713 47.107 19.5713H49.6441C51.1731 19.5713 52.4191 20.8173 52.4191 22.3463V46.132C52.4191 47.661 51.1731 48.907 49.6441 48.907H47.107C45.5781 48.907 44.332 47.661 44.332 46.132V22.3463ZM47.107 21.9499C46.8917 21.9499 46.7106 22.131 46.7106 22.3463V46.132C46.7106 46.3473 46.8917 46.5284 47.107 46.5284H49.6441C49.8595 46.5284 50.0406 46.3473 50.0406 46.132V22.3463C50.0406 22.131 49.8595 21.9499 49.6441 21.9499H47.107Z" fill="white"/>
</svg>
