<svg width="33" height="33" viewBox="0 0 33 33" fill="none" xmlns="http://www.w3.org/2000/svg">
<g clip-path="url(#clip0_370_8233)">
<g clip-path="url(#clip1_370_8233)">
<g clip-path="url(#clip2_370_8233)">
<path d="M20.9185 24.5177H12.3745C10.3805 24.5177 8.75977 22.8969 8.75977 20.9029V12.3589C8.75977 10.3649 10.3805 8.74414 12.3745 8.74414H20.9185C22.9125 8.74414 24.5333 10.3649 24.5333 12.3589V20.9029C24.5333 22.8969 22.9125 24.5177 20.9185 24.5177ZM12.3745 10.7158C11.4688 10.7158 10.7315 11.4532 10.7315 12.3589V20.9029C10.7315 21.8086 11.4688 22.546 12.3745 22.546H20.9185C21.8242 22.546 22.5616 21.8086 22.5616 20.9029V12.3589C22.5616 11.4532 21.8242 10.7158 20.9185 10.7158H12.3745Z" fill="white"/>
<path d="M20.5898 28.7901C20.0457 28.7901 19.604 28.3484 19.604 27.8042V23.8608C19.604 23.3167 20.0457 22.875 20.5898 22.875C21.134 22.875 21.5757 23.3167 21.5757 23.8608V27.8042C21.5757 28.3484 21.134 28.7901 20.5898 28.7901Z" fill="white"/>
<path d="M20.5899 32.4043C19.1401 32.4043 17.9609 31.2253 17.9609 29.7754C17.9609 28.3256 19.1401 27.1465 20.5899 27.1465C22.0398 27.1465 23.2188 28.3256 23.2188 29.7754C23.2188 31.2253 22.0398 32.4043 20.5899 32.4043ZM20.5899 29.1182C20.2284 29.1182 19.9326 29.4126 19.9326 29.7754C19.9326 30.1382 20.2284 30.4326 20.5899 30.4326C20.9514 30.4326 21.2471 30.1382 21.2471 29.7754C21.2471 29.4126 20.9514 29.1182 20.5899 29.1182Z" fill="white"/>
<path d="M12.7031 28.7901C12.1589 28.7901 11.7173 28.3484 11.7173 27.8042V23.8608C11.7173 23.3167 12.1589 22.875 12.7031 22.875C13.2473 22.875 13.689 23.3167 13.689 23.8608V27.8042C13.689 28.3484 13.2473 28.7901 12.7031 28.7901Z" fill="white"/>
<path d="M12.7031 32.4043C11.2533 32.4043 10.0742 31.2253 10.0742 29.7754C10.0742 28.3256 11.2533 27.1465 12.7031 27.1465C14.153 27.1465 15.3321 28.3256 15.3321 29.7754C15.3321 31.2253 14.153 32.4043 12.7031 32.4043ZM12.7031 29.1182C12.3417 29.1182 12.0459 29.4126 12.0459 29.7754C12.0459 30.1382 12.3417 30.4326 12.7031 30.4326C13.0647 30.4326 13.3604 30.1382 13.3604 29.7754C13.3604 29.4126 13.0647 29.1182 12.7031 29.1182Z" fill="white"/>
<path d="M12.7031 10.3877C12.1589 10.3877 11.7173 9.94607 11.7173 9.40189V5.4585C11.7173 4.91432 12.1589 4.47266 12.7031 4.47266C13.2473 4.47266 13.689 4.91432 13.689 5.4585V9.40189C13.689 9.94607 13.2473 10.3877 12.7031 10.3877Z" fill="white"/>
<path d="M12.7031 6.11527C11.2533 6.11527 10.0742 4.93619 10.0742 3.48634C10.0742 2.03649 11.2533 0.857422 12.7031 0.857422C14.153 0.857422 15.3321 2.03649 15.3321 3.48634C15.3321 4.93619 14.153 6.11527 12.7031 6.11527ZM12.7031 2.82911C12.3417 2.82911 12.0459 3.12355 12.0459 3.48634C12.0459 3.84914 12.3417 4.14357 12.7031 4.14357C13.0647 4.14357 13.3604 3.84914 13.3604 3.48634C13.3604 3.12355 13.0647 2.82911 12.7031 2.82911Z" fill="white"/>
<path d="M20.5898 10.3877C20.0457 10.3877 19.604 9.94607 19.604 9.40189V5.4585C19.604 4.91432 20.0457 4.47266 20.5898 4.47266C21.134 4.47266 21.5757 4.91432 21.5757 5.4585V9.40189C21.5757 9.94607 21.134 10.3877 20.5898 10.3877Z" fill="white"/>
<path d="M20.5899 6.11527C19.1401 6.11527 17.9609 4.93619 17.9609 3.48634C17.9609 2.03649 19.1401 0.857422 20.5899 0.857422C22.0398 0.857422 23.2188 2.03649 23.2188 3.48634C23.2188 4.93619 22.0398 6.11527 20.5899 6.11527ZM20.5899 2.82911C20.2284 2.82911 19.9326 3.12355 19.9326 3.48634C19.9326 3.84914 20.2284 4.14357 20.5899 4.14357C20.9514 4.14357 21.2471 3.84914 21.2471 3.48634C21.2471 3.12355 20.9514 2.82911 20.5899 2.82911Z" fill="white"/>
<path d="M9.41702 21.5615H5.47364C4.92945 21.5615 4.48779 21.1199 4.48779 20.5757C4.48779 20.0315 4.92945 19.5898 5.47364 19.5898H9.41702C9.96121 19.5898 10.4029 20.0315 10.4029 20.5757C10.4029 21.1199 9.96121 21.5615 9.41702 21.5615Z" fill="white"/>
<path d="M3.50148 23.2032C2.05163 23.2032 0.872559 22.0241 0.872559 20.5742C0.872559 19.1244 2.05163 17.9453 3.50148 17.9453C4.95133 17.9453 6.1304 19.1244 6.1304 20.5742C6.1304 22.0241 4.95133 23.2032 3.50148 23.2032ZM3.50148 19.917C3.14 19.917 2.84425 20.2114 2.84425 20.5742C2.84425 20.937 3.14 21.2315 3.50148 21.2315C3.86296 21.2315 4.15871 20.937 4.15871 20.5742C4.15871 20.2114 3.86296 19.917 3.50148 19.917Z" fill="white"/>
<path d="M9.41702 13.6748H5.47364C4.92945 13.6748 4.48779 13.2332 4.48779 12.689C4.48779 12.1448 4.92945 11.7031 5.47364 11.7031H9.41702C9.96121 11.7031 10.4029 12.1448 10.4029 12.689C10.4029 13.2332 9.96121 13.6748 9.41702 13.6748Z" fill="white"/>
<path d="M3.50148 15.3164C2.05163 15.3164 0.872559 14.1374 0.872559 12.6875C0.872559 11.2377 2.05163 10.0586 3.50148 10.0586C4.95133 10.0586 6.1304 11.2377 6.1304 12.6875C6.1304 14.1374 4.95133 15.3164 3.50148 15.3164ZM3.50148 12.0303C3.14 12.0303 2.84425 12.3247 2.84425 12.6875C2.84425 13.0503 3.14 13.3447 3.50148 13.3447C3.86296 13.3447 4.15871 13.0503 4.15871 12.6875C4.15871 12.3247 3.86296 12.0303 3.50148 12.0303Z" fill="white"/>
<path d="M27.8194 13.6748H23.876C23.3318 13.6748 22.8901 13.2332 22.8901 12.689C22.8901 12.1448 23.3318 11.7031 23.876 11.7031H27.8194C28.3636 11.7031 28.8052 12.1448 28.8052 12.689C28.8052 13.2332 28.3636 13.6748 27.8194 13.6748Z" fill="white"/>
<path d="M29.791 15.3164C28.3412 15.3164 27.1621 14.1374 27.1621 12.6875C27.1621 11.2377 28.3412 10.0586 29.791 10.0586C31.2409 10.0586 32.42 11.2377 32.42 12.6875C32.42 14.1374 31.2409 15.3164 29.791 15.3164ZM29.791 12.0303C29.4296 12.0303 29.1338 12.3247 29.1338 12.6875C29.1338 13.0503 29.4296 13.3447 29.791 13.3447C30.1526 13.3447 30.4483 13.0503 30.4483 12.6875C30.4483 12.3247 30.1526 12.0303 29.791 12.0303Z" fill="white"/>
<path d="M27.8194 21.5615H23.876C23.3318 21.5615 22.8901 21.1199 22.8901 20.5757C22.8901 20.0315 23.3318 19.5898 23.876 19.5898H27.8194C28.3636 19.5898 28.8052 20.0315 28.8052 20.5757C28.8052 21.1199 28.3636 21.5615 27.8194 21.5615Z" fill="white"/>
<path d="M29.791 23.2032C28.3412 23.2032 27.1621 22.0241 27.1621 20.5742C27.1621 19.1244 28.3412 17.9453 29.791 17.9453C31.2409 17.9453 32.42 19.1244 32.42 20.5742C32.42 22.0241 31.2409 23.2032 29.791 23.2032ZM29.791 19.917C29.4296 19.917 29.1338 20.2114 29.1338 20.5742C29.1338 20.937 29.4296 21.2315 29.791 21.2315C30.1526 21.2315 30.4483 20.937 30.4483 20.5742C30.4483 20.2114 30.1526 19.917 29.791 19.917Z" fill="white"/>
</g>
</g>
</g>
<defs>
<clipPath id="clip0_370_8233">
<rect width="31.5471" height="31.5471" fill="white" transform="translate(0.87207 0.859375)"/>
</clipPath>
<clipPath id="clip1_370_8233">
<rect width="31.5471" height="31.5471" fill="white" transform="translate(0.87207 0.859375)"/>
</clipPath>
<clipPath id="clip2_370_8233">
<rect width="31.5471" height="31.5471" fill="white" transform="translate(0.87207 0.859375)"/>
</clipPath>
</defs>
</svg>
