<svg width="65" height="65" viewBox="0 0 65 65" fill="none" xmlns="http://www.w3.org/2000/svg">
<g clip-path="url(#clip0_147_76)">
<path d="M11.3345 42.1228C9.15888 42.1228 7.03215 42.7679 5.22321 43.9766C3.41426 45.1853 2.00437 46.9033 1.1718 48.9133C0.339239 50.9233 0.121402 53.135 0.54584 55.2688C0.970277 57.4026 2.01793 59.3626 3.5563 60.901C5.09468 62.4394 7.05469 63.487 9.18848 63.9114C11.3223 64.3359 13.534 64.118 15.544 63.2855C17.554 62.4529 19.2719 61.043 20.4806 59.2341C21.6893 57.4251 22.3345 55.2984 22.3345 53.1228C22.3312 50.2064 21.1712 47.4105 19.109 45.3483C17.0468 43.2861 14.2508 42.1261 11.3345 42.1228ZM11.3345 62.1228C9.55445 62.1228 7.81439 61.595 6.33435 60.606C4.8543 59.6171 3.70075 58.2115 3.01956 56.567C2.33837 54.9224 2.16014 53.1128 2.50741 51.367C2.85468 49.6212 3.71184 48.0175 4.97052 46.7588C6.22919 45.5002 7.83284 44.643 9.57866 44.2957C11.3245 43.9485 13.1341 44.1267 14.7786 44.8079C16.4232 45.4891 17.8288 46.6426 18.8177 48.1227C19.8066 49.6027 20.3345 51.3428 20.3345 53.1228C20.3317 55.5089 19.3826 57.7965 17.6954 59.4837C16.0082 61.1709 13.7206 62.12 11.3345 62.1228Z" fill="#222325"/>
<path d="M13.0781 49.5696C13.2257 49.7089 13.3165 49.898 13.333 50.1003C13.3269 50.3612 13.4229 50.614 13.6006 50.805C13.7783 50.996 14.0236 51.1101 14.2842 51.1228C14.547 51.1275 14.8017 51.0317 14.9963 50.8551C15.1909 50.6784 15.3108 50.4342 15.3315 50.1721C15.3366 49.4334 15.0493 48.7227 14.5322 48.1951C13.9342 47.6201 13.1593 47.2642 12.3335 47.1851V47.1228C12.3335 46.8576 12.2281 46.6032 12.0406 46.4157C11.853 46.2282 11.5987 46.1228 11.3335 46.1228C11.0683 46.1228 10.8139 46.2282 10.6264 46.4157C10.4388 46.6032 10.3335 46.8576 10.3335 47.1228V47.2077C9.50409 47.316 8.74243 47.7223 8.19061 48.3508C7.63878 48.9794 7.33447 49.7872 7.33447 50.6237C7.33447 51.4601 7.63878 52.2679 8.19061 52.8965C8.74243 53.525 9.50409 53.9313 10.3335 54.0396V57.0295C10.0583 56.9798 9.80129 56.8578 9.58884 56.676C9.4477 56.5419 9.35745 56.3629 9.33347 56.1697C9.34452 55.9058 9.25073 55.6487 9.07257 55.4537C8.8944 55.2587 8.64633 55.1421 8.3825 55.1293C8.11867 55.1165 7.8605 55.2086 7.66434 55.3855C7.46818 55.5624 7.34995 55.8097 7.33547 56.0735C7.33036 56.8122 7.61771 57.5229 8.13479 58.0505C8.73271 58.6257 9.50758 58.9817 10.3335 59.0608V59.1228C10.3335 59.388 10.4388 59.6424 10.6264 59.8299C10.8139 60.0174 11.0683 60.1228 11.3335 60.1228C11.5987 60.1228 11.853 60.0174 12.0406 59.8299C12.2281 59.6424 12.3335 59.388 12.3335 59.1228V59.0379C13.1629 58.9296 13.9245 58.5233 14.4763 57.8948C15.0282 57.2662 15.3325 56.4584 15.3325 55.6219C15.3325 54.7855 15.0282 53.9777 14.4763 53.3491C13.9245 52.7206 13.1629 52.3143 12.3335 52.206V49.2171C12.6086 49.2664 12.8656 49.388 13.0781 49.5696ZM9.33447 50.6233C9.33434 50.32 9.43122 50.0247 9.61097 49.7804C9.79071 49.5361 10.0439 49.3558 10.3335 49.2657V51.9814C10.0439 51.8911 9.79082 51.7106 9.6111 51.4663C9.43139 51.222 9.33446 50.9266 9.33447 50.6233ZM13.3325 55.6223C13.3326 55.9256 13.2357 56.2209 13.056 56.4652C12.8762 56.7095 12.6231 56.8898 12.3335 56.9799V54.2642C12.623 54.3545 12.8761 54.535 13.0558 54.7793C13.2356 55.0236 13.3325 55.319 13.3325 55.6223Z" fill="#222325"/>
<path d="M63.3335 57.1228H58.3335V15.1228C58.3336 14.9915 58.3077 14.8614 58.2575 14.7401C58.2072 14.6187 58.1336 14.5085 58.0407 14.4156C57.9479 14.3228 57.8376 14.2491 57.7163 14.1989C57.5949 14.1486 57.4649 14.1228 57.3335 14.1228H49.3335C49.2022 14.1228 49.0722 14.1486 48.9508 14.1989C48.8295 14.2491 48.7192 14.3228 48.6264 14.4156C48.5335 14.5085 48.4598 14.6187 48.4096 14.7401C48.3593 14.8614 48.3335 14.9915 48.3335 15.1228V57.1228H44.3335V21.1228C44.3336 20.9915 44.3077 20.8614 44.2575 20.7401C44.2072 20.6187 44.1336 20.5085 44.0407 20.4156C43.9479 20.3228 43.8376 20.2491 43.7163 20.1989C43.5949 20.1486 43.4649 20.1228 43.3335 20.1228H35.3335C35.2022 20.1228 35.0722 20.1486 34.9508 20.1989C34.8295 20.2491 34.7192 20.3228 34.6264 20.4156C34.5335 20.5085 34.4598 20.6187 34.4096 20.7401C34.3593 20.8614 34.3335 20.9915 34.3335 21.1228V57.1228H30.3335V27.1228C30.3335 26.8576 30.2282 26.6032 30.0406 26.4157C29.8531 26.2282 29.5988 26.1228 29.3335 26.1228H21.3335C21.0683 26.1228 20.814 26.2282 20.6264 26.4157C20.4389 26.6032 20.3335 26.8576 20.3335 27.1228V43.3328C20.3335 43.598 20.4389 43.8524 20.6264 44.0399C20.814 44.2274 21.0683 44.3328 21.3335 44.3328C21.5988 44.3328 21.8531 44.2274 22.0406 44.0399C22.2282 43.8524 22.3335 43.598 22.3335 43.3328V28.1228H28.3335V57.1228H24.4034C24.1381 57.1228 23.8838 57.2282 23.6962 57.4157C23.5087 57.6032 23.4034 57.8576 23.4034 58.1228C23.4034 58.388 23.5087 58.6424 23.6962 58.8299C23.8838 59.0174 24.1381 59.1228 24.4034 59.1228H62.3335V62.1228H21.1235C20.8583 62.1228 20.604 62.2282 20.4164 62.4157C20.2289 62.6032 20.1235 62.8576 20.1235 63.1228C20.1235 63.388 20.2289 63.6424 20.4164 63.8299C20.604 64.0174 20.8583 64.1228 21.1235 64.1228H63.3335C63.4649 64.1228 63.5949 64.097 63.7163 64.0468C63.8376 63.9965 63.9479 63.9229 64.0407 63.83C64.1336 63.7371 64.2072 63.6269 64.2575 63.5055C64.3077 63.3842 64.3336 63.2541 64.3335 63.1228V58.1228C64.3336 57.9915 64.3077 57.8614 64.2575 57.7401C64.2072 57.6187 64.1336 57.5085 64.0407 57.4156C63.9479 57.3228 63.8376 57.2491 63.7163 57.1989C63.5949 57.1486 63.4649 57.1228 63.3335 57.1228ZM50.3335 16.1228H56.3335V57.1228H50.3335V16.1228ZM36.3335 22.1228H42.3335V57.1228H36.3335V22.1228Z" fill="#222325"/>
<path d="M7.33447 40.7029C7.59969 40.7029 7.85403 40.5975 8.04156 40.41C8.2291 40.2224 8.33446 39.9681 8.33447 39.7029V33.1228H14.3345V39.7029C14.3345 39.9681 14.4398 40.2225 14.6274 40.41C14.8149 40.5975 15.0693 40.7029 15.3345 40.7029C15.5997 40.7029 15.854 40.5975 16.0416 40.41C16.2291 40.2225 16.3345 39.9681 16.3345 39.7029V32.1228C16.3345 31.8576 16.2291 31.6032 16.0416 31.4157C15.854 31.2282 15.5997 31.1228 15.3345 31.1228H7.33447C7.06926 31.1228 6.8149 31.2282 6.62737 31.4157C6.43983 31.6032 6.33447 31.8576 6.33447 32.1228V39.7029C6.33449 39.9681 6.43985 40.2224 6.62738 40.41C6.81491 40.5975 7.06926 40.7029 7.33447 40.7029Z" fill="#222325"/>
<path d="M11.3332 25.1228L11.3815 25.1218C29.3014 24.2682 46.8534 8.79559 52.3342 3.52685V10.1228C52.3342 10.388 52.4395 10.6424 52.6271 10.8299C52.8146 11.0174 53.069 11.1228 53.3342 11.1228C53.5994 11.1228 53.8538 11.0174 54.0413 10.8299C54.2288 10.6424 54.3342 10.388 54.3342 10.1228V1.1228L54.3319 1.1112C54.3228 0.85034 54.2146 0.602766 54.0291 0.419062C53.8437 0.235358 53.5951 0.129388 53.3342 0.122803L44.3342 0.122803C44.069 0.122803 43.8146 0.22816 43.6271 0.415696C43.4395 0.603232 43.3342 0.857586 43.3342 1.1228C43.3342 1.38802 43.4395 1.64237 43.6271 1.82991C43.8146 2.01745 44.069 2.1228 44.3342 2.1228H50.888C45.4992 7.2417 28.2543 22.3161 11.2868 23.1238C11.0261 23.1363 10.7806 23.2501 10.6028 23.4411C10.4249 23.6321 10.3287 23.885 10.3347 24.1459C10.3408 24.4068 10.4486 24.655 10.6351 24.8376C10.8217 25.0201 11.0722 25.1224 11.3332 25.1228Z" fill="#222325"/>
</g>
<defs>
<clipPath id="clip0_147_76">
<rect width="64" height="64" fill="white" transform="translate(0.334473 0.122803)"/>
</clipPath>
</defs>
</svg>
