<svg width="33" height="34" viewBox="0 0 33 34" fill="none" xmlns="http://www.w3.org/2000/svg">
<g clip-path="url(#clip0_370_8050)">
<g clip-path="url(#clip1_370_8050)">
<g clip-path="url(#clip2_370_8050)">
<path d="M32.9613 8.7057V0.916016H19.442V8.7057H21.3733V31.946H18.9323L16.2748 27.9099C18.1706 26.3144 19.3776 23.9253 19.3776 21.2593C19.3776 19.1946 18.6534 17.296 17.4463 15.8034V8.7057C17.4463 6.57584 15.7135 4.84305 13.5837 4.84305C11.4538 4.84305 9.72102 6.57584 9.72102 8.7057H7.78969V13.0655C4.41759 14.2612 1.99571 17.4825 1.99571 21.2593C1.99571 23.9253 3.20272 26.3144 5.09858 27.9099L2.44101 31.946H0V33.8774C0 33.8774 32.4245 33.8774 32.9613 33.8774V31.946H31.03V8.7057H32.9613ZM4.58014 24.1563C4.29412 23.5557 4.09429 22.8938 3.99631 22.2121H17.3771C17.2791 22.8938 17.0794 23.5557 16.7933 24.1563H4.58014ZM15.4123 26.0877C14.1926 27.2816 12.5243 28.019 10.6867 28.019C8.84909 28.019 7.1808 27.2816 5.96111 26.0877H15.4123ZM13.5837 6.77438C14.6486 6.77438 15.515 7.64078 15.515 8.7057V14.0366C14.9191 13.6369 14.2711 13.3093 13.5837 13.0655V8.7057H11.6524C11.6524 7.64078 12.5187 6.77438 13.5837 6.77438ZM9.72102 10.637H11.6524V12.6223C11.3352 12.5871 11.013 12.5684 10.6867 12.5684C10.3603 12.5684 10.0382 12.5871 9.72102 12.6223V10.637ZM10.6867 14.4997C14.0861 14.4997 16.9071 17.0222 17.3771 20.2937H3.99631C4.46633 17.0222 7.28722 14.4997 10.6867 14.4997ZM6.70455 28.9828C7.89823 29.6007 9.25235 29.9503 10.6867 29.9503C12.121 29.9503 13.4751 29.6007 14.6688 28.9828L16.62 31.946H4.75345L6.70455 28.9828ZM21.3733 2.84734H31.03V6.77438C31.03 6.77438 21.7493 6.77438 21.3733 6.77438V2.84734ZM29.0987 14.4997H25.2361V16.431H29.0987V18.3623H25.2361V20.2937H29.0987V22.225H25.2361V24.1563H29.0987V28.019H23.3047V8.7057H29.0987V10.637H25.2361V12.5684H29.0987V14.4997ZM23.3047 31.946V29.9503H29.0987V31.946H23.3047Z" fill="white"/>
</g>
</g>
</g>
<defs>
<clipPath id="clip0_370_8050">
<rect width="32.9613" height="32.9613" fill="white" transform="translate(0 0.914062)"/>
</clipPath>
<clipPath id="clip1_370_8050">
<rect width="32.9613" height="32.9613" fill="white" transform="translate(0 0.914062)"/>
</clipPath>
<clipPath id="clip2_370_8050">
<rect width="32.9613" height="32.9613" fill="white" transform="translate(0 0.914062)"/>
</clipPath>
</defs>
</svg>
