<svg width="32" height="33" viewBox="0 0 32 33" fill="none" xmlns="http://www.w3.org/2000/svg">
<g clip-path="url(#clip0_370_7997)">
<g clip-path="url(#clip1_370_7997)">
<g clip-path="url(#clip2_370_7997)">
<path d="M29.941 17.7832H25.5145V15.0167C25.5145 14.5074 25.1016 14.0945 24.5923 14.0945H18.2552C17.9878 13.3409 17.4028 12.7368 16.6616 12.4437V10.8361H21.1071C23.1919 10.8361 24.888 9.13995 24.888 7.05516C24.888 4.97037 23.1919 3.27425 21.1071 3.27425C20.8821 3.27425 20.6605 3.29361 20.443 3.33209C19.5825 1.55906 17.7629 0.384766 15.7394 0.384766C13.716 0.384766 11.8963 1.55906 11.0357 3.33209C10.8183 3.29361 10.5966 3.27425 10.3718 3.27425C8.28697 3.27425 6.59083 4.97037 6.59083 7.05516C6.59083 9.13995 8.28697 10.8361 10.3718 10.8361H14.8173V12.3775C13.9892 12.6384 13.3285 13.2792 13.0393 14.0944H6.88655C6.37726 14.0944 5.96437 14.5073 5.96437 15.0166V17.7831H1.53793C0.690456 17.7831 0.000976562 18.4727 0.000976562 19.3201V26.636C0.000976562 27.4834 0.690456 28.173 1.53793 28.173H5.90289V30.0173H4.02781C3.51852 30.0173 3.10563 30.4302 3.10563 30.9395C3.10563 31.4488 3.51852 31.8617 4.02781 31.8617H9.62233C10.1316 31.8617 10.5445 31.4488 10.5445 30.9395C10.5445 30.4302 10.1316 30.0173 9.62233 30.0173H7.74724V28.173H12.2352C13.0827 28.173 13.7721 27.4834 13.7721 26.636V19.3201C13.7721 18.4727 13.0827 17.7831 12.2352 17.7831H7.80873V15.9388H13.0393C13.42 17.0121 14.445 17.7832 15.6472 17.7832C16.8494 17.7832 17.8744 17.0122 18.2552 15.9388H23.6701V17.7831H19.2436C18.3962 17.7831 17.7067 18.4727 17.7067 19.3201V26.636C17.7067 27.4834 18.3962 28.173 19.2436 28.173H23.6087V30.0173H21.7336C21.2243 30.0173 20.8114 30.4302 20.8114 30.9395C20.8114 31.4488 21.2243 31.8617 21.7336 31.8617H27.3281C27.8374 31.8617 28.2502 31.4488 28.2502 30.9395C28.2502 30.4302 27.8374 30.0173 27.3281 30.0173H25.453V28.173H29.941C30.7884 28.173 31.4779 27.4834 31.4779 26.636V19.3201C31.4779 18.4727 30.7884 17.7832 29.941 17.7832ZM8.43519 7.05516C8.43519 5.98735 9.30394 5.1186 10.3718 5.1186C10.6602 5.1186 10.9376 5.18039 11.1962 5.3023C11.4423 5.41843 11.7274 5.41972 11.9748 5.30598C12.2221 5.19219 12.4065 4.97498 12.4786 4.71241C12.8803 3.25033 14.2212 2.22911 15.7394 2.22911C17.2577 2.22911 18.5986 3.25027 19.0002 4.71241C19.0722 4.97498 19.2568 5.19224 19.5041 5.30604C19.7515 5.41984 20.0364 5.41843 20.2827 5.3023C20.5412 5.18044 20.8185 5.1186 21.1071 5.1186C22.1749 5.1186 23.0436 5.98735 23.0436 7.05516C23.0436 8.12298 22.1749 8.99172 21.1071 8.99172H10.3718C9.30394 8.99172 8.43519 8.12305 8.43519 7.05516ZM11.9278 26.3287H1.84532V19.6274H11.9278V26.3287ZM15.6472 15.9389C15.1387 15.9389 14.725 15.5252 14.725 15.0167C14.725 14.5081 15.1387 14.0945 15.6472 14.0945C16.1557 14.0945 16.5694 14.5081 16.5694 15.0167C16.5694 15.5252 16.1557 15.9389 15.6472 15.9389ZM29.6335 26.3287H19.5511V19.6274H29.6335V26.3287Z" fill="white"/>
</g>
</g>
</g>
<defs>
<clipPath id="clip0_370_7997">
<rect width="31.4769" height="31.4769" fill="white" transform="translate(0.000488281 0.644531)"/>
</clipPath>
<clipPath id="clip1_370_7997">
<rect width="31.4769" height="31.4769" fill="white" transform="translate(0.000488281 0.644531)"/>
</clipPath>
<clipPath id="clip2_370_7997">
<rect width="31.4769" height="31.4769" fill="white" transform="translate(0.000488281 0.644531)"/>
</clipPath>
</defs>
</svg>
