<svg width="33" height="34" viewBox="0 0 33 34" fill="none" xmlns="http://www.w3.org/2000/svg">
<g clip-path="url(#clip0_370_8055)">
<g clip-path="url(#clip1_370_8055)">
<path fill-rule="evenodd" clip-rule="evenodd" d="M19.1707 23.732V29.5501C19.1707 29.8614 19.3204 30.1542 19.5715 30.3364C19.8234 30.5187 20.1469 30.5681 20.4414 30.4702L23.033 29.6025L25.6246 30.4702C25.9192 30.5681 26.2426 30.5187 26.4946 30.3364C26.7457 30.1542 26.8954 29.8614 26.8954 29.5501V23.733C27.5017 22.9226 27.8609 21.9152 27.8609 20.8245C27.8609 18.1485 25.698 15.9769 23.033 15.9769C20.368 15.9769 18.2051 18.1485 18.2051 20.8245C18.2051 21.9152 18.5643 22.9215 19.1707 23.732ZM23.9986 14.0378V6.28161C23.9986 4.67609 22.7009 3.37305 21.1019 3.37305H7.58376C5.98475 3.37305 4.68701 4.67609 4.68701 6.28161V27.6111C4.68701 29.2166 5.98475 30.5197 7.58376 30.5197H17.2395C17.7725 30.5197 18.2051 30.0853 18.2051 29.5501C18.2051 29.015 17.7725 28.5806 17.2395 28.5806H7.58376C7.05075 28.5806 6.61817 28.1463 6.61817 27.6111V6.28161C6.61817 5.74644 7.05075 5.3121 7.58376 5.3121H21.1019C21.6349 5.3121 22.0675 5.74644 22.0675 6.28161V14.0378C22.0675 14.573 22.5 15.0073 23.033 15.0073C23.566 15.0073 23.9986 14.573 23.9986 14.0378ZM21.1019 25.2678V28.2054L22.7279 27.6606C22.9258 27.5947 23.1402 27.5947 23.3381 27.6606L24.9642 28.2054V25.2678C24.3723 25.5276 23.7196 25.672 23.033 25.672C22.3465 25.672 21.6938 25.5276 21.1019 25.2678ZM12.4116 19.6736C12.2388 19.5292 12.0592 19.4167 11.8796 19.3304C10.9459 18.8854 9.93784 19.1316 9.30732 19.7337C8.45664 20.5452 8.26545 22.1624 9.1113 23.7854C9.60954 24.7898 10.8426 25.8214 11.895 26.4913C12.2108 26.692 12.6125 26.692 12.9283 26.4913C13.9846 25.8194 15.2225 24.783 15.7158 23.7757C16.5578 22.1624 16.3667 20.5452 15.516 19.7337C14.8855 19.1316 13.8774 18.8854 12.9437 19.3304C12.7641 19.4167 12.5845 19.5292 12.4116 19.6736ZM11.5213 21.6854C11.672 22.0451 12.0235 22.2788 12.4116 22.2788C12.7998 22.2788 13.1503 22.0451 13.3019 21.6854C13.5462 21.1028 13.9411 20.9059 14.1864 21.1395C14.3148 21.2617 14.3428 21.4585 14.3428 21.6728C14.3428 22.0451 14.2201 22.4678 13.9961 22.8934C13.9923 22.9012 13.9884 22.9099 13.9846 22.9176C13.7017 23.4965 13.0519 24.0558 12.4116 24.5077C11.7714 24.0558 11.1216 23.4965 10.8387 22.9176C10.8349 22.9099 10.831 22.9012 10.8271 22.8934C10.6031 22.4678 10.4805 22.0451 10.4805 21.6728C10.4805 21.4585 10.5085 21.2627 10.6369 21.1395C10.8822 20.9059 11.277 21.1028 11.5213 21.6854ZM23.033 17.9159C24.632 17.9159 25.9298 19.219 25.9298 20.8245C25.9298 22.43 24.632 23.733 23.033 23.733C21.434 23.733 20.1363 22.43 20.1363 20.8245C20.1363 19.219 21.434 17.9159 23.033 17.9159ZM9.51492 16.9464H17.2395C17.7725 16.9464 18.2051 16.512 18.2051 15.9769C18.2051 15.4416 17.7725 15.0073 17.2395 15.0073H9.51492C8.98192 15.0073 8.54934 15.4416 8.54934 15.9769C8.54934 16.512 8.98192 16.9464 9.51492 16.9464ZM9.51492 13.0683H19.1707C19.7037 13.0683 20.1363 12.634 20.1363 12.0988C20.1363 11.5635 19.7037 11.1292 19.1707 11.1292H9.51492C8.98192 11.1292 8.54934 11.5635 8.54934 12.0988C8.54934 12.634 8.98192 13.0683 9.51492 13.0683ZM9.51492 9.19018H19.1707C19.7037 9.19018 20.1363 8.75584 20.1363 8.22067C20.1363 7.68548 19.7037 7.25114 19.1707 7.25114H9.51492C8.98192 7.25114 8.54934 7.68548 8.54934 8.22067C8.54934 8.75584 8.98192 9.19018 9.51492 9.19018Z" fill="white"/>
</g>
</g>
<defs>
<clipPath id="clip0_370_8055">
<rect width="31.9285" height="32.9613" fill="white" transform="translate(0.553223 0.914062)"/>
</clipPath>
<clipPath id="clip1_370_8055">
<rect width="31.9285" height="32.9613" fill="white" transform="translate(0.553223 0.914062)"/>
</clipPath>
</defs>
</svg>
