<svg width="74" height="74" viewBox="0 0 74 74" fill="none" xmlns="http://www.w3.org/2000/svg">
<rect x="0.228516" y="0.542969" width="72.9429" height="72.9429" rx="36.4714" fill="#D398E7"/>
<path fill-rule="evenodd" clip-rule="evenodd" d="M36.7008 23.5681C33.289 23.5681 30.5231 26.3339 30.5231 29.7457C30.5231 33.1576 33.289 35.9234 36.7008 35.9234C40.1126 35.9234 42.8785 33.1576 42.8785 29.7457C42.8785 26.3339 40.1126 23.5681 36.7008 23.5681ZM28.3428 29.7457C28.3428 25.1297 32.0848 21.3877 36.7008 21.3877C41.3168 21.3877 45.0588 25.1297 45.0588 29.7457C45.0588 34.3617 41.3168 38.1038 36.7008 38.1038C32.0848 38.1038 28.3428 34.3617 28.3428 29.7457Z" fill="white"/>
<path fill-rule="evenodd" clip-rule="evenodd" d="M23.124 51.5503C23.124 45.1243 29.4283 40.2852 36.7004 40.2852C43.9724 40.2852 50.2767 45.1243 50.2767 51.5503C50.2767 52.1524 49.7886 52.6405 49.1866 52.6405C48.5845 52.6405 48.0964 52.1524 48.0964 51.5503C48.0964 46.7257 43.2082 42.4655 36.7004 42.4655C30.1926 42.4655 25.3044 46.7257 25.3044 51.5503C25.3044 52.1524 24.8163 52.6405 24.2142 52.6405C23.6121 52.6405 23.124 52.1524 23.124 51.5503Z" fill="white"/>
</svg>
