<svg width="34" height="34" viewBox="0 0 34 34" fill="none" xmlns="http://www.w3.org/2000/svg">
<g clip-path="url(#clip0_370_8080)">
<g clip-path="url(#clip1_370_8080)">
<path d="M19.627 1.844C18.8987 1.85454 18.316 2.45538 18.3305 3.18665V7.11571H17.0235C16.2939 7.11176 15.7008 7.70599 15.7034 8.43858V12.3848C15.7034 15.2809 18.0693 17.6564 20.9536 17.6564V21.6027C20.9536 25.2748 18.0536 28.1959 14.3977 28.1959C10.7418 28.1959 7.83388 25.2735 7.83388 21.6027V16.3336C7.84306 15.5944 7.24337 14.9923 6.5072 15.0015C5.78154 15.0068 5.20021 15.6063 5.20809 16.3336V21.6027C5.20809 26.6886 9.33377 30.8311 14.399 30.8311C19.4643 30.8311 23.5795 26.6886 23.5795 21.6027V17.6564C26.4638 17.6564 28.8297 15.2809 28.8297 12.3848V8.43858C28.8323 7.70731 28.2418 7.11308 27.5122 7.11571H26.2052V3.18665C26.2197 2.43825 25.6121 1.82951 24.8681 1.844C24.1424 1.85849 23.565 2.45802 23.5795 3.18665V7.11571H20.9536V3.18665C20.9681 2.44352 20.3671 1.8361 19.627 1.844ZM26.2039 9.74958V12.3834C26.2039 13.8657 25.0544 15.0174 23.5781 15.0174C22.695 15.016 21.8354 15.0174 20.955 15.0174C19.4787 15.0174 18.3318 13.8657 18.3318 12.3834V9.74958H26.2039Z" fill="white"/>
</g>
</g>
<defs>
<clipPath id="clip0_370_8080">
<rect width="33.5933" height="33.5933" fill="white" transform="translate(0.220215)"/>
</clipPath>
<clipPath id="clip1_370_8080">
<rect width="33.5933" height="33.5933" fill="white" transform="translate(0.220215)"/>
</clipPath>
</defs>
</svg>
