<svg width="32" height="33" viewBox="0 0 32 33" fill="none" xmlns="http://www.w3.org/2000/svg">
<g clip-path="url(#clip0_370_7985)">
<g clip-path="url(#clip1_370_7985)">
<g clip-path="url(#clip2_370_7985)">
<path d="M28.3447 25.6034C27.4217 25.2254 27.0268 24.7237 27.065 23.9752C27.1043 23.1014 26.6087 22.4615 26.3732 22.2086C26.5155 21.6653 26.9311 19.7861 26.3736 18.1537C25.7746 16.4064 23.9459 13.7379 22.0589 11.1148C21.2864 10.0375 21.2499 8.86657 21.2076 7.51067C21.1672 6.21743 21.1216 4.75153 20.4004 3.12194C19.6163 1.34756 18.0428 0.330078 16.0833 0.330078C14.9176 0.330078 13.7211 0.694387 12.8003 1.3295C10.9148 2.6308 11.164 5.46797 11.3289 7.34535C11.3515 7.60243 11.3728 7.84526 11.3852 8.0526C11.4949 9.89128 11.395 10.8604 11.2644 11.1549C11.1799 11.3474 10.7638 11.8952 10.3234 12.4752C9.86796 13.075 9.35163 13.7549 8.92839 14.3885C8.42342 15.1509 8.01576 16.3161 7.62153 17.443C7.33307 18.2676 7.06062 19.0465 6.79538 19.5119C6.29268 20.4073 6.41777 21.2423 6.52221 21.6281C6.3319 21.7603 6.05697 22.0206 5.82486 22.5112C5.54436 23.1098 4.97518 23.4315 3.79165 23.6591C3.24776 23.7703 2.87272 23.999 2.67663 24.3388C2.39127 24.8332 2.5467 25.4545 2.6885 25.879C2.898 26.5032 2.76745 26.8983 2.53009 27.6156C2.47538 27.7811 2.41336 27.9686 2.35051 28.1753C2.25154 28.5015 2.28724 28.7981 2.4564 29.0568C2.90337 29.7401 4.20766 29.9811 5.55034 30.1396C6.35202 30.2348 7.22946 30.5555 8.0781 30.8656C8.90961 31.1695 9.76941 31.4837 10.5509 31.5791C10.6698 31.5941 10.7874 31.6016 10.9008 31.6016C12.0808 31.6016 12.614 30.8186 12.7831 30.4969C13.2069 30.4105 14.6688 30.1335 16.1754 30.0963C17.6797 30.0533 19.1352 30.3503 19.5475 30.4428C19.6771 30.6908 20.0189 31.2575 20.5636 31.5495C20.863 31.7132 21.2796 31.807 21.7063 31.807C21.7062 31.807 21.7064 31.807 21.7063 31.807C22.1621 31.807 23.0292 31.6992 23.7154 30.9774C24.3998 30.252 26.11 29.3261 27.3587 28.65C27.6373 28.4991 27.8981 28.3579 28.1267 28.2305C28.8281 27.8416 29.211 27.2859 29.1768 26.706C29.1482 26.2243 28.8295 25.8019 28.3447 25.6034ZM12.8157 25.4638C12.7284 24.8487 11.9371 24.2387 11.0208 23.5323C10.2715 22.9547 9.42223 22.3001 9.18827 21.7457C8.70475 20.6019 9.08588 18.591 9.75041 17.5554C10.0788 17.0369 10.347 16.2506 10.6065 15.4902C10.8866 14.6691 11.1763 13.8201 11.5003 13.4485C12.0132 12.8683 12.4874 11.7393 12.5714 10.8497C13.0518 11.3083 13.797 11.8902 14.4855 11.8902C14.5915 11.8902 14.6943 11.8764 14.7928 11.8486C15.2638 11.7126 15.9566 11.3123 16.6266 10.9253C17.2042 10.5915 17.9165 10.1799 18.1845 10.1425C18.6441 10.8024 21.3144 16.7119 21.5874 18.6098C21.8033 20.1113 21.5752 21.3527 21.4605 21.8389C21.3683 21.8263 21.2582 21.816 21.1427 21.816C20.3989 21.816 20.202 22.2221 20.1506 22.4644C20.0188 23.0943 20.0048 25.1084 20.0034 25.5609C19.7344 25.9026 18.3743 27.5117 16.4216 27.801C15.6263 27.9166 14.8834 27.9752 14.2141 27.9752C13.642 27.9752 13.2768 27.931 13.1252 27.908L12.1439 26.7853C12.5308 26.5943 12.9177 26.1912 12.8157 25.4638ZM14.0608 6.95049C14.0302 6.9637 14.0001 6.97783 13.9704 6.99291C13.9674 6.92644 13.9605 6.85905 13.9499 6.79145C13.8428 6.17481 13.4339 5.72721 12.9778 5.72721C12.944 5.72721 12.9101 5.72979 12.8729 5.73547C12.6015 5.78067 12.3888 5.9845 12.2721 6.27347C12.3744 5.63939 12.7336 5.16991 13.1598 5.16991C13.6604 5.16991 14.0833 5.84445 14.0833 6.64283C14.0833 6.74346 14.0759 6.84357 14.0608 6.95049ZM17.9502 7.42595C17.9959 7.28002 18.0207 7.12211 18.0207 6.95823C18.0207 6.23436 17.5615 5.66725 16.9751 5.66725C16.4022 5.66725 15.936 6.24633 15.936 6.95823C15.936 7.00674 15.9384 7.05534 15.9429 7.10384C15.9126 7.09219 15.883 7.08083 15.854 7.06989C15.7882 6.87019 15.7548 6.66182 15.7548 6.44912C15.7548 5.58355 16.3079 4.8793 16.9881 4.8793C17.6681 4.8793 18.2213 5.58355 18.2213 6.44912C18.2213 6.8092 18.122 7.15287 17.9502 7.42595ZM17.4487 9.11064C17.4389 9.15441 17.418 9.17381 17.1875 9.29372C17.071 9.35431 16.9262 9.42975 16.7448 9.54018L16.6237 9.61355C16.1367 9.90872 14.9966 10.6001 14.6872 10.6406C14.4769 10.6689 14.3469 10.5874 14.0545 10.3887C13.9886 10.3438 13.9184 10.2961 13.8436 10.2482C13.3165 9.90232 12.9775 9.5214 12.9392 9.37247C13.111 9.23965 13.5369 8.90723 13.7551 8.71043C14.1976 8.29884 14.6431 8.02226 14.8636 8.02226C14.8752 8.02226 14.8857 8.02309 14.8966 8.02515C15.1557 8.07087 15.7947 8.32588 16.2614 8.51206C16.477 8.59814 16.6633 8.67244 16.7944 8.7195C17.2072 8.8613 17.4225 9.04274 17.4487 9.11064ZM21.1585 28.3447C21.3915 27.294 21.6599 25.8647 21.6163 25.0219C21.6063 24.8305 21.5895 24.6222 21.573 24.4207C21.5423 24.044 21.4968 23.4842 21.5438 23.3181C21.553 23.3138 21.5634 23.31 21.5749 23.3069C21.5769 23.7886 21.6815 24.7495 22.4499 25.0846C22.679 25.1846 22.9407 25.2351 23.2278 25.2351C23.9975 25.2351 24.8517 24.8574 25.2015 24.5076C25.4075 24.3016 25.5808 24.0496 25.7022 23.8499C25.7287 23.9277 25.745 24.0292 25.7364 24.1601C25.6907 24.8706 26.0361 25.8134 26.6932 26.1608L26.7889 26.211C27.023 26.3338 27.6447 26.6602 27.6547 26.8151C27.6546 26.8152 27.6494 26.8333 27.6148 26.8655C27.4591 27.0078 26.9109 27.2877 26.3809 27.5584C25.4405 28.0385 24.3747 28.5827 23.8961 29.0861C23.2222 29.7953 22.4599 30.2717 21.9997 30.2717C21.9442 30.2717 21.8937 30.2647 21.8488 30.2504C21.349 30.0946 20.9375 29.3733 21.1585 28.3447ZM4.11849 25.6642C4.0675 25.4256 4.02725 25.2372 4.0705 25.0548C4.10187 24.9196 4.76929 24.7747 5.05434 24.7128C5.45508 24.6258 5.86954 24.536 6.14056 24.3715C6.50703 24.1495 6.7055 23.7401 6.88053 23.3788C7.00727 23.1177 7.13813 22.8476 7.29386 22.7589C7.30263 22.7538 7.31604 22.7477 7.34164 22.7477C7.63339 22.7477 8.2456 23.3611 8.59835 23.9101C8.68783 24.0484 8.85357 24.3258 9.04533 24.6468C9.61883 25.6064 10.4041 26.9207 10.8143 27.3612C11.1838 27.7572 11.7821 28.5185 11.6349 29.1714C11.5271 29.6781 10.9535 30.0901 10.8183 30.1812C10.7692 30.1923 10.7083 30.198 10.6369 30.198C9.85186 30.198 8.29803 29.5449 7.46322 29.1941L7.33968 29.1421C6.87351 28.9467 6.11248 28.8236 5.37654 28.7045C4.79097 28.6097 3.98907 28.4799 3.85614 28.3627C3.7484 28.2418 3.87338 27.8489 3.98361 27.5023C4.06297 27.2531 4.14491 26.9955 4.1898 26.7259C4.25348 26.2957 4.17855 25.9456 4.11849 25.6642Z" fill="white"/>
</g>
</g>
</g>
<defs>
<clipPath id="clip0_370_7985">
<rect width="31.4769" height="31.4769" fill="white" transform="translate(0.000488281 0.591797)"/>
</clipPath>
<clipPath id="clip1_370_7985">
<rect width="31.4769" height="31.4769" fill="white" transform="translate(0.000488281 0.591797)"/>
</clipPath>
<clipPath id="clip2_370_7985">
<rect width="31.4769" height="31.4769" fill="white" transform="translate(0.000488281 0.591797)"/>
</clipPath>
</defs>
</svg>
