<svg width="60" height="61" viewBox="0 0 60 61" fill="none" xmlns="http://www.w3.org/2000/svg">
<mask id="mask0_186_199" style="mask-type:alpha" maskUnits="userSpaceOnUse" x="0" y="0" width="60" height="61">
<path d="M60 0.5H0V60.5H60V0.5Z" fill="#D9D9D9"/>
</mask>
<g mask="url(#mask0_186_199)">
<path d="M16.2499 27.9991L30 5.49902L43.75 27.9991H16.2499ZM43.75 55.499C40.6249 55.499 37.9687 54.4052 35.7813 52.2178C33.5937 50.0303 32.5 47.374 32.5 44.249C32.5 41.1241 33.5937 38.4677 35.7813 36.2803C37.9687 34.0928 40.6249 32.999 43.75 32.999C46.875 32.999 49.5312 34.0928 51.7188 36.2803C53.9062 38.4677 55 41.1241 55 44.249C55 47.374 53.9062 50.0303 51.7188 52.2178C49.5312 54.4052 46.875 55.499 43.75 55.499ZM7.5 54.2491V34.249H27.4999V54.2491H7.5ZM43.75 50.4991C45.4999 50.4991 46.9791 49.8949 48.1875 48.6865C49.3959 47.4782 49.9999 45.9991 49.9999 44.249C49.9999 42.499 49.3959 41.0198 48.1875 39.8116C46.9791 38.6032 45.4999 37.999 43.75 37.999C42 37.999 40.5208 38.6032 39.3124 39.8116C38.1042 41.0198 37.5 42.499 37.5 44.249C37.5 45.9991 38.1042 47.4782 39.3124 48.6865C40.5208 49.8949 42 50.4991 43.75 50.4991ZM12.5 49.249H22.5V39.2491H12.5V49.249ZM25.125 22.999H34.875L30 15.124L25.125 22.999Z" fill="white"/>
</g>
</svg>
