<svg width="65" height="65" viewBox="0 0 65 65" fill="none" xmlns="http://www.w3.org/2000/svg">
<path fill-rule="evenodd" clip-rule="evenodd" d="M25.7741 53.4068C25.9731 53.9238 25.7149 54.5053 25.1979 54.7042C24.6807 54.9032 24.0993 54.645 23.9003 54.128L23.243 52.4199C21.1296 51.8683 19.1098 51.0267 17.2275 49.9287L13.3555 51.6438C12.9761 51.8118 12.5324 51.7291 12.239 51.4357L7.11848 46.3152C6.82471 46.0214 6.74227 45.5771 6.91105 45.1975L8.63152 41.3281C7.52921 39.451 6.69245 37.4271 6.13615 35.3194L2.18685 33.7993C1.79921 33.6502 1.54346 33.2778 1.54346 32.8624V25.6192C1.54346 25.204 1.79921 24.8315 2.18685 24.6823L6.13577 23.1626C6.69207 21.0491 7.52909 19.0295 8.63177 17.147L6.91105 13.2769C6.74227 12.8973 6.82471 12.4529 7.11848 12.1592L12.239 7.03865C12.5328 6.74488 12.9771 6.66243 13.3567 6.83121L17.2268 8.55206C19.1092 7.44925 21.1285 6.61274 23.2361 6.06196L24.7625 2.10613C24.9119 1.719 25.2841 1.46362 25.6991 1.46362H32.9422C33.3577 1.46362 33.7303 1.71962 33.8794 2.10751L35.3988 6.06209C37.5062 6.61299 39.5251 7.44938 41.4072 8.55194L45.2773 6.83121C45.6569 6.66243 46.1013 6.74488 46.395 7.03865L51.5155 12.1592C51.8089 12.4525 51.8916 12.8963 51.7236 13.2756L50.009 17.1463C51.1122 19.0291 51.9489 21.0494 52.4999 23.1631L56.4473 24.6823C56.8349 24.8315 57.0906 25.204 57.0906 25.6192V32.8624C57.0906 33.2778 56.8349 33.6502 56.4473 33.7993L54.0588 34.7185C53.5417 34.9176 52.9603 34.6593 52.7614 34.1423C52.5624 33.6251 52.8206 33.0437 53.3377 32.8447L55.0827 32.1731V26.3087L51.2913 24.8493C50.982 24.7304 50.7513 24.4664 50.675 24.1438C50.138 21.8777 49.2455 19.7233 48.0254 17.7431C47.8519 17.4614 47.8281 17.1122 47.9622 16.8098L49.609 13.092L45.4629 8.9461L41.7458 10.5988C41.4429 10.7335 41.0933 10.71 40.8112 10.5362C38.8309 9.31592 36.6762 8.42331 34.417 7.88646C34.0946 7.80979 33.8308 7.57914 33.712 7.2698L32.2525 3.47147H26.3878L24.9217 7.27106C24.8024 7.57976 24.539 7.80991 24.2172 7.88646C21.9578 8.42331 19.8032 9.31592 17.8229 10.5362C17.5408 10.71 17.1911 10.7335 16.8884 10.5988L13.1711 8.9461L9.02594 13.0913L10.6786 16.8086C10.8133 17.1112 10.7898 17.461 10.616 17.7431C9.39525 19.7241 8.50252 21.8796 7.95839 24.1467C7.88134 24.468 7.65119 24.7308 7.34286 24.8493L3.5513 26.3087V32.1731L7.34286 33.6323C7.65094 33.7509 7.88096 34.0134 7.95827 34.3343C8.50226 36.594 9.39463 38.7563 10.6151 40.73C10.7897 41.0124 10.8135 41.3626 10.6786 41.6659L9.02594 45.3831L13.1719 49.5291L16.8897 47.8823C17.1913 47.7487 17.5393 47.7718 17.8207 47.9442C19.8017 49.1578 21.9568 50.0581 24.2237 50.5952C24.5462 50.6715 24.8102 50.9021 24.9292 51.2115L25.7741 53.4068ZM46.8974 26.5986C46.9789 27.1467 46.6003 27.6578 46.0522 27.7394C45.5042 27.8211 44.9931 27.4424 44.9114 26.8943C43.7804 19.2983 37.2276 13.4774 29.3158 13.4774C20.6086 13.4774 13.5573 20.5287 13.5573 29.236C13.5573 37.5609 20.0022 44.3811 28.178 44.9638C28.7308 45.0032 29.1474 45.484 29.1081 46.0366C29.0687 46.5893 28.588 47.006 28.0353 46.9666C18.8174 46.3097 11.5494 38.6218 11.5494 29.236C11.5494 19.4194 19.4992 11.4696 29.3158 11.4696C38.236 11.4696 45.6223 18.0345 46.8974 26.5986ZM34.9953 32.4139C35.2603 32.0384 35.7594 31.8828 36.2012 32.0668C36.7127 32.2799 36.9549 32.8682 36.7418 33.3795L35.7645 35.7257C35.6492 36.0027 35.416 36.2135 35.1288 36.3004C34.8417 36.3874 34.5307 36.3414 34.281 36.175L32.1082 34.7267C31.6472 34.4194 31.5223 33.7955 31.8296 33.3345C32.1035 32.9236 32.6286 32.7798 33.066 32.9707L31.0058 26.2148L28.3315 33.1588C28.1799 33.5522 27.7988 33.809 27.3774 33.8018C26.9559 33.7945 26.5838 33.5247 26.4459 33.1264L24.9956 28.9367L23.5464 31.5466C23.3695 31.8655 23.0334 32.0633 22.6687 32.0633H19.4197C18.8656 32.0633 18.4157 31.6134 18.4157 31.0594C18.4157 30.5052 18.8656 30.0554 19.4197 30.0554H22.0778L24.3312 25.9968C24.5235 25.6505 24.9013 25.4497 25.2959 25.484C25.6905 25.5183 26.028 25.7814 26.1576 26.1557L27.4449 29.8742L30.1793 22.774C30.3333 22.3742 30.7241 22.1162 31.1521 22.1315C31.5803 22.1469 31.9515 22.4322 32.0765 22.842L34.9953 32.4139ZM50.5939 32.4792L62.8936 53.7784C64.0855 55.8415 64.0856 58.3341 62.8939 60.3973C61.702 62.4633 59.5424 63.7068 57.1588 63.7068H32.5644C30.1807 63.7068 28.024 62.4634 26.832 60.3973C25.6402 58.3341 25.6403 55.8415 26.8321 53.7786L39.1292 32.4795C40.3209 30.4135 42.4779 29.1672 44.8617 29.1672C47.2452 29.1672 49.402 30.4132 50.5939 32.4792ZM48.855 33.4828C48.0247 32.0435 46.5223 31.1751 44.8617 31.1751C43.2011 31.1751 41.6986 32.0434 40.8682 33.4829L28.5708 54.7828C27.7405 56.2198 27.7405 57.9562 28.5709 59.3935C29.4012 60.8328 30.9039 61.6989 32.5644 61.6989H57.1588C58.8196 61.6989 60.3244 60.8332 61.1549 59.3935C61.9852 57.9564 61.9853 56.2199 61.1551 54.7826L48.855 33.4828ZM44.8617 56.3289C43.4617 56.3289 42.3206 55.1879 42.3206 53.7879C42.3206 52.3881 43.4617 51.2468 44.8617 51.2468C46.2615 51.2468 47.4027 52.3881 47.4027 53.7879C47.4027 55.1879 46.2615 56.3289 44.8617 56.3289ZM44.8617 54.3211C45.1554 54.3211 45.3949 54.0817 45.3949 53.7879C45.3949 53.4941 45.1554 53.2547 44.8617 53.2547C44.5679 53.2547 44.3285 53.4941 44.3285 53.7879C44.3285 54.0817 44.5679 54.3211 44.8617 54.3211ZM44.8617 51.0251C43.6738 51.0251 42.7024 50.0874 42.6599 48.9003L42.3545 40.4955L42.3544 40.4925C42.3357 39.8739 42.5426 39.3352 42.9709 38.8881L42.9728 38.8861C43.4057 38.4391 43.9377 38.2136 44.5589 38.2136H45.1645C45.7865 38.2136 46.3231 38.4409 46.7523 38.8879C47.1852 39.3359 47.3922 39.8781 47.3687 40.4982L47.0659 48.8997C47.0235 50.0869 46.0489 51.0251 44.8617 51.0251ZM44.8617 49.0173C44.9677 49.0173 45.0556 48.9341 45.0593 48.8278L45.3623 40.4249C45.3643 40.3705 45.3461 40.322 45.3062 40.2809L45.3043 40.2789C45.2668 40.2397 45.2189 40.2214 45.1645 40.2214H44.5589C44.5034 40.2214 44.4561 40.2416 44.4159 40.2823C44.3778 40.3235 44.36 40.3734 44.3613 40.4301L44.6665 48.8276C44.6703 48.9332 44.7561 49.0173 44.8617 49.0173Z" fill="url(#paint0_linear_70_4167)"/>
<defs>
<linearGradient id="paint0_linear_70_4167" x1="33.2288" y1="5.02426" x2="33.2288" y2="63.7069" gradientUnits="userSpaceOnUse">
<stop stop-color="#3284FF"/>
<stop offset="1" stop-color="#01D1FF"/>
</linearGradient>
</defs>
</svg>
