<svg width="32" height="33" viewBox="0 0 32 33" fill="none" xmlns="http://www.w3.org/2000/svg">
<g clip-path="url(#clip0_370_8299)">
<g clip-path="url(#clip1_370_8299)">
<g clip-path="url(#clip2_370_8299)">
<path d="M28.9496 7.93645L22.2826 1.2695C22.0293 1.02949 21.6959 0.882812 21.3359 0.882812H6.66863C4.46853 0.882812 2.66846 2.68289 2.66846 4.88298V28.884C2.66846 31.0841 4.46853 32.8842 6.66863 32.8842H25.3361C27.5362 32.8842 29.3363 31.0841 29.3363 28.884V8.88315C29.3363 8.52314 29.1896 8.18979 28.9496 7.93645ZM26.1228 8.88315H21.3359V4.09628L26.1228 8.88315ZM26.6695 28.884C26.6695 29.6174 26.0695 30.2174 25.3361 30.2174H6.66863C5.93526 30.2174 5.33524 29.6174 5.33524 28.884V4.88298C5.33524 4.14962 5.93526 3.54959 6.66863 3.54959H18.6691V10.2165C18.6691 10.9499 19.2692 11.5499 20.0025 11.5499H26.6695V28.884Z" fill="white"/>
<path d="M20.0018 27.5528C19.6551 27.5528 19.3217 27.4195 19.0551 27.1662C18.535 26.6461 18.535 25.8061 19.0551 25.2861L20.7885 23.5527L19.0684 21.8326C18.5484 21.3126 18.5484 20.4725 19.0684 19.9525C19.5884 19.4325 20.4284 19.4325 20.9485 19.9525L23.6153 22.6193C24.1353 23.1393 24.1353 23.9794 23.6153 24.4994L20.9485 27.1662C20.6818 27.4195 20.3484 27.5528 20.0018 27.5528Z" fill="white"/>
<path d="M12.0015 20.8868C11.6548 20.8868 11.3215 20.7535 11.0548 20.5001L8.38806 17.8334C7.86804 17.3133 7.86804 16.4733 8.38806 15.9533L11.0548 13.2865C11.5748 12.7665 12.4149 12.7665 12.9349 13.2865C13.4549 13.8065 13.4549 14.6466 12.9349 15.1666L11.2148 16.8867L12.9349 18.6067C13.4549 19.1268 13.4549 19.9668 12.9349 20.4868C12.6816 20.7535 12.3482 20.8868 12.0015 20.8868Z" fill="white"/>
<path d="M12.0043 28.8811C11.7643 28.8811 11.5376 28.8144 11.3243 28.6944C10.6976 28.321 10.4842 27.4943 10.8709 26.8676L18.8713 13.5337C19.2446 12.907 20.0713 12.6937 20.698 13.0804C21.3247 13.4537 21.5381 14.2804 21.1514 14.9071L13.151 28.241C12.8977 28.6544 12.4577 28.8811 12.0043 28.8811Z" fill="white"/>
</g>
</g>
</g>
<defs>
<clipPath id="clip0_370_8299">
<rect width="32.0014" height="32.0014" fill="white" transform="translate(0 0.880859)"/>
</clipPath>
<clipPath id="clip1_370_8299">
<rect width="32.0014" height="32.0014" fill="white" transform="translate(0 0.880859)"/>
</clipPath>
<clipPath id="clip2_370_8299">
<rect width="32.0014" height="32.0014" fill="white" transform="translate(0 0.880859)"/>
</clipPath>
</defs>
</svg>
