<svg width="32" height="32" viewBox="0 0 32 32" fill="none" xmlns="http://www.w3.org/2000/svg">
<g clip-path="url(#clip0_370_7934)">
<g clip-path="url(#clip1_370_7934)">
<g clip-path="url(#clip2_370_7934)">
<mask id="mask0_370_7934" style="mask-type:luminance" maskUnits="userSpaceOnUse" x="0" y="0" width="31" height="32">
<path d="M30.9757 0.757812H0.51416V31.2193H30.9757V0.757812Z" fill="white"/>
</mask>
<g mask="url(#mask0_370_7934)">
<path d="M28.2984 23.9851C27.135 23.9851 26.143 24.7283 25.7745 25.7627H21.0994C20.6075 25.7627 20.207 25.3639 20.207 24.8739V23.9851H23.7768V22.2075H21.9918V20.3707H24.6692C28.1466 20.3707 30.9757 17.5798 30.9757 14.1491C30.9757 10.8943 28.429 8.21539 25.1983 7.94922C24.0192 3.74201 20.1515 0.757812 15.7449 0.757812C11.3383 0.757812 7.47068 3.74201 6.29146 7.94922C3.06083 8.21539 0.51416 10.8943 0.51416 14.1491C0.51416 17.5798 3.3432 20.3707 6.82065 20.3707H9.49793V22.2075H7.71307V23.9851H11.2828V24.8739C11.2828 25.3639 10.8823 25.7627 10.3904 25.7627H5.71534C5.34675 24.7283 4.35485 23.9851 3.19144 23.9851C1.71522 23.9851 0.51416 25.1812 0.51416 26.6515C0.51416 28.1217 1.71522 29.3179 3.19144 29.3179C4.35485 29.3179 5.34675 28.5747 5.71534 27.5403H10.3904C11.8665 27.5403 13.0676 26.3442 13.0676 24.8739V23.9851H14.8525V25.9155C13.8136 26.2825 13.0676 27.2704 13.0676 28.4291C13.0676 29.8993 14.2686 31.0955 15.7449 31.0955C17.2212 31.0955 18.4222 29.8993 18.4222 28.4291C18.4222 27.2704 17.6762 26.2825 16.6373 25.9155V23.9851H18.4222V24.8739C18.4222 26.3442 19.6233 27.5403 21.0994 27.5403H25.7745C26.143 28.5747 27.135 29.3179 28.2984 29.3179C29.7746 29.3179 30.9757 28.1217 30.9757 26.6515C30.9757 25.1812 29.7746 23.9851 28.2984 23.9851ZM3.19144 27.5403C2.69945 27.5403 2.29901 27.1415 2.29901 26.6515C2.29901 26.1615 2.69945 25.7627 3.19144 25.7627C3.68344 25.7627 4.08386 26.1615 4.08386 26.6515C4.08386 27.1415 3.68344 27.5403 3.19144 27.5403ZM15.7449 29.3179C15.2529 29.3179 14.8525 28.9191 14.8525 28.4291C14.8525 27.9391 15.2529 27.5403 15.7449 27.5403C16.2369 27.5403 16.6373 27.9391 16.6373 28.4291C16.6373 28.9191 16.2369 29.3179 15.7449 29.3179ZM20.207 22.2075H11.2828V13.2602H20.207V22.2075ZM6.82065 18.593C4.32743 18.593 2.29901 16.5995 2.29901 14.1491C2.29901 11.6986 4.32743 9.70506 6.82065 9.70506C6.92104 9.70506 6.90454 9.70529 7.72329 9.73214L7.8732 8.99564C8.63479 5.25227 11.9453 2.53541 15.7449 2.53541C19.5445 2.53541 22.855 5.25227 23.6167 8.99564L23.7665 9.73237C24.5841 9.70529 24.5688 9.70506 24.6692 9.70506C27.1624 9.70506 29.1908 11.6986 29.1908 14.1491C29.1908 16.5995 27.1624 18.593 24.6692 18.593H21.9918V16.8155H23.7768V15.0379H21.9918V13.2602H23.7768V11.4827H21.9918V9.70506H20.207V11.4827H18.4222V9.70506H16.6373V11.4827H14.8525V9.70506H13.0676V11.4827H11.2828V9.70506H9.49793V11.4827H7.71307V13.2602H9.49793V15.0379H7.71307V16.8155H9.49793V18.593H6.82065ZM28.2984 27.5403C27.8063 27.5403 27.406 27.1415 27.406 26.6515C27.406 26.1615 27.8063 25.7627 28.2984 25.7627C28.7903 25.7627 29.1908 26.1615 29.1908 26.6515C29.1908 27.1415 28.7903 27.5403 28.2984 27.5403Z" fill="white"/>
<path d="M18.4224 15.0371H13.0679V20.3699H18.4224V15.0371ZM16.6376 18.5923H14.8527V16.8146H16.6376V18.5923Z" fill="white"/>
</g>
</g>
</g>
</g>
<defs>
<clipPath id="clip0_370_7934">
<rect width="31.4769" height="31.4769" fill="white" transform="translate(0.242676 0.511719)"/>
</clipPath>
<clipPath id="clip1_370_7934">
<rect width="31.4769" height="31.4769" fill="white" transform="translate(0.242676 0.511719)"/>
</clipPath>
<clipPath id="clip2_370_7934">
<rect width="31.4769" height="30.4615" fill="white" transform="translate(0.242676 1.01953)"/>
</clipPath>
</defs>
</svg>
