<svg width="31" height="33" viewBox="0 0 31 33" fill="none" xmlns="http://www.w3.org/2000/svg">
<g clip-path="url(#clip0_370_7944)">
<g clip-path="url(#clip1_370_7944)">
<g clip-path="url(#clip2_370_7944)">
<mask id="mask0_370_7944" style="mask-type:luminance" maskUnits="userSpaceOnUse" x="0" y="1" width="31" height="31">
<path d="M30.4972 1.04688H0.0356445V31.5084H30.4972V1.04688Z" fill="white"/>
</mask>
<g mask="url(#mask0_370_7944)">
<path d="M17.6453 12.707H12.8856C12.2285 12.707 11.6958 13.2397 11.6958 13.8969V18.6566C11.6958 19.3137 12.2285 19.8464 12.8856 19.8464H17.6453C18.3025 19.8464 18.8352 19.3137 18.8352 18.6566V13.8969C18.8352 13.2397 18.3025 12.707 17.6453 12.707ZM16.4554 17.4666H14.0756V15.0868H16.4554V17.4666Z" fill="white"/>
<path d="M26.9275 1.04688H3.60535C1.63702 1.04688 0.0356445 2.64825 0.0356445 4.61658V27.9387C0.0356445 29.907 1.63702 31.5084 3.60535 31.5084H26.9275C28.8958 31.5084 30.4972 29.907 30.4972 27.9387V4.61658C30.4972 2.64825 28.8958 1.04688 26.9275 1.04688ZM28.1173 27.9387C28.1173 28.5947 27.5835 29.1285 26.9275 29.1285H24.1907V24.6069C24.1907 23.9498 23.6579 23.417 23.0008 23.417C22.3436 23.417 21.8109 23.9498 21.8109 24.6069V29.1285H3.60535C2.94924 29.1285 2.41545 28.5947 2.41545 27.9387V4.61658C2.41545 3.96047 2.94924 3.42668 3.60535 3.42668H6.34213V7.94832C6.34213 8.60549 6.87485 9.13822 7.53203 9.13822C8.18922 9.13822 8.72194 8.60549 8.72194 7.94832V3.42668H26.9275C27.5835 3.42668 28.1173 3.96047 28.1173 4.61658V27.9387Z" fill="white"/>
</g>
</g>
</g>
</g>
<defs>
<clipPath id="clip0_370_7944">
<rect width="30.5221" height="31.4769" fill="white" transform="translate(0 0.798828)"/>
</clipPath>
<clipPath id="clip1_370_7944">
<rect width="30.5221" height="31.4769" fill="white" transform="translate(0 0.798828)"/>
</clipPath>
<clipPath id="clip2_370_7944">
<rect width="30.4615" height="31.4769" fill="white" transform="translate(0.0302734 0.798828)"/>
</clipPath>
</defs>
</svg>
