<svg width="57" height="58" viewBox="0 0 57 58" fill="none" xmlns="http://www.w3.org/2000/svg">
<rect x="0.668945" width="56" height="57.5" rx="28" fill="#00B0F0" fill-opacity="0.11"/>
<path d="M32.6709 16C32.6709 14.9391 32.2494 13.9217 31.4993 13.1716C30.7492 12.4214 29.7317 12 28.6709 12C27.61 12 26.5926 12.4214 25.8424 13.1716C25.0923 13.9217 24.6709 14.9391 24.6709 16C24.6709 17.0609 25.0923 18.0783 25.8424 18.8284C26.5926 19.5786 27.61 20 28.6709 20C29.7317 20 30.7492 19.5786 31.4993 18.8284C32.2494 18.0783 32.6709 17.0609 32.6709 16ZM26.2271 22.5813C24.7459 22.0563 23.4459 21.0625 22.5521 19.7188L21.3334 17.8875C20.7209 16.9688 19.4834 16.725 18.5584 17.3375C17.6334 17.95 17.3896 19.1938 18.0021 20.1125L19.2271 21.9375C20.3584 23.6313 21.9021 24.9625 23.6709 25.8375V42C23.6709 43.1063 24.5646 44 25.6709 44C26.7771 44 27.6709 43.1063 27.6709 42V36H29.6709V42C29.6709 43.1063 30.5646 44 31.6709 44C32.7771 44 33.6709 43.1063 33.6709 42V25.85C35.4896 24.9625 37.0709 23.5875 38.2146 21.8375L39.3521 20.0938C39.9521 19.1687 39.6896 17.9312 38.7646 17.325C37.8396 16.7188 36.6021 16.9812 35.9959 17.9125L34.8584 19.65C33.4959 21.7375 31.1771 23 28.6834 23C27.8959 23 27.1271 22.875 26.3959 22.6375C26.3396 22.6187 26.2834 22.5938 26.2271 22.5813Z" fill="#3563E9"/>
</svg>
