<svg width="32" height="33" viewBox="0 0 32 33" fill="none" xmlns="http://www.w3.org/2000/svg">
<g clip-path="url(#clip0_370_7835)">
<g clip-path="url(#clip1_370_7835)">
<g clip-path="url(#clip2_370_7835)">
<path d="M6.64387 13.7509L5.23579 12.3487C5.41176 11.9981 5.49979 11.6038 5.49979 11.2093C5.49979 9.76323 4.31172 8.58008 2.85966 8.58008C1.40759 8.58008 0.219532 9.76329 0.219532 11.2094C0.219532 12.6554 1.40759 13.8386 2.85966 13.8386C3.25566 13.8386 3.65172 13.7509 3.95971 13.5756L5.10379 14.715V16.4678L2.02362 19.6229C1.84764 19.7982 1.75962 20.0173 1.75962 20.2365V22.6904C0.747534 23.0409 -0.000488281 24.0049 -0.000488281 25.1443C-0.000488281 26.5903 1.18757 27.7734 2.63964 27.7734C4.09171 27.7734 5.27977 26.5903 5.27977 25.1443C5.27977 24.0049 4.53174 23.0408 3.51966 22.6465V20.587L6.64381 17.4757C6.81979 17.3004 6.90781 17.0813 6.90781 16.8622V14.3645C6.90788 14.1454 6.81986 13.9262 6.64387 13.7509ZM2.90364 12.0419C2.41962 12.0419 2.02362 11.6476 2.02362 11.1656C2.02362 10.6835 2.41962 10.2892 2.90364 10.2892C3.38766 10.2892 3.78366 10.6835 3.78366 11.1656C3.78373 11.6476 3.38766 12.0419 2.90364 12.0419ZM2.63964 26.0207C2.15562 26.0207 1.75962 25.6264 1.75962 25.1443C1.75962 24.6623 2.15562 24.2679 2.63964 24.2679C3.12366 24.2679 3.51966 24.6623 3.51966 25.1443C3.51972 25.6264 3.12366 26.0207 2.63964 26.0207Z" fill="white"/>
<path d="M10.8695 1.00195C9.41739 1.00195 8.22932 2.18511 8.22932 3.63117C8.22932 4.77052 8.97734 5.73458 9.98943 6.08513V20.6335L7.7453 22.8684C7.56932 23.0436 7.4813 23.2628 7.4813 23.4819V27.4257C6.46922 27.7762 5.72119 28.7403 5.72119 29.8797C5.72119 31.3258 6.90925 32.5089 8.36132 32.5089C9.81339 32.5089 11.0014 31.3258 11.0014 29.8797C11.0014 28.7403 10.2534 27.7762 9.24134 27.4257V23.8762L11.4855 21.6414C11.6614 21.4661 11.7495 21.2471 11.7495 21.0279V6.12894C12.7615 5.77837 13.5095 4.81433 13.5095 3.67497C13.5096 2.18511 12.3216 1.00195 10.8695 1.00195ZM8.36132 30.7998C7.8773 30.7998 7.4813 30.4055 7.4813 29.9235C7.4813 29.4414 7.8773 29.0471 8.36132 29.0471C8.84534 29.0471 9.24134 29.4414 9.24134 29.9235C9.2414 30.4055 8.84534 30.7998 8.36132 30.7998ZM10.8695 4.50756C10.3854 4.50756 9.98943 4.11319 9.98943 3.63117C9.98943 3.14915 10.3854 2.75479 10.8695 2.75479C11.3535 2.75479 11.7495 3.14915 11.7495 3.63117C11.7495 4.11319 11.3535 4.50756 10.8695 4.50756Z" fill="white"/>
<path d="M16.4108 27.3768V18.0431C17.4229 17.6925 18.1709 16.6845 18.1709 15.5453C18.1709 14.0992 16.9828 12.916 15.5308 12.916C14.0787 12.916 12.8906 14.0992 12.8906 15.5453C12.8906 16.6847 13.6386 17.6487 14.6508 17.9992V27.4206C13.6387 27.7712 12.8906 28.7352 12.8906 29.8746C12.8906 31.3206 14.0787 32.5038 15.5308 32.5038C16.9828 32.5038 18.1709 31.3206 18.1709 29.8746C18.1709 28.7352 17.4228 27.7712 16.4108 27.3768ZM15.5308 14.6689C16.0149 14.6689 16.4108 15.0632 16.4108 15.5452C16.4108 16.0273 16.0149 16.4216 15.5308 16.4216C15.0468 16.4216 14.6508 16.0273 14.6508 15.5452C14.6508 15.0632 15.0468 14.6689 15.5308 14.6689ZM15.5308 30.7948C15.0468 30.7948 14.6508 30.4004 14.6508 29.9184C14.6508 29.4363 15.0468 29.042 15.5308 29.042C16.0149 29.042 16.4108 29.4363 16.4108 29.9184C16.4108 30.4004 16.0149 30.7948 15.5308 30.7948Z" fill="white"/>
<path d="M29.9198 22.6465V20.1925C29.9198 19.9734 29.8318 19.7543 29.6557 19.5791L26.5316 16.4678V14.715L27.6757 13.5756C28.0277 13.7508 28.3797 13.8385 28.7757 13.8385C30.2278 13.8385 31.4159 12.6554 31.4159 11.2093C31.4159 9.76323 30.2278 8.58008 28.7757 8.58008C27.3237 8.58008 26.1356 9.76323 26.1356 11.2093C26.1356 11.6036 26.2237 11.9981 26.3996 12.3487L24.9916 13.7509C24.8596 13.9261 24.7715 14.1453 24.7715 14.3644V16.8622C24.7715 17.0813 24.8596 17.3004 25.0355 17.4756L28.1596 20.5869V22.6464C27.1476 22.997 26.3996 23.961 26.3996 25.1004C26.3996 26.5464 27.5877 27.7296 29.0396 27.7296C30.4917 27.7296 31.6798 26.5464 31.6798 25.1004C31.6798 24.0049 30.9318 23.0409 29.9198 22.6465ZM28.7757 10.2891C29.2597 10.2891 29.6557 10.6835 29.6557 11.1655C29.6557 11.6475 29.2597 12.0419 28.7757 12.0419C28.2916 12.0419 27.8957 11.6475 27.8957 11.1655C27.8957 10.6835 28.2916 10.2891 28.7757 10.2891ZM29.0396 26.0207C28.5556 26.0207 28.1596 25.6264 28.1596 25.1443C28.1596 24.6623 28.5556 24.2679 29.0396 24.2679C29.5237 24.2679 29.9198 24.6623 29.9198 25.1443C29.9198 25.6264 29.5237 26.0207 29.0396 26.0207Z" fill="white"/>
<path d="M24.1992 27.4695V23.5257C24.1992 23.3066 24.1112 23.0875 23.9352 22.9122L21.691 20.6773V6.08513C22.7031 5.73458 23.4512 4.77052 23.4512 3.63117C23.4512 2.18511 22.2631 1.00195 20.811 1.00195C19.359 1.00195 18.1709 2.18511 18.1709 3.63117C18.1709 4.77052 18.9189 5.73458 19.931 6.08513V20.9841C19.931 21.2033 20.0191 21.4224 20.195 21.5976L22.4392 23.8324V27.3819C21.427 27.7325 20.679 28.6965 20.679 29.8359C20.679 31.2819 21.8671 32.4651 23.3192 32.4651C24.7712 32.4651 25.9593 31.2819 25.9593 29.8359C25.9593 28.7841 25.2113 27.8201 24.1992 27.4695ZM20.811 4.50756C20.327 4.50756 19.931 4.11319 19.931 3.63117C19.931 3.14915 20.327 2.75479 20.811 2.75479C21.2951 2.75479 21.691 3.14915 21.691 3.63117C21.691 4.11319 21.2951 4.50756 20.811 4.50756ZM23.3192 30.7998C22.8352 30.7998 22.4392 30.4055 22.4392 29.9235C22.4392 29.4414 22.8352 29.0471 23.3192 29.0471C23.8032 29.0471 24.1992 29.4414 24.1992 29.9235C24.1992 30.4055 23.8032 30.7998 23.3192 30.7998Z" fill="white"/>
</g>
</g>
</g>
<defs>
<clipPath id="clip0_370_7835">
<rect width="31.6817" height="31.6817" fill="white" transform="translate(0 0.976562)"/>
</clipPath>
<clipPath id="clip1_370_7835">
<rect width="31.6817" height="31.6817" fill="white" transform="translate(0 0.976562)"/>
</clipPath>
<clipPath id="clip2_370_7835">
<rect width="31.6817" height="31.6817" fill="white" transform="translate(0 0.976562)"/>
</clipPath>
</defs>
</svg>
