<svg width="64" height="65" viewBox="0 0 64 65" fill="none" xmlns="http://www.w3.org/2000/svg">
<g clip-path="url(#clip0_70_4163)">
<path d="M48.5523 33.511C49.1913 35.8155 48.873 38.2453 47.6562 40.353C46.0345 43.1621 43.1298 44.8392 39.886 44.8392H32.0879C31.5357 44.8392 31.0879 44.3915 31.0879 43.8392C31.0879 43.287 31.5357 42.8392 32.0879 42.8392H39.886C42.4068 42.8392 44.664 41.536 45.9242 39.3531C46.8707 37.7137 47.1195 35.8288 46.625 34.0455C46.4774 33.5132 46.7892 32.9621 47.3214 32.8146C47.854 32.6671 48.4047 32.9787 48.5523 33.511ZM25.9508 42.8391H9.36153C6.84091 42.8391 4.58353 41.5358 3.32328 39.3528C2.06316 37.17 2.06316 34.5636 3.32328 32.3808L18.5857 5.94572C19.846 3.76284 22.1033 2.45972 24.6238 2.45972C27.1443 2.45972 29.4017 3.76284 30.6619 5.94572L42.5153 26.4763C42.7913 26.9545 43.4028 27.1186 43.8813 26.8423C44.3595 26.5662 44.5235 25.9546 44.2473 25.4763L32.394 4.94572C30.7722 2.13672 27.8675 0.459717 24.6239 0.459717C21.3803 0.459717 18.4757 2.13672 16.8539 4.94572L1.59141 31.3808C-0.0304687 34.1898 -0.0304687 37.5438 1.59141 40.3528C3.21328 43.162 6.11803 44.8391 9.36166 44.8391H25.951C26.5033 44.8391 26.951 44.3913 26.951 43.8391C26.951 43.2868 26.503 42.8391 25.9508 42.8391ZM28.036 33.7785C28.036 35.6601 26.5053 37.191 24.6237 37.191C22.742 37.191 21.2113 35.6601 21.2113 33.7785C21.2113 31.8968 22.742 30.3661 24.6237 30.3661C26.5053 30.3661 28.036 31.897 28.036 33.7785ZM26.036 33.7785C26.036 32.9997 25.4025 32.3661 24.6237 32.3661C23.8448 32.3661 23.2113 32.9997 23.2113 33.7785C23.2113 34.5572 23.8448 35.191 24.6237 35.191C25.4025 35.191 26.036 34.5573 26.036 33.7785ZM25.5347 10.3951C26.2878 10.3951 26.9587 10.685 27.4747 11.2335C27.9904 11.7816 28.239 12.4686 28.1935 13.2202L27.3634 26.8687C27.2858 28.1465 26.222 29.1475 24.9418 29.1475H24.3055C23.0255 29.1475 21.9618 28.1465 21.8839 26.8687L21.0539 13.2202C21.0082 12.4687 21.2568 11.7816 21.773 11.2332C22.2885 10.685 22.9593 10.395 23.7127 10.395L25.5347 10.3951ZM26.018 12.604C25.8802 12.4575 25.7357 12.3951 25.5347 12.3951H23.7127C23.5117 12.3951 23.3672 12.4575 23.2298 12.6036C23.0918 12.7503 23.0382 12.8983 23.0503 13.0988C23.0624 13.2993 23.8803 26.7473 23.8803 26.7473C23.8939 26.9717 24.0808 27.1476 24.3055 27.1476H24.9418C25.1667 27.1476 25.3534 26.9718 25.367 26.7475L26.1972 13.099C26.2094 12.8985 26.1558 12.7502 26.018 12.604ZM62.5965 62.6826C61.9108 63.3682 61.0102 63.7111 60.1094 63.7111C59.2087 63.7111 58.3082 63.3682 57.6224 62.6826L51.1328 56.193C50.4562 55.5163 50.1142 54.6302 50.1053 53.7413L48.5622 52.1982C46.426 53.6518 43.8483 54.5026 41.0754 54.5026C33.719 54.5026 27.7343 48.5177 27.7343 41.1613C27.7343 33.805 33.7192 27.8201 41.0754 27.8201C48.4317 27.8201 54.4165 33.805 54.4165 41.1613C54.4165 43.9342 53.5659 46.512 52.1123 48.6481L53.6555 50.1913C54.5443 50.2002 55.4304 50.5423 56.1072 51.219L62.5967 57.7085C63.9679 59.08 63.9678 61.3113 62.5965 62.6826ZM52.4165 41.1615C52.4165 34.9078 47.3289 29.8202 41.0754 29.8202C34.8219 29.8202 29.7343 34.9078 29.7343 41.1615C29.7343 47.4151 34.8219 52.5027 41.0754 52.5027C47.3289 52.5027 52.4165 47.4151 52.4165 41.1615ZM51.5203 50.8847L50.8579 50.2223C50.6265 50.472 50.3858 50.7127 50.1362 50.9441L50.7984 51.6063C50.899 51.4713 51.0102 51.3416 51.1327 51.2191C51.2552 51.0965 51.3852 50.9853 51.5203 50.8847ZM61.1823 59.1227L54.6928 52.6333C54.1014 52.0418 53.1385 52.0421 52.5472 52.6333C51.9557 53.2248 51.9557 54.1875 52.5472 54.7791L59.0367 61.2686C59.6282 61.8602 60.5909 61.8601 61.1824 61.2686C61.7738 60.6771 61.7737 59.7143 61.1823 59.1227Z" fill="url(#paint0_linear_70_4163)"/>
</g>
<defs>
<linearGradient id="paint0_linear_70_4163" x1="32.5725" y1="4.07803" x2="32.5725" y2="63.7112" gradientUnits="userSpaceOnUse">
<stop stop-color="#3284FF"/>
<stop offset="1" stop-color="#01D1FF"/>
</linearGradient>
<clipPath id="clip0_70_4163">
<rect width="64" height="64" fill="white" transform="translate(0 0.0847168)"/>
</clipPath>
</defs>
</svg>
