<svg width="33" height="33" viewBox="0 0 33 33" fill="none" xmlns="http://www.w3.org/2000/svg">
<g clip-path="url(#clip0_370_8290)">
<g clip-path="url(#clip1_370_8290)">
<g clip-path="url(#clip2_370_8290)">
<mask id="mask0_370_8290" style="mask-type:luminance" maskUnits="userSpaceOnUse" x="0" y="0" width="33" height="33">
<path d="M32.9413 0.0625H0.939941V32.0639H32.9413V0.0625Z" fill="white"/>
</mask>
<g mask="url(#mask0_370_8290)">
<path d="M32.4217 17.099L25.4098 13.6076V4.7502C25.4098 4.39456 25.2085 4.06949 24.8901 3.91091L17.3586 0.160754C17.0954 0.0297486 16.786 0.0297486 16.5227 0.160754L8.99116 3.91091C8.67277 4.06949 8.47152 4.39449 8.47152 4.7502V13.6076L1.45959 17.099C1.1412 17.2576 0.939941 17.5826 0.939941 17.9382V27.3762C0.939941 27.7318 1.1412 28.0569 1.45959 28.2155L8.99116 31.9656C9.12272 32.0311 9.26592 32.0639 9.40905 32.0639C9.55218 32.0639 9.69538 32.0311 9.82694 31.9656L16.9406 28.4235L24.0543 31.9656C24.1858 32.0311 24.3291 32.0639 24.4723 32.0639C24.6154 32.0639 24.7586 32.0311 24.8902 31.9656L32.4217 28.2155C32.74 28.0569 32.9413 27.7318 32.9413 27.3762V17.9382C32.9413 17.5826 32.74 17.2576 32.4217 17.099ZM8.47152 29.6121L2.81502 26.7957V19.4524L8.47152 22.269V29.6121ZM9.40905 20.6411L3.98088 17.9382L9.40905 15.2354L14.8372 17.9382L9.40905 20.6411ZM16.0031 26.7957L10.3466 29.6121V22.269L16.0031 19.4524V26.7957ZM16.0031 16.4241L10.3466 13.6076V6.26439L16.0031 9.08088V16.4241ZM11.5125 4.7502L16.9406 2.0474L22.3688 4.7502L16.9406 7.453L11.5125 4.7502ZM23.5346 6.26432V13.6076L17.8782 16.4241V9.08088L23.5346 6.26432ZM23.5346 29.6121L17.8782 26.7957V19.4523L23.5346 22.2689V29.6121ZM24.4721 20.6411L19.0441 17.9382L24.4721 15.2354L29.9003 17.9382L24.4721 20.6411ZM31.0662 26.7957L25.4098 29.6121V22.269L31.0662 19.4524V26.7957Z" fill="white"/>
</g>
</g>
</g>
</g>
<defs>
<clipPath id="clip0_370_8290">
<rect width="32.0014" height="32.0014" fill="white" transform="translate(0.945801 0.0644531)"/>
</clipPath>
<clipPath id="clip1_370_8290">
<rect width="32.0014" height="32.0014" fill="white" transform="translate(0.945801 0.0644531)"/>
</clipPath>
<clipPath id="clip2_370_8290">
<rect width="32.0014" height="32.0014" fill="white" transform="translate(0.945801 0.0644531)"/>
</clipPath>
</defs>
</svg>
