<svg width="65" height="65" viewBox="0 0 65 65" fill="none" xmlns="http://www.w3.org/2000/svg">
<g clip-path="url(#clip0_70_4154)">
<path d="M11.3345 42.0847C9.15888 42.0847 7.03215 42.7299 5.22321 43.9386C3.41426 45.1472 2.00437 46.8652 1.1718 48.8752C0.339239 50.8852 0.121402 53.0969 0.54584 55.2307C0.970277 57.3645 2.01793 59.3245 3.5563 60.8629C5.09468 62.4013 7.05469 63.4489 9.18848 63.8734C11.3223 64.2978 13.534 64.08 15.544 63.2474C17.554 62.4148 19.2719 61.0049 20.4806 59.196C21.6893 57.387 22.3345 55.2603 22.3345 53.0847C22.3312 50.1683 21.1712 47.3724 19.109 45.3102C17.0468 43.248 14.2508 42.088 11.3345 42.0847ZM11.3345 62.0847C9.55445 62.0847 7.81439 61.5569 6.33435 60.5679C4.8543 59.579 3.70075 58.1734 3.01956 56.5289C2.33837 54.8843 2.16014 53.0747 2.50741 51.3289C2.85468 49.5831 3.71184 47.9794 4.97052 46.7208C6.22919 45.4621 7.83284 44.6049 9.57866 44.2576C11.3245 43.9104 13.1341 44.0886 14.7786 44.7698C16.4232 45.451 17.8288 46.6045 18.8177 48.0846C19.8066 49.5646 20.3345 51.3047 20.3345 53.0847C20.3317 55.4708 19.3826 57.7584 17.6954 59.4456C16.0082 61.1328 13.7206 62.0819 11.3345 62.0847Z" fill="url(#paint0_linear_70_4154)"/>
<path d="M13.0791 49.5315C13.2267 49.6709 13.3175 49.8599 13.334 50.0623C13.3279 50.3231 13.4239 50.5759 13.6016 50.7669C13.7793 50.958 14.0246 51.072 14.2851 51.0847C14.5479 51.0894 14.8026 50.9936 14.9973 50.817C15.1919 50.6403 15.3118 50.3961 15.3325 50.134C15.3376 49.3953 15.0503 48.6846 14.5332 48.157C13.9352 47.582 13.1603 47.2261 12.3344 47.147V47.0847C12.3344 46.8195 12.2291 46.5651 12.0416 46.3776C11.854 46.1901 11.5997 46.0847 11.3344 46.0847C11.0692 46.0847 10.8149 46.1901 10.6273 46.3776C10.4398 46.5651 10.3344 46.8195 10.3344 47.0847V47.1696C9.50507 47.2779 8.74341 47.6842 8.19158 48.3128C7.63975 48.9413 7.33545 49.7492 7.33545 50.5856C7.33545 51.422 7.63975 52.2298 8.19158 52.8584C8.74341 53.4869 9.50507 53.8933 10.3344 54.0015V56.9914C10.0593 56.9417 9.80227 56.8197 9.58982 56.6379C9.44867 56.5038 9.35842 56.3248 9.33445 56.1316C9.3455 55.8677 9.25171 55.6106 9.07354 55.4156C8.89538 55.2206 8.64731 55.104 8.38348 55.0912C8.11964 55.0784 7.86147 55.1706 7.66531 55.3475C7.46915 55.5243 7.35093 55.7717 7.33645 56.0354C7.33134 56.7741 7.61869 57.4848 8.13577 58.0124C8.73368 58.5876 9.50856 58.9437 10.3344 59.0227V59.0847C10.3344 59.3499 10.4398 59.6043 10.6273 59.7918C10.8149 59.9794 11.0692 60.0847 11.3344 60.0847C11.5997 60.0847 11.854 59.9794 12.0416 59.7918C12.2291 59.6043 12.3344 59.3499 12.3344 59.0847V58.9998C13.1638 58.8915 13.9255 58.4852 14.4773 57.8567C15.0291 57.2281 15.3334 56.4203 15.3334 55.5839C15.3334 54.7474 15.0291 53.9396 14.4773 53.311C13.9255 52.6825 13.1638 52.2762 12.3344 52.1679V49.179C12.6096 49.2283 12.8666 49.3499 13.0791 49.5315ZM9.33545 50.5852C9.33531 50.2819 9.4322 49.9866 9.61194 49.7423C9.79169 49.498 10.0449 49.3177 10.3344 49.2276V51.9434C10.0449 51.853 9.7918 51.6725 9.61208 51.4282C9.43236 51.1839 9.33544 50.8885 9.33545 50.5852ZM13.3334 55.5842C13.3336 55.8875 13.2367 56.1829 13.057 56.4271C12.8772 56.6714 12.624 56.8518 12.3344 56.9418V54.2261C12.624 54.3164 12.8771 54.4969 13.0568 54.7412C13.2365 54.9855 13.3335 55.2809 13.3334 55.5842Z" fill="url(#paint1_linear_70_4154)"/>
<path d="M63.3345 57.0847H58.3345V15.0847C58.3345 14.9534 58.3087 14.8233 58.2585 14.702C58.2082 14.5807 58.1346 14.4704 58.0417 14.3775C57.9488 14.2847 57.8386 14.211 57.7172 14.1608C57.5959 14.1105 57.4658 14.0847 57.3345 14.0847H49.3345C49.2032 14.0847 49.0731 14.1105 48.9518 14.1608C48.8304 14.211 48.7202 14.2847 48.6273 14.3775C48.5345 14.4704 48.4608 14.5807 48.4106 14.702C48.3603 14.8233 48.3345 14.9534 48.3345 15.0847V57.0847H44.3345V21.0847C44.3345 20.9534 44.3087 20.8233 44.2585 20.702C44.2082 20.5807 44.1346 20.4704 44.0417 20.3775C43.9488 20.2847 43.8386 20.211 43.7172 20.1608C43.5959 20.1105 43.4658 20.0847 43.3345 20.0847H35.3345C35.2032 20.0847 35.0731 20.1105 34.9518 20.1608C34.8304 20.211 34.7202 20.2847 34.6273 20.3775C34.5345 20.4704 34.4608 20.5807 34.4106 20.702C34.3603 20.8233 34.3345 20.9534 34.3345 21.0847V57.0847H30.3345V27.0847C30.3345 26.8195 30.2292 26.5651 30.0416 26.3776C29.8541 26.1901 29.5997 26.0847 29.3345 26.0847H21.3345C21.0693 26.0847 20.8149 26.1901 20.6274 26.3776C20.4399 26.5651 20.3345 26.8195 20.3345 27.0847V43.2947C20.3345 43.5599 20.4399 43.8143 20.6274 44.0018C20.8149 44.1894 21.0693 44.2947 21.3345 44.2947C21.5997 44.2947 21.8541 44.1894 22.0416 44.0018C22.2292 43.8143 22.3345 43.5599 22.3345 43.2947V28.0847H28.3345V57.0847H24.4043C24.1391 57.0847 23.8848 57.1901 23.6972 57.3776C23.5097 57.5651 23.4043 57.8195 23.4043 58.0847C23.4043 58.3499 23.5097 58.6043 23.6972 58.7918C23.8848 58.9794 24.1391 59.0847 24.4043 59.0847H62.3345V62.0847H21.1245C20.8593 62.0847 20.6049 62.1901 20.4174 62.3776C20.2299 62.5651 20.1245 62.8195 20.1245 63.0847C20.1245 63.3499 20.2299 63.6043 20.4174 63.7918C20.6049 63.9794 20.8593 64.0847 21.1245 64.0847H63.3345C63.4658 64.0848 63.5959 64.0589 63.7172 64.0087C63.8386 63.9584 63.9488 63.8848 64.0417 63.7919C64.1346 63.699 64.2082 63.5888 64.2585 63.4674C64.3087 63.3461 64.3345 63.216 64.3345 63.0847V58.0847C64.3345 57.9534 64.3087 57.8233 64.2585 57.702C64.2082 57.5807 64.1346 57.4704 64.0417 57.3775C63.9488 57.2847 63.8386 57.211 63.7172 57.1608C63.5959 57.1105 63.4658 57.0847 63.3345 57.0847ZM50.3345 16.0847H56.3345V57.0847H50.3345V16.0847ZM36.3345 22.0847H42.3345V57.0847H36.3345V22.0847Z" fill="url(#paint2_linear_70_4154)"/>
<path d="M7.33447 40.6648C7.59969 40.6648 7.85403 40.5594 8.04156 40.3719C8.2291 40.1844 8.33446 39.93 8.33447 39.6648V33.0847H14.3345V39.6648C14.3345 39.93 14.4398 40.1844 14.6274 40.3719C14.8149 40.5594 15.0693 40.6648 15.3345 40.6648C15.5997 40.6648 15.854 40.5594 16.0416 40.3719C16.2291 40.1844 16.3345 39.93 16.3345 39.6648V32.0847C16.3345 31.8195 16.2291 31.5651 16.0416 31.3776C15.854 31.1901 15.5997 31.0847 15.3345 31.0847H7.33447C7.06926 31.0847 6.8149 31.1901 6.62737 31.3776C6.43983 31.5651 6.33447 31.8195 6.33447 32.0847V39.6648C6.33449 39.93 6.43985 40.1844 6.62738 40.3719C6.81491 40.5594 7.06926 40.6648 7.33447 40.6648Z" fill="url(#paint3_linear_70_4154)"/>
<path d="M11.3332 25.0847L11.3815 25.0837C29.3014 24.2301 46.8534 8.75751 52.3342 3.48877V10.0847C52.3342 10.3499 52.4395 10.6043 52.6271 10.7918C52.8146 10.9794 53.069 11.0847 53.3342 11.0847C53.5994 11.0847 53.8538 10.9794 54.0413 10.7918C54.2288 10.6043 54.3342 10.3499 54.3342 10.0847V1.08472L54.3319 1.07312C54.3228 0.812254 54.2146 0.56468 54.0291 0.380976C53.8437 0.197272 53.5951 0.0913021 53.3342 0.0847168L44.3342 0.0847168C44.069 0.0847168 43.8146 0.190074 43.6271 0.37761C43.4395 0.565146 43.3342 0.8195 43.3342 1.08472C43.3342 1.34993 43.4395 1.60429 43.6271 1.79182C43.8146 1.97936 44.069 2.08472 44.3342 2.08472H50.888C45.4992 7.20362 28.2543 22.278 11.2868 23.0857C11.0261 23.0982 10.7806 23.212 10.6028 23.403C10.4249 23.594 10.3287 23.8469 10.3347 24.1078C10.3408 24.3687 10.4486 24.617 10.6351 24.7995C10.8217 24.982 11.0722 25.0844 11.3332 25.0847Z" fill="url(#paint4_linear_70_4154)"/>
</g>
<defs>
<linearGradient id="paint0_linear_70_4154" x1="11.5336" y1="43.3432" x2="11.5336" y2="64.0848" gradientUnits="userSpaceOnUse">
<stop stop-color="#3284FF"/>
<stop offset="1" stop-color="#01D1FF"/>
</linearGradient>
<linearGradient id="paint1_linear_70_4154" x1="11.4068" y1="46.8856" x2="11.4068" y2="60.0847" gradientUnits="userSpaceOnUse">
<stop stop-color="#3284FF"/>
<stop offset="1" stop-color="#01D1FF"/>
</linearGradient>
<linearGradient id="paint2_linear_70_4154" x1="42.6296" y1="16.945" x2="42.6296" y2="64.0848" gradientUnits="userSpaceOnUse">
<stop stop-color="#3284FF"/>
<stop offset="1" stop-color="#01D1FF"/>
</linearGradient>
<linearGradient id="paint3_linear_70_4154" x1="11.425" y1="31.6327" x2="11.425" y2="40.6648" gradientUnits="userSpaceOnUse">
<stop stop-color="#3284FF"/>
<stop offset="1" stop-color="#01D1FF"/>
</linearGradient>
<linearGradient id="paint4_linear_70_4154" x1="32.7325" y1="1.51485" x2="32.7325" y2="25.0848" gradientUnits="userSpaceOnUse">
<stop stop-color="#3284FF"/>
<stop offset="1" stop-color="#01D1FF"/>
</linearGradient>
<clipPath id="clip0_70_4154">
<rect width="64" height="64" fill="white" transform="translate(0.334473 0.0847168)"/>
</clipPath>
</defs>
</svg>
