<svg width="62" height="61" viewBox="0 0 62 61" fill="none" xmlns="http://www.w3.org/2000/svg">
<path d="M9.68569 55.7002V47.6433H18.0112L11.1628 25.2183C9.95425 24.547 8.95834 23.5622 8.17502 22.2641C7.39171 20.9661 7.00006 19.5785 7.00006 18.1014C7.00006 15.8634 7.78337 13.961 9.34999 12.3944C10.9166 10.8278 12.8189 10.0445 15.057 10.0445C16.8026 10.0445 18.358 10.548 19.7232 11.5552C21.0884 12.5623 22.0395 13.8491 22.5768 15.4158H31.1707V12.7301C31.1707 11.9692 31.4281 11.3314 31.9429 10.8166C32.4576 10.3019 33.0955 10.0445 33.8564 10.0445C34.2593 10.0445 34.6508 10.134 35.0313 10.3131C35.4119 10.4921 35.7363 10.7607 36.0049 11.1187L40.5704 6.82173C40.9732 6.41889 41.4546 6.16151 42.014 6.04961C42.5735 5.93771 43.1219 6.01604 43.6589 6.28461L54.1329 11.1187C54.67 11.3873 55.0393 11.779 55.2407 12.2937C55.4421 12.8085 55.431 13.312 55.2072 13.8044C54.9386 14.3415 54.547 14.6884 54.0322 14.8451C53.5175 15.0017 53.014 14.9682 52.5215 14.7443L42.8532 10.3131L36.5419 16.2214V19.9813L42.8532 25.7555L52.5215 21.3242C53.014 21.1004 53.5286 21.078 54.0657 21.257C54.6029 21.436 54.9834 21.7717 55.2072 22.2641C55.4757 22.8012 55.4981 23.316 55.2742 23.8083C55.0506 24.3007 54.67 24.6812 54.1329 24.9498L43.6589 29.9182C43.1219 30.1868 42.5735 30.2651 42.014 30.1531C41.4546 30.0413 40.9732 29.7839 40.5704 29.3811L36.0049 25.084C35.7363 25.3527 35.4119 25.5987 35.0313 25.8225C34.6508 26.0464 34.2593 26.1583 33.8564 26.1583C33.0955 26.1583 32.4576 25.9008 31.9429 25.3862C31.4281 24.8715 31.1707 24.2335 31.1707 23.4727V20.787H22.5768C22.4424 21.1451 22.297 21.4808 22.1402 21.7941C21.9836 22.1075 21.7711 22.4431 21.5025 22.8012L34.9306 47.6433H44.5988V55.7002H9.68569ZM15.057 20.787C15.8179 20.787 16.4557 20.5296 16.9705 20.0149C17.4852 19.5002 17.7426 18.8623 17.7426 18.1014C17.7426 17.3405 17.4852 16.7026 16.9705 16.1879C16.4557 15.6731 15.8179 15.4158 15.057 15.4158C14.296 15.4158 13.6582 15.6731 13.1434 16.1879C12.6287 16.7026 12.3713 17.3405 12.3713 18.1014C12.3713 18.8623 12.6287 19.5002 13.1434 20.0149C13.6582 20.5296 14.296 20.787 15.057 20.787ZM23.5167 47.6433H28.7537L17.2055 26.1583H16.9369L23.5167 47.6433Z" fill="white"/>
</svg>
