<svg width="61" height="64" viewBox="0 0 61 64" fill="none" xmlns="http://www.w3.org/2000/svg">
<path d="M60.3324 7.27855C60.3406 7.26061 60.3456 7.24412 60.3485 7.23446C60.3522 7.22205 60.3525 7.22037 60.3537 7.21715L60.3539 7.21655C60.3762 7.15335 60.3899 7.08858 60.3949 7.02183C60.3961 7.01782 60.3976 7.01205 60.3989 7.0056C60.4011 6.99545 60.4031 6.98189 60.4031 6.96594V2.96944C60.4031 1.83647 59.4818 0.915186 58.3489 0.915186H2.98823C1.85527 0.915186 0.933984 1.83647 0.933984 2.96944V6.96594C0.933984 6.98188 0.93603 6.99541 0.938127 7.0055C0.939482 7.01202 0.941033 7.01785 0.942165 7.02186C0.947163 7.08854 0.960831 7.15315 0.982993 7.21611L0.983036 7.21623C0.983896 7.21867 0.984386 7.22035 0.985625 7.22459C0.986313 7.22695 0.987233 7.2301 0.988575 7.23461C0.991492 7.24441 0.99654 7.2609 1.00469 7.27878C1.03727 7.35043 1.08077 7.42315 1.14274 7.48838L1.14277 7.48842L20.4818 27.8296C15.0842 31.2266 11.4881 37.2367 11.4881 44.0727C11.4881 54.649 20.0923 63.2532 30.6686 63.2532C41.245 63.2532 49.8491 54.649 49.8491 44.0727C49.8491 37.2396 46.2561 31.2321 40.8624 27.8342L60.1946 7.48826L60.1947 7.48811C60.2565 7.42296 60.2999 7.3502 60.3324 7.27855ZM60.3324 7.27855C60.3324 7.27847 60.3325 7.27838 60.3325 7.27829L60.1959 7.21644L60.3323 7.27882C60.3323 7.27873 60.3324 7.27864 60.3324 7.27855ZM58.8865 6.20769H2.45036V2.96944C2.45036 2.67303 2.6917 2.43169 2.98811 2.43169H58.3487C58.6451 2.43169 58.8865 2.67303 58.8865 2.96944V6.20769ZM26.6567 47.419L26.6568 47.4191C27.6013 48.2906 28.798 48.7209 29.9911 48.7209C31.3167 48.7209 32.6394 48.1893 33.6075 47.1403C33.9068 46.816 34.2579 46.2496 34.6322 45.5463C35.0085 44.8394 35.4147 43.9817 35.8225 43.0653C36.5994 41.3196 37.3853 39.3543 37.9872 37.7975C39.4393 39.4874 40.3245 41.6761 40.3245 44.0727C40.3245 44.4914 40.664 44.8309 41.0827 44.8309C41.5015 44.8309 41.841 44.4914 41.841 44.0727C41.841 41.0073 40.5983 38.228 38.5929 36.2078C38.8035 35.6468 38.9535 35.2385 39.0177 35.0627L39.0178 35.0625C39.1225 34.7753 39.0445 34.4529 38.8197 34.2456C38.5949 34.0381 38.2673 33.9848 37.9893 34.1137C37.8038 34.1989 37.3533 34.4066 36.7324 34.699C34.9845 33.5643 32.9036 32.9002 30.6686 32.9002C24.5079 32.9003 19.4961 37.9121 19.4961 44.0727C19.4961 44.4914 19.8356 44.8309 20.2544 44.8309C20.6731 44.8309 21.0126 44.4914 21.0126 44.0727C21.0126 38.7484 25.3443 34.4167 30.6686 34.4167C32.2576 34.4167 33.7564 34.8052 35.0796 35.4884C33.5837 36.2125 31.7539 37.1256 30.1424 38.0082C29.2884 38.476 28.4941 38.936 27.8425 39.3556C27.1943 39.7729 26.6762 40.1572 26.384 40.474C25.4937 41.4387 25.0317 42.6935 25.0834 44.0057C25.1352 45.3176 25.694 46.5303 26.6567 47.419ZM27.4983 41.5024L27.3881 41.4007L27.4983 41.5024C27.727 41.2546 28.2031 40.9096 28.8565 40.5018C29.5051 40.097 30.3147 39.6385 31.198 39.1631C32.9349 38.2283 34.9509 37.2313 36.5765 36.4529C36.6558 36.5132 36.7332 36.5721 36.8085 36.6328C36.1642 38.3129 35.3317 40.404 34.5381 42.2143C34.1332 43.1377 33.7392 43.9864 33.3859 44.6695C33.03 45.3576 32.7228 45.8628 32.4931 46.1118C31.2212 47.4901 29.0641 47.5771 27.6852 46.3047L27.5835 46.4149L27.6852 46.3047C27.02 45.6909 26.6342 44.8539 26.5984 43.9461C26.5626 43.0376 26.8821 42.1702 27.4983 41.5024ZM48.3325 44.0727C48.3325 53.8125 40.4083 61.7367 30.6685 61.7367C20.9287 61.7367 13.0045 53.8125 13.0045 44.0727C13.0045 34.3329 20.9287 26.4089 30.6685 26.4089C40.4083 26.4089 48.3325 34.3329 48.3325 44.0727ZM21.8367 27.054L3.45919 7.72419H57.8784L39.5079 27.0579C36.8607 25.6771 33.855 24.8924 30.6685 24.8924C27.485 24.8924 24.4821 25.6756 21.8367 27.054ZM14.9989 44.0727C14.9989 52.713 22.0281 59.7423 30.6685 59.7423C39.3088 59.7423 46.3381 52.713 46.3381 44.0727C46.3381 35.4323 39.3088 28.4034 30.6685 28.4034C22.0281 28.4034 14.9989 35.4323 14.9989 44.0727ZM44.8216 44.0727C44.8216 51.8767 38.4725 58.2258 30.6685 58.2258C22.8645 58.2258 16.5154 51.8767 16.5154 44.0727C16.5154 36.2689 22.8645 29.9198 30.6685 29.9198C38.4725 29.9198 44.8216 36.2689 44.8216 44.0727Z" fill="url(#paint0_linear_70_4151)" stroke="url(#paint1_linear_70_4151)" stroke-width="0.3"/>
<defs>
<linearGradient id="paint0_linear_70_4151" x1="31.204" y1="4.61408" x2="31.204" y2="63.1033" gradientUnits="userSpaceOnUse">
<stop stop-color="#3284FF"/>
<stop offset="1" stop-color="#01D1FF"/>
</linearGradient>
<linearGradient id="paint1_linear_70_4151" x1="31.204" y1="4.61408" x2="31.204" y2="63.1033" gradientUnits="userSpaceOnUse">
<stop stop-color="#3284FF"/>
<stop offset="1" stop-color="#01D1FF"/>
</linearGradient>
</defs>
</svg>
