<svg width="32" height="33" viewBox="0 0 32 33" fill="none" xmlns="http://www.w3.org/2000/svg">
<g clip-path="url(#clip0_370_7865)">
<g clip-path="url(#clip1_370_7865)">
<path d="M21.7805 5.60883H19.8004V4.61878C19.8004 4.09362 19.5918 3.58998 19.2204 3.21863C18.8491 2.84729 18.3454 2.63867 17.8203 2.63867H13.8601C13.3349 2.63867 12.8312 2.84729 12.4599 3.21863C12.0885 3.58998 11.8799 4.09362 11.8799 4.61878V5.60883H9.89984C9.11211 5.60883 8.35664 5.92176 7.79962 6.47876C7.24262 7.03578 6.92969 7.79125 6.92969 8.57898V27.39C6.92969 28.1777 7.24262 28.9332 7.79962 29.4901C8.35664 30.0472 9.11211 30.3601 9.89984 30.3601H21.7805C22.5682 30.3601 23.3237 30.0472 23.8806 29.4901C24.4377 28.9332 24.7506 28.1777 24.7506 27.39V8.57898C24.7506 7.79125 24.4377 7.03578 23.8806 6.47876C23.3237 5.92176 22.5682 5.60883 21.7805 5.60883ZM13.8601 4.61878H17.8203V5.60883H13.8601V4.61878ZM22.7705 27.39C22.7705 27.6525 22.6662 27.9044 22.4805 28.09C22.2949 28.2757 22.043 28.38 21.7805 28.38H9.89984C9.63727 28.38 9.38544 28.2757 9.19977 28.09C9.0141 27.9044 8.90979 27.6525 8.90979 27.39V8.57898C8.90979 8.31641 9.0141 8.06458 9.19977 7.87891C9.38544 7.69324 9.63727 7.58893 9.89984 7.58893H21.7805C22.043 7.58893 22.2949 7.69324 22.4805 7.87891C22.6662 8.06458 22.7705 8.31641 22.7705 8.57898V27.39Z" fill="white"/>
<path d="M19.7982 15.9139H17.9073L18.3132 11.1319C18.3325 10.9125 18.2783 10.6929 18.1588 10.5079C18.0394 10.3228 17.8617 10.1829 17.6538 10.1102C17.4459 10.0375 17.2198 10.0362 17.011 10.1065C16.8023 10.1768 16.623 10.3146 16.5014 10.4983L11.0561 18.4781C10.947 18.6273 10.8819 18.804 10.868 18.9881C10.8542 19.1724 10.8921 19.3569 10.9776 19.5206C11.0631 19.6844 11.1928 19.821 11.3518 19.915C11.5109 20.0089 11.6931 20.0565 11.8778 20.0523H13.7689L13.3629 24.8342C13.351 25.0489 13.4093 25.2616 13.529 25.4402C13.6486 25.6189 13.8232 25.7536 14.0263 25.8243C14.131 25.8623 14.2415 25.8824 14.353 25.8836C14.5151 25.884 14.6749 25.8444 14.8182 25.7684C14.9615 25.6924 15.0839 25.5825 15.1747 25.448L20.6201 17.488C20.729 17.3389 20.7942 17.1622 20.808 16.978C20.822 16.7938 20.784 16.6093 20.6985 16.4455C20.613 16.2817 20.4834 16.1451 20.3243 16.0511C20.1652 15.9573 19.9829 15.9096 19.7982 15.9139ZM15.6599 21.2305L15.838 19.1415C15.849 19.0049 15.8315 18.8676 15.7867 18.7382C15.7419 18.6088 15.6706 18.4901 15.5776 18.3896C15.4846 18.2891 15.3717 18.209 15.2461 18.1544C15.1205 18.0998 14.9849 18.0718 14.848 18.0722H13.749L16.0163 14.7357L15.838 16.8247C15.827 16.9612 15.8446 17.0985 15.8895 17.228C15.9342 17.3574 16.0054 17.4761 16.0984 17.5766C16.1915 17.677 16.3044 17.7572 16.4301 17.8118C16.5556 17.8664 16.6911 17.8944 16.8281 17.894H17.9271L15.6599 21.2305Z" fill="white"/>
</g>
</g>
<defs>
<clipPath id="clip0_370_7865">
<rect width="31.6817" height="31.6817" fill="white" transform="translate(0 0.660156)"/>
</clipPath>
<clipPath id="clip1_370_7865">
<rect width="31.6817" height="31.6817" fill="white" transform="translate(0 0.660156)"/>
</clipPath>
</defs>
</svg>
