<svg width="33" height="33" viewBox="0 0 33 33" fill="none" xmlns="http://www.w3.org/2000/svg">
<g clip-path="url(#clip0_370_8276)">
<g clip-path="url(#clip1_370_8276)">
<g clip-path="url(#clip2_370_8276)">
<path d="M22.6382 9.71218H25.8809C26.2937 11.2378 27.6922 12.3639 29.3499 12.3639C31.3312 12.3639 32.9432 10.7555 32.9432 8.77849C32.9432 6.80149 31.3312 5.19305 29.3499 5.19305C27.6922 5.19305 26.2937 6.31921 25.8809 7.8448H22.639C22.1861 4.8469 19.5878 2.54124 16.4598 2.54124C14.197 2.54124 12.2112 3.74794 11.1145 5.55041L8.11139 4.30418C8.31707 2.73743 7.45913 1.16186 5.92887 0.526829C5.04318 0.159328 4.06705 0.157647 3.18011 0.522285C2.29154 0.887608 1.59917 1.57649 1.23054 2.46213C0.470916 4.28706 1.34054 6.38911 3.16918 7.14795C3.61392 7.33251 4.08137 7.42482 4.54899 7.42476C5.01262 7.42476 5.47644 7.334 5.918 7.15244C6.50957 6.90924 7.01344 6.52195 7.3935 6.02926L10.3948 7.27475C10.2748 7.75653 10.2107 8.26017 10.2107 8.77843C10.2107 9.13877 10.2416 9.49201 10.3006 9.83581L6.8792 10.9706C6.5945 10.7271 6.2705 10.5267 5.91407 10.3791C5.02805 10.0124 4.05186 10.0117 3.1653 10.3771C1.33486 11.1315 0.460104 13.2316 1.21536 15.0583C1.58186 15.9447 2.27261 16.6353 3.16024 17.0027C3.60411 17.1865 4.07055 17.2784 4.53706 17.2784C5.0018 17.2784 5.46662 17.1871 5.909 17.0048C7.65356 16.2858 8.52882 14.3446 7.95338 12.5826L10.8927 11.6076C11.4943 12.7818 12.457 13.7421 13.6347 14.3404L13.6346 17.4306H12.6496C11.0886 17.4306 9.81864 18.6957 9.81857 20.2509L9.81814 25.2778C9.81814 25.4505 9.8662 25.6199 9.95701 25.767L12.6002 30.0484C13.3896 31.327 14.8159 32.1212 16.3226 32.1212H26.0765C28.6044 32.1212 30.6611 30.0722 30.6611 27.5535V20.4884C30.6611 18.9329 29.3908 17.6676 27.8296 17.6676C27.3599 17.6676 26.9165 17.7821 26.5262 17.9846C26.0448 17.11 25.1116 16.5158 24.0418 16.5158C23.572 16.5158 23.1287 16.6303 22.7384 16.8328C22.2569 15.9583 21.3237 15.364 20.2539 15.364C19.9184 15.364 19.5963 15.4225 19.2974 15.5298V14.3334C21.0551 13.4352 22.3331 11.7311 22.6382 9.71218ZM29.3499 7.06043C30.2973 7.06043 31.0682 7.83117 31.0682 8.77849C31.0682 9.72582 30.2974 10.4965 29.3499 10.4965C28.4023 10.4965 27.6315 9.72582 27.6315 8.77849C27.6315 7.83117 28.4024 7.06043 29.3499 7.06043ZM6.13544 4.49757C5.95888 4.92178 5.62756 5.25162 5.20249 5.42635C4.77912 5.60039 4.31318 5.59965 3.89025 5.42417C3.0143 5.06065 2.59812 4.05264 2.96255 3.17721C3.13917 2.753 3.47049 2.4231 3.89556 2.24837C4.10637 2.16167 4.32768 2.1184 4.54906 2.1184C4.77225 2.1184 4.99543 2.16248 5.20774 2.25061C6.08375 2.61413 6.49987 3.62208 6.13544 4.49757ZM5.19206 15.2793C4.76881 15.4537 4.30281 15.4534 3.87987 15.2784C3.45524 15.1026 3.12468 14.7719 2.94912 14.3472C2.5868 13.4709 3.00543 12.464 3.88225 12.1025C4.0935 12.0155 4.31531 11.9719 4.53719 11.9719C4.75987 11.9719 4.98256 12.0158 5.19443 12.1034C5.61906 12.2792 5.94962 12.6099 6.12519 13.0345C6.4875 13.911 6.06888 14.9179 5.19206 15.2793ZM19.2974 20.1592V18.1848C19.2974 17.6591 19.7265 17.2314 20.2538 17.2314C20.7812 17.2314 21.2102 17.6592 21.2102 18.1848V21.311C21.2102 21.8266 21.63 22.2446 22.1476 22.2446C22.6654 22.2446 23.0852 21.8266 23.0852 21.311V19.3366C23.0852 18.8108 23.5143 18.3831 24.0416 18.3831C24.569 18.3831 24.998 18.8109 24.998 19.3366V23.0386C24.998 23.5542 25.4177 23.9723 25.9355 23.9723C26.4533 23.9723 26.8731 23.5542 26.8731 23.0386V20.4884C26.8731 19.9625 27.3021 19.5349 27.8295 19.5349C28.3569 19.5349 28.7859 19.9626 28.7859 20.4884V27.5535C28.7859 29.0425 27.5705 30.2538 26.0763 30.2538H16.3225C15.4624 30.2538 14.6481 29.8003 14.1974 29.0702L11.6931 25.0138L11.6935 20.2509C11.6935 19.7254 12.1224 19.2979 12.6495 19.2979H13.6344V20.1591L13.6347 22.1429C13.6347 22.1507 13.6348 22.1585 13.6351 22.1662V22.177C13.6532 22.7896 14.1269 23.1197 14.5725 23.1197C15.0204 23.1195 15.4974 22.789 15.5099 22.1765C15.5099 22.1758 15.51 22.175 15.51 22.174C15.5101 22.1674 15.5101 22.1607 15.5101 22.1539L15.5104 21.4688C15.5104 20.9113 15.5104 19.9557 15.5102 18.3641C15.5102 18.353 15.51 18.342 15.5097 18.3309L15.51 11.1012C15.51 10.5757 15.9388 10.1481 16.4669 10.1481C16.9936 10.1481 17.4222 10.5752 17.4222 11.1001L17.4224 20.1592C17.4224 20.6749 17.8421 21.0929 18.36 21.0929C18.8775 21.0929 19.2973 20.6749 19.2974 20.1592ZM19.2972 12.1001V11.1001C19.2971 9.54549 18.0274 8.28077 16.466 8.28077C14.9051 8.28077 13.6351 9.54599 13.6349 11.1012V12.1113C12.6881 11.3091 12.0857 10.113 12.0857 8.77856C12.0857 6.369 14.048 4.40868 16.4599 4.40868C18.8719 4.40868 20.8341 6.369 20.8341 8.77856C20.8341 10.1071 20.2368 11.2983 19.2972 12.1001Z" fill="white"/>
</g>
</g>
</g>
<defs>
<clipPath id="clip0_370_8276">
<rect width="32.0014" height="32.0014" fill="white" transform="translate(0.945801 0.25)"/>
</clipPath>
<clipPath id="clip1_370_8276">
<rect width="32.0014" height="32.0014" fill="white" transform="translate(0.945801 0.25)"/>
</clipPath>
<clipPath id="clip2_370_8276">
<rect width="32.0014" height="32.0014" fill="white" transform="translate(0.945801 0.25)"/>
</clipPath>
</defs>
</svg>
