<svg width="32" height="33" viewBox="0 0 32 33" fill="none" xmlns="http://www.w3.org/2000/svg">
<g clip-path="url(#clip0_370_7954)">
<g clip-path="url(#clip1_370_7954)">
<path d="M19.5491 22.9395C19.0227 22.9395 18.5972 23.365 18.5972 23.8914V25.7952C18.5972 26.3216 19.0227 26.7471 19.5491 26.7471C20.0755 26.7471 20.501 26.3216 20.501 25.7952V23.8914C20.501 23.365 20.0755 22.9395 19.5491 22.9395Z" fill="white"/>
<path d="M22.4055 22.9395C21.8792 22.9395 21.4536 23.365 21.4536 23.8914V25.7952C21.4536 26.3216 21.8792 26.7471 22.4055 26.7471C22.9319 26.7471 23.3575 26.3216 23.3575 25.7952V23.8914C23.3575 23.365 22.9319 22.9395 22.4055 22.9395Z" fill="white"/>
<path d="M25.2586 22.9395C24.7322 22.9395 24.3066 23.365 24.3066 23.8914V25.7952C24.3066 26.3216 24.7322 26.7471 25.2586 26.7471C25.7849 26.7471 26.2105 26.3216 26.2105 25.7952V23.8914C26.2105 23.365 25.7849 22.9395 25.2586 22.9395Z" fill="white"/>
<path d="M26.2101 20.0819H20.4986V19.524L22.1235 17.8991C22.4958 17.527 22.4958 16.9252 22.1235 16.5531C21.7514 16.1809 21.1497 16.1809 20.7775 16.5531L20.4986 16.832V14.3703C20.4986 13.844 20.0731 13.4184 19.5467 13.4184H12.8832V12.4665H18.5948C20.1692 12.4665 21.4505 11.1852 21.4505 9.61072V5.80303C21.4505 4.22855 20.1692 2.94727 18.5948 2.94727H5.26788C3.69339 2.94727 2.41211 4.22855 2.41211 5.80303V9.61072C2.41211 11.1852 3.69339 12.4665 5.26788 12.4665H10.9794V14.3703C10.9794 14.8967 11.4059 15.3223 11.9313 15.3223H18.5948V16.832L18.3158 16.5531C17.9437 16.1809 17.342 16.1809 16.9698 16.5531C16.5976 16.9252 16.5976 17.527 16.9698 17.8991L18.5948 19.524V20.0819H12.8832C11.3088 20.0819 10.0275 21.3632 10.0275 22.9376V26.7453C10.0275 28.3198 11.3088 29.6011 12.8832 29.6011H26.2101C27.7846 29.6011 29.0659 28.3198 29.0659 26.7453V22.9376C29.0659 21.3632 27.7846 20.0819 26.2101 20.0819ZM5.26788 10.5626C4.74337 10.5626 4.31595 10.1362 4.31595 9.61072V5.80303C4.31595 5.27757 4.74337 4.85111 5.26788 4.85111H18.5948C19.1202 4.85111 19.5467 5.27757 19.5467 5.80303V9.61072C19.5467 10.1362 19.1202 10.5626 18.5948 10.5626H5.26788ZM27.1621 26.7453C27.1621 27.2708 26.7356 27.6972 26.2101 27.6972H12.8832C12.3587 27.6972 11.9313 27.2708 11.9313 26.7453V22.9376C11.9313 22.4122 12.3587 21.9857 12.8832 21.9857H26.2101C26.7356 21.9857 27.1621 22.4122 27.1621 22.9376V26.7453Z" fill="white"/>
<path d="M11.9339 5.80469C11.4084 5.80469 10.9819 6.23019 10.9819 6.75661V8.66045C10.9819 9.18687 11.4084 9.61238 11.9339 9.61238C12.4593 9.61238 12.8858 9.18687 12.8858 8.66045V6.75661C12.8858 6.23019 12.4593 5.80469 11.9339 5.80469Z" fill="white"/>
<path d="M14.7864 5.80469C14.2609 5.80469 13.8345 6.23019 13.8345 6.75661V8.66045C13.8345 9.18687 14.2609 9.61238 14.7864 9.61238C15.3119 9.61238 15.7383 9.18687 15.7383 8.66045V6.75661C15.7383 6.23019 15.3119 5.80469 14.7864 5.80469Z" fill="white"/>
<path d="M18.5953 6.75661C18.5953 6.23019 18.1697 5.80469 17.6433 5.80469C17.117 5.80469 16.6914 6.23019 16.6914 6.75661V8.66045C16.6914 9.18687 17.117 9.61238 17.6433 9.61238C18.1697 9.61238 18.5953 9.18687 18.5953 8.66045V6.75661Z" fill="white"/>
</g>
</g>
<defs>
<clipPath id="clip0_370_7954">
<rect width="31.4769" height="31.4769" fill="white" transform="translate(0.242676 0.798828)"/>
</clipPath>
<clipPath id="clip1_370_7954">
<rect width="31.4769" height="31.4769" fill="white" transform="translate(0.242676 0.798828)"/>
</clipPath>
</defs>
</svg>
