<svg width="150" height="87" viewBox="0 0 150 87" fill="none" xmlns="http://www.w3.org/2000/svg">
<path d="M5.32099 82.4084C4.37066 82.4265 3.4312 82.2039 2.58999 81.7614C1.80919 81.3298 1.15434 80.7022 0.689985 79.9404C0.227502 79.1598 -0.0191825 78.2702 -0.0248041 77.3629C-0.0304256 76.4556 0.205218 75.5631 0.657993 74.7768C1.11077 73.9905 1.7644 73.3386 2.55196 72.888C3.33951 72.4374 4.23268 72.2043 5.13999 72.2124C6.01321 72.1937 6.87451 72.4176 7.62799 72.8594C8.34714 73.2678 8.93641 73.8709 9.32799 74.5994C9.75395 75.3584 9.97034 76.2171 9.95499 77.0874C9.95458 77.2701 9.94121 77.4526 9.91499 77.6334C9.89709 77.838 9.86366 78.0409 9.81499 78.2404L1.60199 78.2604V76.2784L8.58099 76.2584L7.50899 77.0874C7.49965 76.5853 7.38947 76.0901 7.18499 75.6314C7.02486 75.2574 6.74809 74.9452 6.39599 74.7414C6.01805 74.5145 5.5825 74.402 5.14199 74.4174C4.6581 74.4059 4.18091 74.5322 3.76599 74.7814C3.37139 75.0145 3.05472 75.3594 2.85599 75.7724C2.64358 76.2432 2.54099 76.7561 2.55599 77.2724C2.54061 77.808 2.6473 78.3401 2.86799 78.8284C3.08862 79.2511 3.42553 79.6019 3.83899 79.8394C4.28719 80.076 4.7883 80.1944 5.29499 80.1834C5.75804 80.1898 6.21801 80.1073 6.64998 79.9404C7.05362 79.7657 7.41307 79.503 7.70198 79.1714L9.25999 80.7294C8.78929 81.2813 8.1924 81.7114 7.51999 81.9834C6.82279 82.2707 6.07503 82.4152 5.32099 82.4084ZM11.876 82.2084V67.9854H14.627V82.2064L11.876 82.2084ZM13.899 82.2084V79.7604H21.141V82.2084H13.899ZM27.169 82.4084C26.2559 82.4321 25.353 82.2123 24.553 81.7715C23.753 81.3308 23.0847 80.6849 22.617 79.9004C22.1557 79.1087 21.918 78.2066 21.929 77.2904C21.9146 76.3867 22.1529 75.4969 22.617 74.7214C23.0703 73.9575 23.7198 73.3287 24.498 72.9004C25.312 72.4493 26.2273 72.2127 27.158 72.2127C28.0886 72.2127 29.004 72.4493 29.818 72.9004C30.5962 73.3287 31.2457 73.9575 31.699 74.7214C32.1631 75.4969 32.4014 76.3867 32.387 77.2904C32.398 78.2066 32.1602 79.1087 31.699 79.9004C31.2426 80.6671 30.5943 81.3016 29.818 81.7414C29.0088 82.1932 28.0946 82.4233 27.168 82.4084H27.169ZM27.149 79.9404C27.6082 79.9505 28.062 79.8387 28.464 79.6164C28.8442 79.3984 29.1533 79.075 29.354 78.6854C29.5747 78.2608 29.6861 77.7879 29.678 77.3094C29.6876 76.8375 29.5761 76.3709 29.354 75.9544C29.1483 75.5738 28.84 75.2585 28.464 75.0444C28.0662 74.8097 27.6108 74.6906 27.149 74.7004C26.6937 74.6922 26.2452 74.8114 25.854 75.0444C25.478 75.2585 25.1697 75.5738 24.964 75.9544C24.7419 76.3709 24.6303 76.8375 24.64 77.3094C24.6319 77.7879 24.7432 78.2608 24.964 78.6854C25.1727 79.0693 25.4799 79.3906 25.854 79.6164C26.2489 79.8365 26.695 79.9483 27.147 79.9404H27.149ZM38.18 86.5354C37.2322 86.5545 36.2922 86.3611 35.429 85.9694C34.6663 85.6316 34.0096 85.0931 33.529 84.4114L35.208 82.7324C35.553 83.1511 35.9796 83.4951 36.462 83.7434C36.9914 83.9989 37.5744 84.1238 38.162 84.1074C38.8648 84.1476 39.5573 83.924 40.104 83.4804C40.3482 83.2636 40.5405 82.9947 40.6665 82.6935C40.7925 82.3922 40.8491 82.0665 40.832 81.7404V79.2924L41.277 77.1484L40.852 75.0044V72.4354H43.482V81.7004C43.5019 82.5743 43.2728 83.4359 42.8215 84.1846C42.3701 84.9332 41.7151 85.538 40.933 85.9284C40.0764 86.347 39.1332 86.5552 38.18 86.5354ZM38.059 81.9434C37.2274 81.9555 36.4085 81.7386 35.692 81.3164C34.9928 80.8871 34.4202 80.2797 34.033 79.5564C33.6354 78.7881 33.4338 77.9334 33.446 77.0684C33.4321 76.2096 33.6339 75.361 34.033 74.6004C34.4217 73.8889 34.9947 73.2951 35.692 72.8814C36.4042 72.4469 37.2248 72.2226 38.059 72.2344C38.7244 72.2202 39.3836 72.366 39.981 72.6594C40.5241 72.9221 40.9856 73.3275 41.316 73.8324C41.6482 74.3451 41.8304 74.9405 41.842 75.5514V78.6264C41.825 79.2376 41.6407 79.8324 41.309 80.346C40.9773 80.8597 40.511 81.2724 39.961 81.5394C39.3657 81.8184 38.7142 81.9566 38.057 81.9434H38.059ZM38.585 79.5364C39.0222 79.5493 39.455 79.4457 39.839 79.2364C40.1957 79.0284 40.4894 78.7278 40.689 78.3664C40.8937 77.9734 40.9968 77.5354 40.989 77.0924C41.0001 76.649 40.8967 76.2102 40.689 75.8184C40.4924 75.4599 40.1975 75.165 39.839 74.9684C39.4597 74.7449 39.0251 74.6326 38.585 74.6444C38.1387 74.6345 37.6983 74.7465 37.311 74.9684C36.9485 75.1688 36.6529 75.4713 36.461 75.8384C36.2547 76.2236 36.1514 76.6555 36.161 77.0924C36.1547 77.5289 36.2578 77.96 36.461 78.3464C36.6606 78.7078 36.9543 79.0084 37.311 79.2164C37.6981 79.4365 38.1378 79.5472 38.583 79.5364H38.585ZM45.809 82.2064V72.4354H48.479V82.2064H45.809ZM47.144 70.8584C46.9458 70.8645 46.7484 70.8299 46.564 70.7568C46.3797 70.6837 46.2122 70.5736 46.072 70.4334C45.9325 70.2885 45.8231 70.1174 45.7502 69.9299C45.6772 69.7425 45.6422 69.5425 45.647 69.3414C45.6436 69.1435 45.6794 68.9469 45.7524 68.7629C45.8253 68.5789 45.9339 68.4112 46.072 68.2694C46.2092 68.1238 46.3757 68.009 46.5604 67.9323C46.7452 67.8556 46.944 67.8188 47.144 67.8244C47.3443 67.8162 47.5439 67.8518 47.7291 67.9286C47.9142 68.0055 48.0804 68.1218 48.216 68.2694C48.354 68.4112 48.4627 68.5789 48.5356 68.7629C48.6086 68.9469 48.6444 69.1435 48.641 69.3414C48.6458 69.5425 48.6107 69.7425 48.5378 69.9299C48.4648 70.1174 48.3555 70.2885 48.216 70.4334C48.0771 70.5756 47.9097 70.6869 47.7248 70.76C47.5399 70.8331 47.3416 70.8662 47.143 70.8574L47.144 70.8584ZM55.439 82.4094C54.4996 82.4238 53.5725 82.1936 52.749 81.7414C51.9609 81.3033 51.3043 80.6625 50.8472 79.8854C50.39 79.1082 50.149 78.223 50.149 77.3214C50.149 76.4198 50.39 75.5345 50.8472 74.7574C51.3043 73.9803 51.9609 73.3395 52.749 72.9014C53.5697 72.4398 54.4975 72.2025 55.439 72.2134C56.1689 72.2056 56.8923 72.3504 57.563 72.6384C58.2038 72.917 58.7766 73.3311 59.242 73.8524L57.542 75.5724C57.2849 75.2887 56.9665 75.0675 56.611 74.9254C56.239 74.7728 55.84 74.6969 55.438 74.7024C54.9766 74.6961 54.5222 74.815 54.123 75.0464C53.7442 75.2635 53.43 75.5776 53.213 75.9564C52.9878 76.3717 52.876 76.8391 52.889 77.3114C52.8809 77.7899 52.9922 78.2628 53.213 78.6874C53.4331 79.0694 53.7461 79.3896 54.123 79.6184C54.5263 79.8374 54.9791 79.9489 55.438 79.9424C55.8469 79.9492 56.2531 79.8733 56.632 79.7194C56.9897 79.5624 57.3079 79.3273 57.563 79.0314L59.282 80.7504C58.8011 81.2769 58.2156 81.6972 57.563 81.9844C56.8916 82.2723 56.1675 82.4168 55.437 82.4084L55.439 82.4094Z" fill="white"/>
<path d="M64.5847 82.2061V68.2881H67.3557V82.2061H64.5847ZM60.0537 70.4331V67.9851H71.8877V70.4331H60.0537ZM75.7467 82.4091C74.7964 82.4272 73.8569 82.2047 73.0157 81.7621C72.2349 81.3305 71.5801 80.7029 71.1157 79.9411C70.6532 79.1605 70.4065 78.271 70.4009 77.3636C70.3953 76.4563 70.6309 75.5638 71.0837 74.7775C71.5365 73.9912 72.1901 73.3394 72.9777 72.8888C73.7652 72.4382 74.6584 72.205 75.5657 72.2131C76.4389 72.1944 77.3002 72.4184 78.0537 72.8601C78.7729 73.2686 79.3621 73.8717 79.7537 74.6001C80.1797 75.3592 80.3961 76.2179 80.3807 77.0881C80.3803 77.2709 80.3669 77.4533 80.3407 77.6341C80.3228 77.8387 80.2894 78.0416 80.2407 78.2411L72.0277 78.2611V76.2771L79.0067 76.2571L77.9347 77.0861C77.9254 76.584 77.8152 76.0888 77.6107 75.6301C77.4505 75.2562 77.1738 74.944 76.8217 74.7401C76.4438 74.5133 76.0082 74.4008 75.5677 74.4161C75.0838 74.4047 74.6066 74.5309 74.1917 74.7801C73.7971 75.0133 73.4804 75.3581 73.2817 75.7711C73.0693 76.2419 72.9667 76.7549 72.9817 77.2711C72.9698 77.8084 73.0806 78.3412 73.3057 78.8291C73.5263 79.2519 73.8633 79.6026 74.2767 79.8401C74.7249 80.0767 75.226 80.1951 75.7327 80.1841C76.1958 80.1905 76.6557 80.108 77.0877 79.9411C77.4913 79.7665 77.8508 79.5037 78.1397 79.1721L79.6977 80.7301C79.227 81.282 78.6301 81.7122 77.9577 81.9841C77.2567 82.2727 76.5047 82.4169 75.7467 82.4081V82.4091ZM86.6307 82.4091C85.6913 82.4236 84.7643 82.1934 83.9407 81.7411C83.1524 81.3033 82.4955 80.6626 82.0382 79.8854C81.5808 79.1082 81.3397 78.2229 81.3397 77.3211C81.3397 76.4194 81.5808 75.534 82.0382 74.7569C82.4955 73.9797 83.1524 73.339 83.9407 72.9011C84.7614 72.4396 85.6892 72.2023 86.6307 72.2131C87.3606 72.2054 88.084 72.3501 88.7547 72.6381C89.3955 72.9167 89.9683 73.3309 90.4337 73.8521L88.7337 75.5711C88.4766 75.2875 88.1582 75.0662 87.8027 74.9241C87.4307 74.7715 87.0317 74.6957 86.6297 74.7011C86.1683 74.6948 85.7139 74.8137 85.3147 75.0451C84.9359 75.2622 84.6218 75.5763 84.4047 75.9551C84.1795 76.3705 84.0678 76.8378 84.0807 77.3101C84.0726 77.7886 84.184 78.2616 84.4047 78.6861C84.6248 79.0681 84.9378 79.3884 85.3147 79.6171C85.718 79.8361 86.1709 79.9477 86.6297 79.9411C87.0387 79.948 87.4448 79.8721 87.8237 79.7181C88.1815 79.5612 88.4996 79.3261 88.7547 79.0301L90.4737 80.7491C89.9928 81.2756 89.4074 81.6959 88.7547 81.9831C88.084 82.2712 87.3606 82.4159 86.6307 82.4081V82.4091ZM98.5497 82.2091V76.6091C98.5626 76.3481 98.5207 76.0872 98.4266 75.8433C98.3326 75.5995 98.1885 75.378 98.0037 75.1932C97.8189 75.0083 97.5974 74.8643 97.3535 74.7702C97.1096 74.6762 96.8488 74.6343 96.5877 74.6471C96.2356 74.6411 95.8877 74.7247 95.5767 74.8901C95.282 75.0501 95.037 75.2881 94.8687 75.5781C94.7016 75.896 94.618 76.2511 94.6257 76.6101L93.5937 76.0841C93.5767 75.3864 93.744 74.6966 94.0787 74.0841C94.3895 73.5175 94.8517 73.0484 95.4137 72.7291C96.0212 72.3985 96.7041 72.2311 97.3957 72.2431C98.0811 72.2292 98.758 72.3969 99.3577 72.7291C99.9244 73.04 100.393 73.5022 100.713 74.0641C101.045 74.6638 101.213 75.3407 101.199 76.0261V82.2161L98.5497 82.2091ZM91.9757 82.2091V67.5771H94.6257V82.2031L91.9757 82.2091Z" fill="white"/>
<path d="M134.046 82.2091C133.212 82.2237 132.384 82.0679 131.612 81.7514C130.84 81.4348 130.141 80.9641 129.558 80.3681C128.967 79.7782 128.5 79.0751 128.187 78.3008C127.874 77.5266 127.72 76.6971 127.735 75.8621C127.726 75.0072 127.893 74.1596 128.226 73.3721C128.543 72.6157 129.008 71.9303 129.594 71.356C130.179 70.7713 130.877 70.312 131.645 70.0061C132.451 69.6744 133.315 69.5074 134.187 69.5151C135.153 69.5044 136.109 69.7019 136.992 70.0941C137.845 70.4681 139.472 69.1161 140.033 69.8061L139.342 71.3571C138.956 70.8571 137.147 71.81 136.575 71.541C136.003 71.272 134.854 71.6981 134.164 71.6981C133.432 71.699 132.714 71.8958 132.084 72.268C131.491 72.6053 131.005 73.104 130.684 73.7061C130.333 74.3633 130.158 75.1002 130.176 75.845C130.161 76.5988 130.329 77.3449 130.667 78.0191C130.986 78.6318 131.47 79.1425 132.065 79.4928C132.661 79.8431 133.342 80.0189 134.033 80.0001C134.717 80.019 135.396 79.8747 136.014 79.5791C136.553 79.2968 136.994 78.8565 137.276 78.317C137.585 77.6787 137.735 76.975 137.714 76.266L139.274 77.335L133.892 77.2821V75.2131H140.168V75.546C140.211 76.8253 139.94 78.0956 139.379 79.246C138.892 80.1881 138.135 80.9635 137.205 81.4731C136.23 81.9792 135.144 82.2323 134.046 82.2091Z" fill="white"/>
<path d="M150.001 82.2086V69.5146H147.546V82.2086H150.001ZM148.196 82.2086V80.0236H137.057V82.2086H148.196ZM148.196 76.7736V74.6796H141.804V76.7746L148.196 76.7736ZM148.196 71.6996V69.5146H137.147V71.6996H148.196Z" fill="white"/>
<path d="M137.46 82.21V80.025H134.228C133.48 80.0419 132.74 79.8678 132.079 79.519C131.473 79.1781 130.978 78.6703 130.653 78.056C130.29 77.3732 130.109 76.6081 130.129 75.835C130.111 75.0792 130.291 74.3319 130.653 73.668C130.986 73.0582 131.488 72.557 132.098 72.224C132.75 71.8652 133.484 71.6845 134.228 71.7H137.514V69.515H134.192C133.303 69.5061 132.421 69.6655 131.592 69.985C130.81 70.2824 130.097 70.7371 129.498 71.321C128.899 71.8824 128.425 72.5639 128.108 73.321C127.765 74.1194 127.593 74.9804 127.603 75.849C127.595 76.7233 127.767 77.59 128.108 78.395C128.425 79.154 128.892 79.8416 129.48 80.417C130.084 80.9914 130.796 81.4395 131.575 81.735C132.398 82.0536 133.274 82.2131 134.157 82.205L137.46 82.21Z" fill="white"/>
<path d="M107.572 82.2086V69.5146H110.028V82.2086H107.572ZM109.378 82.2086V80.0237H120.516V82.2086H109.378ZM109.378 76.7737V74.6806H115.772V76.7757L109.378 76.7737ZM109.378 71.6996V69.5146H120.426V71.6996H109.378Z" fill="white"/>
<path d="M120.116 82.21V80.025H123.348C124.096 80.042 124.835 79.8679 125.497 79.519C126.103 79.1783 126.598 78.6704 126.924 78.056C127.287 77.3732 127.468 76.6081 127.448 75.835C127.466 75.0792 127.286 74.3319 126.924 73.668C126.591 73.0582 126.089 72.557 125.479 72.224C124.827 71.8652 124.093 71.6845 123.349 71.7H120.062V69.515H123.384C124.273 69.5061 125.155 69.6656 125.984 69.985C126.766 70.2824 127.479 70.7371 128.078 71.321C128.677 71.8824 129.151 72.5639 129.468 73.321C129.811 74.1192 129.983 74.9803 129.974 75.849C129.982 76.7234 129.81 77.5901 129.468 78.395C129.151 79.154 128.684 79.8416 128.096 80.417C127.492 80.9915 126.78 81.4396 126.001 81.735C125.178 82.0536 124.302 82.2131 123.419 82.205L120.116 82.21Z" fill="white"/>
<path fill-rule="evenodd" clip-rule="evenodd" d="M94.402 37.535C92.386 39.8021 89.9332 41.6389 87.1904 42.9354C84.4476 44.232 81.4713 44.9615 78.4399 45.0804C75.4084 45.1993 72.3842 44.705 69.5483 43.6272C66.7124 42.5494 64.1233 40.9102 61.936 38.808L67.848 33.53C70.7536 36.0995 74.5597 37.4121 78.4316 37.1798C82.3035 36.9475 85.9253 35.1894 88.503 32.291L94.402 37.535ZM66.58 32.258L66.575 32.252L94.307 7.46696C90.4714 3.21027 85.1587 0.573954 79.449 0.0939372C73.7393 -0.38608 68.0611 1.32623 63.5686 4.88278C59.0762 8.43932 56.1067 13.5732 55.2638 19.2407C54.4209 24.9082 55.7679 30.684 59.031 35.394C59.355 35.8606 59.6956 36.3146 60.053 36.756L55.001 42.596L60.692 37.509L66.58 32.258ZM83.807 9.29996L65.336 30.643C63.5701 27.9758 62.7254 24.804 62.9309 21.6118C63.1364 18.4196 64.3807 15.3824 66.474 12.9636C68.5673 10.5448 71.3945 8.87745 74.5242 8.21594C77.6538 7.55443 80.914 7.93514 83.807 9.29996Z" fill="white"/>
</svg>
