<svg width="33" height="34" viewBox="0 0 33 34" fill="none" xmlns="http://www.w3.org/2000/svg">
<g clip-path="url(#clip0_370_8026)">
<g clip-path="url(#clip1_370_8026)">
<g clip-path="url(#clip2_370_8026)">
<mask id="mask0_370_8026" style="mask-type:luminance" maskUnits="userSpaceOnUse" x="0" y="0" width="32" height="33">
<path d="M31.7223 0.792969H0.82373V32.7215H31.7223V0.792969Z" fill="white"/>
</mask>
<g mask="url(#mask0_370_8026)">
<path d="M27.1973 5.4399C24.2794 2.51007 20.3996 0.896484 16.273 0.896484C12.1464 0.896484 8.26673 2.51007 5.34869 5.4399C2.43626 8.36429 0.829826 12.3347 0.82373 16.4694C0.82373 20.057 2.07084 23.5323 4.33773 26.2977C6.57353 29.0253 9.69169 30.9205 13.1177 31.6344C13.365 31.6859 13.6138 31.7113 13.8607 31.7113C14.6859 31.7112 15.49 31.4282 16.1441 30.8939C16.9923 30.2009 17.479 29.1737 17.4792 28.0755L17.48 22.8343C20.1625 22.2855 22.1873 19.8982 22.1873 17.0451V13.9244C22.1873 13.2551 21.647 12.7126 20.9803 12.7126H19.9544V9.62218C19.9544 8.95285 19.4141 8.41028 18.7475 8.41028C18.0808 8.41028 17.5405 8.95285 17.5405 9.62218V12.7126H15.1265V9.62218C15.1265 8.95285 14.5862 8.41028 13.9196 8.41028C13.2529 8.41028 12.7126 8.95285 12.7126 9.62218V12.7126H11.6263C10.9597 12.7126 10.4193 13.2551 10.4193 13.9244V17.0451C10.4193 19.8767 12.4137 22.2491 15.066 22.8212L15.0653 28.0751C15.0652 28.5759 14.7866 28.8782 14.6206 29.0138C14.3365 29.2458 13.9676 29.336 13.6083 29.2611C7.60579 28.0105 3.2471 22.6336 3.23642 16.4694C3.23642 16.4694 3.23775 16.4847 3.23775 16.4694C3.23775 9.25237 9.08537 3.32029 16.2731 3.32029C23.4608 3.32029 29.3084 9.19178 29.3084 16.4089C29.3084 21.6998 26.1862 26.447 21.3543 28.5028C20.7405 28.7639 20.4537 29.475 20.7139 30.0914C20.9739 30.7077 21.6823 30.9957 22.2961 30.7345C25.054 29.5611 27.4023 27.6111 29.0871 25.0952C30.811 22.5209 31.7223 19.5171 31.7223 16.4089C31.7223 12.2654 30.1154 8.3698 27.1973 5.4399ZM12.8332 17.0451V15.1363H19.7732V17.0451C19.7732 18.9663 18.2166 20.5293 16.3032 20.5293C14.3897 20.5293 12.8332 18.9662 12.8332 17.0451Z" fill="white"/>
</g>
</g>
</g>
</g>
<defs>
<clipPath id="clip0_370_8026">
<rect width="31.9285" height="32.9613" fill="white" transform="translate(0.553223 0.279297)"/>
</clipPath>
<clipPath id="clip1_370_8026">
<rect width="31.9285" height="32.9613" fill="white" transform="translate(0.553223 0.279297)"/>
</clipPath>
<clipPath id="clip2_370_8026">
<rect width="31.9285" height="32.9585" fill="white" transform="translate(0.553223 0.28125)"/>
</clipPath>
</defs>
</svg>
