<svg width="33" height="34" viewBox="0 0 33 34" fill="none" xmlns="http://www.w3.org/2000/svg">
<g clip-path="url(#clip0_370_8044)">
<g clip-path="url(#clip1_370_8044)">
<path d="M16.274 29.0512C16.0165 29.0512 15.759 29.0512 15.5015 28.9219C13.6991 28.1463 4.68701 24.2682 4.68701 13.7974V5.78265C4.68701 4.36069 5.84571 3.19727 7.26189 3.19727H25.2861C26.7022 3.19727 27.8609 4.36069 27.8609 5.78265V13.7974C27.8609 24.2682 18.8488 28.1463 17.0464 28.9219C16.7889 28.9219 16.5315 29.0512 16.274 29.0512ZM7.26189 5.78265V13.7974C7.26189 22.4585 14.6003 25.8195 16.274 26.4658C17.9476 25.8195 25.2861 22.4585 25.2861 13.7974V5.78265H7.26189Z" fill="white"/>
<path d="M14.9873 18.7132C14.6011 18.7132 14.3436 18.5839 14.0861 18.3254L11.5112 15.74C10.9963 15.223 10.9963 14.4473 11.5112 13.9303C12.0262 13.4132 12.7987 13.4132 13.3137 13.9303L14.9873 15.6108L19.2359 11.3448C19.7509 10.8278 20.5233 10.8278 21.0383 11.3448C21.5533 11.8619 21.5533 12.6375 21.0383 13.1546L15.8885 18.3254C15.631 18.5839 15.3736 18.7132 14.9873 18.7132Z" fill="white"/>
</g>
</g>
<defs>
<clipPath id="clip0_370_8044">
<rect width="31.9285" height="32.9613" fill="white" transform="translate(0.553223 0.0976562)"/>
</clipPath>
<clipPath id="clip1_370_8044">
<rect width="31.9285" height="32.9613" fill="white" transform="translate(0.553223 0.0976562)"/>
</clipPath>
</defs>
</svg>
