<svg width="32" height="32" viewBox="0 0 32 32" fill="none" xmlns="http://www.w3.org/2000/svg">
<g clip-path="url(#clip0_370_7825)">
<g clip-path="url(#clip1_370_7825)">
<g clip-path="url(#clip2_370_7825)">
<mask id="mask0_370_7825" style="mask-type:luminance" maskUnits="userSpaceOnUse" x="0" y="0" width="32" height="32">
<path d="M31.7617 0.292969H0.0800781V31.9746H31.7617V0.292969Z" fill="white"/>
</mask>
<g mask="url(#mask0_370_7825)">
<path d="M19.7035 11.018C19.5294 10.8439 19.2933 10.7461 19.0471 10.7461H11.5522C11.0396 10.7461 10.624 11.1617 10.624 11.6742V19.3433C10.624 19.5895 10.7218 19.8256 10.8959 19.9995L12.2754 21.379C12.4494 21.5531 12.6856 21.651 12.9317 21.651H20.2966C20.8091 21.651 21.2247 21.2354 21.2247 20.7228V12.9237C21.2247 12.6776 21.1268 12.4415 20.9529 12.2675L19.7035 11.018ZM19.3684 19.7946H13.3161L12.4804 18.9588V12.6024H18.6626L19.3684 13.3081V19.7946Z" fill="white"/>
<path d="M30.0903 21.8887V20.1953C30.0903 19.6827 29.6748 19.2671 29.1622 19.2671H24.9975V16.9281H30.8242C31.3368 16.9281 31.7524 16.5125 31.7524 15.9999C31.7524 15.4873 31.3368 15.0717 30.8242 15.0717H24.9975V13.0006H29.1622C29.6748 13.0006 30.0903 12.585 30.0903 12.0724V10.379C31.0666 10.0045 31.7617 9.05784 31.7617 7.95139C31.7617 6.51798 30.5955 5.35182 29.1622 5.35182C27.7288 5.35182 26.5626 6.51798 26.5626 7.95139C26.5626 9.05784 27.2578 10.0045 28.234 10.379V11.1443H24.9975V10.0306C24.9975 9.78435 24.8997 9.54828 24.7257 9.37429L22.3971 7.04568C22.2229 6.87161 21.9869 6.77379 21.7407 6.77379H20.3251V3.82077H21.0904C21.465 4.79702 22.4115 5.49216 23.518 5.49216C24.9515 5.49216 26.1175 4.326 26.1175 2.8926C26.1175 1.45919 24.9515 0.292969 23.518 0.292969C22.4115 0.292969 21.4649 0.988109 21.0904 1.96442H19.3969C18.8843 1.96442 18.4687 2.38 18.4687 2.8926V6.77385H16.1298V1.23049C16.1298 0.717886 15.7142 0.302312 15.2016 0.302312C14.689 0.302312 14.2735 0.717886 14.2735 1.23049V6.77379H12.2023V2.8926C12.2023 2.38 11.7868 1.96442 11.2742 1.96442H9.58074C9.20619 0.988109 8.25958 0.292969 7.15307 0.292969C5.71966 0.292969 4.55351 1.45919 4.55351 2.8926C4.55351 4.326 5.71966 5.49216 7.15307 5.49216C8.25951 5.49216 9.20619 4.79702 9.58074 3.82077H10.346V6.77385H7.77247C7.25987 6.77385 6.8443 7.18942 6.8443 7.70202V11.1444H3.60782V10.3791C4.58407 10.0045 5.27921 9.0579 5.27921 7.95145C5.27921 6.51805 4.11306 5.35189 2.67964 5.35189C1.24624 5.35182 0.0800781 6.51798 0.0800781 7.95139C0.0800781 9.05784 0.775218 10.0045 1.75148 10.379V12.0724C1.75148 12.585 2.16704 13.0006 2.67964 13.0006H6.8443V15.3395H1.0176C0.504996 15.3395 0.0894217 15.7552 0.0894217 16.2678C0.0894217 16.7803 0.504996 17.196 1.0176 17.196H6.8443V19.2671H2.67964C2.16704 19.2671 1.75148 19.6827 1.75148 20.1953V21.8887C0.775218 22.2633 0.0800781 23.2098 0.0800781 24.3162C0.0800781 25.7497 1.24624 26.9158 2.67964 26.9158C4.11306 26.9158 5.27921 25.7497 5.27921 24.3162C5.27921 23.2098 4.58407 22.2633 3.60782 21.8887V21.1235H6.8443V21.9946C6.8443 22.2409 6.94213 22.4769 7.1162 22.6509L9.6873 25.222C9.86136 25.396 10.0974 25.4938 10.3436 25.4938H10.9314V28.447H10.1661C9.79156 27.4707 8.84495 26.7756 7.7385 26.7756C6.30509 26.7756 5.13893 27.9418 5.13893 29.3752C5.13893 30.8085 6.30503 31.9746 7.73844 31.9746C8.84488 31.9746 9.7915 31.2795 10.1661 30.3032H11.8594C12.372 30.3032 12.7876 29.8877 12.7876 29.375V25.4938H15.1265V31.0371C15.1265 31.5497 15.5421 31.9652 16.0547 31.9652C16.5673 31.9652 16.9829 31.5497 16.9829 31.0371V25.4938H19.054V29.375C19.054 29.8877 19.4697 30.3032 19.9822 30.3032H21.6757C22.0503 31.2795 22.9969 31.9746 24.1033 31.9746C25.5368 31.9746 26.7029 30.8084 26.7029 29.375C26.7029 27.9417 25.5368 26.7755 24.1033 26.7755C22.9969 26.7755 22.0504 27.4707 21.6758 28.4469H20.9106V25.4938H24.0694C24.582 25.4938 24.9976 25.0783 24.9976 24.5657V21.1233H28.2341V21.8886C27.2578 22.2631 26.5627 23.2098 26.5627 24.3162C26.5627 25.7496 27.7289 26.9158 29.1623 26.9158C30.5956 26.9158 31.7618 25.7496 31.7618 24.3162C31.7617 23.2098 31.0666 22.2633 30.0903 21.8887ZM29.1622 7.20817C29.572 7.20817 29.9054 7.54157 29.9054 7.95139C29.9054 8.36121 29.572 8.69461 29.1622 8.69461C28.7524 8.69461 28.4189 8.36121 28.4189 7.95139C28.4189 7.54157 28.7524 7.20817 29.1622 7.20817ZM23.518 2.14931C23.9278 2.14931 24.2612 2.48277 24.2612 2.8926C24.2612 3.30242 23.9278 3.63582 23.518 3.63582C23.1082 3.63582 22.7748 3.30242 22.7748 2.8926C22.7748 2.48277 23.1082 2.14931 23.518 2.14931ZM7.15307 3.63575C6.74325 3.63575 6.40985 3.30236 6.40985 2.89253C6.40985 2.48272 6.74331 2.14931 7.15307 2.14931C7.5629 2.14931 7.89629 2.48277 7.89629 2.8926C7.89629 3.30242 7.5629 3.63575 7.15307 3.63575ZM2.67964 7.20817C3.08947 7.20817 3.42286 7.54157 3.42286 7.95139C3.42286 8.36121 3.08947 8.69461 2.67964 8.69461C2.26983 8.69461 1.93642 8.36121 1.93642 7.95139C1.93642 7.54157 2.26983 7.20817 2.67964 7.20817ZM2.67964 25.0595C2.26983 25.0595 1.93642 24.7261 1.93642 24.3162C1.93642 23.9065 2.26983 23.5731 2.67964 23.5731C3.08947 23.5731 3.42286 23.9065 3.42286 24.3162C3.42286 24.7261 3.08947 25.0595 2.67964 25.0595ZM7.73844 30.1183C7.32862 30.1183 6.99522 29.7849 6.99522 29.375C6.99522 28.9653 7.32862 28.6318 7.73844 28.6318C8.14826 28.6318 8.48166 28.9653 8.48166 29.375C8.48166 29.7849 8.14826 30.1183 7.73844 30.1183ZM24.1033 28.6319C24.5132 28.6319 24.8466 28.9653 24.8466 29.3752C24.8466 29.7849 24.5132 30.1183 24.1033 30.1183C23.6936 30.1183 23.3602 29.7849 23.3602 29.375C23.3602 28.9653 23.6936 28.6319 24.1033 28.6319ZM23.1412 23.6375C20.3428 23.6375 13.5671 23.6375 10.7281 23.6375L8.70065 21.6102V8.63014H21.3563L23.1412 10.415V23.6375ZM29.1622 25.0595C28.7524 25.0595 28.4189 24.7261 28.4189 24.3162C28.4189 23.9065 28.7524 23.5731 29.1622 23.5731C29.572 23.5731 29.9054 23.9065 29.9054 24.3162C29.9054 24.7261 29.572 25.0595 29.1622 25.0595Z" fill="white"/>
</g>
</g>
</g>
</g>
<defs>
<clipPath id="clip0_370_7825">
<rect width="31.6817" height="31.6817" fill="white" transform="translate(0.0791016 0.291016)"/>
</clipPath>
<clipPath id="clip1_370_7825">
<rect width="31.6817" height="31.6817" fill="white" transform="translate(0.0791016 0.291016)"/>
</clipPath>
<clipPath id="clip2_370_7825">
<rect width="31.6817" height="31.6817" fill="white" transform="translate(0.0791016 0.291016)"/>
</clipPath>
</defs>
</svg>
