<svg width="34" height="35" viewBox="0 0 34 35" fill="none" xmlns="http://www.w3.org/2000/svg">
<g clip-path="url(#clip0_370_8104)">
<g clip-path="url(#clip1_370_8104)">
<path d="M29.7405 24.3212C30.5135 24.3212 31.1403 23.6972 31.1403 22.9272C31.1403 22.1574 30.5135 21.5332 29.7405 21.5332C28.9674 21.5332 28.3408 22.1574 28.3408 22.9272C28.3408 23.6972 28.9674 24.3212 29.7405 24.3212Z" fill="white"/>
<path d="M26.6873 28.8134C27.4604 28.8134 28.087 28.1892 28.087 27.4194C28.087 26.6494 27.4604 26.0254 26.6873 26.0254C25.9143 26.0254 25.2876 26.6494 25.2876 27.4194C25.2876 28.1892 25.9143 28.8134 26.6873 28.8134Z" fill="white"/>
<path d="M30.7903 18.9776C31.5633 18.9776 32.1901 18.3534 32.1901 17.5835C32.1901 16.8136 31.5633 16.1895 30.7903 16.1895C30.0173 16.1895 29.3906 16.8136 29.3906 17.5835C29.3906 18.3534 30.0173 18.9776 30.7903 18.9776Z" fill="white"/>
<path d="M22.1512 31.8622C22.9244 31.8622 23.551 31.2381 23.551 30.4682C23.551 29.6983 22.9244 29.0742 22.1512 29.0742C21.3783 29.0742 20.7515 29.6983 20.7515 30.4682C20.7515 31.2381 21.3783 31.8622 22.1512 31.8622Z" fill="white"/>
<path d="M16.7985 30.1209C14.7825 30.1233 12.7954 29.6438 11.004 28.7227C9.21268 27.8016 7.66948 26.4658 6.50405 24.8275C5.33863 23.1891 4.58502 21.2962 4.30655 19.3076C4.02807 17.3191 4.23287 15.293 4.90372 13.3997C5.57458 11.5063 6.69189 9.80089 8.1618 8.42678C9.63172 7.05268 11.4113 6.05 13.351 5.50295C15.2908 4.95592 17.3339 4.88051 19.309 5.28306C21.2841 5.68562 23.1333 6.55438 24.7013 7.81637H22.3974C22.0261 7.81637 21.6701 7.96324 21.4076 8.22466C21.1451 8.4861 20.9976 8.84068 20.9976 9.21039C20.9976 9.58012 21.1451 9.9347 21.4076 10.1961C21.6701 10.4576 22.0261 10.6044 22.3974 10.6044H27.9962C28.3674 10.6044 28.7235 10.4576 28.986 10.1961C29.2485 9.9347 29.396 9.58012 29.396 9.21039V3.63427C29.396 3.26455 29.2485 2.90997 28.986 2.64854C28.7235 2.3871 28.3674 2.24023 27.9962 2.24023C27.625 2.24023 27.2689 2.3871 27.0065 2.64854C26.744 2.90997 26.5965 3.26455 26.5965 3.63427V5.76853C24.6931 4.20128 22.4389 3.11328 20.0243 2.59641C17.6099 2.07955 15.1058 2.14899 12.7239 2.79891C10.342 3.44882 8.15206 4.6601 6.33917 6.33043C4.52627 8.00076 3.14364 10.0811 2.30804 12.3957C1.47244 14.7103 1.20842 17.1911 1.53829 19.6288C1.86816 22.0664 2.78222 24.3892 4.20326 26.4009C5.62432 28.4125 7.51061 30.0541 9.70282 31.1868C11.8951 32.3196 14.3288 32.9102 16.7985 32.909C17.1697 32.909 17.5258 32.7621 17.7882 32.5006C18.0507 32.2393 18.1982 31.8846 18.1982 31.5149C18.1982 31.1452 18.0507 30.7906 17.7882 30.5291C17.5258 30.2678 17.1697 30.1209 16.7985 30.1209Z" fill="white"/>
<path d="M21.9859 22.7463C22.2484 22.4848 22.3957 22.1303 22.3957 21.7606C22.3957 21.391 22.2484 21.0365 21.9859 20.775L18.1969 17.0014V9.21435C18.1969 8.84463 18.0494 8.49005 17.787 8.22862C17.5245 7.96718 17.1684 7.82031 16.7972 7.82031C16.426 7.82031 16.0699 7.96718 15.8074 8.22862C15.5449 8.49005 15.3975 8.84463 15.3975 9.21435V17.5785C15.3976 17.9482 15.545 18.3028 15.8076 18.5641L20.0068 22.7463C20.2693 23.0075 20.6251 23.1543 20.9964 23.1543C21.3676 23.1543 21.7234 23.0075 21.9859 22.7463Z" fill="white"/>
</g>
</g>
<defs>
<clipPath id="clip0_370_8104">
<rect width="33.5933" height="33.5933" fill="white" transform="translate(0 0.849609)"/>
</clipPath>
<clipPath id="clip1_370_8104">
<rect width="33.5933" height="33.5933" fill="white" transform="translate(0 0.849609)"/>
</clipPath>
</defs>
</svg>
