<svg width="57" height="58" viewBox="0 0 57 58" fill="none" xmlns="http://www.w3.org/2000/svg">
<rect x="0.665527" width="56" height="57.5" rx="28" fill="#00B0F0" fill-opacity="0.11"/>
<path d="M19.8655 15.2031C20.9264 15.2031 21.9438 15.6246 22.694 16.3747C23.4441 17.1248 23.8655 18.1423 23.8655 19.2031C23.8655 20.264 23.4441 21.2814 22.694 22.0316C21.9438 22.7817 20.9264 23.2031 19.8655 23.2031C18.8047 23.2031 17.7872 22.7817 17.0371 22.0316C16.287 21.2814 15.8655 20.264 15.8655 19.2031C15.8655 18.1423 16.287 17.1248 17.0371 16.3747C17.7872 15.6246 18.8047 15.2031 19.8655 15.2031ZM38.2655 15.2031C39.3264 15.2031 40.3438 15.6246 41.094 16.3747C41.8441 17.1248 42.2655 18.1423 42.2655 19.2031C42.2655 20.264 41.8441 21.2814 41.094 22.0316C40.3438 22.7817 39.3264 23.2031 38.2655 23.2031C37.2047 23.2031 36.1872 22.7817 35.4371 22.0316C34.687 21.2814 34.2655 20.264 34.2655 19.2031C34.2655 18.1423 34.687 17.1248 35.4371 16.3747C36.1872 15.6246 37.2047 15.2031 38.2655 15.2031ZM12.6655 30.1381C12.6655 27.1931 15.0555 24.8031 18.0005 24.8031H20.1355C20.9305 24.8031 21.6855 24.9781 22.3655 25.2881C22.3005 25.6481 22.2705 26.0231 22.2705 26.4031C22.2705 28.3131 23.1105 30.0281 24.4355 31.2031C24.4255 31.2031 24.4155 31.2031 24.4005 31.2031H13.7305C13.1455 31.2031 12.6655 30.7231 12.6655 30.1381ZM32.9305 31.2031C32.9205 31.2031 32.9105 31.2031 32.8955 31.2031C34.2255 30.0281 35.0605 28.3131 35.0605 26.4031C35.0605 26.0231 35.0255 25.6531 34.9655 25.2881C35.6455 24.9731 36.4005 24.8031 37.1955 24.8031H39.3305C42.2755 24.8031 44.6655 27.1931 44.6655 30.1381C44.6655 30.7281 44.1855 31.2031 43.6005 31.2031H32.9305ZM23.8655 26.4031C23.8655 25.1301 24.3712 23.9092 25.2714 23.009C26.1716 22.1088 27.3925 21.6031 28.6655 21.6031C29.9386 21.6031 31.1595 22.1088 32.0596 23.009C32.9598 23.9092 33.4655 25.1301 33.4655 26.4031C33.4655 27.6762 32.9598 28.8971 32.0596 29.7972C31.1595 30.6974 29.9386 31.2031 28.6655 31.2031C27.3925 31.2031 26.1716 30.6974 25.2714 29.7972C24.3712 28.8971 23.8655 27.6762 23.8655 26.4031ZM19.0655 39.4681C19.0655 35.7881 22.0505 32.8031 25.7305 32.8031H31.6005C35.2805 32.8031 38.2655 35.7881 38.2655 39.4681C38.2655 40.2031 37.6705 40.8031 36.9305 40.8031H20.4005C19.6655 40.8031 19.0655 40.2081 19.0655 39.4681Z" fill="#3563E9"/>
</svg>
