<svg width="32" height="33" viewBox="0 0 32 33" fill="none" xmlns="http://www.w3.org/2000/svg">
<g clip-path="url(#clip0_370_8223)">
<g clip-path="url(#clip1_370_8223)">
<g clip-path="url(#clip2_370_8223)">
<mask id="mask0_370_8223" style="mask-type:luminance" maskUnits="userSpaceOnUse" x="0" y="1" width="32" height="31">
<path d="M31.0363 1.36719H0.506836V31.8966H31.0363V1.36719Z" fill="white"/>
</mask>
<g mask="url(#mask0_370_8223)">
<path d="M20.4881 10.8027H11.0499C10.4381 10.8027 9.94238 11.2985 9.94238 11.9103V21.3486C9.94238 21.9604 10.4383 22.4561 11.0499 22.4561H20.4881C21.0999 22.4561 21.5956 21.9604 21.5956 21.3486V11.9103C21.5956 11.2986 21.0999 10.8027 20.4881 10.8027ZM19.3805 20.2411H12.1575V13.0178H19.3805V20.2411Z" fill="white"/>
<path d="M29.9288 17.7394C30.5406 17.7394 31.0363 17.2437 31.0363 16.6319C31.0363 16.0201 30.5406 15.5244 29.9288 15.5244H26.3174V13.0203H29.9288C30.5406 13.0203 31.0363 12.5246 31.0363 11.9128C31.0363 11.301 30.5406 10.8052 29.9288 10.8052H26.3174V7.19358C26.3174 6.58179 25.8216 6.08605 25.2098 6.08605H21.5983V2.47472C21.5983 1.86292 21.1025 1.36719 20.4907 1.36719C19.8789 1.36719 19.3832 1.86292 19.3832 2.47472V6.08605H16.8791V2.47472C16.8791 1.86292 16.3834 1.36719 15.7715 1.36719C15.1597 1.36719 14.664 1.86292 14.664 2.47472V6.08605H12.1601V2.47472C12.1601 1.86292 11.6643 1.36719 11.0525 1.36719C10.4407 1.36719 9.945 1.86292 9.945 2.47472V6.08605H6.33339C5.72158 6.08605 5.22584 6.58193 5.22584 7.19358V10.8052H1.61437C1.00257 10.8052 0.506836 11.301 0.506836 11.9128C0.506836 12.5246 1.00257 13.0203 1.61437 13.0203H5.22584V15.5244H1.61437C1.00257 15.5244 0.506836 16.0201 0.506836 16.6319C0.506836 17.2437 1.00257 17.7394 1.61437 17.7394H5.22584V20.2435H1.61437C1.00257 20.2435 0.506836 20.7392 0.506836 21.351C0.506836 21.9628 1.00257 22.4586 1.61437 22.4586H5.22584V26.0702C5.22584 26.682 5.72158 27.1778 6.33339 27.1778H9.945V30.7891C9.945 31.4009 10.4409 31.8966 11.0525 31.8966C11.6643 31.8966 12.1601 31.4009 12.1601 30.7891V27.1778H14.664V30.7891C14.664 31.4009 15.1597 31.8966 15.7715 31.8966C16.3834 31.8966 16.8791 31.4009 16.8791 30.7891V27.1778H19.3832V30.7891C19.3832 31.4009 19.8789 31.8966 20.4907 31.8966C21.1025 31.8966 21.5983 31.4009 21.5983 30.7891V27.1778H25.2098C25.8216 27.1778 26.3174 26.682 26.3174 26.0702V22.4586H29.9288C30.5406 22.4586 31.0363 21.9628 31.0363 21.351C31.0363 20.7392 30.5406 20.2435 29.9288 20.2435H26.3174V17.7394H29.9288ZM24.1023 24.9627H7.44092V8.30113H24.1023V24.9627Z" fill="white"/>
</g>
</g>
</g>
</g>
<defs>
<clipPath id="clip0_370_8223">
<rect width="31.5471" height="31.5471" fill="white" transform="translate(0 0.859375)"/>
</clipPath>
<clipPath id="clip1_370_8223">
<rect width="31.5471" height="31.5471" fill="white" transform="translate(0 0.859375)"/>
</clipPath>
<clipPath id="clip2_370_8223">
<rect width="30.5294" height="31.5471" fill="white" transform="translate(0.508789 0.859375)"/>
</clipPath>
</defs>
</svg>
