<svg width="57" height="58" viewBox="0 0 57 58" fill="none" xmlns="http://www.w3.org/2000/svg">
<rect x="0.334473" width="56" height="57.5" rx="28" fill="#00B0F0" fill-opacity="0.11"/>
<path d="M14.9789 30.4644L25.0178 39.8366C25.4345 40.2255 25.9845 40.4421 26.5567 40.4421C27.1289 40.4421 27.6789 40.2255 28.0956 39.8366L28.24 39.7033C27.1789 38.1421 26.5567 36.2533 26.5567 34.2199C26.5567 28.8199 30.9345 24.4421 36.3345 24.4421C37.9067 24.4421 39.39 24.8144 40.7067 25.4699C40.7567 25.1088 40.7789 24.7477 40.7789 24.381V24.0588C40.7789 20.1755 37.9734 16.8644 34.1456 16.2255C31.6123 15.8032 29.0345 16.631 27.2234 18.4421L26.5567 19.1088L25.89 18.4421C24.0789 16.631 21.5011 15.8032 18.9678 16.2255C15.14 16.8644 12.3345 20.1755 12.3345 24.0588V24.381C12.3345 26.6866 13.29 28.8921 14.9789 30.4644ZM44.3345 34.2199C44.3345 32.0982 43.4916 30.0634 41.9913 28.5631C40.491 27.0628 38.4562 26.2199 36.3345 26.2199C34.2127 26.2199 32.1779 27.0628 30.6776 28.5631C29.1773 30.0634 28.3345 32.0982 28.3345 34.2199C28.3345 36.3416 29.1773 38.3765 30.6776 39.8768C32.1779 41.3771 34.2127 42.2199 36.3345 42.2199C38.4562 42.2199 40.491 41.3771 41.9913 39.8768C43.4916 38.3765 44.3345 36.3416 44.3345 34.2199ZM40.0734 31.8144C40.4178 32.1588 40.4178 32.7255 40.0734 33.0699L36.0734 37.0699C35.7289 37.4144 35.1623 37.4144 34.8178 37.0699L32.5956 34.8477C32.2511 34.5033 32.2511 33.9366 32.5956 33.5921C32.94 33.2477 33.5067 33.2477 33.8511 33.5921L35.4456 35.1866L38.8178 31.8144C39.1623 31.4699 39.7289 31.4699 40.0734 31.8144Z" fill="#3563E9"/>
</svg>
