<svg width="60" height="61" viewBox="0 0 60 61" fill="none" xmlns="http://www.w3.org/2000/svg">
<mask id="mask0_186_359" style="mask-type:alpha" maskUnits="userSpaceOnUse" x="0" y="0" width="60" height="61">
<path d="M60 0.5H0V60.5H60V0.5Z" fill="#D9D9D9"/>
</mask>
<g mask="url(#mask0_186_359)">
<path d="M19.6248 53.3118C15.2915 51.3117 11.7706 48.291 9.0623 44.2493C6.35396 40.2077 4.99981 35.6451 4.99981 30.5618C4.99981 29.4785 5.05189 28.416 5.15605 27.3743C5.26022 26.3327 5.4373 25.3118 5.6873 24.3117L2.8123 25.9992L0.312302 21.6867L12.2498 14.8118L19.1249 26.6868L14.7498 29.1867L11.3748 23.3118C10.9165 24.4368 10.5727 25.6035 10.3436 26.8118C10.1144 28.0202 9.9998 29.2701 9.9998 30.5618C9.9998 34.6035 11.104 38.2805 13.3123 41.5931C15.5207 44.9055 18.4581 47.3535 22.1249 48.9368L19.6248 53.3118ZM38.7498 22.9992V17.9993H45.5624C43.6457 15.6243 41.3331 13.7805 38.6249 12.468C35.9165 11.1555 33.0414 10.4993 29.9999 10.4993C27.7082 10.4993 25.5414 10.8534 23.4998 11.5618C21.4581 12.2701 19.5831 13.2701 17.8748 14.5618L15.3749 10.1868C17.4582 8.72844 19.7289 7.5826 22.1873 6.74928C24.6456 5.91594 27.2498 5.49927 29.9999 5.49927C33.2915 5.49927 36.4373 6.11386 39.4373 7.34302C42.4373 8.5722 45.1248 10.3534 47.4998 12.6868V9.24927H52.4999V22.9992H38.7498ZM37.1249 60.4992L25.1873 53.6243L32.0624 41.7492L36.3749 44.2493L32.8124 50.3742C37.7289 49.6659 41.8227 47.4368 45.0936 43.6868C48.3644 39.9368 49.9998 35.541 49.9998 30.4992C49.9998 30.041 49.9895 29.6139 49.9686 29.2181C49.9478 28.8222 49.8957 28.416 49.8123 27.9993H54.8748C54.9165 28.416 54.9477 28.8222 54.9686 29.2181C54.9894 29.6139 54.9998 30.041 54.9998 30.4992C54.9998 36.1242 53.3228 41.1555 49.9686 45.593C46.6145 50.0306 42.2498 53.0201 36.8748 54.5618L39.6248 56.1867L37.1249 60.4992Z" fill="white"/>
</g>
</svg>
