<svg width="65" height="65" viewBox="0 0 65 65" fill="none" xmlns="http://www.w3.org/2000/svg">
<path fill-rule="evenodd" clip-rule="evenodd" d="M25.7712 52.9449C25.9702 53.4619 25.7119 54.0434 25.1949 54.2423C24.6778 54.4413 24.0964 54.1831 23.8974 53.6661L23.24 51.958C21.1267 51.4064 19.1069 50.5648 17.2245 49.4668L13.3525 51.1818C12.9732 51.3499 12.5295 51.2672 12.2361 50.9738L7.11555 45.8533C6.82178 45.5595 6.73934 45.1152 6.90812 44.7355L8.62859 40.8662C7.52628 38.9891 6.68952 36.9652 6.13322 34.8575L2.18392 33.3374C1.79628 33.1883 1.54053 32.8159 1.54053 32.4005V25.1573C1.54053 24.7421 1.79628 24.3696 2.18392 24.2204L6.13284 22.7007C6.68914 20.5872 7.52616 18.5676 8.62884 16.6851L6.90812 12.815C6.73934 12.4354 6.82178 11.991 7.11555 11.6972L12.2361 6.57674C12.5298 6.28296 12.9742 6.20052 13.3538 6.3693L17.2239 8.09015C19.1063 6.98734 21.1255 6.15082 23.2331 5.60005L24.7596 1.64422C24.9089 1.25708 25.2811 1.00171 25.6961 1.00171H32.9393C33.3548 1.00171 33.7274 1.25771 33.8765 1.6456L35.3959 5.60017C37.5033 6.15107 39.5221 6.98747 41.4042 8.09002L45.2744 6.3693C45.654 6.20052 46.0983 6.28296 46.3921 6.57674L51.5126 11.6972C51.806 11.9906 51.8887 12.4344 51.7207 12.8137L50.0061 16.6843C51.1093 18.5672 51.9459 20.5875 52.497 22.7012L56.4444 24.2204C56.832 24.3696 57.0876 24.7421 57.0876 25.1573V32.4005C57.0876 32.8159 56.832 33.1883 56.4444 33.3374L54.0559 34.2566C53.5388 34.4556 52.9574 34.1974 52.7585 33.6804C52.5594 33.1632 52.8177 32.5818 53.3347 32.3828L55.0798 31.7112V25.8468L51.2884 24.3874C50.979 24.2685 50.7484 24.0044 50.6721 23.6819C50.1351 21.4158 49.2426 19.2614 48.0225 17.2812C47.8489 16.9995 47.8252 16.6503 47.9592 16.3479L49.606 12.6301L45.46 8.48419L41.7428 10.1369C41.44 10.2715 41.0904 10.2481 40.8083 10.0743C38.8279 8.85401 36.6733 7.9614 34.4141 7.42455C34.0917 7.34787 33.8279 7.11722 33.7091 6.80789L32.2496 3.00955H26.3848L24.9187 6.80914C24.7995 7.11785 24.5361 7.348 24.2142 7.42455C21.9549 7.9614 19.8002 8.85401 17.82 10.0743C17.5379 10.2481 17.1882 10.2715 16.8855 10.1369L13.1682 8.48419L9.02301 12.6294L10.6757 16.3467C10.8104 16.6493 10.7869 16.9991 10.6131 17.2812C9.39232 19.2622 8.49959 21.4177 7.95546 23.6848C7.87841 24.0061 7.64826 24.2688 7.33993 24.3874L3.54837 25.8468V31.7112L7.33993 33.1704C7.64801 33.289 7.87803 33.5515 7.95534 33.8724C8.49934 36.1321 9.3917 38.2944 10.6122 40.2681C10.7868 40.5504 10.8106 40.9007 10.6757 41.204L9.02301 44.9211L13.169 49.0672L16.8867 47.4204C17.1884 47.2868 17.5364 47.3098 17.8177 47.4823C19.7987 48.6959 21.9539 49.5962 24.2207 50.1333C24.5433 50.2095 24.8073 50.4402 24.9263 50.7495L25.7712 52.9449ZM46.8944 26.1366C46.976 26.6848 46.5974 27.1959 46.0493 27.2775C45.5012 27.3592 44.9901 26.9804 44.9084 26.4324C43.7775 18.8364 37.2247 13.0155 29.3129 13.0155C20.6056 13.0155 13.5543 20.0668 13.5543 28.7741C13.5543 37.099 19.9993 43.9192 28.1751 44.5019C28.7279 44.5413 29.1445 45.022 29.1052 45.5747C29.0658 46.1274 28.585 46.5441 28.0324 46.5047C18.8145 45.8478 11.5465 38.1599 11.5465 28.7741C11.5465 18.9575 19.4963 11.0077 29.3129 11.0077C38.2331 11.0077 45.6193 17.5726 46.8944 26.1366ZM34.9923 31.952C35.2574 31.5765 35.7564 31.4209 36.1983 31.6049C36.7098 31.818 36.952 32.4063 36.7389 32.9176L35.7616 35.2638C35.6463 35.5408 35.4131 35.7516 35.1258 35.8385C34.8387 35.9255 34.5278 35.8794 34.278 35.713L32.1053 34.2648C31.6442 33.9574 31.5194 33.3336 31.8267 32.8726C32.1005 32.4617 32.6257 32.3179 33.063 32.5088L31.0029 25.7529L28.3285 32.6969C28.177 33.0903 27.7958 33.3471 27.3744 33.3399C26.9529 33.3326 26.5808 33.0628 26.4429 32.6645L24.9926 28.4748L23.5435 31.0847C23.3665 31.4036 23.0305 31.6014 22.6658 31.6014H19.4167C18.8627 31.6014 18.4128 31.1515 18.4128 30.5974C18.4128 30.0433 18.8627 29.5935 19.4167 29.5935H22.0749L24.3283 25.5349C24.5205 25.1886 24.8984 24.9878 25.2929 25.022C25.6876 25.0564 26.025 25.3195 26.1547 25.6938L27.442 29.4123L30.1764 22.3121C30.3304 21.9123 30.7211 21.6543 31.1492 21.6696C31.5774 21.685 31.9486 21.9702 32.0735 22.3801L34.9923 31.952ZM50.591 32.0172L62.8907 53.3164C64.0826 55.3796 64.0827 57.8722 62.8909 59.9354C61.699 62.0014 59.5395 63.2448 57.1559 63.2448H32.5615C30.1778 63.2448 28.0211 62.0015 26.8291 59.9354C25.6373 57.8722 25.6374 55.3796 26.8292 53.3167L39.1262 32.0176C40.318 29.9515 42.4749 28.7053 44.8587 28.7053C47.2423 28.7053 49.3991 29.9513 50.591 32.0172ZM48.8521 33.0209C48.0217 31.5815 46.5194 30.7131 44.8587 30.7131C43.1981 30.7131 41.6956 31.5815 40.8653 33.021L28.5679 54.3209C27.7376 55.7579 27.7376 57.4943 28.568 58.9316C29.3982 60.3709 30.901 61.237 32.5615 61.237H57.1559C58.8166 61.237 60.3215 60.3712 61.152 58.9316C61.9823 57.4945 61.9824 55.758 61.1521 54.3207L48.8521 33.0209ZM44.8587 55.867C43.4588 55.867 42.3177 54.7259 42.3177 53.326C42.3177 51.9261 43.4588 50.7849 44.8587 50.7849C46.2586 50.7849 47.3998 51.9261 47.3998 53.326C47.3998 54.7259 46.2586 55.867 44.8587 55.867ZM44.8587 53.8592C45.1525 53.8592 45.3919 53.6198 45.3919 53.326C45.3919 53.0322 45.1525 52.7928 44.8587 52.7928C44.565 52.7928 44.3255 53.0322 44.3255 53.326C44.3255 53.6198 44.565 53.8592 44.8587 53.8592ZM44.8587 50.5632C43.6708 50.5632 42.6994 49.6255 42.657 48.4384L42.3516 40.0336L42.3514 40.0305C42.3328 39.412 42.5397 38.8733 42.968 38.4261L42.9699 38.4241C43.4028 37.9771 43.9348 37.7516 44.5559 37.7516H45.1615C45.7836 37.7516 46.3202 37.979 46.7494 38.426C47.1823 38.874 47.3893 39.4161 47.3658 40.0363L47.063 48.4378C47.0206 49.625 46.046 50.5632 44.8587 50.5632ZM44.8587 48.5553C44.9648 48.5553 45.0526 48.4721 45.0564 48.3659L45.3593 39.963C45.3613 39.9086 45.3431 39.8601 45.3032 39.819L45.3013 39.817C45.2638 39.7778 45.216 39.7595 45.1615 39.7595H44.5559C44.5005 39.7595 44.4532 39.7797 44.413 39.8203C44.3749 39.8616 44.357 39.9114 44.3584 39.9682L44.6636 48.3657C44.6674 48.4713 44.7532 48.5553 44.8587 48.5553Z" fill="#222325"/>
</svg>
