<svg width="32" height="33" viewBox="0 0 32 33" fill="none" xmlns="http://www.w3.org/2000/svg">
<g clip-path="url(#clip0_370_7871)">
<g clip-path="url(#clip1_370_7871)">
<g clip-path="url(#clip2_370_7871)">
<path d="M28.2134 15.2614H24.3521C22.3958 15.2614 20.8043 16.8531 20.8043 18.8094V28.792C20.8043 30.7482 22.3958 32.3399 24.3521 32.3399H28.2134C30.1696 32.3399 31.7613 30.7482 31.7613 28.792V18.8094C31.7613 16.8531 30.1696 15.2614 28.2134 15.2614ZM29.2861 28.792C29.2861 29.3834 28.8048 29.8647 28.2134 29.8647H24.3521C23.7606 29.8647 23.2793 29.3834 23.2793 28.792V18.8094C23.2793 18.2179 23.7606 17.7366 24.3521 17.7366H28.2134C28.8048 17.7366 29.2861 18.2179 29.2861 18.8094V28.792ZM11.0366 14.1887V4.20605C11.0366 2.24988 9.44496 0.658203 7.48878 0.658203H3.62744C1.67127 0.658203 0.0795898 2.24988 0.0795898 4.20605V14.1887C0.0795898 16.1449 1.67127 17.7366 3.62744 17.7366H7.48878C9.44496 17.7366 11.0366 16.1449 11.0366 14.1887ZM2.55472 14.1887V4.20605C2.55472 3.61458 3.03596 3.13333 3.62744 3.13333H7.48878C8.08026 3.13333 8.5615 3.61458 8.5615 4.20605V14.1887C8.5615 14.7802 8.08026 15.2614 7.48878 15.2614H3.62744C3.03596 15.2614 2.55472 14.7802 2.55472 14.1887ZM21.1015 3.13333C18.9271 3.13333 17.158 4.90243 17.158 7.07687V25.9212C17.158 29.4603 14.2785 32.3399 10.7393 32.3399C7.19994 32.3399 4.32042 29.4603 4.32042 25.9212V21.3669C4.32042 20.6833 4.87467 20.1293 5.55799 20.1293C6.24155 20.1293 6.79555 20.6833 6.79555 21.3669V25.9212C6.79555 28.0957 8.56489 29.8647 10.7393 29.8647C12.9137 29.8647 14.6828 28.0957 14.6828 25.9212V7.07687C14.6828 3.53772 17.5624 0.658203 21.1015 0.658203C24.6409 0.658203 27.5205 3.53772 27.5205 7.07687V11.6311C27.5205 12.3147 26.9661 12.8687 26.2829 12.8687C25.5993 12.8687 25.0453 12.3147 25.0453 11.6311V7.07687C25.0453 4.90243 23.2762 3.13333 21.1015 3.13333Z" fill="white"/>
</g>
</g>
</g>
<defs>
<clipPath id="clip0_370_7871">
<rect width="31.6817" height="31.6817" fill="white" transform="translate(0.0791016 0.660156)"/>
</clipPath>
<clipPath id="clip1_370_7871">
<rect width="31.6817" height="31.6817" fill="white" transform="translate(0.0791016 0.660156)"/>
</clipPath>
<clipPath id="clip2_370_7871">
<rect width="31.6817" height="31.6817" fill="white" transform="translate(0.0791016 0.660156)"/>
</clipPath>
</defs>
</svg>
