<svg width="874" height="611" viewBox="0 0 874 611" fill="none" xmlns="http://www.w3.org/2000/svg">
<g filter="url(#filter0_d_110_368)">
<path d="M64.1826 181.312C64.1826 175.79 68.6598 171.312 74.1826 171.312H840.183C845.705 171.312 850.183 175.79 850.183 181.312V465.312C850.183 470.835 845.705 475.312 840.183 475.312H74.1826C68.6598 475.312 64.1826 470.835 64.1826 465.312V181.312Z" fill="white"/>
</g>
<path d="M94.8866 196.147V197.955H91.9106V207.315H89.6706V197.955H86.6946V196.147H94.8866ZM100.457 207.459C99.6037 207.459 98.8357 207.272 98.153 206.899C97.4703 206.515 96.9317 205.976 96.537 205.283C96.153 204.59 95.961 203.79 95.961 202.883C95.961 201.976 96.1583 201.176 96.553 200.483C96.9583 199.79 97.5077 199.256 98.201 198.883C98.8943 198.499 99.6677 198.307 100.521 198.307C101.374 198.307 102.148 198.499 102.841 198.883C103.534 199.256 104.078 199.79 104.473 200.483C104.878 201.176 105.081 201.976 105.081 202.883C105.081 203.79 104.873 204.59 104.457 205.283C104.052 205.976 103.497 206.515 102.793 206.899C102.1 207.272 101.321 207.459 100.457 207.459ZM100.457 205.507C100.862 205.507 101.241 205.411 101.593 205.219C101.956 205.016 102.244 204.718 102.457 204.323C102.67 203.928 102.777 203.448 102.777 202.883C102.777 202.04 102.553 201.395 102.105 200.947C101.668 200.488 101.129 200.259 100.489 200.259C99.849 200.259 99.3103 200.488 98.873 200.947C98.4463 201.395 98.233 202.04 98.233 202.883C98.233 203.726 98.441 204.376 98.857 204.835C99.2837 205.283 99.817 205.507 100.457 205.507ZM109.332 200.291V204.579C109.332 204.878 109.401 205.096 109.54 205.235C109.689 205.363 109.935 205.427 110.276 205.427H111.316V207.315H109.908C108.02 207.315 107.076 206.398 107.076 204.563V200.291H106.02V198.451H107.076V196.259H109.332V198.451H111.316V200.291H109.332ZM112.351 202.851C112.351 201.955 112.527 201.16 112.879 200.467C113.242 199.774 113.727 199.24 114.335 198.867C114.954 198.494 115.642 198.307 116.399 198.307C117.061 198.307 117.637 198.44 118.127 198.707C118.629 198.974 119.029 199.31 119.327 199.715V198.451H121.583V207.315H119.327V206.019C119.039 206.435 118.639 206.782 118.127 207.059C117.626 207.326 117.045 207.459 116.383 207.459C115.637 207.459 114.954 207.267 114.335 206.883C113.727 206.499 113.242 205.96 112.879 205.267C112.527 204.563 112.351 203.758 112.351 202.851ZM119.327 202.883C119.327 202.339 119.221 201.875 119.007 201.491C118.794 201.096 118.506 200.798 118.143 200.595C117.781 200.382 117.391 200.275 116.975 200.275C116.559 200.275 116.175 200.376 115.823 200.579C115.471 200.782 115.183 201.08 114.959 201.475C114.746 201.859 114.639 202.318 114.639 202.851C114.639 203.384 114.746 203.854 114.959 204.259C115.183 204.654 115.471 204.958 115.823 205.171C116.186 205.384 116.57 205.491 116.975 205.491C117.391 205.491 117.781 205.39 118.143 205.187C118.506 204.974 118.794 204.675 119.007 204.291C119.221 203.896 119.327 203.427 119.327 202.883ZM126.011 195.475V207.315H123.771V195.475H126.011ZM134.277 197.955V200.755H138.037V202.531H134.277V205.491H138.517V207.315H132.037V196.131H138.517V197.955H134.277ZM145.464 198.323C146.52 198.323 147.374 198.659 148.024 199.331C148.675 199.992 149 200.92 149 202.115V207.315H146.76V202.419C146.76 201.715 146.584 201.176 146.232 200.803C145.88 200.419 145.4 200.227 144.792 200.227C144.174 200.227 143.683 200.419 143.32 200.803C142.968 201.176 142.792 201.715 142.792 202.419V207.315H140.552V198.451H142.792V199.555C143.091 199.171 143.47 198.872 143.928 198.659C144.398 198.435 144.91 198.323 145.464 198.323ZM159.37 202.691C159.37 203.011 159.349 203.299 159.306 203.555H152.826C152.88 204.195 153.104 204.696 153.498 205.059C153.893 205.422 154.378 205.603 154.954 205.603C155.786 205.603 156.378 205.246 156.73 204.531H159.146C158.89 205.384 158.4 206.088 157.674 206.643C156.949 207.187 156.058 207.459 155.002 207.459C154.149 207.459 153.381 207.272 152.698 206.899C152.026 206.515 151.498 205.976 151.114 205.283C150.741 204.59 150.554 203.79 150.554 202.883C150.554 201.966 150.741 201.16 151.114 200.467C151.488 199.774 152.01 199.24 152.682 198.867C153.354 198.494 154.128 198.307 155.002 198.307C155.845 198.307 156.597 198.488 157.258 198.851C157.93 199.214 158.448 199.731 158.81 200.403C159.184 201.064 159.37 201.827 159.37 202.691ZM157.05 202.051C157.04 201.475 156.832 201.016 156.426 200.675C156.021 200.323 155.525 200.147 154.938 200.147C154.384 200.147 153.914 200.318 153.53 200.659C153.157 200.99 152.928 201.454 152.842 202.051H157.05ZM163.245 199.827C163.533 199.358 163.907 198.99 164.365 198.723C164.835 198.456 165.368 198.323 165.965 198.323V200.675H165.373C164.669 200.675 164.136 200.84 163.773 201.171C163.421 201.502 163.245 202.078 163.245 202.899V207.315H161.005V198.451H163.245V199.827ZM170.946 198.307C171.607 198.307 172.189 198.44 172.69 198.707C173.191 198.963 173.586 199.299 173.874 199.715V198.451H176.13V207.379C176.13 208.2 175.965 208.931 175.634 209.571C175.303 210.222 174.807 210.734 174.146 211.107C173.485 211.491 172.685 211.683 171.746 211.683C170.487 211.683 169.453 211.39 168.642 210.803C167.842 210.216 167.389 209.416 167.282 208.403H169.506C169.623 208.808 169.874 209.128 170.258 209.363C170.653 209.608 171.127 209.731 171.682 209.731C172.333 209.731 172.861 209.534 173.266 209.139C173.671 208.755 173.874 208.168 173.874 207.379V206.003C173.586 206.419 173.186 206.766 172.674 207.043C172.173 207.32 171.597 207.459 170.946 207.459C170.199 207.459 169.517 207.267 168.898 206.883C168.279 206.499 167.789 205.96 167.426 205.267C167.074 204.563 166.898 203.758 166.898 202.851C166.898 201.955 167.074 201.16 167.426 200.467C167.789 199.774 168.274 199.24 168.882 198.867C169.501 198.494 170.189 198.307 170.946 198.307ZM173.874 202.883C173.874 202.339 173.767 201.875 173.554 201.491C173.341 201.096 173.053 200.798 172.69 200.595C172.327 200.382 171.938 200.275 171.522 200.275C171.106 200.275 170.722 200.376 170.37 200.579C170.018 200.782 169.73 201.08 169.506 201.475C169.293 201.859 169.186 202.318 169.186 202.851C169.186 203.384 169.293 203.854 169.506 204.259C169.73 204.654 170.018 204.958 170.37 205.171C170.733 205.384 171.117 205.491 171.522 205.491C171.938 205.491 172.327 205.39 172.69 205.187C173.053 204.974 173.341 204.675 173.554 204.291C173.767 203.896 173.874 203.427 173.874 202.883ZM186.798 198.451L181.31 211.507H178.926L180.846 207.091L177.294 198.451H179.806L182.094 204.643L184.414 198.451H186.798ZM191.274 201.715C191.274 200.616 191.519 199.635 192.01 198.771C192.511 197.896 193.189 197.219 194.042 196.739C194.906 196.248 195.871 196.003 196.938 196.003C198.186 196.003 199.279 196.323 200.218 196.963C201.157 197.603 201.813 198.488 202.186 199.619H199.61C199.354 199.086 198.991 198.686 198.522 198.419C198.063 198.152 197.53 198.019 196.922 198.019C196.271 198.019 195.69 198.174 195.178 198.483C194.677 198.782 194.282 199.208 193.994 199.763C193.717 200.318 193.578 200.968 193.578 201.715C193.578 202.451 193.717 203.102 193.994 203.667C194.282 204.222 194.677 204.654 195.178 204.963C195.69 205.262 196.271 205.411 196.922 205.411C197.53 205.411 198.063 205.278 198.522 205.011C198.991 204.734 199.354 204.328 199.61 203.795H202.186C201.813 204.936 201.157 205.827 200.218 206.467C199.29 207.096 198.197 207.411 196.938 207.411C195.871 207.411 194.906 207.171 194.042 206.691C193.189 206.2 192.511 205.523 192.01 204.659C191.519 203.795 191.274 202.814 191.274 201.715ZM208.035 207.459C207.182 207.459 206.414 207.272 205.731 206.899C205.048 206.515 204.51 205.976 204.115 205.283C203.731 204.59 203.539 203.79 203.539 202.883C203.539 201.976 203.736 201.176 204.131 200.483C204.536 199.79 205.086 199.256 205.779 198.883C206.472 198.499 207.246 198.307 208.099 198.307C208.952 198.307 209.726 198.499 210.419 198.883C211.112 199.256 211.656 199.79 212.051 200.483C212.456 201.176 212.659 201.976 212.659 202.883C212.659 203.79 212.451 204.59 212.035 205.283C211.63 205.976 211.075 206.515 210.371 206.899C209.678 207.272 208.899 207.459 208.035 207.459ZM208.035 205.507C208.44 205.507 208.819 205.411 209.171 205.219C209.534 205.016 209.822 204.718 210.035 204.323C210.248 203.928 210.355 203.448 210.355 202.883C210.355 202.04 210.131 201.395 209.683 200.947C209.246 200.488 208.707 200.259 208.067 200.259C207.427 200.259 206.888 200.488 206.451 200.947C206.024 201.395 205.811 202.04 205.811 202.883C205.811 203.726 206.019 204.376 206.435 204.835C206.862 205.283 207.395 205.507 208.035 205.507ZM219.214 198.323C220.27 198.323 221.124 198.659 221.774 199.331C222.425 199.992 222.75 200.92 222.75 202.115V207.315H220.51V202.419C220.51 201.715 220.334 201.176 219.982 200.803C219.63 200.419 219.15 200.227 218.542 200.227C217.924 200.227 217.433 200.419 217.07 200.803C216.718 201.176 216.542 201.715 216.542 202.419V207.315H214.302V198.451H216.542V199.555C216.841 199.171 217.22 198.872 217.678 198.659C218.148 198.435 218.66 198.323 219.214 198.323ZM228.272 207.459C227.547 207.459 226.896 207.331 226.32 207.075C225.744 206.808 225.286 206.451 224.944 206.003C224.614 205.555 224.432 205.059 224.4 204.515H226.656C226.699 204.856 226.864 205.139 227.152 205.363C227.451 205.587 227.819 205.699 228.256 205.699C228.683 205.699 229.014 205.614 229.248 205.443C229.494 205.272 229.616 205.054 229.616 204.787C229.616 204.499 229.467 204.286 229.168 204.147C228.88 203.998 228.416 203.838 227.776 203.667C227.115 203.507 226.571 203.342 226.144 203.171C225.728 203 225.366 202.739 225.056 202.387C224.758 202.035 224.608 201.56 224.608 200.963C224.608 200.472 224.747 200.024 225.024 199.619C225.312 199.214 225.718 198.894 226.24 198.659C226.774 198.424 227.398 198.307 228.112 198.307C229.168 198.307 230.011 198.574 230.64 199.107C231.27 199.63 231.616 200.339 231.68 201.235H229.536C229.504 200.883 229.355 200.606 229.088 200.403C228.832 200.19 228.486 200.083 228.048 200.083C227.643 200.083 227.328 200.158 227.104 200.307C226.891 200.456 226.784 200.664 226.784 200.931C226.784 201.23 226.934 201.459 227.232 201.619C227.531 201.768 227.995 201.923 228.624 202.083C229.264 202.243 229.792 202.408 230.208 202.579C230.624 202.75 230.982 203.016 231.28 203.379C231.59 203.731 231.75 204.2 231.76 204.787C231.76 205.299 231.616 205.758 231.328 206.163C231.051 206.568 230.646 206.888 230.112 207.123C229.59 207.347 228.976 207.459 228.272 207.459ZM241.967 198.451V207.315H239.711V206.195C239.423 206.579 239.044 206.883 238.575 207.107C238.116 207.32 237.615 207.427 237.071 207.427C236.378 207.427 235.764 207.283 235.231 206.995C234.698 206.696 234.276 206.264 233.967 205.699C233.668 205.123 233.519 204.44 233.519 203.651V198.451H235.759V203.331C235.759 204.035 235.935 204.579 236.287 204.963C236.639 205.336 237.119 205.523 237.727 205.523C238.346 205.523 238.831 205.336 239.183 204.963C239.535 204.579 239.711 204.035 239.711 203.331V198.451H241.967ZM255.185 198.323C256.273 198.323 257.148 198.659 257.809 199.331C258.481 199.992 258.817 200.92 258.817 202.115V207.315H256.577V202.419C256.577 201.726 256.401 201.198 256.049 200.835C255.697 200.462 255.217 200.275 254.609 200.275C254.001 200.275 253.516 200.462 253.153 200.835C252.801 201.198 252.625 201.726 252.625 202.419V207.315H250.385V202.419C250.385 201.726 250.209 201.198 249.857 200.835C249.505 200.462 249.025 200.275 248.417 200.275C247.799 200.275 247.308 200.462 246.945 200.835C246.593 201.198 246.417 201.726 246.417 202.419V207.315H244.177V198.451H246.417V199.523C246.705 199.15 247.073 198.856 247.521 198.643C247.98 198.43 248.481 198.323 249.025 198.323C249.719 198.323 250.337 198.472 250.881 198.771C251.425 199.059 251.847 199.475 252.145 200.019C252.433 199.507 252.849 199.096 253.393 198.787C253.948 198.478 254.545 198.323 255.185 198.323ZM263.183 199.731C263.471 199.326 263.866 198.99 264.367 198.723C264.879 198.446 265.46 198.307 266.111 198.307C266.868 198.307 267.551 198.494 268.159 198.867C268.778 199.24 269.263 199.774 269.615 200.467C269.978 201.15 270.159 201.944 270.159 202.851C270.159 203.758 269.978 204.563 269.615 205.267C269.263 205.96 268.778 206.499 268.159 206.883C267.551 207.267 266.868 207.459 266.111 207.459C265.46 207.459 264.884 207.326 264.383 207.059C263.892 206.792 263.492 206.456 263.183 206.051V211.539H260.943V198.451H263.183V199.731ZM267.871 202.851C267.871 202.318 267.759 201.859 267.535 201.475C267.322 201.08 267.034 200.782 266.671 200.579C266.319 200.376 265.935 200.275 265.519 200.275C265.114 200.275 264.73 200.382 264.367 200.595C264.015 200.798 263.727 201.096 263.503 201.491C263.29 201.886 263.183 202.35 263.183 202.883C263.183 203.416 263.29 203.88 263.503 204.275C263.727 204.67 264.015 204.974 264.367 205.187C264.73 205.39 265.114 205.491 265.519 205.491C265.935 205.491 266.319 205.384 266.671 205.171C267.034 204.958 267.322 204.654 267.535 204.259C267.759 203.864 267.871 203.395 267.871 202.851ZM274.395 200.291V204.579C274.395 204.878 274.464 205.096 274.603 205.235C274.752 205.363 274.997 205.427 275.339 205.427H276.379V207.315H274.971C273.083 207.315 272.139 206.398 272.139 204.563V200.291H271.083V198.451H272.139V196.259H274.395V198.451H276.379V200.291H274.395ZM279.126 197.395C278.731 197.395 278.4 197.272 278.134 197.027C277.878 196.771 277.75 196.456 277.75 196.083C277.75 195.71 277.878 195.4 278.134 195.155C278.4 194.899 278.731 194.771 279.126 194.771C279.52 194.771 279.846 194.899 280.102 195.155C280.368 195.4 280.502 195.71 280.502 196.083C280.502 196.456 280.368 196.771 280.102 197.027C279.846 197.272 279.52 197.395 279.126 197.395ZM280.23 198.451V207.315H277.99V198.451H280.23ZM286.379 207.459C285.526 207.459 284.758 207.272 284.075 206.899C283.392 206.515 282.854 205.976 282.459 205.283C282.075 204.59 281.883 203.79 281.883 202.883C281.883 201.976 282.08 201.176 282.475 200.483C282.88 199.79 283.43 199.256 284.123 198.883C284.816 198.499 285.59 198.307 286.443 198.307C287.296 198.307 288.07 198.499 288.763 198.883C289.456 199.256 290 199.79 290.395 200.483C290.8 201.176 291.003 201.976 291.003 202.883C291.003 203.79 290.795 204.59 290.379 205.283C289.974 205.976 289.419 206.515 288.715 206.899C288.022 207.272 287.243 207.459 286.379 207.459ZM286.379 205.507C286.784 205.507 287.163 205.411 287.515 205.219C287.878 205.016 288.166 204.718 288.379 204.323C288.592 203.928 288.699 203.448 288.699 202.883C288.699 202.04 288.475 201.395 288.027 200.947C287.59 200.488 287.051 200.259 286.411 200.259C285.771 200.259 285.232 200.488 284.795 200.947C284.368 201.395 284.155 202.04 284.155 202.883C284.155 203.726 284.363 204.376 284.779 204.835C285.206 205.283 285.739 205.507 286.379 205.507ZM297.558 198.323C298.614 198.323 299.467 198.659 300.118 199.331C300.769 199.992 301.094 200.92 301.094 202.115V207.315H298.854V202.419C298.854 201.715 298.678 201.176 298.326 200.803C297.974 200.419 297.494 200.227 296.886 200.227C296.267 200.227 295.777 200.419 295.414 200.803C295.062 201.176 294.886 201.715 294.886 202.419V207.315H292.646V198.451H294.886V199.555C295.185 199.171 295.563 198.872 296.022 198.659C296.491 198.435 297.003 198.323 297.558 198.323ZM310.909 210.467C309.874 209.464 309.069 208.184 308.493 206.627C307.927 205.07 307.645 203.4 307.645 201.619C307.645 199.795 307.943 198.083 308.541 196.483C309.138 194.872 310.007 193.555 311.149 192.531H313.405V192.739C312.231 193.859 311.335 195.203 310.717 196.771C310.109 198.339 309.805 199.955 309.805 201.619C309.805 203.24 310.093 204.808 310.669 206.323C311.255 207.827 312.087 209.134 313.165 210.243V210.467H310.909ZM320.05 207.315L317.042 203.539V207.315H314.802V195.475H317.042V202.211L320.018 198.451H322.93L319.026 202.899L322.962 207.315H320.05ZM339.074 196.147L335.954 207.315H333.314L331.218 199.363L329.026 207.315L326.402 207.331L323.394 196.147H325.794L327.762 204.819L330.034 196.147H332.53L334.674 204.771L336.658 196.147H339.074ZM345.529 198.323C346.201 198.323 346.798 198.472 347.321 198.771C347.843 199.059 348.249 199.491 348.537 200.067C348.835 200.632 348.985 201.315 348.985 202.115V207.315H346.745V202.419C346.745 201.715 346.569 201.176 346.217 200.803C345.865 200.419 345.385 200.227 344.777 200.227C344.158 200.227 343.667 200.419 343.305 200.803C342.953 201.176 342.777 201.715 342.777 202.419V207.315H340.537V195.475H342.777V199.555C343.065 199.171 343.449 198.872 343.929 198.659C344.409 198.435 344.942 198.323 345.529 198.323ZM350.539 210.467V210.243C351.616 209.134 352.443 207.827 353.019 206.323C353.605 204.808 353.899 203.24 353.899 201.619C353.899 199.955 353.589 198.339 352.971 196.771C352.363 195.203 351.472 193.859 350.299 192.739V192.531H352.555C353.696 193.555 354.565 194.872 355.163 196.483C355.76 198.083 356.059 199.795 356.059 201.619C356.059 203.4 355.771 205.07 355.195 206.627C354.629 208.184 353.829 209.464 352.795 210.467H350.539Z" fill="black"/>
<path d="M135.183 229.812V438.312" stroke="#CFCFCF"/>
<path d="M134.683 437.812H823.683" stroke="#CFCFCF"/>
<path d="M250.255 450.946V451.834H247.975V459.31H246.883V451.834H244.591V450.946H250.255ZM257.431 452.734V459.31H256.339V458.338C256.131 458.674 255.839 458.938 255.463 459.13C255.095 459.314 254.687 459.406 254.239 459.406C253.727 459.406 253.267 459.302 252.859 459.094C252.451 458.878 252.127 458.558 251.887 458.134C251.655 457.71 251.539 457.194 251.539 456.586V452.734H252.619V456.442C252.619 457.09 252.783 457.59 253.111 457.942C253.439 458.286 253.887 458.458 254.455 458.458C255.039 458.458 255.499 458.278 255.835 457.918C256.171 457.558 256.339 457.034 256.339 456.346V452.734H257.431ZM265.275 455.77C265.275 455.978 265.263 456.198 265.239 456.43H259.983C260.023 457.078 260.243 457.586 260.643 457.954C261.051 458.314 261.543 458.494 262.119 458.494C262.591 458.494 262.983 458.386 263.295 458.17C263.615 457.946 263.839 457.65 263.967 457.282H265.143C264.967 457.914 264.615 458.43 264.087 458.83C263.559 459.222 262.903 459.418 262.119 459.418C261.495 459.418 260.935 459.278 260.439 458.998C259.951 458.718 259.567 458.322 259.287 457.81C259.007 457.29 258.867 456.69 258.867 456.01C258.867 455.33 259.003 454.734 259.275 454.222C259.547 453.71 259.927 453.318 260.415 453.046C260.911 452.766 261.479 452.626 262.119 452.626C262.743 452.626 263.295 452.762 263.775 453.034C264.255 453.306 264.623 453.682 264.879 454.162C265.143 454.634 265.275 455.17 265.275 455.77ZM264.147 455.542C264.147 455.126 264.055 454.77 263.871 454.474C263.687 454.17 263.435 453.942 263.115 453.79C262.803 453.63 262.455 453.55 262.071 453.55C261.519 453.55 261.047 453.726 260.655 454.078C260.271 454.43 260.051 454.918 259.995 455.542H264.147ZM269.044 459.418C268.54 459.418 268.088 459.334 267.688 459.166C267.288 458.99 266.972 458.75 266.74 458.446C266.508 458.134 266.38 457.778 266.356 457.378H267.484C267.516 457.706 267.668 457.974 267.94 458.182C268.22 458.39 268.584 458.494 269.032 458.494C269.448 458.494 269.776 458.402 270.016 458.218C270.256 458.034 270.376 457.802 270.376 457.522C270.376 457.234 270.248 457.022 269.992 456.886C269.736 456.742 269.34 456.602 268.804 456.466C268.316 456.338 267.916 456.21 267.604 456.082C267.3 455.946 267.036 455.75 266.812 455.494C266.596 455.23 266.488 454.886 266.488 454.462C266.488 454.126 266.588 453.818 266.788 453.538C266.988 453.258 267.272 453.038 267.64 452.878C268.008 452.71 268.428 452.626 268.9 452.626C269.628 452.626 270.216 452.81 270.664 453.178C271.112 453.546 271.352 454.05 271.384 454.69H270.292C270.268 454.346 270.128 454.07 269.872 453.862C269.624 453.654 269.288 453.55 268.864 453.55C268.472 453.55 268.16 453.634 267.928 453.802C267.696 453.97 267.58 454.19 267.58 454.462C267.58 454.678 267.648 454.858 267.784 455.002C267.928 455.138 268.104 455.25 268.312 455.338C268.528 455.418 268.824 455.51 269.2 455.614C269.672 455.742 270.056 455.87 270.352 455.998C270.648 456.118 270.9 456.302 271.108 456.55C271.324 456.798 271.436 457.122 271.444 457.522C271.444 457.882 271.344 458.206 271.144 458.494C270.944 458.782 270.66 459.01 270.292 459.178C269.932 459.338 269.516 459.418 269.044 459.418ZM272.578 455.998C272.578 455.326 272.714 454.738 272.986 454.234C273.258 453.722 273.63 453.326 274.102 453.046C274.582 452.766 275.118 452.626 275.71 452.626C276.222 452.626 276.698 452.746 277.138 452.986C277.578 453.218 277.914 453.526 278.146 453.91V450.43H279.25V459.31H278.146V458.074C277.93 458.466 277.61 458.79 277.186 459.046C276.762 459.294 276.266 459.418 275.698 459.418C275.114 459.418 274.582 459.274 274.102 458.986C273.63 458.698 273.258 458.294 272.986 457.774C272.714 457.254 272.578 456.662 272.578 455.998ZM278.146 456.01C278.146 455.514 278.046 455.082 277.846 454.714C277.646 454.346 277.374 454.066 277.03 453.874C276.694 453.674 276.322 453.574 275.914 453.574C275.506 453.574 275.134 453.67 274.798 453.862C274.462 454.054 274.194 454.334 273.994 454.702C273.794 455.07 273.694 455.502 273.694 455.998C273.694 456.502 273.794 456.942 273.994 457.318C274.194 457.686 274.462 457.97 274.798 458.17C275.134 458.362 275.506 458.458 275.914 458.458C276.322 458.458 276.694 458.362 277.03 458.17C277.374 457.97 277.646 457.686 277.846 457.318C278.046 456.942 278.146 456.506 278.146 456.01ZM280.687 455.998C280.687 455.326 280.823 454.738 281.095 454.234C281.367 453.722 281.739 453.326 282.211 453.046C282.691 452.766 283.223 452.626 283.807 452.626C284.383 452.626 284.883 452.75 285.307 452.998C285.731 453.246 286.047 453.558 286.255 453.934V452.734H287.359V459.31H286.255V458.086C286.039 458.47 285.715 458.79 285.283 459.046C284.859 459.294 284.363 459.418 283.795 459.418C283.211 459.418 282.683 459.274 282.211 458.986C281.739 458.698 281.367 458.294 281.095 457.774C280.823 457.254 280.687 456.662 280.687 455.998ZM286.255 456.01C286.255 455.514 286.155 455.082 285.955 454.714C285.755 454.346 285.483 454.066 285.139 453.874C284.803 453.674 284.431 453.574 284.023 453.574C283.615 453.574 283.243 453.67 282.907 453.862C282.571 454.054 282.303 454.334 282.103 454.702C281.903 455.07 281.803 455.502 281.803 455.998C281.803 456.502 281.903 456.942 282.103 457.318C282.303 457.686 282.571 457.97 282.907 458.17C283.243 458.362 283.615 458.458 284.023 458.458C284.431 458.458 284.803 458.362 285.139 458.17C285.483 457.97 285.755 457.686 285.955 457.318C286.155 456.942 286.255 456.506 286.255 456.01ZM294.868 452.734L290.908 462.406H289.78L291.076 459.238L288.424 452.734H289.636L291.7 458.062L293.74 452.734H294.868Z" fill="black"/>
<path d="M150.591 451.006V459.31H149.499V453.118L146.739 459.31H145.971L143.199 453.106V459.31H142.107V451.006H143.283L146.355 457.87L149.427 451.006H150.591ZM155.311 459.418C154.695 459.418 154.135 459.278 153.631 458.998C153.135 458.718 152.743 458.322 152.455 457.81C152.175 457.29 152.035 456.69 152.035 456.01C152.035 455.338 152.179 454.746 152.467 454.234C152.763 453.714 153.163 453.318 153.667 453.046C154.171 452.766 154.735 452.626 155.359 452.626C155.983 452.626 156.547 452.766 157.051 453.046C157.555 453.318 157.951 453.71 158.239 454.222C158.535 454.734 158.683 455.33 158.683 456.01C158.683 456.69 158.531 457.29 158.227 457.81C157.931 458.322 157.527 458.718 157.015 458.998C156.503 459.278 155.935 459.418 155.311 459.418ZM155.311 458.458C155.703 458.458 156.071 458.366 156.415 458.182C156.759 457.998 157.035 457.722 157.243 457.354C157.459 456.986 157.567 456.538 157.567 456.01C157.567 455.482 157.463 455.034 157.255 454.666C157.047 454.298 156.775 454.026 156.439 453.85C156.103 453.666 155.739 453.574 155.347 453.574C154.947 453.574 154.579 453.666 154.243 453.85C153.915 454.026 153.651 454.298 153.451 454.666C153.251 455.034 153.151 455.482 153.151 456.01C153.151 456.546 153.247 456.998 153.439 457.366C153.639 457.734 153.903 458.01 154.231 458.194C154.559 458.37 154.919 458.458 155.311 458.458ZM163.322 452.614C164.122 452.614 164.77 452.858 165.266 453.346C165.762 453.826 166.01 454.522 166.01 455.434V459.31H164.93V455.59C164.93 454.934 164.766 454.434 164.438 454.09C164.11 453.738 163.662 453.562 163.094 453.562C162.518 453.562 162.058 453.742 161.714 454.102C161.378 454.462 161.21 454.986 161.21 455.674V459.31H160.118V452.734H161.21V453.67C161.426 453.334 161.718 453.074 162.086 452.89C162.462 452.706 162.874 452.614 163.322 452.614ZM167.386 455.998C167.386 455.326 167.522 454.738 167.794 454.234C168.066 453.722 168.438 453.326 168.91 453.046C169.39 452.766 169.926 452.626 170.518 452.626C171.03 452.626 171.506 452.746 171.946 452.986C172.386 453.218 172.722 453.526 172.954 453.91V450.43H174.058V459.31H172.954V458.074C172.738 458.466 172.418 458.79 171.994 459.046C171.57 459.294 171.074 459.418 170.506 459.418C169.922 459.418 169.39 459.274 168.91 458.986C168.438 458.698 168.066 458.294 167.794 457.774C167.522 457.254 167.386 456.662 167.386 455.998ZM172.954 456.01C172.954 455.514 172.854 455.082 172.654 454.714C172.454 454.346 172.182 454.066 171.838 453.874C171.502 453.674 171.13 453.574 170.722 453.574C170.314 453.574 169.942 453.67 169.606 453.862C169.27 454.054 169.002 454.334 168.802 454.702C168.602 455.07 168.502 455.502 168.502 455.998C168.502 456.502 168.602 456.942 168.802 457.318C169.002 457.686 169.27 457.97 169.606 458.17C169.942 458.362 170.314 458.458 170.722 458.458C171.13 458.458 171.502 458.362 171.838 458.17C172.182 457.97 172.454 457.686 172.654 457.318C172.854 456.942 172.954 456.506 172.954 456.01ZM175.495 455.998C175.495 455.326 175.631 454.738 175.903 454.234C176.175 453.722 176.547 453.326 177.019 453.046C177.499 452.766 178.031 452.626 178.615 452.626C179.191 452.626 179.691 452.75 180.115 452.998C180.539 453.246 180.855 453.558 181.063 453.934V452.734H182.167V459.31H181.063V458.086C180.847 458.47 180.523 458.79 180.091 459.046C179.667 459.294 179.171 459.418 178.603 459.418C178.019 459.418 177.491 459.274 177.019 458.986C176.547 458.698 176.175 458.294 175.903 457.774C175.631 457.254 175.495 456.662 175.495 455.998ZM181.063 456.01C181.063 455.514 180.963 455.082 180.763 454.714C180.563 454.346 180.291 454.066 179.947 453.874C179.611 453.674 179.239 453.574 178.831 453.574C178.423 453.574 178.051 453.67 177.715 453.862C177.379 454.054 177.111 454.334 176.911 454.702C176.711 455.07 176.611 455.502 176.611 455.998C176.611 456.502 176.711 456.942 176.911 457.318C177.111 457.686 177.379 457.97 177.715 458.17C178.051 458.362 178.423 458.458 178.831 458.458C179.239 458.458 179.611 458.362 179.947 458.17C180.291 457.97 180.563 457.686 180.763 457.318C180.963 456.942 181.063 456.506 181.063 456.01ZM189.677 452.734L185.717 462.406H184.589L185.885 459.238L183.233 452.734H184.445L186.509 458.062L188.549 452.734H189.677Z" fill="black"/>
<path d="M359.619 450.946L357.195 459.31H355.971L354.027 452.578L352.011 459.31L350.799 459.322L348.459 450.946H349.623L351.447 458.038L353.463 450.946H354.687L356.607 458.014L358.443 450.946H359.619ZM366.814 455.77C366.814 455.978 366.802 456.198 366.778 456.43H361.522C361.562 457.078 361.782 457.586 362.182 457.954C362.59 458.314 363.082 458.494 363.658 458.494C364.13 458.494 364.522 458.386 364.834 458.17C365.154 457.946 365.378 457.65 365.506 457.282H366.682C366.506 457.914 366.154 458.43 365.626 458.83C365.098 459.222 364.442 459.418 363.658 459.418C363.034 459.418 362.474 459.278 361.978 458.998C361.49 458.718 361.106 458.322 360.826 457.81C360.546 457.29 360.406 456.69 360.406 456.01C360.406 455.33 360.542 454.734 360.814 454.222C361.086 453.71 361.466 453.318 361.954 453.046C362.45 452.766 363.018 452.626 363.658 452.626C364.282 452.626 364.834 452.762 365.314 453.034C365.794 453.306 366.162 453.682 366.418 454.162C366.682 454.634 366.814 455.17 366.814 455.77ZM365.686 455.542C365.686 455.126 365.594 454.77 365.41 454.474C365.226 454.17 364.974 453.942 364.654 453.79C364.342 453.63 363.994 453.55 363.61 453.55C363.058 453.55 362.586 453.726 362.194 454.078C361.81 454.43 361.59 454.918 361.534 455.542H365.686ZM367.847 455.998C367.847 455.326 367.983 454.738 368.255 454.234C368.527 453.722 368.899 453.326 369.371 453.046C369.851 452.766 370.387 452.626 370.979 452.626C371.491 452.626 371.967 452.746 372.407 452.986C372.847 453.218 373.183 453.526 373.415 453.91V450.43H374.519V459.31H373.415V458.074C373.199 458.466 372.879 458.79 372.455 459.046C372.031 459.294 371.535 459.418 370.967 459.418C370.383 459.418 369.851 459.274 369.371 458.986C368.899 458.698 368.527 458.294 368.255 457.774C367.983 457.254 367.847 456.662 367.847 455.998ZM373.415 456.01C373.415 455.514 373.315 455.082 373.115 454.714C372.915 454.346 372.643 454.066 372.299 453.874C371.963 453.674 371.591 453.574 371.183 453.574C370.775 453.574 370.403 453.67 370.067 453.862C369.731 454.054 369.463 454.334 369.263 454.702C369.063 455.07 368.963 455.502 368.963 455.998C368.963 456.502 369.063 456.942 369.263 457.318C369.463 457.686 369.731 457.97 370.067 458.17C370.403 458.362 370.775 458.458 371.183 458.458C371.591 458.458 371.963 458.362 372.299 458.17C372.643 457.97 372.915 457.686 373.115 457.318C373.315 456.942 373.415 456.506 373.415 456.01ZM379.568 452.614C380.368 452.614 381.016 452.858 381.512 453.346C382.008 453.826 382.256 454.522 382.256 455.434V459.31H381.176V455.59C381.176 454.934 381.012 454.434 380.684 454.09C380.356 453.738 379.908 453.562 379.34 453.562C378.764 453.562 378.304 453.742 377.96 454.102C377.624 454.462 377.456 454.986 377.456 455.674V459.31H376.364V452.734H377.456V453.67C377.672 453.334 377.964 453.074 378.332 452.89C378.708 452.706 379.12 452.614 379.568 452.614ZM390.04 455.77C390.04 455.978 390.028 456.198 390.004 456.43H384.748C384.788 457.078 385.008 457.586 385.408 457.954C385.816 458.314 386.308 458.494 386.884 458.494C387.356 458.494 387.748 458.386 388.06 458.17C388.38 457.946 388.604 457.65 388.732 457.282H389.908C389.732 457.914 389.38 458.43 388.852 458.83C388.324 459.222 387.668 459.418 386.884 459.418C386.26 459.418 385.7 459.278 385.204 458.998C384.716 458.718 384.332 458.322 384.052 457.81C383.772 457.29 383.632 456.69 383.632 456.01C383.632 455.33 383.768 454.734 384.04 454.222C384.312 453.71 384.692 453.318 385.18 453.046C385.676 452.766 386.244 452.626 386.884 452.626C387.508 452.626 388.06 452.762 388.54 453.034C389.02 453.306 389.388 453.682 389.644 454.162C389.908 454.634 390.04 455.17 390.04 455.77ZM388.912 455.542C388.912 455.126 388.82 454.77 388.636 454.474C388.452 454.17 388.2 453.942 387.88 453.79C387.568 453.63 387.22 453.55 386.836 453.55C386.284 453.55 385.812 453.726 385.42 454.078C385.036 454.43 384.816 454.918 384.76 455.542H388.912ZM393.81 459.418C393.306 459.418 392.854 459.334 392.454 459.166C392.054 458.99 391.738 458.75 391.506 458.446C391.274 458.134 391.146 457.778 391.122 457.378H392.25C392.282 457.706 392.434 457.974 392.706 458.182C392.986 458.39 393.35 458.494 393.798 458.494C394.214 458.494 394.542 458.402 394.782 458.218C395.022 458.034 395.142 457.802 395.142 457.522C395.142 457.234 395.014 457.022 394.758 456.886C394.502 456.742 394.106 456.602 393.57 456.466C393.082 456.338 392.682 456.21 392.37 456.082C392.066 455.946 391.802 455.75 391.578 455.494C391.362 455.23 391.254 454.886 391.254 454.462C391.254 454.126 391.354 453.818 391.554 453.538C391.754 453.258 392.038 453.038 392.406 452.878C392.774 452.71 393.194 452.626 393.666 452.626C394.394 452.626 394.982 452.81 395.43 453.178C395.878 453.546 396.118 454.05 396.15 454.69H395.058C395.034 454.346 394.894 454.07 394.638 453.862C394.39 453.654 394.054 453.55 393.63 453.55C393.238 453.55 392.926 453.634 392.694 453.802C392.462 453.97 392.346 454.19 392.346 454.462C392.346 454.678 392.414 454.858 392.55 455.002C392.694 455.138 392.87 455.25 393.078 455.338C393.294 455.418 393.59 455.51 393.966 455.614C394.438 455.742 394.822 455.87 395.118 455.998C395.414 456.118 395.666 456.302 395.874 456.55C396.09 456.798 396.202 457.122 396.21 457.522C396.21 457.882 396.11 458.206 395.91 458.494C395.71 458.782 395.426 459.01 395.058 459.178C394.698 459.338 394.282 459.418 393.81 459.418ZM397.343 455.998C397.343 455.326 397.479 454.738 397.751 454.234C398.023 453.722 398.395 453.326 398.867 453.046C399.347 452.766 399.883 452.626 400.475 452.626C400.987 452.626 401.463 452.746 401.903 452.986C402.343 453.218 402.679 453.526 402.911 453.91V450.43H404.015V459.31H402.911V458.074C402.695 458.466 402.375 458.79 401.951 459.046C401.527 459.294 401.031 459.418 400.463 459.418C399.879 459.418 399.347 459.274 398.867 458.986C398.395 458.698 398.023 458.294 397.751 457.774C397.479 457.254 397.343 456.662 397.343 455.998ZM402.911 456.01C402.911 455.514 402.811 455.082 402.611 454.714C402.411 454.346 402.139 454.066 401.795 453.874C401.459 453.674 401.087 453.574 400.679 453.574C400.271 453.574 399.899 453.67 399.563 453.862C399.227 454.054 398.959 454.334 398.759 454.702C398.559 455.07 398.459 455.502 398.459 455.998C398.459 456.502 398.559 456.942 398.759 457.318C398.959 457.686 399.227 457.97 399.563 458.17C399.899 458.362 400.271 458.458 400.679 458.458C401.087 458.458 401.459 458.362 401.795 458.17C402.139 457.97 402.411 457.686 402.611 457.318C402.811 456.942 402.911 456.506 402.911 456.01ZM405.453 455.998C405.453 455.326 405.589 454.738 405.861 454.234C406.133 453.722 406.505 453.326 406.977 453.046C407.457 452.766 407.989 452.626 408.573 452.626C409.149 452.626 409.649 452.75 410.073 452.998C410.497 453.246 410.813 453.558 411.021 453.934V452.734H412.125V459.31H411.021V458.086C410.805 458.47 410.481 458.79 410.049 459.046C409.625 459.294 409.129 459.418 408.561 459.418C407.977 459.418 407.449 459.274 406.977 458.986C406.505 458.698 406.133 458.294 405.861 457.774C405.589 457.254 405.453 456.662 405.453 455.998ZM411.021 456.01C411.021 455.514 410.921 455.082 410.721 454.714C410.521 454.346 410.249 454.066 409.905 453.874C409.569 453.674 409.197 453.574 408.789 453.574C408.381 453.574 408.009 453.67 407.673 453.862C407.337 454.054 407.069 454.334 406.869 454.702C406.669 455.07 406.569 455.502 406.569 455.998C406.569 456.502 406.669 456.942 406.869 457.318C407.069 457.686 407.337 457.97 407.673 458.17C408.009 458.362 408.381 458.458 408.789 458.458C409.197 458.458 409.569 458.362 409.905 458.17C410.249 457.97 410.521 457.686 410.721 457.318C410.921 456.942 411.021 456.506 411.021 456.01ZM419.634 452.734L415.674 462.406H414.546L415.842 459.238L413.19 452.734H414.402L416.466 458.062L418.506 452.734H419.634Z" fill="black"/>
<path d="M478.255 450.946V451.834H475.975V459.31H474.883V451.834H472.591V450.946H478.255ZM482.863 452.614C483.359 452.614 483.807 452.722 484.207 452.938C484.607 453.146 484.919 453.462 485.143 453.886C485.375 454.31 485.491 454.826 485.491 455.434V459.31H484.411V455.59C484.411 454.934 484.247 454.434 483.919 454.09C483.591 453.738 483.143 453.562 482.575 453.562C481.999 453.562 481.539 453.742 481.195 454.102C480.859 454.462 480.691 454.986 480.691 455.674V459.31H479.599V450.43H480.691V453.67C480.907 453.334 481.203 453.074 481.579 452.89C481.963 452.706 482.391 452.614 482.863 452.614ZM493.107 452.734V459.31H492.015V458.338C491.807 458.674 491.515 458.938 491.139 459.13C490.771 459.314 490.363 459.406 489.915 459.406C489.403 459.406 488.943 459.302 488.535 459.094C488.127 458.878 487.803 458.558 487.563 458.134C487.331 457.71 487.215 457.194 487.215 456.586V452.734H488.295V456.442C488.295 457.09 488.459 457.59 488.787 457.942C489.115 458.286 489.563 458.458 490.131 458.458C490.715 458.458 491.175 458.278 491.511 457.918C491.847 457.558 492.015 457.034 492.015 456.346V452.734H493.107ZM496.042 453.802C496.234 453.426 496.506 453.134 496.858 452.926C497.218 452.718 497.654 452.614 498.166 452.614V453.742H497.878C496.654 453.742 496.042 454.406 496.042 455.734V459.31H494.95V452.734H496.042V453.802ZM501.755 459.418C501.251 459.418 500.799 459.334 500.399 459.166C499.999 458.99 499.683 458.75 499.451 458.446C499.219 458.134 499.091 457.778 499.067 457.378H500.195C500.227 457.706 500.379 457.974 500.651 458.182C500.931 458.39 501.295 458.494 501.743 458.494C502.159 458.494 502.487 458.402 502.727 458.218C502.967 458.034 503.087 457.802 503.087 457.522C503.087 457.234 502.959 457.022 502.703 456.886C502.447 456.742 502.051 456.602 501.515 456.466C501.027 456.338 500.627 456.21 500.315 456.082C500.011 455.946 499.747 455.75 499.523 455.494C499.307 455.23 499.199 454.886 499.199 454.462C499.199 454.126 499.299 453.818 499.499 453.538C499.699 453.258 499.983 453.038 500.351 452.878C500.719 452.71 501.139 452.626 501.611 452.626C502.339 452.626 502.927 452.81 503.375 453.178C503.823 453.546 504.063 454.05 504.095 454.69H503.003C502.979 454.346 502.839 454.07 502.583 453.862C502.335 453.654 501.999 453.55 501.575 453.55C501.183 453.55 500.871 453.634 500.639 453.802C500.407 453.97 500.291 454.19 500.291 454.462C500.291 454.678 500.359 454.858 500.495 455.002C500.639 455.138 500.815 455.25 501.023 455.338C501.239 455.418 501.535 455.51 501.911 455.614C502.383 455.742 502.767 455.87 503.063 455.998C503.359 456.118 503.611 456.302 503.819 456.55C504.035 456.798 504.147 457.122 504.155 457.522C504.155 457.882 504.055 458.206 503.855 458.494C503.655 458.782 503.371 459.01 503.003 459.178C502.643 459.338 502.227 459.418 501.755 459.418ZM505.288 455.998C505.288 455.326 505.424 454.738 505.696 454.234C505.968 453.722 506.34 453.326 506.812 453.046C507.292 452.766 507.828 452.626 508.42 452.626C508.932 452.626 509.408 452.746 509.848 452.986C510.288 453.218 510.624 453.526 510.856 453.91V450.43H511.96V459.31H510.856V458.074C510.64 458.466 510.32 458.79 509.896 459.046C509.472 459.294 508.976 459.418 508.408 459.418C507.824 459.418 507.292 459.274 506.812 458.986C506.34 458.698 505.968 458.294 505.696 457.774C505.424 457.254 505.288 456.662 505.288 455.998ZM510.856 456.01C510.856 455.514 510.756 455.082 510.556 454.714C510.356 454.346 510.084 454.066 509.74 453.874C509.404 453.674 509.032 453.574 508.624 453.574C508.216 453.574 507.844 453.67 507.508 453.862C507.172 454.054 506.904 454.334 506.704 454.702C506.504 455.07 506.404 455.502 506.404 455.998C506.404 456.502 506.504 456.942 506.704 457.318C506.904 457.686 507.172 457.97 507.508 458.17C507.844 458.362 508.216 458.458 508.624 458.458C509.032 458.458 509.404 458.362 509.74 458.17C510.084 457.97 510.356 457.686 510.556 457.318C510.756 456.942 510.856 456.506 510.856 456.01ZM513.398 455.998C513.398 455.326 513.534 454.738 513.806 454.234C514.078 453.722 514.45 453.326 514.922 453.046C515.402 452.766 515.934 452.626 516.518 452.626C517.094 452.626 517.594 452.75 518.018 452.998C518.442 453.246 518.758 453.558 518.966 453.934V452.734H520.07V459.31H518.966V458.086C518.75 458.47 518.426 458.79 517.994 459.046C517.57 459.294 517.074 459.418 516.506 459.418C515.922 459.418 515.394 459.274 514.922 458.986C514.45 458.698 514.078 458.294 513.806 457.774C513.534 457.254 513.398 456.662 513.398 455.998ZM518.966 456.01C518.966 455.514 518.866 455.082 518.666 454.714C518.466 454.346 518.194 454.066 517.85 453.874C517.514 453.674 517.142 453.574 516.734 453.574C516.326 453.574 515.954 453.67 515.618 453.862C515.282 454.054 515.014 454.334 514.814 454.702C514.614 455.07 514.514 455.502 514.514 455.998C514.514 456.502 514.614 456.942 514.814 457.318C515.014 457.686 515.282 457.97 515.618 458.17C515.954 458.362 516.326 458.458 516.734 458.458C517.142 458.458 517.514 458.362 517.85 458.17C518.194 457.97 518.466 457.686 518.666 457.318C518.866 456.942 518.966 456.506 518.966 456.01ZM527.579 452.734L523.619 462.406H522.491L523.787 459.238L521.135 452.734H522.347L524.411 458.062L526.451 452.734H527.579Z" fill="black"/>
<path d="M585.835 450.948V451.836H582.199V454.656H585.151V455.544H582.199V459.312H581.107V450.948H585.835ZM588.245 453.804C588.437 453.428 588.709 453.136 589.061 452.928C589.421 452.72 589.857 452.616 590.369 452.616V453.744H590.081C588.857 453.744 588.245 454.408 588.245 455.736V459.312H587.153V452.736H588.245V453.804ZM592.194 451.668C591.986 451.668 591.81 451.596 591.666 451.452C591.522 451.308 591.45 451.132 591.45 450.924C591.45 450.716 591.522 450.54 591.666 450.396C591.81 450.252 591.986 450.18 592.194 450.18C592.394 450.18 592.562 450.252 592.698 450.396C592.842 450.54 592.914 450.716 592.914 450.924C592.914 451.132 592.842 451.308 592.698 451.452C592.562 451.596 592.394 451.668 592.194 451.668ZM592.722 452.736V459.312H591.63V452.736H592.722ZM594.175 456C594.175 455.328 594.311 454.74 594.583 454.236C594.855 453.724 595.227 453.328 595.699 453.048C596.179 452.768 596.715 452.628 597.307 452.628C597.819 452.628 598.295 452.748 598.735 452.988C599.175 453.22 599.511 453.528 599.743 453.912V450.432H600.847V459.312H599.743V458.076C599.527 458.468 599.207 458.792 598.783 459.048C598.359 459.296 597.863 459.42 597.295 459.42C596.711 459.42 596.179 459.276 595.699 458.988C595.227 458.7 594.855 458.296 594.583 457.776C594.311 457.256 594.175 456.664 594.175 456ZM599.743 456.012C599.743 455.516 599.643 455.084 599.443 454.716C599.243 454.348 598.971 454.068 598.627 453.876C598.291 453.676 597.919 453.576 597.511 453.576C597.103 453.576 596.731 453.672 596.395 453.864C596.059 454.056 595.791 454.336 595.591 454.704C595.391 455.072 595.291 455.504 595.291 456C595.291 456.504 595.391 456.944 595.591 457.32C595.791 457.688 596.059 457.972 596.395 458.172C596.731 458.364 597.103 458.46 597.511 458.46C597.919 458.46 598.291 458.364 598.627 458.172C598.971 457.972 599.243 457.688 599.443 457.32C599.643 456.944 599.743 456.508 599.743 456.012ZM602.285 456C602.285 455.328 602.421 454.74 602.693 454.236C602.965 453.724 603.337 453.328 603.809 453.048C604.289 452.768 604.821 452.628 605.405 452.628C605.981 452.628 606.481 452.752 606.905 453C607.329 453.248 607.645 453.56 607.853 453.936V452.736H608.957V459.312H607.853V458.088C607.637 458.472 607.313 458.792 606.881 459.048C606.457 459.296 605.961 459.42 605.393 459.42C604.809 459.42 604.281 459.276 603.809 458.988C603.337 458.7 602.965 458.296 602.693 457.776C602.421 457.256 602.285 456.664 602.285 456ZM607.853 456.012C607.853 455.516 607.753 455.084 607.553 454.716C607.353 454.348 607.081 454.068 606.737 453.876C606.401 453.676 606.029 453.576 605.621 453.576C605.213 453.576 604.841 453.672 604.505 453.864C604.169 454.056 603.901 454.336 603.701 454.704C603.501 455.072 603.401 455.504 603.401 456C603.401 456.504 603.501 456.944 603.701 457.32C603.901 457.688 604.169 457.972 604.505 458.172C604.841 458.364 605.213 458.46 605.621 458.46C606.029 458.46 606.401 458.364 606.737 458.172C607.081 457.972 607.353 457.688 607.553 457.32C607.753 456.944 607.853 456.508 607.853 456.012ZM616.466 452.736L612.506 462.408H611.378L612.674 459.24L610.022 452.736H611.234L613.298 458.064L615.338 452.736H616.466Z" fill="black"/>
<path d="M675.759 459.394C675.207 459.394 674.711 459.298 674.271 459.106C673.839 458.906 673.499 458.634 673.251 458.29C673.003 457.938 672.875 457.534 672.867 457.078H674.031C674.071 457.47 674.231 457.802 674.511 458.074C674.799 458.338 675.215 458.47 675.759 458.47C676.279 458.47 676.687 458.342 676.983 458.086C677.287 457.822 677.439 457.486 677.439 457.078C677.439 456.758 677.351 456.498 677.175 456.298C676.999 456.098 676.779 455.946 676.515 455.842C676.251 455.738 675.895 455.626 675.447 455.506C674.895 455.362 674.451 455.218 674.115 455.074C673.787 454.93 673.503 454.706 673.263 454.402C673.031 454.09 672.915 453.674 672.915 453.154C672.915 452.698 673.031 452.294 673.263 451.942C673.495 451.59 673.819 451.318 674.235 451.126C674.659 450.934 675.143 450.838 675.687 450.838C676.471 450.838 677.111 451.034 677.607 451.426C678.111 451.818 678.395 452.338 678.459 452.986H677.259C677.219 452.666 677.051 452.386 676.755 452.146C676.459 451.898 676.067 451.774 675.579 451.774C675.123 451.774 674.751 451.894 674.463 452.134C674.175 452.366 674.031 452.694 674.031 453.118C674.031 453.422 674.115 453.67 674.283 453.862C674.459 454.054 674.671 454.202 674.919 454.306C675.175 454.402 675.531 454.514 675.987 454.642C676.539 454.794 676.983 454.946 677.319 455.098C677.655 455.242 677.943 455.47 678.183 455.782C678.423 456.086 678.543 456.502 678.543 457.03C678.543 457.438 678.435 457.822 678.219 458.182C678.003 458.542 677.683 458.834 677.259 459.058C676.835 459.282 676.335 459.394 675.759 459.394ZM679.742 455.998C679.742 455.326 679.878 454.738 680.15 454.234C680.422 453.722 680.794 453.326 681.266 453.046C681.746 452.766 682.278 452.626 682.862 452.626C683.438 452.626 683.938 452.75 684.362 452.998C684.786 453.246 685.102 453.558 685.31 453.934V452.734H686.414V459.31H685.31V458.086C685.094 458.47 684.77 458.79 684.338 459.046C683.914 459.294 683.418 459.418 682.85 459.418C682.266 459.418 681.738 459.274 681.266 458.986C680.794 458.698 680.422 458.294 680.15 457.774C679.878 457.254 679.742 456.662 679.742 455.998ZM685.31 456.01C685.31 455.514 685.21 455.082 685.01 454.714C684.81 454.346 684.538 454.066 684.194 453.874C683.858 453.674 683.486 453.574 683.078 453.574C682.67 453.574 682.298 453.67 681.962 453.862C681.626 454.054 681.358 454.334 681.158 454.702C680.958 455.07 680.858 455.502 680.858 455.998C680.858 456.502 680.958 456.942 681.158 457.318C681.358 457.686 681.626 457.97 681.962 458.17C682.298 458.362 682.67 458.458 683.078 458.458C683.486 458.458 683.858 458.362 684.194 458.17C684.538 457.97 684.81 457.686 685.01 457.318C685.21 456.942 685.31 456.506 685.31 456.01ZM689.591 453.634V457.51C689.591 457.83 689.659 458.058 689.795 458.194C689.931 458.322 690.167 458.386 690.503 458.386H691.307V459.31H690.323C689.715 459.31 689.259 459.17 688.955 458.89C688.651 458.61 688.499 458.15 688.499 457.51V453.634H687.647V452.734H688.499V451.078H689.591V452.734H691.307V453.634H689.591ZM698.462 452.734V459.31H697.37V458.338C697.162 458.674 696.87 458.938 696.494 459.13C696.126 459.314 695.718 459.406 695.27 459.406C694.758 459.406 694.298 459.302 693.89 459.094C693.482 458.878 693.158 458.558 692.918 458.134C692.686 457.71 692.57 457.194 692.57 456.586V452.734H693.65V456.442C693.65 457.09 693.814 457.59 694.142 457.942C694.47 458.286 694.918 458.458 695.486 458.458C696.07 458.458 696.53 458.278 696.866 457.918C697.202 457.558 697.37 457.034 697.37 456.346V452.734H698.462ZM701.398 453.802C701.59 453.426 701.862 453.134 702.214 452.926C702.574 452.718 703.01 452.614 703.522 452.614V453.742H703.234C702.01 453.742 701.398 454.406 701.398 455.734V459.31H700.306V452.734H701.398V453.802ZM704.374 455.998C704.374 455.326 704.51 454.738 704.782 454.234C705.054 453.722 705.426 453.326 705.898 453.046C706.378 452.766 706.914 452.626 707.506 452.626C708.018 452.626 708.494 452.746 708.934 452.986C709.374 453.218 709.71 453.526 709.942 453.91V450.43H711.046V459.31H709.942V458.074C709.726 458.466 709.406 458.79 708.982 459.046C708.558 459.294 708.062 459.418 707.494 459.418C706.91 459.418 706.378 459.274 705.898 458.986C705.426 458.698 705.054 458.294 704.782 457.774C704.51 457.254 704.374 456.662 704.374 455.998ZM709.942 456.01C709.942 455.514 709.842 455.082 709.642 454.714C709.442 454.346 709.17 454.066 708.826 453.874C708.49 453.674 708.118 453.574 707.71 453.574C707.302 453.574 706.93 453.67 706.594 453.862C706.258 454.054 705.99 454.334 705.79 454.702C705.59 455.07 705.49 455.502 705.49 455.998C705.49 456.502 705.59 456.942 705.79 457.318C705.99 457.686 706.258 457.97 706.594 458.17C706.93 458.362 707.302 458.458 707.71 458.458C708.118 458.458 708.49 458.362 708.826 458.17C709.17 457.97 709.442 457.686 709.642 457.318C709.842 456.942 709.942 456.506 709.942 456.01ZM712.484 455.998C712.484 455.326 712.62 454.738 712.892 454.234C713.164 453.722 713.536 453.326 714.008 453.046C714.488 452.766 715.02 452.626 715.604 452.626C716.18 452.626 716.68 452.75 717.104 452.998C717.528 453.246 717.844 453.558 718.052 453.934V452.734H719.156V459.31H718.052V458.086C717.836 458.47 717.512 458.79 717.08 459.046C716.656 459.294 716.16 459.418 715.592 459.418C715.008 459.418 714.48 459.274 714.008 458.986C713.536 458.698 713.164 458.294 712.892 457.774C712.62 457.254 712.484 456.662 712.484 455.998ZM718.052 456.01C718.052 455.514 717.952 455.082 717.752 454.714C717.552 454.346 717.28 454.066 716.936 453.874C716.6 453.674 716.228 453.574 715.82 453.574C715.412 453.574 715.04 453.67 714.704 453.862C714.368 454.054 714.1 454.334 713.9 454.702C713.7 455.07 713.6 455.502 713.6 455.998C713.6 456.502 713.7 456.942 713.9 457.318C714.1 457.686 714.368 457.97 714.704 458.17C715.04 458.362 715.412 458.458 715.82 458.458C716.228 458.458 716.6 458.362 716.936 458.17C717.28 457.97 717.552 457.686 717.752 457.318C717.952 456.942 718.052 456.506 718.052 456.01ZM726.665 452.734L722.705 462.406H721.577L722.873 459.238L720.221 452.734H721.433L723.497 458.062L725.537 452.734H726.665Z" fill="black"/>
<path d="M782.759 459.394C782.207 459.394 781.711 459.298 781.271 459.106C780.839 458.906 780.499 458.634 780.251 458.29C780.003 457.938 779.875 457.534 779.867 457.078H781.031C781.071 457.47 781.231 457.802 781.511 458.074C781.799 458.338 782.215 458.47 782.759 458.47C783.279 458.47 783.687 458.342 783.983 458.086C784.287 457.822 784.439 457.486 784.439 457.078C784.439 456.758 784.351 456.498 784.175 456.298C783.999 456.098 783.779 455.946 783.515 455.842C783.251 455.738 782.895 455.626 782.447 455.506C781.895 455.362 781.451 455.218 781.115 455.074C780.787 454.93 780.503 454.706 780.263 454.402C780.031 454.09 779.915 453.674 779.915 453.154C779.915 452.698 780.031 452.294 780.263 451.942C780.495 451.59 780.819 451.318 781.235 451.126C781.659 450.934 782.143 450.838 782.687 450.838C783.471 450.838 784.111 451.034 784.607 451.426C785.111 451.818 785.395 452.338 785.459 452.986H784.259C784.219 452.666 784.051 452.386 783.755 452.146C783.459 451.898 783.067 451.774 782.579 451.774C782.123 451.774 781.751 451.894 781.463 452.134C781.175 452.366 781.031 452.694 781.031 453.118C781.031 453.422 781.115 453.67 781.283 453.862C781.459 454.054 781.671 454.202 781.919 454.306C782.175 454.402 782.531 454.514 782.987 454.642C783.539 454.794 783.983 454.946 784.319 455.098C784.655 455.242 784.943 455.47 785.183 455.782C785.423 456.086 785.543 456.502 785.543 457.03C785.543 457.438 785.435 457.822 785.219 458.182C785.003 458.542 784.683 458.834 784.259 459.058C783.835 459.282 783.335 459.394 782.759 459.394ZM792.982 452.734V459.31H791.89V458.338C791.682 458.674 791.39 458.938 791.014 459.13C790.646 459.314 790.238 459.406 789.79 459.406C789.278 459.406 788.818 459.302 788.41 459.094C788.002 458.878 787.678 458.558 787.438 458.134C787.206 457.71 787.09 457.194 787.09 456.586V452.734H788.17V456.442C788.17 457.09 788.334 457.59 788.662 457.942C788.99 458.286 789.438 458.458 790.006 458.458C790.59 458.458 791.05 458.278 791.386 457.918C791.722 457.558 791.89 457.034 791.89 456.346V452.734H792.982ZM798.029 452.614C798.829 452.614 799.477 452.858 799.973 453.346C800.469 453.826 800.717 454.522 800.717 455.434V459.31H799.637V455.59C799.637 454.934 799.473 454.434 799.145 454.09C798.817 453.738 798.369 453.562 797.801 453.562C797.225 453.562 796.765 453.742 796.421 454.102C796.085 454.462 795.917 454.986 795.917 455.674V459.31H794.825V452.734H795.917V453.67C796.133 453.334 796.425 453.074 796.793 452.89C797.169 452.706 797.581 452.614 798.029 452.614ZM802.093 455.998C802.093 455.326 802.229 454.738 802.501 454.234C802.773 453.722 803.145 453.326 803.617 453.046C804.097 452.766 804.633 452.626 805.225 452.626C805.737 452.626 806.213 452.746 806.653 452.986C807.093 453.218 807.429 453.526 807.661 453.91V450.43H808.765V459.31H807.661V458.074C807.445 458.466 807.125 458.79 806.701 459.046C806.277 459.294 805.781 459.418 805.213 459.418C804.629 459.418 804.097 459.274 803.617 458.986C803.145 458.698 802.773 458.294 802.501 457.774C802.229 457.254 802.093 456.662 802.093 455.998ZM807.661 456.01C807.661 455.514 807.561 455.082 807.361 454.714C807.161 454.346 806.889 454.066 806.545 453.874C806.209 453.674 805.837 453.574 805.429 453.574C805.021 453.574 804.649 453.67 804.313 453.862C803.977 454.054 803.709 454.334 803.509 454.702C803.309 455.07 803.209 455.502 803.209 455.998C803.209 456.502 803.309 456.942 803.509 457.318C803.709 457.686 803.977 457.97 804.313 458.17C804.649 458.362 805.021 458.458 805.429 458.458C805.837 458.458 806.209 458.362 806.545 458.17C806.889 457.97 807.161 457.686 807.361 457.318C807.561 456.942 807.661 456.506 807.661 456.01ZM810.203 455.998C810.203 455.326 810.339 454.738 810.611 454.234C810.883 453.722 811.255 453.326 811.727 453.046C812.207 452.766 812.739 452.626 813.323 452.626C813.899 452.626 814.399 452.75 814.823 452.998C815.247 453.246 815.563 453.558 815.771 453.934V452.734H816.875V459.31H815.771V458.086C815.555 458.47 815.231 458.79 814.799 459.046C814.375 459.294 813.879 459.418 813.311 459.418C812.727 459.418 812.199 459.274 811.727 458.986C811.255 458.698 810.883 458.294 810.611 457.774C810.339 457.254 810.203 456.662 810.203 455.998ZM815.771 456.01C815.771 455.514 815.671 455.082 815.471 454.714C815.271 454.346 814.999 454.066 814.655 453.874C814.319 453.674 813.947 453.574 813.539 453.574C813.131 453.574 812.759 453.67 812.423 453.862C812.087 454.054 811.819 454.334 811.619 454.702C811.419 455.07 811.319 455.502 811.319 455.998C811.319 456.502 811.419 456.942 811.619 457.318C811.819 457.686 812.087 457.97 812.423 458.17C812.759 458.362 813.131 458.458 813.539 458.458C813.947 458.458 814.319 458.362 814.655 458.17C814.999 457.97 815.271 457.686 815.471 457.318C815.671 456.942 815.771 456.506 815.771 456.01ZM824.384 452.734L820.424 462.406H819.296L820.592 459.238L817.94 452.734H819.152L821.216 458.062L823.256 452.734H824.384Z" fill="black"/>
<path d="M117.159 438.888C117.159 437.512 117.383 436.44 117.831 435.672C118.279 434.896 119.063 434.508 120.183 434.508C121.295 434.508 122.075 434.896 122.523 435.672C122.971 436.44 123.195 437.512 123.195 438.888C123.195 440.288 122.971 441.376 122.523 442.152C122.075 442.928 121.295 443.316 120.183 443.316C119.063 443.316 118.279 442.928 117.831 442.152C117.383 441.376 117.159 440.288 117.159 438.888ZM122.115 438.888C122.115 438.192 122.067 437.604 121.971 437.124C121.883 436.636 121.695 436.244 121.407 435.948C121.127 435.652 120.719 435.504 120.183 435.504C119.639 435.504 119.223 435.652 118.935 435.948C118.655 436.244 118.467 436.636 118.371 437.124C118.283 437.604 118.239 438.192 118.239 438.888C118.239 439.608 118.283 440.212 118.371 440.7C118.467 441.188 118.655 441.58 118.935 441.876C119.223 442.172 119.639 442.32 120.183 442.32C120.719 442.32 121.127 442.172 121.407 441.876C121.695 441.58 121.883 441.188 121.971 440.7C122.067 440.212 122.115 439.608 122.115 438.888Z" fill="black"/>
<path d="M102.809 401.44C103.825 400.624 104.621 399.956 105.197 399.436C105.773 398.908 106.257 398.36 106.649 397.792C107.049 397.216 107.249 396.652 107.249 396.1C107.249 395.58 107.121 395.172 106.865 394.876C106.617 394.572 106.213 394.42 105.653 394.42C105.109 394.42 104.685 394.592 104.381 394.936C104.085 395.272 103.925 395.724 103.901 396.292H102.845C102.877 395.396 103.149 394.704 103.661 394.216C104.173 393.728 104.833 393.484 105.641 393.484C106.465 393.484 107.117 393.712 107.597 394.168C108.085 394.624 108.329 395.252 108.329 396.052C108.329 396.716 108.129 397.364 107.729 397.996C107.337 398.62 106.889 399.172 106.385 399.652C105.881 400.124 105.237 400.676 104.453 401.308H108.581V402.22H102.809V401.44ZM109.843 397.888C109.843 396.512 110.067 395.44 110.515 394.672C110.963 393.896 111.747 393.508 112.867 393.508C113.979 393.508 114.759 393.896 115.207 394.672C115.655 395.44 115.879 396.512 115.879 397.888C115.879 399.288 115.655 400.376 115.207 401.152C114.759 401.928 113.979 402.316 112.867 402.316C111.747 402.316 110.963 401.928 110.515 401.152C110.067 400.376 109.843 399.288 109.843 397.888ZM114.799 397.888C114.799 397.192 114.751 396.604 114.655 396.124C114.567 395.636 114.379 395.244 114.091 394.948C113.811 394.652 113.403 394.504 112.867 394.504C112.323 394.504 111.907 394.652 111.619 394.948C111.339 395.244 111.151 395.636 111.055 396.124C110.967 396.604 110.923 397.192 110.923 397.888C110.923 398.608 110.967 399.212 111.055 399.7C111.151 400.188 111.339 400.58 111.619 400.876C111.907 401.172 112.323 401.32 112.867 401.32C113.403 401.32 113.811 401.172 114.091 400.876C114.379 400.58 114.567 400.188 114.655 399.7C114.751 399.212 114.799 398.608 114.799 397.888ZM117.378 397.888C117.378 396.512 117.602 395.44 118.05 394.672C118.498 393.896 119.282 393.508 120.402 393.508C121.514 393.508 122.294 393.896 122.742 394.672C123.19 395.44 123.414 396.512 123.414 397.888C123.414 399.288 123.19 400.376 122.742 401.152C122.294 401.928 121.514 402.316 120.402 402.316C119.282 402.316 118.498 401.928 118.05 401.152C117.602 400.376 117.378 399.288 117.378 397.888ZM122.334 397.888C122.334 397.192 122.286 396.604 122.19 396.124C122.102 395.636 121.914 395.244 121.626 394.948C121.346 394.652 120.938 394.504 120.402 394.504C119.858 394.504 119.442 394.652 119.154 394.948C118.874 395.244 118.686 395.636 118.59 396.124C118.502 396.604 118.458 397.192 118.458 397.888C118.458 398.608 118.502 399.212 118.59 399.7C118.686 400.188 118.874 400.58 119.154 400.876C119.442 401.172 119.858 401.32 120.402 401.32C120.938 401.32 121.346 401.172 121.626 400.876C121.914 400.58 122.102 400.188 122.19 399.7C122.286 399.212 122.334 398.608 122.334 397.888Z" fill="black"/>
<path d="M102.353 359.384V358.556L106.565 352.724H107.873V358.436H109.073V359.384H107.873V361.316H106.793V359.384H102.353ZM106.841 353.864L103.613 358.436H106.841V353.864ZM110.163 356.888C110.163 355.512 110.387 354.44 110.835 353.672C111.283 352.896 112.067 352.508 113.187 352.508C114.299 352.508 115.079 352.896 115.527 353.672C115.975 354.44 116.199 355.512 116.199 356.888C116.199 358.288 115.975 359.376 115.527 360.152C115.079 360.928 114.299 361.316 113.187 361.316C112.067 361.316 111.283 360.928 110.835 360.152C110.387 359.376 110.163 358.288 110.163 356.888ZM115.119 356.888C115.119 356.192 115.071 355.604 114.975 355.124C114.887 354.636 114.699 354.244 114.411 353.948C114.131 353.652 113.723 353.504 113.187 353.504C112.643 353.504 112.227 353.652 111.939 353.948C111.659 354.244 111.471 354.636 111.375 355.124C111.287 355.604 111.243 356.192 111.243 356.888C111.243 357.608 111.287 358.212 111.375 358.7C111.471 359.188 111.659 359.58 111.939 359.876C112.227 360.172 112.643 360.32 113.187 360.32C113.723 360.32 114.131 360.172 114.411 359.876C114.699 359.58 114.887 359.188 114.975 358.7C115.071 358.212 115.119 357.608 115.119 356.888ZM117.699 356.888C117.699 355.512 117.923 354.44 118.371 353.672C118.819 352.896 119.603 352.508 120.723 352.508C121.835 352.508 122.615 352.896 123.063 353.672C123.511 354.44 123.735 355.512 123.735 356.888C123.735 358.288 123.511 359.376 123.063 360.152C122.615 360.928 121.835 361.316 120.723 361.316C119.603 361.316 118.819 360.928 118.371 360.152C117.923 359.376 117.699 358.288 117.699 356.888ZM122.655 356.888C122.655 356.192 122.607 355.604 122.511 355.124C122.423 354.636 122.235 354.244 121.947 353.948C121.667 353.652 121.259 353.504 120.723 353.504C120.179 353.504 119.763 353.652 119.475 353.948C119.195 354.244 119.007 354.636 118.911 355.124C118.823 355.604 118.779 356.192 118.779 356.888C118.779 357.608 118.823 358.212 118.911 358.7C119.007 359.188 119.195 359.58 119.475 359.876C119.763 360.172 120.179 360.32 120.723 360.32C121.259 360.32 121.667 360.172 121.947 359.876C122.235 359.58 122.423 359.188 122.511 358.7C122.607 358.212 122.655 357.608 122.655 356.888Z" fill="black"/>
<path d="M107.416 314.697C107.24 313.809 106.692 313.365 105.772 313.365C105.06 313.365 104.528 313.641 104.176 314.193C103.824 314.737 103.652 315.637 103.66 316.893C103.844 316.477 104.148 316.153 104.572 315.921C105.004 315.681 105.484 315.561 106.012 315.561C106.836 315.561 107.492 315.817 107.98 316.329C108.476 316.841 108.724 317.549 108.724 318.453C108.724 318.997 108.616 319.485 108.4 319.917C108.192 320.349 107.872 320.693 107.44 320.949C107.016 321.205 106.5 321.333 105.892 321.333C105.068 321.333 104.424 321.149 103.96 320.781C103.496 320.413 103.172 319.905 102.988 319.257C102.804 318.609 102.712 317.809 102.712 316.857C102.712 313.921 103.736 312.453 105.784 312.453C106.568 312.453 107.184 312.665 107.632 313.089C108.08 313.513 108.344 314.049 108.424 314.697H107.416ZM105.784 316.485C105.44 316.485 105.116 316.557 104.812 316.701C104.508 316.837 104.26 317.049 104.068 317.337C103.884 317.617 103.792 317.961 103.792 318.369C103.792 318.977 103.968 319.473 104.32 319.857C104.672 320.233 105.176 320.421 105.832 320.421C106.392 320.421 106.836 320.249 107.164 319.905C107.5 319.553 107.668 319.081 107.668 318.489C107.668 317.865 107.508 317.377 107.188 317.025C106.868 316.665 106.4 316.485 105.784 316.485ZM110.198 316.881C110.198 315.505 110.422 314.433 110.87 313.665C111.318 312.889 112.102 312.501 113.222 312.501C114.334 312.501 115.114 312.889 115.562 313.665C116.01 314.433 116.234 315.505 116.234 316.881C116.234 318.281 116.01 319.369 115.562 320.145C115.114 320.921 114.334 321.309 113.222 321.309C112.102 321.309 111.318 320.921 110.87 320.145C110.422 319.369 110.198 318.281 110.198 316.881ZM115.154 316.881C115.154 316.185 115.106 315.597 115.01 315.117C114.922 314.629 114.734 314.237 114.446 313.941C114.166 313.645 113.758 313.497 113.222 313.497C112.678 313.497 112.262 313.645 111.974 313.941C111.694 314.237 111.506 314.629 111.41 315.117C111.322 315.597 111.278 316.185 111.278 316.881C111.278 317.601 111.322 318.205 111.41 318.693C111.506 319.181 111.694 319.573 111.974 319.869C112.262 320.165 112.678 320.313 113.222 320.313C113.758 320.313 114.166 320.165 114.446 319.869C114.734 319.573 114.922 319.181 115.01 318.693C115.106 318.205 115.154 317.601 115.154 316.881ZM117.733 316.881C117.733 315.505 117.957 314.433 118.405 313.665C118.853 312.889 119.637 312.501 120.757 312.501C121.869 312.501 122.649 312.889 123.097 313.665C123.545 314.433 123.769 315.505 123.769 316.881C123.769 318.281 123.545 319.369 123.097 320.145C122.649 320.921 121.869 321.309 120.757 321.309C119.637 321.309 118.853 320.921 118.405 320.145C117.957 319.369 117.733 318.281 117.733 316.881ZM122.689 316.881C122.689 316.185 122.641 315.597 122.545 315.117C122.457 314.629 122.269 314.237 121.981 313.941C121.701 313.645 121.293 313.497 120.757 313.497C120.213 313.497 119.797 313.645 119.509 313.941C119.229 314.237 119.041 314.629 118.945 315.117C118.857 315.597 118.813 316.185 118.813 316.881C118.813 317.601 118.857 318.205 118.945 318.693C119.041 319.181 119.229 319.573 119.509 319.869C119.797 320.165 120.213 320.313 120.757 320.313C121.293 320.313 121.701 320.165 121.981 319.869C122.269 319.573 122.457 319.181 122.545 318.693C122.641 318.205 122.689 317.601 122.689 316.881Z" fill="black"/>
<path d="M104.189 275.804C103.741 275.628 103.397 275.372 103.157 275.036C102.917 274.7 102.797 274.292 102.797 273.812C102.797 273.38 102.905 272.992 103.121 272.648C103.337 272.296 103.657 272.02 104.081 271.82C104.513 271.612 105.033 271.508 105.641 271.508C106.249 271.508 106.765 271.612 107.189 271.82C107.621 272.02 107.945 272.296 108.161 272.648C108.385 272.992 108.497 273.38 108.497 273.812C108.497 274.276 108.373 274.684 108.125 275.036C107.877 275.38 107.537 275.636 107.105 275.804C107.601 275.956 107.993 276.224 108.281 276.608C108.577 276.984 108.725 277.44 108.725 277.976C108.725 278.496 108.597 278.952 108.341 279.344C108.085 279.728 107.721 280.028 107.249 280.244C106.785 280.452 106.249 280.556 105.641 280.556C105.033 280.556 104.497 280.452 104.033 280.244C103.577 280.028 103.221 279.728 102.965 279.344C102.709 278.952 102.581 278.496 102.581 277.976C102.581 277.44 102.725 276.98 103.013 276.596C103.301 276.212 103.693 275.948 104.189 275.804ZM107.441 273.944C107.441 273.456 107.281 273.08 106.961 272.816C106.641 272.552 106.201 272.42 105.641 272.42C105.089 272.42 104.653 272.552 104.333 272.816C104.013 273.08 103.853 273.46 103.853 273.956C103.853 274.404 104.017 274.764 104.345 275.036C104.681 275.308 105.113 275.444 105.641 275.444C106.177 275.444 106.609 275.308 106.937 275.036C107.273 274.756 107.441 274.392 107.441 273.944ZM105.641 276.284C105.049 276.284 104.565 276.424 104.189 276.704C103.813 276.976 103.625 277.388 103.625 277.94C103.625 278.452 103.805 278.864 104.165 279.176C104.533 279.488 105.025 279.644 105.641 279.644C106.257 279.644 106.745 279.488 107.105 279.176C107.465 278.864 107.645 278.452 107.645 277.94C107.645 277.404 107.461 276.996 107.093 276.716C106.725 276.428 106.241 276.284 105.641 276.284ZM110.175 275.888C110.175 274.512 110.399 273.44 110.847 272.672C111.295 271.896 112.079 271.508 113.199 271.508C114.311 271.508 115.091 271.896 115.539 272.672C115.987 273.44 116.211 274.512 116.211 275.888C116.211 277.288 115.987 278.376 115.539 279.152C115.091 279.928 114.311 280.316 113.199 280.316C112.079 280.316 111.295 279.928 110.847 279.152C110.399 278.376 110.175 277.288 110.175 275.888ZM115.131 275.888C115.131 275.192 115.083 274.604 114.987 274.124C114.899 273.636 114.711 273.244 114.423 272.948C114.143 272.652 113.735 272.504 113.199 272.504C112.655 272.504 112.239 272.652 111.951 272.948C111.671 273.244 111.483 273.636 111.387 274.124C111.299 274.604 111.255 275.192 111.255 275.888C111.255 276.608 111.299 277.212 111.387 277.7C111.483 278.188 111.671 278.58 111.951 278.876C112.239 279.172 112.655 279.32 113.199 279.32C113.735 279.32 114.143 279.172 114.423 278.876C114.711 278.58 114.899 278.188 114.987 277.7C115.083 277.212 115.131 276.608 115.131 275.888ZM117.71 275.888C117.71 274.512 117.934 273.44 118.382 272.672C118.83 271.896 119.614 271.508 120.734 271.508C121.846 271.508 122.626 271.896 123.074 272.672C123.522 273.44 123.746 274.512 123.746 275.888C123.746 277.288 123.522 278.376 123.074 279.152C122.626 279.928 121.846 280.316 120.734 280.316C119.614 280.316 118.83 279.928 118.382 279.152C117.934 278.376 117.71 277.288 117.71 275.888ZM122.666 275.888C122.666 275.192 122.618 274.604 122.522 274.124C122.434 273.636 122.246 273.244 121.958 272.948C121.678 272.652 121.27 272.504 120.734 272.504C120.19 272.504 119.774 272.652 119.486 272.948C119.206 273.244 119.018 273.636 118.922 274.124C118.834 274.604 118.79 275.192 118.79 275.888C118.79 276.608 118.834 277.212 118.922 277.7C119.018 278.188 119.206 278.58 119.486 278.876C119.774 279.172 120.19 279.32 120.734 279.32C121.27 279.32 121.678 279.172 121.958 278.876C122.246 278.58 122.434 278.188 122.522 277.7C122.618 277.212 122.666 276.608 122.666 275.888Z" fill="black"/>
<path d="M98.4146 231.636V230.64H100.67V239.316H99.5666V231.636H98.4146ZM102.546 234.888C102.546 233.512 102.77 232.44 103.218 231.672C103.666 230.896 104.45 230.508 105.57 230.508C106.682 230.508 107.462 230.896 107.91 231.672C108.358 232.44 108.582 233.512 108.582 234.888C108.582 236.288 108.358 237.376 107.91 238.152C107.462 238.928 106.682 239.316 105.57 239.316C104.45 239.316 103.666 238.928 103.218 238.152C102.77 237.376 102.546 236.288 102.546 234.888ZM107.502 234.888C107.502 234.192 107.454 233.604 107.358 233.124C107.27 232.636 107.082 232.244 106.794 231.948C106.514 231.652 106.106 231.504 105.57 231.504C105.026 231.504 104.61 231.652 104.322 231.948C104.042 232.244 103.854 232.636 103.758 233.124C103.67 233.604 103.626 234.192 103.626 234.888C103.626 235.608 103.67 236.212 103.758 236.7C103.854 237.188 104.042 237.58 104.322 237.876C104.61 238.172 105.026 238.32 105.57 238.32C106.106 238.32 106.514 238.172 106.794 237.876C107.082 237.58 107.27 237.188 107.358 236.7C107.454 236.212 107.502 235.608 107.502 234.888ZM110.081 234.888C110.081 233.512 110.305 232.44 110.753 231.672C111.201 230.896 111.985 230.508 113.105 230.508C114.217 230.508 114.997 230.896 115.445 231.672C115.893 232.44 116.117 233.512 116.117 234.888C116.117 236.288 115.893 237.376 115.445 238.152C114.997 238.928 114.217 239.316 113.105 239.316C111.985 239.316 111.201 238.928 110.753 238.152C110.305 237.376 110.081 236.288 110.081 234.888ZM115.037 234.888C115.037 234.192 114.989 233.604 114.893 233.124C114.805 232.636 114.617 232.244 114.329 231.948C114.049 231.652 113.641 231.504 113.105 231.504C112.561 231.504 112.145 231.652 111.857 231.948C111.577 232.244 111.389 232.636 111.293 233.124C111.205 233.604 111.161 234.192 111.161 234.888C111.161 235.608 111.205 236.212 111.293 236.7C111.389 237.188 111.577 237.58 111.857 237.876C112.145 238.172 112.561 238.32 113.105 238.32C113.641 238.32 114.049 238.172 114.329 237.876C114.617 237.58 114.805 237.188 114.893 236.7C114.989 236.212 115.037 235.608 115.037 234.888ZM117.617 234.888C117.617 233.512 117.841 232.44 118.289 231.672C118.737 230.896 119.521 230.508 120.641 230.508C121.753 230.508 122.533 230.896 122.981 231.672C123.429 232.44 123.653 233.512 123.653 234.888C123.653 236.288 123.429 237.376 122.981 238.152C122.533 238.928 121.753 239.316 120.641 239.316C119.521 239.316 118.737 238.928 118.289 238.152C117.841 237.376 117.617 236.288 117.617 234.888ZM122.573 234.888C122.573 234.192 122.525 233.604 122.429 233.124C122.341 232.636 122.153 232.244 121.865 231.948C121.585 231.652 121.177 231.504 120.641 231.504C120.097 231.504 119.681 231.652 119.393 231.948C119.113 232.244 118.925 232.636 118.829 233.124C118.741 233.604 118.697 234.192 118.697 234.888C118.697 235.608 118.741 236.212 118.829 236.7C118.925 237.188 119.113 237.58 119.393 237.876C119.681 238.172 120.097 238.32 120.641 238.32C121.177 238.32 121.585 238.172 121.865 237.876C122.153 237.58 122.341 237.188 122.429 236.7C122.525 236.212 122.573 235.608 122.573 234.888Z" fill="black"/>
<path d="M91.5465 346.011C90.7945 346.787 89.8345 347.391 88.6665 347.823C87.4985 348.247 86.2465 348.459 84.9105 348.459C83.5425 348.459 82.2585 348.235 81.0585 347.787C79.8505 347.339 78.8625 346.687 78.0945 345.831V344.139H78.2505C79.0905 345.019 80.0985 345.691 81.2745 346.155C82.4505 346.611 83.6625 346.839 84.9105 346.839C86.1265 346.839 87.3025 346.623 88.4385 346.191C89.5665 345.751 90.5465 345.127 91.3785 344.319H91.5465V346.011ZM89.1825 339.155L86.3505 341.411H89.1825V343.091H80.3025V341.411H85.3545L82.5345 339.179V336.995L85.8705 339.923L89.1825 336.971V339.155ZM80.8065 324.887L89.1825 327.227V329.207L83.2185 330.779L89.1825 332.423L89.1945 334.391L80.8065 336.647V334.847L87.3105 333.371L80.8065 331.667V329.795L87.2745 328.187L80.8065 326.699V324.887ZM82.4385 320.046C82.4385 319.542 82.5505 319.094 82.7745 318.702C82.9905 318.31 83.3145 318.006 83.7465 317.79C84.1705 317.566 84.6825 317.454 85.2825 317.454H89.1825V319.134H85.5105C84.9825 319.134 84.5785 319.266 84.2985 319.53C84.0105 319.794 83.8665 320.154 83.8665 320.61C83.8665 321.074 84.0105 321.442 84.2985 321.714C84.5785 321.978 84.9825 322.11 85.5105 322.11H89.1825V323.79H80.3025V322.11H83.3625C83.0745 321.894 82.8505 321.606 82.6905 321.246C82.5225 320.886 82.4385 320.486 82.4385 320.046ZM91.5465 316.288H91.3785C90.5465 315.48 89.5665 314.86 88.4385 314.428C87.3025 313.988 86.1265 313.768 84.9105 313.768C83.6625 313.768 82.4505 314 81.2745 314.464C80.0985 314.92 79.0905 315.588 78.2505 316.468H78.0945V314.776C78.8625 313.92 79.8505 313.268 81.0585 312.82C82.2585 312.372 83.5425 312.148 84.9105 312.148C86.2465 312.148 87.4985 312.364 88.6665 312.796C89.8345 313.22 90.7945 313.82 91.5465 314.596V316.288Z" fill="black"/>
<path opacity="0.44" d="M135.183 315.812H824.683" stroke="#BDBDBD" stroke-dasharray="5 5"/>
<path opacity="0.44" d="M135.183 274.812H824.683" stroke="#BDBDBD" stroke-dasharray="5 5"/>
<path opacity="0.44" d="M135.183 234.812H824.683" stroke="#BDBDBD" stroke-dasharray="5 5"/>
<path d="M135.184 344.799L159.979 333.989L185.879 346.937L212.699 316.993L240.907 336.301L276.869 325.201L298.709 288.67L339.864 350.635L367.609 325.201L389.874 340.191L415.594 251.812L439.894 286.042L472.264 268.257L500.721 328.372L535.58 303.471L578.98 343.671L626.111 325.204L645.995 295.617L678.364 328.373L718.132 303.473L745.877 322.898L774.547 295.615L804.605 328.372L824.193 316.992V437.812L135.193 437.791L135.184 344.799Z" fill="#83B9F8"/>
<g filter="url(#filter1_d_110_368)">
<path d="M176.683 116.312H57.6826C39.1811 116.312 24.1826 131.311 24.1826 149.812C24.1826 168.314 39.1811 183.312 57.6826 183.312H176.683C195.184 183.312 210.183 168.314 210.183 149.812C210.183 131.311 195.184 116.312 176.683 116.312Z" fill="white"/>
</g>
<g filter="url(#filter2_d_110_368)">
<path d="M34.1826 149.312C34.1826 134.953 45.8232 123.312 60.1826 123.312C74.542 123.312 86.1826 134.953 86.1826 149.312V150.312C86.1826 164.672 74.542 176.312 60.1826 176.312C45.8232 176.312 34.1826 164.672 34.1826 150.312V149.312Z" fill="#EBF4FF"/>
</g>
<path d="M97.6987 133.393C97.6987 134.089 97.4587 134.669 96.9787 135.133C96.5067 135.589 95.7827 135.817 94.8067 135.817H93.1987V139.309H92.1067V130.945H94.8067C95.7507 130.945 96.4667 131.173 96.9547 131.629C97.4507 132.085 97.6987 132.673 97.6987 133.393ZM94.8067 134.917C95.4147 134.917 95.8627 134.785 96.1507 134.521C96.4387 134.257 96.5827 133.881 96.5827 133.393C96.5827 132.361 95.9907 131.845 94.8067 131.845H93.1987V134.917H94.8067ZM101.924 139.417C101.308 139.417 100.748 139.277 100.244 138.997C99.7479 138.717 99.3559 138.321 99.0679 137.809C98.7879 137.289 98.6479 136.689 98.6479 136.009C98.6479 135.337 98.7919 134.745 99.0799 134.233C99.3759 133.713 99.7759 133.317 100.28 133.045C100.784 132.765 101.348 132.625 101.972 132.625C102.596 132.625 103.16 132.765 103.664 133.045C104.168 133.317 104.564 133.709 104.852 134.221C105.148 134.733 105.296 135.329 105.296 136.009C105.296 136.689 105.144 137.289 104.84 137.809C104.544 138.321 104.14 138.717 103.628 138.997C103.116 139.277 102.548 139.417 101.924 139.417ZM101.924 138.457C102.316 138.457 102.684 138.365 103.028 138.181C103.372 137.997 103.648 137.721 103.856 137.353C104.072 136.985 104.18 136.537 104.18 136.009C104.18 135.481 104.076 135.033 103.868 134.665C103.66 134.297 103.388 134.025 103.052 133.849C102.716 133.665 102.352 133.573 101.96 133.573C101.56 133.573 101.192 133.665 100.856 133.849C100.528 134.025 100.264 134.297 100.064 134.665C99.8639 135.033 99.7639 135.481 99.7639 136.009C99.7639 136.545 99.8599 136.997 100.052 137.365C100.252 137.733 100.516 138.009 100.844 138.193C101.172 138.369 101.532 138.457 101.924 138.457ZM115.492 132.733L113.44 139.309H112.312L110.728 134.089L109.144 139.309H108.016L105.952 132.733H107.068L108.58 138.253L110.212 132.733H111.328L112.924 138.265L114.412 132.733H115.492ZM122.575 135.769C122.575 135.977 122.563 136.197 122.539 136.429H117.283C117.323 137.077 117.543 137.585 117.943 137.953C118.351 138.313 118.843 138.493 119.419 138.493C119.891 138.493 120.283 138.385 120.595 138.169C120.915 137.945 121.139 137.649 121.267 137.281H122.443C122.267 137.913 121.915 138.429 121.387 138.829C120.859 139.221 120.203 139.417 119.419 139.417C118.795 139.417 118.235 139.277 117.739 138.997C117.251 138.717 116.867 138.321 116.587 137.809C116.307 137.289 116.167 136.689 116.167 136.009C116.167 135.329 116.303 134.733 116.575 134.221C116.847 133.709 117.227 133.317 117.715 133.045C118.211 132.765 118.779 132.625 119.419 132.625C120.043 132.625 120.595 132.761 121.075 133.033C121.555 133.305 121.923 133.681 122.179 134.161C122.443 134.633 122.575 135.169 122.575 135.769ZM121.447 135.541C121.447 135.125 121.355 134.769 121.171 134.473C120.987 134.169 120.735 133.941 120.415 133.789C120.103 133.629 119.755 133.549 119.371 133.549C118.819 133.549 118.347 133.725 117.955 134.077C117.571 134.429 117.351 134.917 117.295 135.541H121.447ZM125.109 133.801C125.301 133.425 125.573 133.133 125.925 132.925C126.285 132.717 126.721 132.613 127.233 132.613V133.741H126.945C125.721 133.741 125.109 134.405 125.109 135.733V139.309H124.017V132.733H125.109V133.801Z" fill="black"/>
<path d="M93.1225 166.154C94.4025 165.087 95.4225 164.201 96.1825 163.494C96.9425 162.774 97.5759 162.027 98.0825 161.254C98.5892 160.481 98.8425 159.721 98.8425 158.974C98.8425 158.294 98.6825 157.761 98.3625 157.374C98.0425 156.987 97.5492 156.794 96.8825 156.794C96.2159 156.794 95.7025 157.021 95.3425 157.474C94.9825 157.914 94.7959 158.521 94.7825 159.294H92.0625C92.1159 157.694 92.5892 156.481 93.4825 155.654C94.3892 154.827 95.5359 154.414 96.9225 154.414C98.4425 154.414 99.6092 154.821 100.423 155.634C101.236 156.434 101.643 157.494 101.643 158.814C101.643 159.854 101.363 160.847 100.803 161.794C100.243 162.741 99.6025 163.567 98.8825 164.274C98.1625 164.967 97.2225 165.807 96.0625 166.794H101.963V169.114H92.0825V167.034L93.1225 166.154ZM104.607 166.154C105.887 165.087 106.907 164.201 107.667 163.494C108.427 162.774 109.06 162.027 109.567 161.254C110.074 160.481 110.327 159.721 110.327 158.974C110.327 158.294 110.167 157.761 109.847 157.374C109.527 156.987 109.034 156.794 108.367 156.794C107.7 156.794 107.187 157.021 106.827 157.474C106.467 157.914 106.28 158.521 106.267 159.294H103.547C103.6 157.694 104.074 156.481 104.967 155.654C105.874 154.827 107.02 154.414 108.407 154.414C109.927 154.414 111.094 154.821 111.907 155.634C112.72 156.434 113.127 157.494 113.127 158.814C113.127 159.854 112.847 160.847 112.287 161.794C111.727 162.741 111.087 163.567 110.367 164.274C109.647 164.967 108.707 165.807 107.547 166.794H113.447V169.114H103.567V167.034L104.607 166.154ZM115.211 161.834C115.211 159.527 115.625 157.721 116.451 156.414C117.291 155.107 118.678 154.454 120.611 154.454C122.545 154.454 123.925 155.107 124.751 156.414C125.591 157.721 126.011 159.527 126.011 161.834C126.011 164.154 125.591 165.974 124.751 167.294C123.925 168.614 122.545 169.274 120.611 169.274C118.678 169.274 117.291 168.614 116.451 167.294C115.625 165.974 115.211 164.154 115.211 161.834ZM123.251 161.834C123.251 160.847 123.185 160.021 123.051 159.354C122.931 158.674 122.678 158.121 122.291 157.694C121.918 157.267 121.358 157.054 120.611 157.054C119.865 157.054 119.298 157.267 118.911 157.694C118.538 158.121 118.285 158.674 118.151 159.354C118.031 160.021 117.971 160.847 117.971 161.834C117.971 162.847 118.031 163.701 118.151 164.394C118.271 165.074 118.525 165.627 118.911 166.054C119.298 166.467 119.865 166.674 120.611 166.674C121.358 166.674 121.925 166.467 122.311 166.054C122.698 165.627 122.951 165.074 123.071 164.394C123.191 163.701 123.251 162.847 123.251 161.834ZM139.787 169.314L136.027 164.594V169.314H133.227V154.514H136.027V162.934L139.747 158.234H143.387L138.507 163.794L143.427 169.314H139.787ZM163.566 155.354L159.666 169.314H156.366L153.746 159.374L151.006 169.314L147.726 169.334L143.966 155.354H146.966L149.426 166.194L152.266 155.354H155.386L158.066 166.134L160.546 155.354H163.566Z" fill="black"/>
<mask id="mask0_110_368" style="mask-type:luminance" maskUnits="userSpaceOnUse" x="47" y="137" width="26" height="26">
<path d="M72.1826 137.312H47.1826V162.312H72.1826V137.312Z" fill="white"/>
</mask>
<g mask="url(#mask0_110_368)">
<path d="M68.7124 147.672C68.5871 147.385 68.3039 147.2 67.9913 147.2H61.4475L64.5995 138.364C64.7251 138.012 64.5854 137.619 64.2652 137.426C63.9448 137.232 63.5325 137.291 63.2788 137.566L50.7954 151.102C50.5835 151.332 50.5276 151.666 50.6532 151.952C50.7785 152.239 51.0617 152.424 51.3743 152.424H55.6285C56.0634 152.424 56.4159 152.071 56.4159 151.636C56.4159 151.201 56.0634 150.849 55.6285 150.849H53.1715L61.8187 141.472L59.5888 147.723C59.5029 147.964 59.5434 148.232 59.691 148.441C59.8386 148.651 60.0826 148.775 60.3387 148.775H66.194L57.5481 158.151L59.7783 151.901C59.8644 151.66 59.8278 151.392 59.6802 151.182C59.5326 150.973 59.2927 150.849 59.0367 150.849H59.0289C58.6588 150.849 58.3512 151.104 58.2677 151.448L54.7667 161.26C54.6409 161.612 54.7806 162.004 55.1008 162.198C55.2273 162.275 55.3682 162.312 55.508 162.312C55.722 162.312 55.9337 162.224 56.0872 162.058L68.57 148.521C68.782 148.292 68.8379 147.958 68.7124 147.672Z" fill="#3179CC"/>
</g>
<defs>
<filter id="filter0_d_110_368" x="44.1826" y="161.312" width="826" height="344" filterUnits="userSpaceOnUse" color-interpolation-filters="sRGB">
<feFlood flood-opacity="0" result="BackgroundImageFix"/>
<feColorMatrix in="SourceAlpha" type="matrix" values="0 0 0 0 0 0 0 0 0 0 0 0 0 0 0 0 0 0 127 0" result="hardAlpha"/>
<feOffset dy="10"/>
<feGaussianBlur stdDeviation="10"/>
<feComposite in2="hardAlpha" operator="out"/>
<feColorMatrix type="matrix" values="0 0 0 0 0 0 0 0 0 0 0 0 0 0 0 0 0 0 0.25 0"/>
<feBlend mode="normal" in2="BackgroundImageFix" result="effect1_dropShadow_110_368"/>
<feBlend mode="normal" in="SourceGraphic" in2="effect1_dropShadow_110_368" result="shape"/>
</filter>
<filter id="filter1_d_110_368" x="14.1826" y="110.312" width="206" height="87" filterUnits="userSpaceOnUse" color-interpolation-filters="sRGB">
<feFlood flood-opacity="0" result="BackgroundImageFix"/>
<feColorMatrix in="SourceAlpha" type="matrix" values="0 0 0 0 0 0 0 0 0 0 0 0 0 0 0 0 0 0 127 0" result="hardAlpha"/>
<feOffset dy="4"/>
<feGaussianBlur stdDeviation="5"/>
<feComposite in2="hardAlpha" operator="out"/>
<feColorMatrix type="matrix" values="0 0 0 0 0 0 0 0 0 0 0 0 0 0 0 0 0 0 0.25 0"/>
<feBlend mode="normal" in2="BackgroundImageFix" result="effect1_dropShadow_110_368"/>
<feBlend mode="normal" in="SourceGraphic" in2="effect1_dropShadow_110_368" result="shape"/>
</filter>
<filter id="filter2_d_110_368" x="24.1826" y="117.312" width="72" height="73" filterUnits="userSpaceOnUse" color-interpolation-filters="sRGB">
<feFlood flood-opacity="0" result="BackgroundImageFix"/>
<feColorMatrix in="SourceAlpha" type="matrix" values="0 0 0 0 0 0 0 0 0 0 0 0 0 0 0 0 0 0 127 0" result="hardAlpha"/>
<feOffset dy="4"/>
<feGaussianBlur stdDeviation="5"/>
<feComposite in2="hardAlpha" operator="out"/>
<feColorMatrix type="matrix" values="0 0 0 0 0 0 0 0 0 0 0 0 0 0 0 0 0 0 0.25 0"/>
<feBlend mode="normal" in2="BackgroundImageFix" result="effect1_dropShadow_110_368"/>
<feBlend mode="normal" in="SourceGraphic" in2="effect1_dropShadow_110_368" result="shape"/>
</filter>
</defs>
</svg>
