<svg width="65" height="65" viewBox="0 0 65 65" fill="none" xmlns="http://www.w3.org/2000/svg">
<g clip-path="url(#clip0_70_4171)">
<path d="M36.0421 31.4414C36.1621 31.4862 36.2891 31.5091 36.4171 31.5089H48.5046C48.7824 31.5089 49.0489 31.3986 49.2453 31.2021C49.4418 31.0057 49.5521 30.7392 49.5521 30.4614C49.5521 30.1836 49.4418 29.9172 49.2453 29.7207C49.0489 29.5243 48.7824 29.4139 48.5046 29.4139H36.4171C36.3014 29.4143 36.1865 29.4337 36.0771 29.4714C35.9137 28.8151 35.5802 28.2135 35.1102 27.7272C34.6402 27.2409 34.0503 26.887 33.4 26.7013C32.7496 26.5156 32.0618 26.5046 31.4059 26.6695C30.75 26.8343 30.1491 27.1691 29.6638 27.6402C29.1785 28.1113 28.8259 28.7019 28.6417 29.3527C28.4574 30.0034 28.4479 30.6912 28.6142 31.3468C28.7804 32.0024 29.1165 32.6025 29.5887 33.0868C30.0608 33.5711 30.6522 33.9223 31.3034 34.1052C31.3034 34.1439 31.2971 34.1827 31.2971 34.2214V46.3089C31.2971 46.5867 31.4075 46.8532 31.6039 47.0496C31.8004 47.2461 32.0668 47.3564 32.3446 47.3564C32.6224 47.3564 32.8889 47.2461 33.0853 47.0496C33.2818 46.8532 33.3921 46.5867 33.3921 46.3089V34.2214C33.3921 34.1827 33.3921 34.1439 33.3859 34.1052C34.0189 33.9244 34.5953 33.5847 35.0602 33.1185C35.5251 32.6523 35.8631 32.075 36.0421 31.4414ZM32.3384 32.1539C31.9923 32.1539 31.6539 32.0513 31.3661 31.859C31.0783 31.6667 30.854 31.3934 30.7216 31.0736C30.5891 30.7539 30.5545 30.402 30.622 30.0625C30.6895 29.7231 30.8562 29.4112 31.1009 29.1665C31.3457 28.9218 31.6575 28.7551 31.997 28.6876C32.3364 28.62 32.6883 28.6547 33.0081 28.7871C33.3278 28.9196 33.6011 29.1439 33.7934 29.4317C33.9857 29.7195 34.0884 30.0578 34.0884 30.4039C34.0884 30.8681 33.904 31.3132 33.5758 31.6414C33.2476 31.9696 32.8025 32.1539 32.3384 32.1539Z" fill="url(#paint0_linear_70_4171)"/>
<path d="M53.3923 9.30909C47.8062 3.72297 40.2298 0.584717 32.3298 0.584717C24.4299 0.584717 16.8535 3.72297 11.2673 9.30909C5.68122 14.8952 2.54297 22.4716 2.54297 30.3716C2.54297 38.2716 5.68122 45.848 11.2673 51.4341C14.0272 54.2083 17.31 56.4074 20.9256 57.9043C24.5413 59.4011 28.4179 60.1658 32.3311 60.1541C34.3912 60.1547 36.4458 59.9428 38.4623 59.5216C38.5998 59.4964 38.7308 59.4439 38.8477 59.3673C38.9646 59.2907 39.0649 59.1915 39.1429 59.0755C39.2208 58.9595 39.2747 58.8291 39.3015 58.6919C39.3283 58.5547 39.3273 58.4136 39.2987 58.2768C39.2701 58.14 39.2144 58.0104 39.1349 57.8954C39.0554 57.7805 38.9537 57.6826 38.8359 57.6076C38.718 57.5326 38.5862 57.4819 38.4485 57.4585C38.3107 57.4352 38.1696 57.4396 38.0336 57.4716C36.4965 57.7914 34.9351 57.9809 33.3661 58.0378V51.3978C33.3661 51.12 33.2557 50.8536 33.0593 50.6571C32.8628 50.4607 32.5964 50.3503 32.3186 50.3503C32.0408 50.3503 31.7743 50.4607 31.5779 50.6571C31.3815 50.8536 31.2711 51.12 31.2711 51.3978V58.0366C16.8311 57.4903 5.19734 45.8428 4.66359 31.4053H11.3023C11.5802 31.4053 11.8466 31.295 12.043 31.0985C12.2395 30.9021 12.3498 30.6357 12.3498 30.3578C12.3498 30.08 12.2395 29.8136 12.043 29.6171C11.8466 29.4207 11.5802 29.3103 11.3023 29.3103H4.66359C5.20609 14.8753 16.8573 3.23534 31.2961 2.70159V9.34159C31.2961 9.6194 31.4065 9.88584 31.6029 10.0823C31.7993 10.2787 32.0658 10.3891 32.3436 10.3891C32.6214 10.3891 32.8878 10.2787 33.0843 10.0823C33.2807 9.88584 33.3911 9.6194 33.3911 9.34159V2.70284C47.8311 3.24909 59.4648 14.8966 59.9986 29.3353H53.3598C53.082 29.3353 52.8156 29.4457 52.6191 29.6421C52.4227 29.8386 52.3123 30.105 52.3123 30.3828C52.3123 30.6607 52.4227 30.9271 52.6191 31.1235C52.8156 31.32 53.082 31.4303 53.3598 31.4303H59.9986C59.9382 33.0489 59.737 34.6592 59.3973 36.2428C59.365 36.3785 59.3601 36.5193 59.3829 36.6569C59.4057 36.7945 59.4557 36.9261 59.5301 37.0441C59.6044 37.1621 59.7016 37.2641 59.8159 37.344C59.9302 37.424 60.0593 37.4803 60.1956 37.5097C60.332 37.5391 60.4728 37.5409 60.6099 37.5151C60.7469 37.4894 60.8775 37.4365 60.9939 37.3596C61.1102 37.2827 61.21 37.1833 61.2875 37.0673C61.3649 36.9513 61.4184 36.821 61.4448 36.6841C61.8915 34.6096 62.1165 32.4936 62.1161 30.3716C62.1269 26.4584 61.3614 22.5819 59.864 18.9665C58.3666 15.3511 56.1669 12.0686 53.3923 9.30909Z" fill="url(#paint1_linear_70_4171)"/>
<path d="M22.3963 11.0652L21.2151 9.01892C21.0762 8.77824 20.8473 8.60259 20.5789 8.53062C20.3105 8.45865 20.0245 8.49626 19.7838 8.63517C19.5431 8.77408 19.3675 9.00291 19.2955 9.27132C19.2235 9.53973 19.2612 9.82573 19.4001 10.0664L20.5813 12.1127C20.6484 12.2349 20.7393 12.3426 20.8485 12.4293C20.9578 12.516 21.0833 12.58 21.2176 12.6175C21.3519 12.655 21.4924 12.6654 21.6308 12.6479C21.7692 12.6304 21.9027 12.5855 22.0235 12.5158C22.1442 12.446 22.2499 12.3528 22.3342 12.2417C22.4185 12.1306 22.4797 12.0037 22.5143 11.8686C22.5489 11.7335 22.5562 11.5928 22.5357 11.4549C22.5153 11.3169 22.4674 11.1844 22.3951 11.0652H22.3963Z" fill="url(#paint2_linear_70_4171)"/>
<path d="M14.0806 18.6211L12.0344 17.4399C11.9151 17.3675 11.7826 17.3197 11.6447 17.2992C11.5067 17.2787 11.366 17.286 11.2309 17.3206C11.0958 17.3552 10.969 17.4165 10.8578 17.5008C10.7467 17.5851 10.6535 17.6907 10.5838 17.8115C10.514 17.9323 10.4691 18.0657 10.4516 18.2041C10.4341 18.3425 10.4445 18.483 10.482 18.6173C10.5196 18.7516 10.5836 18.8771 10.6703 18.9864C10.7569 19.0957 10.8646 19.1865 10.9869 19.2536L13.0331 20.4361C13.2738 20.575 13.5598 20.6126 13.8282 20.5407C14.0966 20.4687 14.3254 20.2931 14.4644 20.0524C14.6033 19.8117 14.6409 19.5257 14.5689 19.2573C14.4969 18.9889 14.3213 18.76 14.0806 18.6211Z" fill="url(#paint3_linear_70_4171)"/>
<path d="M51.111 20.5761C51.2944 20.5762 51.4746 20.5279 51.6335 20.4361L53.6797 19.2536C53.802 19.1865 53.9096 19.0957 53.9963 18.9864C54.083 18.8771 54.147 18.7516 54.1846 18.6173C54.2221 18.483 54.2324 18.3425 54.215 18.2041C54.1975 18.0657 54.1526 17.9323 54.0828 17.8115C54.0131 17.6907 53.9199 17.5851 53.8088 17.5008C53.6976 17.4165 53.5708 17.3552 53.4357 17.3206C53.3006 17.286 53.1599 17.2787 53.0219 17.2992C52.884 17.3197 52.7515 17.3675 52.6322 17.4399L50.581 18.6211C50.381 18.7364 50.2247 18.9145 50.1364 19.1277C50.0481 19.3409 50.0326 19.5774 50.0925 19.8003C50.1523 20.0232 50.2842 20.2201 50.4674 20.3604C50.6507 20.5007 50.8752 20.5765 51.106 20.5761H51.111Z" fill="url(#paint4_linear_70_4171)"/>
<path d="M13.0282 40.3031L10.982 41.4856C10.8597 41.5527 10.7521 41.6436 10.6654 41.7529C10.5787 41.8621 10.5147 41.9876 10.4771 42.1219C10.4396 42.2563 10.4293 42.3967 10.4467 42.5351C10.4642 42.6735 10.5091 42.807 10.5789 42.9278C10.6486 43.0486 10.7418 43.1542 10.8529 43.2385C10.9641 43.3228 11.0909 43.384 11.226 43.4186C11.3611 43.4533 11.5018 43.4605 11.6398 43.4401C11.7777 43.4196 11.9102 43.3718 12.0295 43.2994L14.0807 42.1181C14.1999 42.0494 14.3044 41.9578 14.3881 41.8486C14.4719 41.7395 14.5334 41.6149 14.569 41.482C14.6047 41.3491 14.6138 41.2105 14.5958 41.074C14.5779 40.9376 14.5333 40.8061 14.4645 40.6869C14.3957 40.5677 14.3041 40.4632 14.195 40.3795C14.0858 40.2957 13.9612 40.2342 13.8283 40.1986C13.6954 40.163 13.5568 40.1538 13.4204 40.1718C13.284 40.1897 13.1524 40.2344 13.0332 40.3031H13.0282Z" fill="url(#paint5_linear_70_4171)"/>
<path d="M43.1723 12.6364C43.3565 12.637 43.5376 12.5888 43.6971 12.4968C43.8567 12.4048 43.9892 12.2723 44.081 12.1127L45.2635 10.0664C45.4024 9.82573 45.4401 9.53973 45.3681 9.27132C45.2961 9.00291 45.1205 8.77408 44.8798 8.63517C44.6391 8.49626 44.3531 8.45865 44.0847 8.53062C43.8163 8.60259 43.5875 8.77824 43.4485 9.01892L42.2673 11.0652C42.1754 11.2243 42.127 11.4049 42.127 11.5887C42.1269 11.7725 42.1752 11.9531 42.2671 12.1123C42.3589 12.2715 42.491 12.4037 42.6501 12.4957C42.8092 12.5877 42.9897 12.6363 43.1735 12.6364H43.1723Z" fill="url(#paint6_linear_70_4171)"/>
<path d="M22.0119 48.2412C21.8927 48.1722 21.7612 48.1274 21.6247 48.1094C21.4882 48.0913 21.3496 48.1004 21.2166 48.136C21.0836 48.1717 20.959 48.2332 20.8499 48.3171C20.7407 48.401 20.6492 48.5056 20.5806 48.625L19.3981 50.6712C19.2592 50.9119 19.2216 51.1979 19.2936 51.4663C19.3655 51.7347 19.5412 51.9635 19.7819 52.1025C20.0225 52.2414 20.3086 52.279 20.577 52.207C20.8454 52.135 21.0742 51.9594 21.2131 51.7187L22.3944 49.6725C22.4632 49.5534 22.508 49.4219 22.526 49.2855C22.5441 49.1491 22.5351 49.0105 22.4996 48.8776C22.464 48.7447 22.4027 48.6201 22.319 48.5109C22.2353 48.4017 22.131 48.3101 22.0119 48.2412Z" fill="url(#paint7_linear_70_4171)"/>
<path d="M59.8754 51.3328H55.9879V37.0066C55.9876 36.6998 55.8655 36.4057 55.6484 36.1889C55.4314 35.9721 55.1372 35.8503 54.8304 35.8503H45.1741C44.8675 35.8507 44.5734 35.9726 44.3565 36.1893C44.1395 36.406 44.0173 36.6999 44.0167 37.0066V51.3328H40.1292C39.9054 51.333 39.6865 51.3981 39.499 51.5201C39.3114 51.6421 39.1633 51.8158 39.0724 52.0203C38.9815 52.2248 38.9519 52.4512 38.987 52.6721C39.0222 52.8931 39.1206 53.0991 39.2704 53.2653L49.1454 64.2003C49.2539 64.3206 49.3863 64.4167 49.5342 64.4826C49.6822 64.5485 49.8422 64.5826 50.0042 64.5828C50.166 64.5826 50.3259 64.5486 50.4738 64.4829C50.6217 64.4173 50.7542 64.3215 50.8629 64.2016L60.7379 53.2653C60.8879 53.0989 60.9864 52.8925 61.0214 52.6712C61.0564 52.4499 61.0265 52.2232 60.9352 52.0186C60.8438 51.814 60.6951 51.6403 60.507 51.5185C60.3189 51.3968 60.0995 51.3323 59.8754 51.3328ZM50.0004 62.0253L42.2379 53.4291H46.1129V37.9453H53.8929V53.4291H57.7679L50.0004 62.0253Z" fill="url(#paint8_linear_70_4171)"/>
</g>
<defs>
<linearGradient id="paint0_linear_70_4171" x1="39.2147" y1="27.7435" x2="39.2147" y2="47.3565" gradientUnits="userSpaceOnUse">
<stop stop-color="#3284FF"/>
<stop offset="1" stop-color="#01D1FF"/>
</linearGradient>
<linearGradient id="paint1_linear_70_4171" x1="32.8687" y1="3.9924" x2="32.8687" y2="60.1543" gradientUnits="userSpaceOnUse">
<stop stop-color="#3284FF"/>
<stop offset="1" stop-color="#01D1FF"/>
</linearGradient>
<linearGradient id="paint2_linear_70_4171" x1="20.9332" y1="8.73292" x2="20.9332" y2="12.6562" gradientUnits="userSpaceOnUse">
<stop stop-color="#3284FF"/>
<stop offset="1" stop-color="#01D1FF"/>
</linearGradient>
<linearGradient id="paint3_linear_70_4171" x1="12.5617" y1="17.476" x2="12.5617" y2="20.5764" gradientUnits="userSpaceOnUse">
<stop stop-color="#3284FF"/>
<stop offset="1" stop-color="#01D1FF"/>
</linearGradient>
<linearGradient id="paint4_linear_70_4171" x1="52.1776" y1="17.4759" x2="52.1776" y2="20.5761" gradientUnits="userSpaceOnUse">
<stop stop-color="#3284FF"/>
<stop offset="1" stop-color="#01D1FF"/>
</linearGradient>
<linearGradient id="paint5_linear_70_4171" x1="12.5593" y1="40.351" x2="12.5593" y2="43.4514" gradientUnits="userSpaceOnUse">
<stop stop-color="#3284FF"/>
<stop offset="1" stop-color="#01D1FF"/>
</linearGradient>
<linearGradient id="paint6_linear_70_4171" x1="43.7951" y1="8.73179" x2="43.7951" y2="12.6364" gradientUnits="userSpaceOnUse">
<stop stop-color="#3284FF"/>
<stop offset="1" stop-color="#01D1FF"/>
</linearGradient>
<linearGradient id="paint7_linear_70_4171" x1="20.9261" y1="48.3373" x2="20.9261" y2="52.2428" gradientUnits="userSpaceOnUse">
<stop stop-color="#3284FF"/>
<stop offset="1" stop-color="#01D1FF"/>
</linearGradient>
<linearGradient id="paint8_linear_70_4171" x1="50.2038" y1="37.494" x2="50.2038" y2="64.5829" gradientUnits="userSpaceOnUse">
<stop stop-color="#3284FF"/>
<stop offset="1" stop-color="#01D1FF"/>
</linearGradient>
<clipPath id="clip0_70_4171">
<rect width="64" height="64" fill="white" transform="translate(0.331055 0.584717)"/>
</clipPath>
</defs>
</svg>
