<svg width="32" height="33" viewBox="0 0 32 33" fill="none" xmlns="http://www.w3.org/2000/svg">
<g clip-path="url(#clip0_370_7844)">
<g clip-path="url(#clip1_370_7844)">
<g clip-path="url(#clip2_370_7844)">
<path d="M20.2106 24.7393H11.6302C9.62765 24.7393 8 23.1116 8 21.1091V12.5286C8 10.5261 9.62765 8.89844 11.6302 8.89844H20.2106C22.2131 8.89844 23.8408 10.5261 23.8408 12.5286V21.1091C23.8408 23.1116 22.2131 24.7393 20.2106 24.7393ZM11.6302 10.8785C10.7206 10.8785 9.9801 11.619 9.9801 12.5286V21.1091C9.9801 22.0187 10.7206 22.7592 11.6302 22.7592H20.2106C21.1202 22.7592 21.8607 22.0187 21.8607 21.1091V12.5286C21.8607 11.619 21.1202 10.8785 20.2106 10.8785H11.6302Z" fill="white"/>
<path d="M19.8807 29.0302C19.3342 29.0302 18.8906 28.5866 18.8906 28.0401V24.0799C18.8906 23.5334 19.3342 23.0898 19.8807 23.0898C20.4272 23.0898 20.8707 23.5334 20.8707 24.0799V28.0401C20.8707 28.5866 20.4272 29.0302 19.8807 29.0302Z" fill="white"/>
<path d="M19.8804 32.6592C18.4244 32.6592 17.2402 31.4751 17.2402 30.019C17.2402 28.5631 18.4244 27.3789 19.8804 27.3789C21.3365 27.3789 22.5205 28.5631 22.5205 30.019C22.5205 31.4751 21.3365 32.6592 19.8804 32.6592ZM19.8804 29.359C19.5174 29.359 19.2203 29.6547 19.2203 30.019C19.2203 30.3834 19.5174 30.6791 19.8804 30.6791C20.2434 30.6791 20.5404 30.3834 20.5404 30.019C20.5404 29.6547 20.2434 29.359 19.8804 29.359Z" fill="white"/>
<path d="M11.9603 29.0302C11.4138 29.0302 10.9702 28.5866 10.9702 28.0401V24.0799C10.9702 23.5334 11.4138 23.0898 11.9603 23.0898C12.5068 23.0898 12.9503 23.5334 12.9503 24.0799V28.0401C12.9503 28.5866 12.5068 29.0302 11.9603 29.0302Z" fill="white"/>
<path d="M11.96 32.6592C10.5039 32.6592 9.31982 31.4751 9.31982 30.019C9.31982 28.5631 10.5039 27.3789 11.96 27.3789C13.4161 27.3789 14.6001 28.5631 14.6001 30.019C14.6001 31.4751 13.4161 32.6592 11.96 32.6592ZM11.96 29.359C11.597 29.359 11.2999 29.6547 11.2999 30.019C11.2999 30.3834 11.597 30.6791 11.96 30.6791C12.323 30.6791 12.62 30.3834 12.62 30.019C12.62 29.6547 12.323 29.359 11.96 29.359Z" fill="white"/>
<path d="M11.9603 10.5477C11.4138 10.5477 10.9702 10.1042 10.9702 9.55768V5.59747C10.9702 5.05097 11.4138 4.60742 11.9603 4.60742C12.5068 4.60742 12.9503 5.05097 12.9503 5.59747V9.55768C12.9503 10.1042 12.5068 10.5477 11.9603 10.5477Z" fill="white"/>
<path d="M11.96 6.25879C10.5039 6.25879 9.31982 5.07469 9.31982 3.61865C9.31982 2.16262 10.5039 0.978516 11.96 0.978516C13.4161 0.978516 14.6001 2.16262 14.6001 3.61865C14.6001 5.07469 13.4161 6.25879 11.96 6.25879ZM11.96 2.95862C11.597 2.95862 11.2999 3.25431 11.2999 3.61865C11.2999 3.98299 11.597 4.27869 11.96 4.27869C12.323 4.27869 12.62 3.98299 12.62 3.61865C12.62 3.25431 12.323 2.95862 11.96 2.95862Z" fill="white"/>
<path d="M19.8807 10.5477C19.3342 10.5477 18.8906 10.1042 18.8906 9.55768V5.59747C18.8906 5.05097 19.3342 4.60742 19.8807 4.60742C20.4272 4.60742 20.8707 5.05097 20.8707 5.59747V9.55768C20.8707 10.1042 20.4272 10.5477 19.8807 10.5477Z" fill="white"/>
<path d="M19.8804 6.25879C18.4244 6.25879 17.2402 5.07469 17.2402 3.61865C17.2402 2.16262 18.4244 0.978516 19.8804 0.978516C21.3365 0.978516 22.5205 2.16262 22.5205 3.61865C22.5205 5.07469 21.3365 6.25879 19.8804 6.25879ZM19.8804 2.95862C19.5174 2.95862 19.2203 3.25431 19.2203 3.61865C19.2203 3.98299 19.5174 4.27869 19.8804 4.27869C20.2434 4.27869 20.5404 3.98299 20.5404 3.61865C20.5404 3.25431 20.2434 2.95862 19.8804 2.95862Z" fill="white"/>
<path d="M8.65973 21.7692H4.69952C4.15302 21.7692 3.70947 21.3256 3.70947 20.7791C3.70947 20.2326 4.15302 19.7891 4.69952 19.7891H8.65973C9.20624 19.7891 9.64978 20.2326 9.64978 20.7791C9.64978 21.3256 9.20624 21.7692 8.65973 21.7692Z" fill="white"/>
<path d="M2.71973 23.4189C1.26369 23.4189 0.0795898 22.2349 0.0795898 20.7788C0.0795898 19.3228 1.26369 18.1387 2.71973 18.1387C4.17576 18.1387 5.35987 19.3228 5.35987 20.7788C5.35987 22.2349 4.17576 23.4189 2.71973 23.4189ZM2.71973 20.1188C2.35671 20.1188 2.05969 20.4145 2.05969 20.7788C2.05969 21.1431 2.35671 21.4388 2.71973 21.4388C3.08275 21.4388 3.37976 21.1431 3.37976 20.7788C3.37976 20.4145 3.08275 20.1188 2.71973 20.1188Z" fill="white"/>
<path d="M8.65973 13.8492H4.69952C4.15302 13.8492 3.70947 13.4057 3.70947 12.8592C3.70947 12.3127 4.15302 11.8691 4.69952 11.8691H8.65973C9.20624 11.8691 9.64978 12.3127 9.64978 12.8592C9.64978 13.4057 9.20624 13.8492 8.65973 13.8492Z" fill="white"/>
<path d="M2.71973 15.499C1.26369 15.499 0.0795898 14.315 0.0795898 12.8589C0.0795898 11.4029 1.26369 10.2188 2.71973 10.2188C4.17576 10.2188 5.35987 11.4029 5.35987 12.8589C5.35987 14.315 4.17576 15.499 2.71973 15.499ZM2.71973 12.1989C2.35671 12.1989 2.05969 12.4945 2.05969 12.8589C2.05969 13.2232 2.35671 13.5189 2.71973 13.5189C3.08275 13.5189 3.37976 13.2232 3.37976 12.8589C3.37976 12.4945 3.08275 12.1989 2.71973 12.1989Z" fill="white"/>
<path d="M27.1407 13.8492H23.1805C22.634 13.8492 22.1904 13.4057 22.1904 12.8592C22.1904 12.3127 22.634 11.8691 23.1805 11.8691H27.1407C27.6872 11.8691 28.1307 12.3127 28.1307 12.8592C28.1307 13.4057 27.6872 13.8492 27.1407 13.8492Z" fill="white"/>
<path d="M29.1211 15.499C27.6651 15.499 26.481 14.315 26.481 12.8589C26.481 11.4029 27.6651 10.2188 29.1211 10.2188C30.5772 10.2188 31.7612 11.4029 31.7612 12.8589C31.7612 14.315 30.5772 15.499 29.1211 15.499ZM29.1211 12.1989C28.7581 12.1989 28.4611 12.4945 28.4611 12.8589C28.4611 13.2232 28.7581 13.5189 29.1211 13.5189C29.4842 13.5189 29.7811 13.2232 29.7811 12.8589C29.7811 12.4945 29.4842 12.1989 29.1211 12.1989Z" fill="white"/>
<path d="M27.1407 21.7692H23.1805C22.634 21.7692 22.1904 21.3256 22.1904 20.7791C22.1904 20.2326 22.634 19.7891 23.1805 19.7891H27.1407C27.6872 19.7891 28.1307 20.2326 28.1307 20.7791C28.1307 21.3256 27.6872 21.7692 27.1407 21.7692Z" fill="white"/>
<path d="M29.1211 23.4189C27.6651 23.4189 26.481 22.2349 26.481 20.7788C26.481 19.3228 27.6651 18.1387 29.1211 18.1387C30.5772 18.1387 31.7612 19.3228 31.7612 20.7788C31.7612 22.2349 30.5772 23.4189 29.1211 23.4189ZM29.1211 20.1188C28.7581 20.1188 28.4611 20.4145 28.4611 20.7788C28.4611 21.1431 28.7581 21.4388 29.1211 21.4388C29.4842 21.4388 29.7811 21.1431 29.7811 20.7788C29.7811 20.4145 29.4842 20.1188 29.1211 20.1188Z" fill="white"/>
</g>
</g>
</g>
<defs>
<clipPath id="clip0_370_7844">
<rect width="31.6817" height="31.6817" fill="white" transform="translate(0.0791016 0.976562)"/>
</clipPath>
<clipPath id="clip1_370_7844">
<rect width="31.6817" height="31.6817" fill="white" transform="translate(0.0791016 0.976562)"/>
</clipPath>
<clipPath id="clip2_370_7844">
<rect width="31.6817" height="31.6817" fill="white" transform="translate(0.0791016 0.976562)"/>
</clipPath>
</defs>
</svg>
