<svg width="65" height="65" viewBox="0 0 65 65" fill="none" xmlns="http://www.w3.org/2000/svg">
<g clip-path="url(#clip0_147_69)">
<path d="M62.3314 7.31664C62.3396 7.2987 62.3446 7.28221 62.3475 7.27255C62.3512 7.26014 62.3516 7.25846 62.3527 7.25524L62.3529 7.25464C62.3753 7.19144 62.3889 7.12666 62.3939 7.05991C62.3951 7.05591 62.3966 7.05014 62.398 7.04368C62.4001 7.03353 62.4021 7.01998 62.4021 7.00402V3.00752C62.4021 1.87455 61.4809 0.953271 60.3479 0.953271H4.98726C3.85429 0.953271 2.93301 1.87455 2.93301 3.00752V7.00402C2.93301 7.01997 2.93505 7.03349 2.93715 7.04359C2.93851 7.05011 2.94006 7.05594 2.94119 7.05994C2.94619 7.12662 2.95985 7.19124 2.98202 7.2542L2.98206 7.25432C2.98292 7.25676 2.98341 7.25844 2.98465 7.26268C2.98534 7.26504 2.98626 7.26819 2.9876 7.2727C2.99052 7.2825 2.99556 7.29899 3.00371 7.31686C3.0363 7.38852 3.07979 7.46124 3.14176 7.52647L3.1418 7.5265L22.4809 27.8677C17.0833 31.2647 13.4871 37.2747 13.4871 44.1108C13.4871 54.6871 22.0913 63.2913 32.6676 63.2913C43.244 63.2913 51.8481 54.6871 51.8481 44.1108C51.8481 37.2777 48.2551 31.2702 42.8614 27.8723L62.1936 7.52634L62.1938 7.5262C62.2555 7.46105 62.299 7.38828 62.3314 7.31664ZM62.3314 7.31664C62.3315 7.31655 62.3315 7.31647 62.3315 7.31638L62.1949 7.25452L62.3313 7.3169C62.3313 7.31681 62.3314 7.31673 62.3314 7.31664ZM60.8855 6.24577H4.44938V3.00752C4.44938 2.71111 4.69073 2.46977 4.98713 2.46977H60.3478C60.6442 2.46977 60.8855 2.71111 60.8855 3.00752V6.24577ZM28.6558 47.4571L28.6558 47.4571C29.6003 48.3287 30.797 48.759 31.9901 48.759C33.3157 48.759 34.6385 48.2274 35.6065 47.1784C35.9058 46.8541 36.2569 46.2877 36.6312 45.5844C37.0076 44.8774 37.4137 44.0198 37.8215 43.1033C38.5984 41.3577 39.3843 39.3924 39.9862 37.8356C41.4384 39.5255 42.3235 41.7142 42.3235 44.1108C42.3235 44.5295 42.663 44.869 43.0818 44.869C43.5005 44.869 43.84 44.5295 43.84 44.1108C43.84 41.0454 42.5973 38.2661 40.5919 36.2459C40.8025 35.6848 40.9525 35.2766 41.0168 35.1007L41.0168 35.1006C41.1215 34.8134 41.0435 34.491 40.8187 34.2836C40.5939 34.0762 40.2663 34.0229 39.9883 34.1518C39.8028 34.2369 39.3523 34.4446 38.7314 34.7371C36.9836 33.6024 34.9027 32.9383 32.6676 32.9383C26.5069 32.9384 21.4951 37.9502 21.4951 44.1108C21.4951 44.5295 21.8347 44.869 22.2534 44.869C22.6721 44.869 23.0116 44.5295 23.0116 44.1108C23.0116 38.7865 27.3433 34.4548 32.6676 34.4548C34.2566 34.4548 35.7554 34.8433 37.0787 35.5265C35.5827 36.2506 33.7529 37.1637 32.1414 38.0463C31.2874 38.514 30.4931 38.9741 29.8415 39.3937C29.1934 39.811 28.6753 40.1953 28.383 40.5121C27.4927 41.4768 27.0307 42.7316 27.0824 44.0438C27.1342 45.3557 27.6931 46.5684 28.6558 47.4571ZM29.4974 41.5405L29.3871 41.4388L29.4974 41.5405C29.7261 41.2926 30.2021 40.9477 30.8555 40.5399C31.5042 40.1351 32.3137 39.6766 33.1971 39.2012C34.934 38.2664 36.95 37.2694 38.5755 36.491C38.6548 36.5513 38.7322 36.6102 38.8076 36.6709C38.1632 38.351 37.3307 40.4421 36.5371 42.2524C36.1322 43.1758 35.7382 44.0245 35.3849 44.7076C35.029 45.3957 34.7218 45.9009 34.4922 46.1499C33.2202 47.5282 31.0631 47.6152 29.6842 46.3428L29.5825 46.453L29.6842 46.3428C29.019 45.729 28.6332 44.892 28.5974 43.9842C28.5616 43.0757 28.8811 42.2083 29.4974 41.5405ZM50.3315 44.1108C50.3315 53.8506 42.4073 61.7748 32.6675 61.7748C22.9277 61.7748 15.0035 53.8506 15.0035 44.1108C15.0035 34.371 22.9277 26.447 32.6675 26.447C42.4073 26.447 50.3315 34.371 50.3315 44.1108ZM23.8358 27.092L5.45822 7.76227H59.8774L41.5069 27.096C38.8597 25.7152 35.854 24.9305 32.6675 24.9305C29.484 24.9305 26.4811 25.7137 23.8358 27.092ZM16.9979 44.1108C16.9979 52.7511 24.0272 59.7804 32.6675 59.7804C41.3078 59.7804 48.3371 52.7511 48.3371 44.1108C48.3371 35.4704 41.3078 28.4415 32.6675 28.4415C24.0272 28.4415 16.9979 35.4704 16.9979 44.1108ZM46.8206 44.1108C46.8206 51.9148 40.4715 58.2639 32.6675 58.2639C24.8635 58.2639 18.5144 51.9148 18.5144 44.1108C18.5144 36.307 24.8635 29.9579 32.6675 29.9579C40.4715 29.9579 46.8206 36.307 46.8206 44.1108Z" fill="#222325" stroke="#222325" stroke-width="0.3"/>
</g>
<defs>
<clipPath id="clip0_147_69">
<rect width="64" height="64" fill="white" transform="translate(0.668945 0.122803)"/>
</clipPath>
</defs>
</svg>
