<svg width="64" height="65" viewBox="0 0 64 65" fill="none" xmlns="http://www.w3.org/2000/svg">
<g clip-path="url(#clip0_147_87)">
<path d="M35.7101 30.9795C35.83 31.0243 35.9571 31.0472 36.0851 31.047H48.1726C48.4504 31.047 48.7168 30.9367 48.9133 30.7402C49.1097 30.5438 49.2201 30.2773 49.2201 29.9995C49.2201 29.7217 49.1097 29.4553 48.9133 29.2588C48.7168 29.0624 48.4504 28.952 48.1726 28.952H36.0851C35.9694 28.9524 35.8545 28.9718 35.7451 29.0095C35.5817 28.3532 35.2482 27.7516 34.7782 27.2653C34.3082 26.7789 33.7183 26.4251 33.0679 26.2394C32.4176 26.0537 31.7298 26.0427 31.0739 26.2076C30.4179 26.3724 29.8171 26.7072 29.3318 27.1783C28.8465 27.6493 28.4939 28.24 28.3096 28.8907C28.1254 29.5415 28.1159 30.2293 28.2821 30.8849C28.4484 31.5404 28.7845 32.1406 29.2566 32.6249C29.7288 33.1091 30.3202 33.4604 30.9713 33.6433C30.9713 33.682 30.9651 33.7208 30.9651 33.7595V45.847C30.9651 46.1248 31.0754 46.3913 31.2719 46.5877C31.4683 46.7842 31.7348 46.8945 32.0126 46.8945C32.2904 46.8945 32.5568 46.7842 32.7533 46.5877C32.9497 46.3913 33.0601 46.1248 33.0601 45.847V33.7595C33.0601 33.7208 33.0601 33.682 33.0538 33.6433C33.6869 33.4625 34.2633 33.1228 34.7282 32.6566C35.1931 32.1904 35.5311 31.6131 35.7101 30.9795ZM32.0063 31.692C31.6602 31.692 31.3219 31.5894 31.0341 31.3971C30.7463 31.2048 30.522 30.9315 30.3895 30.6117C30.2571 30.2919 30.2224 29.9401 30.29 29.6006C30.3575 29.2611 30.5242 28.9493 30.7689 28.7046C31.0136 28.4598 31.3255 28.2932 31.6649 28.2256C32.0044 28.1581 32.3563 28.1928 32.676 28.3252C32.9958 28.4577 33.2691 28.682 33.4614 28.9698C33.6537 29.2576 33.7563 29.5959 33.7563 29.942C33.7563 30.4061 33.572 30.8513 33.2438 31.1795C32.9156 31.5076 32.4705 31.692 32.0063 31.692Z" fill="#222325"/>
<path d="M53.0603 8.84718C47.4742 3.26105 39.8978 0.122803 31.9978 0.122803C24.0978 0.122803 16.5214 3.26105 10.9353 8.84718C5.34919 14.4333 2.21094 22.0097 2.21094 29.9097C2.21094 37.8096 5.34919 45.3861 10.9353 50.9722C13.6952 53.7464 16.978 55.9455 20.5936 57.4423C24.2092 58.9391 28.0859 59.7038 31.9991 59.6922C34.0591 59.6928 36.1138 59.4809 38.1303 59.0597C38.2678 59.0345 38.3988 58.982 38.5157 58.9054C38.6325 58.8288 38.7329 58.7295 38.8108 58.6136C38.8888 58.4976 38.9427 58.3671 38.9695 58.23C38.9962 58.0928 38.9953 57.9517 38.9667 57.8149C38.9381 57.6781 38.8824 57.5485 38.8029 57.4335C38.7234 57.3186 38.6217 57.2207 38.5038 57.1457C38.3859 57.0706 38.2542 57.02 38.1164 56.9966C37.9787 56.9732 37.8376 56.9777 37.7016 57.0097C36.1645 57.3295 34.6031 57.519 33.0341 57.5759V50.9359C33.0341 50.6581 32.9237 50.3917 32.7273 50.1952C32.5308 49.9988 32.2644 49.8884 31.9866 49.8884C31.7087 49.8884 31.4423 49.9988 31.2459 50.1952C31.0494 50.3917 30.9391 50.6581 30.9391 50.9359V57.5747C16.4991 57.0284 4.86531 45.3809 4.33156 30.9434H10.9703C11.2481 30.9434 11.5146 30.8331 11.711 30.6366C11.9074 30.4402 12.0178 30.1737 12.0178 29.8959C12.0178 29.6181 11.9074 29.3517 11.711 29.1552C11.5146 28.9588 11.2481 28.8484 10.9703 28.8484H4.33156C4.87406 14.4134 16.5253 2.77343 30.9641 2.23968V8.87968C30.9641 9.15749 31.0744 9.42393 31.2709 9.62037C31.4673 9.81681 31.7337 9.92718 32.0116 9.92718C32.2894 9.92718 32.5558 9.81681 32.7523 9.62037C32.9487 9.42393 33.0591 9.15749 33.0591 8.87968V2.24093C47.4991 2.78718 59.1328 14.4347 59.6666 28.8734H53.0278C52.75 28.8734 52.4836 28.9838 52.2871 29.1802C52.0907 29.3767 51.9803 29.6431 51.9803 29.9209C51.9803 30.1987 52.0907 30.4652 52.2871 30.6616C52.4836 30.8581 52.75 30.9684 53.0278 30.9684H59.6666C59.6061 32.587 59.405 34.1972 59.0653 35.7809C59.033 35.9166 59.0281 36.0574 59.0509 36.195C59.0736 36.3326 59.1237 36.4642 59.198 36.5822C59.2724 36.7002 59.3696 36.8022 59.4839 36.8821C59.5982 36.9621 59.7273 37.0184 59.8636 37.0478C59.9999 37.0771 60.1408 37.079 60.2778 37.0532C60.4149 37.0275 60.5455 36.9746 60.6618 36.8977C60.7782 36.8208 60.878 36.7214 60.9555 36.6054C61.0329 36.4894 61.0864 36.3591 61.1128 36.2222C61.5594 34.1477 61.7844 32.0317 61.7841 29.9097C61.7949 25.9965 61.0294 22.12 59.532 18.5046C58.0345 14.8892 55.8349 11.6067 53.0603 8.84718Z" fill="#222325"/>
<path d="M22.0662 10.6033L20.885 8.557C20.7461 8.31632 20.5172 8.14068 20.2488 8.06871C19.9804 7.99674 19.6944 8.03435 19.4537 8.17326C19.213 8.31216 19.0374 8.54099 18.9654 8.8094C18.8935 9.07781 18.9311 9.36382 19.07 9.6045L20.2512 11.6508C20.3183 11.773 20.4092 11.8807 20.5185 11.9674C20.6277 12.054 20.7532 12.118 20.8875 12.1556C21.0219 12.1931 21.1623 12.2035 21.3007 12.186C21.4391 12.1685 21.5726 12.1236 21.6934 12.0538C21.8142 11.9841 21.9198 11.8909 22.0041 11.7798C22.0884 11.6687 22.1496 11.5418 22.1842 11.4067C22.2189 11.2716 22.2261 11.1309 22.2057 10.9929C22.1852 10.855 22.1374 10.7225 22.065 10.6033H22.0662Z" fill="#222325"/>
<path d="M13.7466 18.1592L11.7004 16.978C11.5811 16.9056 11.4486 16.8578 11.3107 16.8373C11.1727 16.8168 11.032 16.8241 10.8969 16.8587C10.7618 16.8933 10.635 16.9546 10.5238 17.0388C10.4127 17.1231 10.3195 17.2288 10.2498 17.3496C10.18 17.4703 10.1351 17.6038 10.1176 17.7422C10.1002 17.8806 10.1105 18.0211 10.148 18.1554C10.1856 18.2897 10.2496 18.4152 10.3363 18.5245C10.423 18.6337 10.5306 18.7246 10.6529 18.7917L12.6991 19.9742C12.9398 20.1131 13.2258 20.1507 13.4942 20.0788C13.7626 20.0068 13.9915 19.8311 14.1304 19.5905C14.2693 19.3498 14.3069 19.0638 14.2349 18.7954C14.163 18.5269 13.9873 18.2981 13.7466 18.1592Z" fill="#222325"/>
<path d="M50.7809 20.1142C50.9643 20.1143 51.1446 20.066 51.3034 19.9742L53.3497 18.7917C53.4719 18.7246 53.5796 18.6337 53.6663 18.5245C53.7529 18.4152 53.8169 18.2897 53.8545 18.1554C53.892 18.0211 53.9024 17.8806 53.8849 17.7422C53.8674 17.6038 53.8225 17.4703 53.7527 17.3496C53.683 17.2288 53.5898 17.1231 53.4787 17.0388C53.3675 16.9546 53.2407 16.8933 53.1056 16.8587C52.9705 16.8241 52.8298 16.8168 52.6918 16.8373C52.5539 16.8578 52.4214 16.9056 52.3022 16.978L50.2509 18.1592C50.0509 18.2745 49.8947 18.4526 49.8063 18.6658C49.718 18.879 49.7025 19.1155 49.7624 19.3384C49.8223 19.5613 49.9541 19.7582 50.1373 19.8985C50.3206 20.0388 50.5451 20.1146 50.7759 20.1142H50.7809Z" fill="#222325"/>
<path d="M12.6991 39.8412L10.6529 41.0237C10.5306 41.0908 10.423 41.1817 10.3363 41.291C10.2496 41.4002 10.1856 41.5257 10.148 41.66C10.1105 41.7944 10.1002 41.9348 10.1176 42.0732C10.1351 42.2116 10.18 42.3451 10.2498 42.4659C10.3195 42.5867 10.4127 42.6923 10.5238 42.7766C10.635 42.8609 10.7618 42.9221 10.8969 42.9567C11.032 42.9913 11.1727 42.9986 11.3107 42.9781C11.4486 42.9577 11.5811 42.9098 11.7004 42.8375L13.7516 41.6562C13.8708 41.5874 13.9753 41.4959 14.059 41.3867C14.1428 41.2776 14.2043 41.153 14.2399 41.0201C14.2756 40.8872 14.2847 40.7485 14.2667 40.6121C14.2488 40.4757 14.2042 40.3441 14.1354 40.225C14.0666 40.1058 13.975 40.0013 13.8659 39.9176C13.7567 39.8338 13.6321 39.7723 13.4992 39.7367C13.3663 39.701 13.2277 39.6919 13.0913 39.7099C12.9548 39.7278 12.8233 39.7724 12.7041 39.8412H12.6991Z" fill="#222325"/>
<path d="M42.8422 12.1745C43.0264 12.175 43.2075 12.1269 43.3671 12.0349C43.5266 11.9429 43.6591 11.8104 43.751 11.6508L44.9335 9.6045C45.0724 9.36382 45.11 9.07781 45.038 8.8094C44.966 8.54099 44.7904 8.31216 44.5497 8.17326C44.309 8.03435 44.023 7.99674 43.7546 8.06871C43.4862 8.14068 43.2574 8.31632 43.1185 8.557L41.9372 10.6033C41.8453 10.7624 41.7969 10.943 41.7969 11.1268C41.7968 11.3106 41.8452 11.4911 41.937 11.6504C42.0288 11.8096 42.1609 11.9418 42.32 12.0338C42.4791 12.1258 42.6597 12.1743 42.8435 12.1745H42.8422Z" fill="#222325"/>
<path d="M21.6759 47.7793C21.5568 47.7103 21.4252 47.6655 21.2888 47.6475C21.1523 47.6294 21.0136 47.6385 20.8807 47.6741C20.7477 47.7098 20.6231 47.7713 20.5139 47.8552C20.4048 47.9391 20.3133 48.0437 20.2447 48.163L19.0622 50.2093C18.9233 50.45 18.8857 50.736 18.9576 51.0044C19.0296 51.2728 19.2052 51.5016 19.4459 51.6405C19.6866 51.7794 19.9726 51.8171 20.241 51.7451C20.5094 51.6731 20.7383 51.4975 20.8772 51.2568L22.0584 49.2105C22.1273 49.0914 22.172 48.96 22.1901 48.8236C22.2081 48.6872 22.1991 48.5486 22.1636 48.4157C22.1281 48.2828 22.0667 48.1582 21.9831 48.049C21.8994 47.9398 21.795 47.8481 21.6759 47.7793Z" fill="#222325"/>
<path d="M59.5434 50.8709H55.6559V36.5447C55.6555 36.2379 55.5334 35.9438 55.3164 35.727C55.0994 35.5102 54.8051 35.3884 54.4984 35.3884H44.8421C44.5354 35.3888 44.2414 35.5106 44.0244 35.7274C43.8075 35.9441 43.6853 36.238 43.6846 36.5447V50.8709H39.7971C39.5734 50.8711 39.3545 50.9362 39.1669 51.0582C38.9794 51.1802 38.8312 51.3539 38.7404 51.5584C38.6495 51.7628 38.6199 51.9893 38.655 52.2102C38.6901 52.4312 38.7886 52.6372 38.9384 52.8034L48.8134 63.7384C48.9218 63.8586 49.0543 63.9548 49.2022 64.0207C49.3501 64.0866 49.5102 64.1207 49.6721 64.1209C49.8339 64.1207 49.9939 64.0867 50.1418 64.021C50.2897 63.9554 50.4222 63.8595 50.5309 63.7397L60.4059 52.8034C60.5559 52.637 60.6544 52.4306 60.6894 52.2093C60.7244 51.988 60.6944 51.7613 60.6031 51.5567C60.5118 51.3521 60.3631 51.1784 60.1749 51.0566C59.9868 50.9349 59.7674 50.8704 59.5434 50.8709ZM49.6684 61.5634L41.9059 52.9672H45.7809V37.4834H53.5609V52.9672H57.4359L49.6684 61.5634Z" fill="#222325"/>
</g>
<defs>
<clipPath id="clip0_147_87">
<rect width="64" height="64" fill="white" transform="translate(0 0.122803)"/>
</clipPath>
</defs>
</svg>
