<svg width="33" height="35" viewBox="0 0 33 35" fill="none" xmlns="http://www.w3.org/2000/svg">
<g clip-path="url(#clip0_370_8085)">
<g clip-path="url(#clip1_370_8085)">
<g clip-path="url(#clip2_370_8085)">
<mask id="mask0_370_8085" style="mask-type:luminance" maskUnits="userSpaceOnUse" x="0" y="1" width="33" height="33">
<path d="M32.5091 1.23828H0.00195312V33.7454H32.5091V1.23828Z" fill="white"/>
</mask>
<g mask="url(#mask0_370_8085)">
<path d="M26.8964 11.9537L31.8115 10.5884C32.3183 10.4477 32.615 9.92272 32.4742 9.41588C32.3335 8.90916 31.8086 8.61234 31.3017 8.75317L25.1919 10.4503C25.1915 10.4504 25.1912 10.4505 25.1908 10.4505L17.2079 12.6679V2.19064C17.2079 1.66468 16.7815 1.23828 16.2555 1.23828C15.7296 1.23828 15.3032 1.66468 15.3032 2.19064V13.197L6.83072 15.5504C6.83041 15.5506 6.83097 15.5503 6.83072 15.5504L0.699681 17.2535C0.192963 17.3942 -0.103793 17.9192 0.0369024 18.426C0.153979 18.8475 0.536891 19.1236 0.954025 19.1236C1.03834 19.1236 1.12418 19.1123 1.20939 19.0887L5.03064 18.0273L0.137916 26.1825C0.0491561 26.3304 0.00223644 26.4999 0.00223644 26.6725C0.00223644 30.5723 3.17505 33.745 7.0749 33.745C10.9749 33.745 14.1477 30.5722 14.1477 26.6725C14.1477 26.4999 14.1007 26.3304 14.0119 26.1825L8.53512 17.0538L23.3917 12.9272L18.4991 21.0823C18.4103 21.2304 18.3633 21.3997 18.3633 21.5723C18.3633 25.4721 21.5361 28.6448 25.436 28.6448C27.3251 28.6448 29.1012 27.9091 30.4372 26.5732C31.773 25.2373 32.5088 23.4613 32.5087 21.5722C32.5088 21.3995 32.4619 21.2302 32.3731 21.0823L26.8964 11.9537ZM11.5135 25.7201H2.63659L7.07497 18.3221L11.5135 25.7201ZM20.9977 20.6198L25.4361 13.2219L29.8746 20.6198H20.9977Z" fill="white"/>
</g>
</g>
</g>
</g>
<defs>
<clipPath id="clip0_370_8085">
<rect width="32.5072" height="33.5933" fill="white" transform="translate(0 0.691406)"/>
</clipPath>
<clipPath id="clip1_370_8085">
<rect width="32.5072" height="33.5933" fill="white" transform="translate(0 0.691406)"/>
</clipPath>
<clipPath id="clip2_370_8085">
<rect width="32.5072" height="33.5907" fill="white" transform="translate(0 0.693359)"/>
</clipPath>
</defs>
</svg>
