<svg width="32" height="33" viewBox="0 0 32 33" fill="none" xmlns="http://www.w3.org/2000/svg">
<g clip-path="url(#clip0_370_7885)">
<g clip-path="url(#clip1_370_7885)">
<g clip-path="url(#clip2_370_7885)">
<mask id="mask0_370_7885" style="mask-type:luminance" maskUnits="userSpaceOnUse" x="0" y="0" width="32" height="33">
<path d="M31.7617 0.326172H0.0800781V32.0078H31.7617V0.326172Z" fill="white"/>
</mask>
<g mask="url(#mask0_370_7885)">
<path d="M15.921 10.7891C14.0444 10.7891 12.5176 12.3158 12.5176 14.1925C12.5176 15.7473 13.566 17.061 14.9929 17.4662V28.0537C14.9929 28.5663 15.4084 28.9819 15.921 28.9819C16.4336 28.9819 16.8493 28.5663 16.8493 28.0537V17.4662C18.276 17.0611 19.3245 15.7473 19.3245 14.1925C19.3245 12.3158 17.7976 10.7891 15.921 10.7891Z" fill="white"/>
<path d="M11.6283 9.22499C11.2659 8.8625 10.6783 8.8625 10.3157 9.22499C7.43795 12.1026 7.43752 16.7608 10.3157 19.6389C10.6783 20.0014 11.2659 20.0014 11.6283 19.6389C11.9909 19.2765 11.9909 18.6888 11.6283 18.3262C9.47617 16.1741 9.4758 12.6902 11.6283 10.5377C11.9909 10.1752 11.9909 9.58743 11.6283 9.22499Z" fill="white"/>
<path d="M21.5274 9.22495C21.1649 8.86252 20.5772 8.86252 20.2147 9.22495C19.8523 9.58738 19.8523 10.1751 20.2147 10.5376C22.3621 12.6849 22.3621 16.1788 20.2147 18.3262C19.8523 18.6887 19.8523 19.2764 20.2147 19.6389C20.5772 20.0013 21.1649 20.0013 21.5274 19.6389C24.3986 16.7678 24.3986 12.096 21.5274 9.22495Z" fill="white"/>
<path d="M8.82531 7.74075C9.18781 7.37832 9.18781 6.79057 8.82531 6.42808C8.46288 6.06564 7.87513 6.06564 7.51264 6.42808C3.09735 10.8434 3.09735 18.0275 7.51264 22.4428C7.87502 22.8053 8.46275 22.8055 8.82531 22.4428C9.18781 22.0804 9.18781 21.4926 8.82531 21.1301C5.1339 17.4387 5.1339 11.4323 8.82531 7.74075Z" fill="white"/>
<path d="M24.3287 6.42808C23.9663 6.06564 23.3785 6.06564 23.016 6.42808C22.6535 6.79051 22.6535 7.37825 23.016 7.74075C26.7075 11.4323 26.7075 17.4387 23.016 21.1301C22.6535 21.4926 22.6535 22.0803 23.016 22.4428C23.3786 22.8053 23.9662 22.8053 24.3287 22.4428C28.744 18.0275 28.744 10.8434 24.3287 6.42808Z" fill="white"/>
<path d="M6.02601 4.93997C6.3885 4.57753 6.3885 3.98979 6.02601 3.62729C5.66357 3.26486 5.07583 3.26486 4.71334 3.62729C-1.47106 9.81162 -1.45762 19.0718 4.71334 25.2428C5.0757 25.6052 5.66345 25.6054 6.02601 25.2428C6.3885 24.8803 6.3885 24.2926 6.02601 23.9302C0.613014 18.5171 0.613014 10.3531 6.02601 4.93997Z" fill="white"/>
<path d="M27.1294 3.62729C26.767 3.26486 26.1793 3.26486 25.8168 3.62729C25.4543 3.98973 25.4543 4.57746 25.8168 4.93997C31.2299 10.3531 31.2299 18.5171 25.8168 23.9302C25.4543 24.2925 25.4543 24.8803 25.8168 25.2428C26.1793 25.6053 26.767 25.6053 27.1294 25.2428C33.3138 19.0585 33.3005 9.79825 27.1294 3.62729Z" fill="white"/>
</g>
</g>
</g>
</g>
<defs>
<clipPath id="clip0_370_7885">
<rect width="31.6817" height="31.6817" fill="white" transform="translate(0.0791016 0.332031)"/>
</clipPath>
<clipPath id="clip1_370_7885">
<rect width="31.6817" height="31.6817" fill="white" transform="translate(0.0791016 0.332031)"/>
</clipPath>
<clipPath id="clip2_370_7885">
<rect width="31.6817" height="31.6817" fill="white" transform="translate(0.0791016 0.332031)"/>
</clipPath>
</defs>
</svg>
