<svg width="146" height="1953" viewBox="0 0 146 1953" fill="none" xmlns="http://www.w3.org/2000/svg">
<path d="M73.0875 1.83887V114.867C73.0876 119.04 74.1869 123.139 76.2748 126.751C78.3626 130.364 81.3653 133.362 84.9806 135.445L132.409 162.772C136.024 164.855 139.026 167.854 141.114 171.467C143.202 175.08 144.301 179.178 144.301 183.351V319.083C144.301 323.255 143.202 327.354 141.114 330.967C139.026 334.579 136.024 337.578 132.409 339.661L13.7672 408.02C10.1522 410.103 7.14961 413.102 5.0619 416.714C2.97419 420.327 1.875 424.425 1.875 428.598V565.274C1.87508 569.446 2.97431 573.545 5.06201 577.157C7.14971 580.77 10.1522 583.769 13.7672 585.852L132.409 654.21C136.024 656.294 139.026 659.292 141.114 662.905C143.202 666.518 144.301 670.617 144.301 674.789V810.521C144.301 814.693 143.202 818.792 141.114 822.405C139.026 826.017 136.024 829.016 132.409 831.099L13.7672 899.458C10.1521 901.541 7.14951 904.54 5.06179 908.152C2.97408 911.765 1.87492 915.863 1.875 920.036" stroke="#030118" stroke-opacity="0.5" stroke-width="2.49984" stroke-linecap="round" stroke-linejoin="round" stroke-dasharray="5 6.67"/>
<path d="M5.0619 904.962C2.97419 908.574 1.875 912.673 1.875 916.846V1053.52C1.87508 1057.69 2.97431 1061.79 5.06201 1065.41C7.14971 1069.02 10.1522 1072.02 13.7672 1074.1L132.409 1142.46C136.024 1144.54 139.026 1147.54 141.114 1151.15C143.202 1154.77 144.301 1158.86 144.301 1163.04V1298.77C144.301 1302.94 143.202 1307.04 141.114 1310.65C139.026 1314.26 136.024 1317.26 132.409 1319.35L13.7672 1387.71C10.1521 1389.79 7.14951 1392.79 5.06179 1396.4C2.97408 1400.01 1.87492 1404.11 1.875 1408.28V1541.3C1.875 1549.73 6.34597 1557.53 13.6216 1561.79L61.2523 1589.69C64.8286 1591.78 67.7945 1594.78 69.8552 1598.37C71.9158 1601.97 72.9994 1606.04 72.9981 1610.19V1951.66" stroke="#030118" stroke-opacity="0.5" stroke-width="2.49984" stroke-linecap="round" stroke-linejoin="round" stroke-dasharray="5 6.67"/>
</svg>
