<svg width="174" height="2067" viewBox="0 0 174 2067" fill="none" xmlns="http://www.w3.org/2000/svg">
<path d="M86.9699 2065V1885.22C86.97 1880.4 87.3448 1877.91 85.4458 1873.74C83.5468 1869.56 80.8812 1868.65 77.5928 1866.25L12.8172 1816.57C9.5289 1814.16 6.79778 1810.69 4.8988 1806.52C2.99982 1802.34 2 1797.6 2 1792.78V1634.74C2.00008 1629.92 2.99993 1625.18 4.8989 1621" stroke="#030118" stroke-opacity="0.5" stroke-width="2.49984" stroke-linecap="round" stroke-linejoin="round" stroke-dasharray="5 6.67"/>
<path d="M86.9995 2V132.853C86.9996 137.684 88.3118 142.429 90.8038 146.611C93.2959 150.793 96.8799 154.265 101.195 156.676L157.805 188.313C162.121 190.725 165.704 194.197 168.196 198.379C170.688 202.561 172 207.307 172 212.137V369.274C172 374.105 170.688 378.85 168.196 383.033C165.704 387.215 162.12 390.687 157.805 393.098L16.1946 472.237C11.8796 474.649 8.29579 478.12 5.80389 482.303C3.312 486.485 2 491.23 2 496.06V654.291C2.0001 659.121 3.31213 663.866 5.80402 668.049C8.29591 672.231 11.8797 675.702 16.1946 678.114L157.805 757.253C162.12 759.665 165.704 763.136 168.196 767.319C170.688 771.501 172 776.246 172 781.077V938.214C172 943.044 170.688 947.79 168.196 951.972C165.704 956.154 162.12 959.626 157.805 962.037L16.1946 1041.18C11.8796 1043.59 8.29567 1047.06 5.80377 1051.24C3.31186 1055.42 1.99991 1060.17 2 1065" stroke="#030118" stroke-opacity="0.5" stroke-width="2.49984" stroke-linecap="round" stroke-linejoin="round" stroke-dasharray="5 6.67"/>
<path d="M9.5 1617.5L157.805 1530.69C162.12 1528.27 165.704 1524.8 168.196 1520.62C170.688 1516.44 172 1511.69 172 1506.86V1349.73C172 1344.89 170.688 1340.15 168.196 1335.97C165.704 1331.78 162.12 1328.31 157.805 1325.9L16.1946 1246.76C11.8796 1244.35 8.29579 1240.88 5.80389 1236.7C3.312 1232.51 2 1227.77 2 1222.94V1064.71" stroke="#030118" stroke-opacity="0.5" stroke-width="2.49984" stroke-linecap="round" stroke-linejoin="round" stroke-dasharray="5 6.67"/>
</svg>
