<svg width="195" height="2764" viewBox="0 0 195 2764" fill="none" xmlns="http://www.w3.org/2000/svg">
<g clip-path="url(#clip0_172_1859)">
<path d="M97.4501 1.9873V161.952C97.4502 167.857 98.9159 173.658 101.7 178.771C104.484 183.883 108.487 188.126 113.307 191.075L176.545 229.75C181.365 232.697 185.369 236.942 188.152 242.055C190.936 247.168 192.401 252.969 192.401 258.874V450.969C192.401 456.874 190.936 462.675 188.152 467.788C185.368 472.901 181.365 477.146 176.545 480.093L18.3563 576.838C13.5362 579.786 9.53281 584.03 6.7492 589.143C3.96559 594.256 2.50001 600.056 2.5 605.961V799.393C2.50011 805.298 3.96574 811.099 6.74934 816.212C9.53294 821.324 13.5363 825.569 18.3563 828.516L176.545 925.262C181.365 928.209 185.368 932.454 188.152 937.567C190.936 942.679 192.401 948.481 192.401 954.385V1146.48C192.401 1152.39 190.936 1158.18 188.152 1163.3C185.368 1168.42 181.365 1172.65 176.545 1175.6L18.3563 1272.35C13.5361 1275.29 9.53268 1279.54 6.74906 1284.65C3.96544 1289.77 2.4999 1295.57 2.5 1301.47" stroke="#030118" stroke-opacity="0.5" stroke-width="3.33312" stroke-linecap="round" stroke-linejoin="round" stroke-dasharray="6.67 8.89"/>
<path d="M6.7492 1280.14C3.96559 1285.25 2.50001 1291.06 2.5 1296.96V1490.39C2.50011 1496.3 3.96574 1502.09 6.74934 1507.21C9.53294 1512.32 13.5363 1516.57 18.3563 1519.51L176.545 1616.26C181.365 1619.21 185.368 1623.45 188.152 1628.56C190.936 1633.68 192.401 1639.47 192.401 1645.39V1837.48C192.401 1843.38 190.936 1849.18 188.152 1854.3C185.368 1859.41 181.365 1863.65 176.545 1866.6L18.3563 1963.34C13.5361 1966.29 9.53268 1970.54 6.74906 1975.65C3.96544 1980.76 2.4999 1986.57 2.5 1992.47V2180.71C2.5 2192.66 8.46129 2203.7 18.1621 2209.72L81.6697 2249.21C86.4381 2252.17 90.3927 2256.41 93.1402 2261.49C95.8877 2266.59 97.3325 2272.35 97.3308 2278.21V2761.48" stroke="#030118" stroke-opacity="0.5" stroke-width="3.33312" stroke-linecap="round" stroke-linejoin="round" stroke-dasharray="6.67 8.89"/>
</g>
<defs>
<clipPath id="clip0_172_1859">
<rect width="195" height="2764" fill="white"/>
</clipPath>
</defs>
</svg>
