<svg width="195" height="2604" viewBox="0 0 195 2604" fill="none" xmlns="http://www.w3.org/2000/svg">
<path d="M97.4501 1.87207V152.577C97.4502 158.14 98.9159 163.605 101.7 168.422C104.484 173.238 108.487 177.236 113.307 180.014L176.545 216.45C181.365 219.227 185.369 223.226 188.152 228.043C190.936 232.86 192.401 238.325 192.401 243.888V424.864C192.401 430.427 190.936 435.892 188.152 440.709C185.368 445.526 181.365 449.525 176.545 452.302L18.3563 543.447C13.5362 546.224 9.53281 550.222 6.7492 555.039C3.96559 559.856 2.50001 565.321 2.5 570.884V753.119C2.50011 758.682 3.96574 764.147 6.74934 768.964C9.53294 773.78 13.5363 777.779 18.3563 780.556L176.545 871.701C181.365 874.478 185.368 878.477 188.152 883.294C190.936 888.11 192.401 893.576 192.401 899.139V1080.11C192.401 1085.68 190.936 1091.14 188.152 1095.96C185.368 1100.78 181.365 1104.77 176.545 1107.55L18.3563 1198.7C13.5361 1201.47 9.53268 1205.47 6.74906 1210.29C3.96544 1215.11 2.4999 1220.57 2.5 1226.13" stroke="#030118" stroke-opacity="0.5" stroke-width="3.33312" stroke-linecap="round" stroke-linejoin="round" stroke-dasharray="6.67 8.89"/>
<path d="M6.7492 1206.04C3.96559 1210.85 2.50001 1216.32 2.5 1221.88V1404.12C2.50011 1409.68 3.96574 1415.14 6.74934 1419.96C9.53294 1424.78 13.5363 1428.78 18.3563 1431.55L176.545 1522.7C181.365 1525.48 185.368 1529.47 188.152 1534.29C190.936 1539.11 192.401 1544.57 192.401 1550.14V1731.11C192.401 1736.67 190.936 1742.14 188.152 1746.96C185.368 1751.77 181.365 1755.77 176.545 1758.55L18.3563 1849.69C13.5361 1852.47 9.53268 1856.47 6.74906 1861.29C3.96544 1866.1 2.4999 1871.57 2.5 1877.13V2054.48C2.5 2065.73 8.46129 2076.13 18.1621 2081.81L81.6697 2119.01C86.4381 2121.8 90.3927 2125.79 93.1402 2130.58C95.8877 2135.38 97.3325 2140.81 97.3308 2146.33V2601.63" stroke="#030118" stroke-opacity="0.5" stroke-width="3.33312" stroke-linecap="round" stroke-linejoin="round" stroke-dasharray="6.67 8.89"/>
</svg>
