<svg width="130" height="1736" viewBox="0 0 130 1736" fill="none" xmlns="http://www.w3.org/2000/svg">
<path d="M64.6311 1.30176V101.771C64.6312 105.48 65.6083 109.124 67.4642 112.335C69.3201 115.546 71.9891 118.211 75.2027 120.063L117.361 144.354C120.574 146.205 123.243 148.871 125.099 152.082C126.955 155.293 127.932 158.937 127.932 162.646V283.296C127.932 287.005 126.955 290.649 125.099 293.86C123.243 297.071 120.574 299.737 117.361 301.588L11.9019 362.352C8.68852 364.203 6.0196 366.869 4.16385 370.08C2.30811 373.291 1.33106 376.934 1.33105 380.643V502.133C1.33113 505.842 2.30822 509.485 4.16395 512.696C6.01968 515.907 8.68857 518.573 11.9019 520.424L117.361 581.188C120.574 583.039 123.243 585.705 125.099 588.916C126.955 592.127 127.932 595.771 127.932 599.48V720.13C127.932 723.839 126.955 727.482 125.099 730.693C123.243 733.905 120.574 736.57 117.361 738.422L11.9019 799.185C8.68847 801.037 6.01951 803.702 4.16376 806.914C2.30801 810.125 1.33099 813.768 1.33105 817.477" stroke="#030118" stroke-opacity="0.5" stroke-width="2.22208" stroke-linecap="round" stroke-linejoin="round" stroke-dasharray="4.44 5.93"/>
<path d="M4.16385 804.077C2.30811 807.288 1.33106 810.932 1.33105 814.64V936.13C1.33113 939.839 2.30822 943.482 4.16395 946.693C6.01968 949.905 8.68857 952.57 11.9019 954.422L117.361 1015.18C120.574 1017.04 123.243 1019.7 125.099 1022.91C126.955 1026.12 127.932 1029.77 127.932 1033.48V1154.13C127.932 1157.84 126.955 1161.48 125.099 1164.69C123.243 1167.9 120.574 1170.57 117.361 1172.42L11.9019 1233.18C8.68847 1235.03 6.01951 1237.7 4.16376 1240.91C2.30801 1244.12 1.33099 1247.77 1.33105 1251.47V1369.71C1.33105 1377.2 5.30525 1384.14 11.7725 1387.93L54.1109 1412.72C57.2898 1414.59 59.9262 1417.25 61.7579 1420.44C63.5895 1423.64 64.5527 1427.26 64.5516 1430.94V1734.47" stroke="#030118" stroke-opacity="0.5" stroke-width="2.22208" stroke-linecap="round" stroke-linejoin="round" stroke-dasharray="4.44 5.93"/>
</svg>
