<svg width="32" height="32" viewBox="0 0 32 32" fill="none" xmlns="http://www.w3.org/2000/svg">
<g clip-path="url(#clip0_370_7974)">
<g clip-path="url(#clip1_370_7974)">
<path d="M27.6388 4.13867H3.84074C2.50805 4.13867 1.46094 5.23338 1.46094 6.51848V24.6049C1.46094 25.9376 2.55564 26.9848 3.84074 26.9848H27.6388C28.9714 26.9848 30.0186 25.8901 30.0186 24.6049V6.51848C30.0186 5.23338 28.9239 4.13867 27.6388 4.13867ZM28.1147 24.6049C28.1147 24.8906 27.8767 25.081 27.6388 25.081H3.84074C3.55517 25.081 3.36478 24.843 3.36478 24.6049V6.51848C3.36478 6.2329 3.60277 6.04252 3.84074 6.04252H27.6388C27.9244 6.04252 28.1147 6.2805 28.1147 6.51848V24.6049Z" fill="white"/>
<path d="M5.74489 9.37455C6.27063 9.37455 6.69681 8.94836 6.69681 8.42263C6.69681 7.89689 6.27063 7.4707 5.74489 7.4707C5.21916 7.4707 4.79297 7.89689 4.79297 8.42263C4.79297 8.94836 5.21916 9.37455 5.74489 9.37455Z" fill="white"/>
<path d="M9.07741 9.37455C9.60315 9.37455 10.0293 8.94836 10.0293 8.42263C10.0293 7.89689 9.60315 7.4707 9.07741 7.4707C8.55167 7.4707 8.12549 7.89689 8.12549 8.42263C8.12549 8.94836 8.55167 9.37455 9.07741 9.37455Z" fill="white"/>
<path d="M11.1701 12.0395C10.7893 11.6587 10.2182 11.6587 9.83741 12.0395L6.02972 15.8472C5.64895 16.2279 5.64895 16.7992 6.02972 17.18L9.83741 20.9877C10.0278 21.1779 10.2658 21.2732 10.5038 21.2732C10.7417 21.2732 10.9797 21.1779 11.1701 20.9877C11.5508 20.6069 11.5508 20.0356 11.1701 19.6549L8.02875 16.5136L11.1701 13.3722C11.5508 12.9914 11.5508 12.4203 11.1701 12.0395Z" fill="white"/>
<path d="M21.6417 12.0395C21.2609 11.6587 20.6898 11.6587 20.309 12.0395C19.9282 12.4203 19.9282 12.9914 20.309 13.3722L23.4504 16.5136L20.309 19.6549C19.9282 20.0356 19.9282 20.6069 20.309 20.9877C20.4994 21.1779 20.7374 21.2732 20.9754 21.2732C21.2133 21.2732 21.4513 21.1779 21.6417 20.9877L25.4494 17.18C25.8302 16.7992 25.8302 16.2279 25.4494 15.8472L21.6417 12.0395Z" fill="white"/>
<path d="M17.9777 10.3741C17.5017 10.1837 16.9305 10.4692 16.7877 10.9452L12.98 21.8923C12.7897 22.3683 13.0752 22.9395 13.5512 23.0822C13.6463 23.1774 13.7416 23.1774 13.8367 23.1774C14.2175 23.1774 14.5983 22.9395 14.7411 22.5587L18.5488 11.6115C18.7392 11.088 18.4536 10.5645 17.9777 10.3741Z" fill="white"/>
</g>
</g>
<defs>
<clipPath id="clip0_370_7974">
<rect width="31.4769" height="31.4769" fill="white" transform="translate(0.242676 0.0839844)"/>
</clipPath>
<clipPath id="clip1_370_7974">
<rect width="31.4769" height="31.4769" fill="white" transform="translate(0.242676 0.0839844)"/>
</clipPath>
</defs>
</svg>
