<svg width="31" height="32" viewBox="0 0 31 32" fill="none" xmlns="http://www.w3.org/2000/svg">
<g clip-path="url(#clip0_370_7965)">
<g clip-path="url(#clip1_370_7965)">
<path d="M15.2279 1.37891C7.40756 1.37891 1.04541 7.74106 1.04541 15.5614C1.04541 23.3818 7.40756 29.7439 15.2279 29.7439C23.0483 29.7439 29.4104 23.3818 29.4104 15.5614C29.4104 7.74106 23.0483 1.37891 15.2279 1.37891ZM15.2279 28.0306C8.3518 28.0306 2.75874 22.4367 2.75874 15.5614C2.75874 8.68625 8.3518 3.09223 15.2279 3.09223C22.1041 3.09223 27.6971 8.68625 27.6971 15.5614C27.6971 22.4367 22.1041 28.0306 15.2279 28.0306Z" fill="white"/>
<path d="M13.2107 23.2991C10.4161 22.5805 8.22687 20.3931 7.4949 17.5899C7.37592 17.1331 6.90857 16.858 6.44882 16.9769C5.99193 17.0959 5.71685 17.5643 5.83582 18.0221C6.72486 21.4269 9.38622 24.0844 12.7824 24.9582C12.8538 24.9772 12.9262 24.9858 12.9975 24.9858C13.3783 24.9858 13.7276 24.7288 13.8266 24.3423C13.9437 23.8845 13.6676 23.4172 13.2107 23.2991Z" fill="white"/>
<path d="M24.6256 13.104C23.7365 9.69926 21.0752 7.0417 17.679 6.1679C17.2221 6.04987 16.7528 6.32591 16.6348 6.78375C16.5177 7.24158 16.7937 7.70895 17.2506 7.82698C20.0453 8.54562 22.2346 10.733 22.9665 13.5362C23.0664 13.9217 23.4148 14.1767 23.7946 14.1767C23.8659 14.1767 23.9392 14.1673 24.0126 14.1482C24.4705 14.0292 24.7446 13.5618 24.6256 13.104Z" fill="white"/>
<path d="M15.2296 10.2441C12.2969 10.2441 9.91064 12.6295 9.91064 15.5621C9.91064 18.4948 12.2969 20.8801 15.2296 20.8801C18.1622 20.8801 20.5485 18.4948 20.5485 15.5621C20.5485 12.6295 18.1622 10.2441 15.2296 10.2441ZM15.2296 19.1678C13.2411 19.1678 11.625 17.5506 11.625 15.5621C11.625 13.5737 13.2411 11.9566 15.2296 11.9566C17.218 11.9566 18.8342 13.5737 18.8342 15.5621C18.8342 17.5506 17.218 19.1678 15.2296 19.1678Z" fill="white"/>
<path d="M15.2305 16.6932C15.855 16.6932 16.3612 16.187 16.3612 15.5625C16.3612 14.938 15.855 14.4316 15.2305 14.4316C14.6059 14.4316 14.0996 14.938 14.0996 15.5625C14.0996 16.187 14.6059 16.6932 15.2305 16.6932Z" fill="white"/>
</g>
</g>
<defs>
<clipPath id="clip0_370_7965">
<rect width="30.4591" height="31.4769" fill="white" transform="translate(0 0.0839844)"/>
</clipPath>
<clipPath id="clip1_370_7965">
<rect width="30.4591" height="31.4769" fill="white" transform="translate(0 0.0839844)"/>
</clipPath>
</defs>
</svg>
