<svg width="135" height="16" viewBox="0 0 135 16" fill="none" xmlns="http://www.w3.org/2000/svg">
<g clip-path="url(#clip0_180_139)">
<path d="M134.044 9.04177C134.435 8.65125 134.435 8.01808 134.044 7.62756L127.681 1.2636C127.29 0.873071 126.657 0.873071 126.266 1.2636C125.876 1.65412 125.876 2.28729 126.266 2.67781L131.923 8.33466L126.266 13.9915C125.876 14.3821 125.876 15.0152 126.266 15.4058C126.657 15.7963 127.29 15.7963 127.681 15.4058L134.044 9.04177ZM0.201172 9.33466H2.83757V7.33466H0.201172V9.33466ZM5.47387 9.33466H8.11027V7.33466H5.47387V9.33466ZM10.7467 9.33466H13.383V7.33466H10.7467V9.33466ZM16.0194 9.33466H18.6558V7.33466H16.0194V9.33466ZM21.2921 9.33466H23.9285V7.33466H21.2921V9.33466ZM26.5649 9.33466H29.2012V7.33466H26.5649V9.33466ZM31.8376 9.33466H34.4739V7.33466H31.8376V9.33466ZM37.1103 9.33466H39.7467V7.33466H37.1103V9.33466ZM42.383 9.33466H45.0194V7.33466H42.383V9.33466ZM47.6557 9.33466H50.2921V7.33466H47.6557V9.33466ZM52.9285 9.33466H55.5648V7.33466H52.9285V9.33466ZM58.2012 9.33466H60.8372V7.33466H58.2012V9.33466ZM63.4742 9.33466H66.1102V7.33466H63.4742V9.33466ZM68.7462 9.33466H71.3832V7.33466H68.7462V9.33466ZM74.0192 9.33466H76.6552V7.33466H74.0192V9.33466ZM79.2922 9.33466H81.9282V7.33466H79.2922V9.33466ZM84.5652 9.33466H87.2012V7.33466H84.5652V9.33466ZM89.8372 9.33466H92.4742V7.33466H89.8372V9.33466ZM95.1102 9.33466H97.7462V7.33466H95.1102V9.33466ZM100.383 9.33466H103.019V7.33466H100.383V9.33466ZM105.656 9.33466H108.292V7.33466H105.656V9.33466ZM110.928 9.33466H113.565V7.33466H110.928V9.33466ZM116.201 9.33466H118.837V7.33466H116.201V9.33466ZM121.474 9.33466H124.11V7.33466H121.474V9.33466ZM126.746 9.33466H129.383V7.33466H126.746V9.33466ZM132.019 9.33466H133.337V7.33466H132.019V9.33466ZM134.044 9.04177C134.435 8.65125 134.435 8.01808 134.044 7.62756L127.681 1.2636C127.29 0.873071 126.657 0.873071 126.266 1.2636C125.876 1.65412 125.876 2.28729 126.266 2.67781L131.923 8.33466L126.266 13.9915C125.876 14.3821 125.876 15.0152 126.266 15.4058C126.657 15.7963 127.29 15.7963 127.681 15.4058L134.044 9.04177ZM0.201172 9.33466H2.83757V7.33466H0.201172V9.33466ZM5.47387 9.33466H8.11027V7.33466H5.47387V9.33466ZM10.7467 9.33466H13.383V7.33466H10.7467V9.33466ZM16.0194 9.33466H18.6558V7.33466H16.0194V9.33466ZM21.2921 9.33466H23.9285V7.33466H21.2921V9.33466ZM26.5649 9.33466H29.2012V7.33466H26.5649V9.33466ZM31.8376 9.33466H34.4739V7.33466H31.8376V9.33466ZM37.1103 9.33466H39.7467V7.33466H37.1103V9.33466ZM42.383 9.33466H45.0194V7.33466H42.383V9.33466ZM47.6557 9.33466H50.2921V7.33466H47.6557V9.33466ZM52.9285 9.33466H55.5648V7.33466H52.9285V9.33466ZM58.2012 9.33466H60.8372V7.33466H58.2012V9.33466ZM63.4742 9.33466H66.1102V7.33466H63.4742V9.33466ZM68.7462 9.33466H71.3832V7.33466H68.7462V9.33466ZM74.0192 9.33466H76.6552V7.33466H74.0192V9.33466ZM79.2922 9.33466H81.9282V7.33466H79.2922V9.33466ZM84.5652 9.33466H87.2012V7.33466H84.5652V9.33466ZM89.8372 9.33466H92.4742V7.33466H89.8372V9.33466ZM95.1102 9.33466H97.7462V7.33466H95.1102V9.33466ZM100.383 9.33466H103.019V7.33466H100.383V9.33466ZM105.656 9.33466H108.292V7.33466H105.656V9.33466ZM110.928 9.33466H113.565V7.33466H110.928V9.33466ZM116.201 9.33466H118.837V7.33466H116.201V9.33466ZM121.474 9.33466H124.11V7.33466H121.474V9.33466ZM126.746 9.33466H129.383V7.33466H126.746V9.33466ZM132.019 9.33466H133.337V7.33466H132.019V9.33466Z" fill="url(#paint0_linear_180_139)"/>
</g>
<defs>
<linearGradient id="paint0_linear_180_139" x1="47.9126" y1="8.39187" x2="47.9126" y2="9.33467" gradientUnits="userSpaceOnUse">
<stop stop-color="#3284FF"/>
<stop offset="1" stop-color="#01D1FF"/>
</linearGradient>
<clipPath id="clip0_180_139">
<rect width="135" height="16" fill="white"/>
</clipPath>
</defs>
</svg>
