<svg width="176" height="16" viewBox="0 0 176 16" fill="none" xmlns="http://www.w3.org/2000/svg">
<path d="M175.045 9.0417C175.436 8.65118 175.436 8.01801 175.045 7.62749L168.682 1.26353C168.291 0.873003 167.658 0.873003 167.267 1.26353C166.877 1.65405 166.877 2.28722 167.267 2.67774L172.924 8.33459L167.267 13.9914C166.877 14.382 166.877 15.0151 167.267 15.4057C167.658 15.7962 168.291 15.7962 168.682 15.4057L175.045 9.0417ZM0.338379 9.33459H1.65656V7.33459H0.338379V9.33459ZM4.29292 9.33459H6.92929V7.33459H4.29292V9.33459ZM9.56565 9.33459H12.202V7.33459H9.56565V9.33459ZM14.8384 9.33459H17.4747V7.33459H14.8384V9.33459ZM20.1111 9.33459H22.7475V7.33459H20.1111V9.33459ZM25.3838 9.33459H28.0202V7.33459H25.3838V9.33459ZM30.6566 9.33459H33.2929V7.33459H30.6566V9.33459ZM35.9293 9.33459H38.5657V7.33459H35.9293V9.33459ZM41.202 9.33459H43.8384V7.33459H41.202V9.33459ZM46.4747 9.33459H49.1111V7.33459H46.4747V9.33459ZM51.7475 9.33459H54.3838V7.33459H51.7475V9.33459ZM57.0202 9.33459H59.6566V7.33459H57.0202V9.33459ZM62.2929 9.33459H64.9293V7.33459H62.2929V9.33459ZM67.5657 9.33459H70.202V7.33459H67.5657V9.33459ZM72.8384 9.33459H75.4747V7.33459H72.8384V9.33459ZM78.1111 9.33459H80.7475V7.33459H78.1111V9.33459ZM83.3838 9.33459H86.0202V7.33459H83.3838V9.33459ZM88.6565 9.33459H91.2929V7.33459H88.6565V9.33459ZM93.9293 9.33459H96.5656V7.33459H93.9293V9.33459ZM99.202 9.33459H101.838V7.33459H99.202V9.33459ZM104.475 9.33459H107.111V7.33459H104.475V9.33459ZM109.747 9.33459H112.384V7.33459H109.747V9.33459ZM115.02 9.33459H117.656V7.33459H115.02V9.33459ZM120.293 9.33459H122.929V7.33459H120.293V9.33459ZM125.566 9.33459H128.202V7.33459H125.566V9.33459ZM130.838 9.33459H133.475V7.33459H130.838V9.33459ZM136.111 9.33459H138.747V7.33459H136.111V9.33459ZM141.384 9.33459H144.02V7.33459H141.384V9.33459ZM146.657 9.33459H149.293V7.33459H146.657V9.33459ZM151.929 9.33459H154.566V7.33459H151.929V9.33459ZM157.202 9.33459H159.838V7.33459H157.202V9.33459ZM162.475 9.33459H165.111V7.33459H162.475V9.33459ZM167.747 9.33459H170.384V7.33459H167.747V9.33459ZM173.02 9.33459H174.338V7.33459H173.02V9.33459ZM175.045 9.0417C175.436 8.65118 175.436 8.01801 175.045 7.62749L168.682 1.26353C168.291 0.873003 167.658 0.873003 167.267 1.26353C166.877 1.65405 166.877 2.28722 167.267 2.67774L172.924 8.33459L167.267 13.9914C166.877 14.382 166.877 15.0151 167.267 15.4057C167.658 15.7962 168.291 15.7962 168.682 15.4057L175.045 9.0417ZM0.338379 9.33459H1.65656V7.33459H0.338379V9.33459ZM4.29292 9.33459H6.92929V7.33459H4.29292V9.33459ZM9.56565 9.33459H12.202V7.33459H9.56565V9.33459ZM14.8384 9.33459H17.4747V7.33459H14.8384V9.33459ZM20.1111 9.33459H22.7475V7.33459H20.1111V9.33459ZM25.3838 9.33459H28.0202V7.33459H25.3838V9.33459ZM30.6566 9.33459H33.2929V7.33459H30.6566V9.33459ZM35.9293 9.33459H38.5657V7.33459H35.9293V9.33459ZM41.202 9.33459H43.8384V7.33459H41.202V9.33459ZM46.4747 9.33459H49.1111V7.33459H46.4747V9.33459ZM51.7475 9.33459H54.3838V7.33459H51.7475V9.33459ZM57.0202 9.33459H59.6566V7.33459H57.0202V9.33459ZM62.2929 9.33459H64.9293V7.33459H62.2929V9.33459ZM67.5657 9.33459H70.202V7.33459H67.5657V9.33459ZM72.8384 9.33459H75.4747V7.33459H72.8384V9.33459ZM78.1111 9.33459H80.7475V7.33459H78.1111V9.33459ZM83.3838 9.33459H86.0202V7.33459H83.3838V9.33459ZM88.6565 9.33459H91.2929V7.33459H88.6565V9.33459ZM93.9293 9.33459H96.5656V7.33459H93.9293V9.33459ZM99.202 9.33459H101.838V7.33459H99.202V9.33459ZM104.475 9.33459H107.111V7.33459H104.475V9.33459ZM109.747 9.33459H112.384V7.33459H109.747V9.33459ZM115.02 9.33459H117.656V7.33459H115.02V9.33459ZM120.293 9.33459H122.929V7.33459H120.293V9.33459ZM125.566 9.33459H128.202V7.33459H125.566V9.33459ZM130.838 9.33459H133.475V7.33459H130.838V9.33459ZM136.111 9.33459H138.747V7.33459H136.111V9.33459ZM141.384 9.33459H144.02V7.33459H141.384V9.33459ZM146.657 9.33459H149.293V7.33459H146.657V9.33459ZM151.929 9.33459H154.566V7.33459H151.929V9.33459ZM157.202 9.33459H159.838V7.33459H157.202V9.33459ZM162.475 9.33459H165.111V7.33459H162.475V9.33459ZM167.747 9.33459H170.384V7.33459H167.747V9.33459ZM173.02 9.33459H174.338V7.33459H173.02V9.33459Z" fill="url(#paint0_linear_147_865)"/>
<defs>
<linearGradient id="paint0_linear_147_865" x1="88.9131" y1="8.3918" x2="88.9131" y2="9.3346" gradientUnits="userSpaceOnUse">
<stop stop-color="#3284FF"/>
<stop offset="1" stop-color="#01D1FF"/>
</linearGradient>
</defs>
</svg>
