<svg width="16" height="66" viewBox="0 0 16 66" fill="none" xmlns="http://www.w3.org/2000/svg">
<path d="M8.70711 64.9039C8.31658 65.2944 7.68342 65.2944 7.29289 64.9039L0.928932 58.5399C0.538408 58.1494 0.538408 57.5162 0.928932 57.1257C1.31946 56.7352 1.95262 56.7352 2.34315 57.1257L8 62.7826L13.6569 57.1257C14.0474 56.7352 14.6805 56.7352 15.0711 57.1257C15.4616 57.5162 15.4616 58.1494 15.0711 58.5399L8.70711 64.9039ZM9 0.196777V1.53011H7V0.196777L9 0.196777ZM9 4.19678V6.86344H7V4.19678H9ZM9 9.53011V12.1968H7V9.53011H9ZM9 14.8634L9 17.5301H7V14.8634H9ZM9 20.1968V22.8634H7L7 20.1968H9ZM9 25.5301V28.1968H7V25.5301H9ZM9 30.8634V33.5301H7V30.8634H9ZM9 36.1968V38.8634H7L7 36.1968H9ZM9 41.5301L9 44.1968H7V41.5301H9ZM9 46.8634V49.5301H7V46.8634H9ZM9 52.1968V54.8635H7V52.1968H9ZM9 57.5301V60.1968H7V57.5301H9ZM9 62.8635V64.1968H7V62.8635H9ZM8.70711 64.9039C8.31658 65.2944 7.68342 65.2944 7.29289 64.9039L0.928932 58.5399C0.538408 58.1494 0.538408 57.5162 0.928932 57.1257C1.31946 56.7352 1.95262 56.7352 2.34315 57.1257L8 62.7826L13.6569 57.1257C14.0474 56.7352 14.6805 56.7352 15.0711 57.1257C15.4616 57.5162 15.4616 58.1494 15.0711 58.5399L8.70711 64.9039ZM9 0.196777V1.53011H7V0.196777L9 0.196777ZM9 4.19678V6.86344H7V4.19678H9ZM9 9.53011V12.1968H7V9.53011H9ZM9 14.8634L9 17.5301H7V14.8634H9ZM9 20.1968V22.8634H7L7 20.1968H9ZM9 25.5301V28.1968H7V25.5301H9ZM9 30.8634V33.5301H7V30.8634H9ZM9 36.1968V38.8634H7L7 36.1968H9ZM9 41.5301L9 44.1968H7V41.5301H9ZM9 46.8634V49.5301H7V46.8634H9ZM9 52.1968V54.8635H7V52.1968H9ZM9 57.5301V60.1968H7V57.5301H9ZM9 62.8635V64.1968H7V62.8635H9Z" fill="url(#paint0_linear_147_1289)"/>
<defs>
<linearGradient id="paint0_linear_147_1289" x1="8.05721" y1="32.776" x2="9" y2="32.776" gradientUnits="userSpaceOnUse">
<stop stop-color="#3284FF"/>
<stop offset="1" stop-color="#01D1FF"/>
</linearGradient>
</defs>
</svg>
