<svg width="198" height="18" viewBox="0 0 198 18" fill="none" xmlns="http://www.w3.org/2000/svg">
<path d="M196.796 9.5455C197.235 9.10616 197.235 8.39384 196.796 7.9545L189.636 0.795049C189.197 0.355709 188.484 0.355709 188.045 0.795049C187.606 1.23439 187.606 1.9467 188.045 2.38604L194.409 8.75L188.045 15.114C187.606 15.5533 187.606 16.2656 188.045 16.705C188.484 17.1443 189.197 17.1443 189.636 16.705L196.796 9.5455ZM0.25 9.875H1.73295V7.625H0.25V9.875ZM4.69886 9.875H7.66477V7.625H4.69886V9.875ZM10.6307 9.875H13.5966V7.625H10.6307V9.875ZM16.5625 9.875H19.5284V7.625H16.5625V9.875ZM22.4943 9.875H25.4602V7.625H22.4943V9.875ZM28.4261 9.875H31.392V7.625H28.4261V9.875ZM34.3579 9.875H37.3239V7.625H34.3579V9.875ZM40.2898 9.875H43.2557V7.625H40.2898V9.875ZM46.2216 9.875H49.1875V7.625H46.2216V9.875ZM52.1534 9.875H55.1193V7.625H52.1534V9.875ZM58.0852 9.875H61.0511V7.625H58.0852V9.875ZM64.017 9.875H66.9829V7.625H64.017V9.875ZM69.9489 9.875H72.9148V7.625H69.9489V9.875ZM75.8807 9.875H78.8466V7.625H75.8807V9.875ZM81.8125 9.875H84.7784V7.625H81.8125V9.875ZM87.7443 9.875H90.7102V7.625H87.7443V9.875ZM93.6761 9.875H96.6421V7.625H93.6761V9.875ZM99.608 9.875H102.574V7.625H99.608V9.875ZM105.54 9.875H108.506V7.625H105.54V9.875ZM111.472 9.875H114.438V7.625H111.472V9.875ZM117.403 9.875H120.369V7.625H117.403V9.875ZM123.335 9.875H126.301V7.625H123.335V9.875ZM129.267 9.875H132.233V7.625H129.267V9.875ZM135.199 9.875H138.165V7.625H135.199V9.875ZM141.131 9.875H144.097V7.625H141.131V9.875ZM147.063 9.875H150.028V7.625H147.063V9.875ZM152.994 9.875H155.96V7.625H152.994V9.875ZM158.926 9.875H161.892V7.625H158.926V9.875ZM164.858 9.875H167.824V7.625H164.858V9.875ZM170.79 9.875H173.756V7.625H170.79V9.875ZM176.722 9.875H179.688V7.625H176.722V9.875ZM182.654 9.875H185.619V7.625H182.654V9.875ZM188.585 9.875H191.551V7.625H188.585V9.875ZM194.517 9.875H196V7.625H194.517V9.875ZM196.796 9.5455C197.235 9.10616 197.235 8.39384 196.796 7.9545L189.636 0.795049C189.197 0.355709 188.484 0.355709 188.045 0.795049C187.606 1.23439 187.606 1.9467 188.045 2.38604L194.409 8.75L188.045 15.114C187.606 15.5533 187.606 16.2656 188.045 16.705C188.484 17.1443 189.197 17.1443 189.636 16.705L196.796 9.5455ZM0.25 9.875H1.73295V7.625H0.25V9.875ZM4.69886 9.875H7.66477V7.625H4.69886V9.875ZM10.6307 9.875H13.5966V7.625H10.6307V9.875ZM16.5625 9.875H19.5284V7.625H16.5625V9.875ZM22.4943 9.875H25.4602V7.625H22.4943V9.875ZM28.4261 9.875H31.392V7.625H28.4261V9.875ZM34.3579 9.875H37.3239V7.625H34.3579V9.875ZM40.2898 9.875H43.2557V7.625H40.2898V9.875ZM46.2216 9.875H49.1875V7.625H46.2216V9.875ZM52.1534 9.875H55.1193V7.625H52.1534V9.875ZM58.0852 9.875H61.0511V7.625H58.0852V9.875ZM64.017 9.875H66.9829V7.625H64.017V9.875ZM69.9489 9.875H72.9148V7.625H69.9489V9.875ZM75.8807 9.875H78.8466V7.625H75.8807V9.875ZM81.8125 9.875H84.7784V7.625H81.8125V9.875ZM87.7443 9.875H90.7102V7.625H87.7443V9.875ZM93.6761 9.875H96.6421V7.625H93.6761V9.875ZM99.608 9.875H102.574V7.625H99.608V9.875ZM105.54 9.875H108.506V7.625H105.54V9.875ZM111.472 9.875H114.438V7.625H111.472V9.875ZM117.403 9.875H120.369V7.625H117.403V9.875ZM123.335 9.875H126.301V7.625H123.335V9.875ZM129.267 9.875H132.233V7.625H129.267V9.875ZM135.199 9.875H138.165V7.625H135.199V9.875ZM141.131 9.875H144.097V7.625H141.131V9.875ZM147.063 9.875H150.028V7.625H147.063V9.875ZM152.994 9.875H155.96V7.625H152.994V9.875ZM158.926 9.875H161.892V7.625H158.926V9.875ZM164.858 9.875H167.824V7.625H164.858V9.875ZM170.79 9.875H173.756V7.625H170.79V9.875ZM176.722 9.875H179.688V7.625H176.722V9.875ZM182.654 9.875H185.619V7.625H182.654V9.875ZM188.585 9.875H191.551V7.625H188.585V9.875ZM194.517 9.875H196V7.625H194.517V9.875Z" fill="url(#paint0_linear_147_485)"/>
<defs>
<linearGradient id="paint0_linear_147_485" x1="99.8965" y1="8.80721" x2="99.8965" y2="9.75" gradientUnits="userSpaceOnUse">
<stop stop-color="#3284FF"/>
<stop offset="1" stop-color="#01D1FF"/>
</linearGradient>
</defs>
</svg>
