<svg width="263" height="24" viewBox="0 0 263 24" fill="none" xmlns="http://www.w3.org/2000/svg">
<path d="M262.061 13.0607C262.646 12.4749 262.646 11.5251 262.061 10.9393L252.515 1.3934C251.929 0.807611 250.979 0.807611 250.393 1.3934C249.808 1.97919 249.808 2.92893 250.393 3.51472L258.879 12L250.393 20.4853C249.808 21.0711 249.808 22.0208 250.393 22.6066C250.979 23.1924 251.929 23.1924 252.515 22.6066L262.061 13.0607ZM0 13.5H1.97727V10.5H0V13.5ZM5.93182 13.5H9.88636V10.5H5.93182V13.5ZM13.8409 13.5H17.7955V10.5H13.8409V13.5ZM21.75 13.5H25.7045V10.5H21.75V13.5ZM29.6591 13.5H33.6136V10.5H29.6591V13.5ZM37.5682 13.5H41.5227V10.5H37.5682V13.5ZM45.4773 13.5H49.4318V10.5H45.4773V13.5ZM53.3864 13.5H57.3409V10.5H53.3864V13.5ZM61.2954 13.5H65.25V10.5H61.2954V13.5ZM69.2045 13.5H73.1591V10.5H69.2045V13.5ZM77.1136 13.5H81.0682V10.5H77.1136V13.5ZM85.0227 13.5H88.9773V10.5H85.0227V13.5ZM92.9318 13.5H96.8863V10.5H92.9318V13.5ZM100.841 13.5H104.795V10.5H100.841V13.5ZM108.75 13.5H112.705V10.5H108.75V13.5ZM116.659 13.5H120.614V10.5H116.659V13.5ZM124.568 13.5H128.523V10.5H124.568V13.5ZM132.477 13.5H136.432V10.5H132.477V13.5ZM140.386 13.5H144.341V10.5H140.386V13.5ZM148.295 13.5H152.25V10.5H148.295V13.5ZM156.205 13.5H160.159V10.5H156.205V13.5ZM164.114 13.5H168.068V10.5H164.114V13.5ZM172.023 13.5H175.977V10.5H172.023V13.5ZM179.932 13.5H183.886V10.5H179.932V13.5ZM187.841 13.5H191.795V10.5H187.841V13.5ZM195.75 13.5H199.704V10.5H195.75V13.5ZM203.659 13.5H207.614V10.5H203.659V13.5ZM211.568 13.5H215.523V10.5H211.568V13.5ZM219.477 13.5H223.432V10.5H219.477V13.5ZM227.386 13.5H231.341V10.5H227.386V13.5ZM235.295 13.5H239.25V10.5H235.295V13.5ZM243.204 13.5H247.159V10.5H243.204V13.5ZM251.114 13.5H255.068V10.5H251.114V13.5ZM259.023 13.5H261V10.5H259.023V13.5ZM262.061 13.0607C262.646 12.4749 262.646 11.5251 262.061 10.9393L252.515 1.3934C251.929 0.807611 250.979 0.807611 250.393 1.3934C249.808 1.97919 249.808 2.92893 250.393 3.51472L258.879 12L250.393 20.4853C249.808 21.0711 249.808 22.0208 250.393 22.6066C250.979 23.1924 251.929 23.1924 252.515 22.6066L262.061 13.0607ZM0 13.5H1.97727V10.5H0V13.5ZM5.93182 13.5H9.88636V10.5H5.93182V13.5ZM13.8409 13.5H17.7955V10.5H13.8409V13.5ZM21.75 13.5H25.7045V10.5H21.75V13.5ZM29.6591 13.5H33.6136V10.5H29.6591V13.5ZM37.5682 13.5H41.5227V10.5H37.5682V13.5ZM45.4773 13.5H49.4318V10.5H45.4773V13.5ZM53.3864 13.5H57.3409V10.5H53.3864V13.5ZM61.2954 13.5H65.25V10.5H61.2954V13.5ZM69.2045 13.5H73.1591V10.5H69.2045V13.5ZM77.1136 13.5H81.0682V10.5H77.1136V13.5ZM85.0227 13.5H88.9773V10.5H85.0227V13.5ZM92.9318 13.5H96.8863V10.5H92.9318V13.5ZM100.841 13.5H104.795V10.5H100.841V13.5ZM108.75 13.5H112.705V10.5H108.75V13.5ZM116.659 13.5H120.614V10.5H116.659V13.5ZM124.568 13.5H128.523V10.5H124.568V13.5ZM132.477 13.5H136.432V10.5H132.477V13.5ZM140.386 13.5H144.341V10.5H140.386V13.5ZM148.295 13.5H152.25V10.5H148.295V13.5ZM156.205 13.5H160.159V10.5H156.205V13.5ZM164.114 13.5H168.068V10.5H164.114V13.5ZM172.023 13.5H175.977V10.5H172.023V13.5ZM179.932 13.5H183.886V10.5H179.932V13.5ZM187.841 13.5H191.795V10.5H187.841V13.5ZM195.75 13.5H199.704V10.5H195.75V13.5ZM203.659 13.5H207.614V10.5H203.659V13.5ZM211.568 13.5H215.523V10.5H211.568V13.5ZM219.477 13.5H223.432V10.5H219.477V13.5ZM227.386 13.5H231.341V10.5H227.386V13.5ZM235.295 13.5H239.25V10.5H235.295V13.5ZM243.204 13.5H247.159V10.5H243.204V13.5ZM251.114 13.5H255.068V10.5H251.114V13.5ZM259.023 13.5H261V10.5H259.023V13.5Z" fill="url(#paint0_linear_147_105)"/>
<defs>
<linearGradient id="paint0_linear_147_105" x1="132.862" y1="12.0572" x2="132.862" y2="13" gradientUnits="userSpaceOnUse">
<stop stop-color="#3284FF"/>
<stop offset="1" stop-color="#01D1FF"/>
</linearGradient>
</defs>
</svg>
