<svg width="32" height="33" viewBox="0 0 32 33" fill="none" xmlns="http://www.w3.org/2000/svg">
<g clip-path="url(#clip0_370_8271)">
<g clip-path="url(#clip1_370_8271)">
<g clip-path="url(#clip2_370_8271)">
<path d="M23.3927 16.9222L24.1781 16.1367C24.1779 16.137 24.1784 16.1364 24.1781 16.1367C24.1784 16.1364 24.1794 16.1354 24.1796 16.1352L26.9505 13.3643C26.9503 13.3644 26.9506 13.3642 26.9505 13.3643C26.9507 13.3642 26.9514 13.3635 26.9515 13.3634L29.7228 10.592L31.2455 9.06937C31.7342 8.58072 32.0033 7.93095 32.0033 7.23986C32.0033 6.54876 31.7341 5.89899 31.2455 5.4104L26.843 1.0079C26.3544 0.519256 25.7046 0.250057 25.0135 0.250057C24.3223 0.250057 23.6726 0.519193 23.184 1.0079L15.3311 8.86061L10.001 3.53039C9.10872 2.63809 7.99042 2.00294 6.76692 1.69361L1.16932 0.278621C0.849301 0.19768 0.510038 0.291121 0.27659 0.524693C0.0430799 0.758141 -0.0503616 1.09722 0.0305793 1.41736L1.44564 7.01497C1.7549 8.23839 2.39005 9.35676 3.28234 10.2491L8.61257 15.5792L0.759736 23.432C0.27109 23.9207 0.00195312 24.5704 0.00195312 25.2615C0.00195312 25.9526 0.27109 26.6023 0.759798 27.0909L5.1623 31.4935C5.651 31.9822 6.30072 32.2514 6.99187 32.2514C7.68296 32.2514 8.33269 31.9822 8.82133 31.4935L13.1139 27.2011C13.1145 27.2005 13.1152 27.1997 13.1158 27.1991C13.1165 27.1986 13.1172 27.1978 13.1177 27.1972L16.6741 23.6408L23.8932 30.8599C24.8193 31.7861 26.0359 32.2492 27.2525 32.2492C28.4691 32.2492 29.6857 31.7862 30.6118 30.8599C32.4642 29.0076 32.4642 25.9936 30.6118 24.1413L23.3927 16.9222ZM3.26347 6.55545L2.23368 2.48178L6.30734 3.51163C7.20307 3.73802 8.02179 4.20303 8.67507 4.85632L9.41423 5.59548L5.3473 9.66239L4.60814 8.92324C3.95487 8.26989 3.48991 7.45118 3.26347 6.55545ZM6.67317 10.9882L10.7401 6.92128L14.0053 10.1865L9.93838 14.2534L6.67317 10.9882ZM6.99187 30.3763C6.80161 30.3763 6.6228 30.3022 6.48823 30.1676L2.08567 25.7651C1.95116 25.6306 1.87709 25.4517 1.87709 25.2615C1.87709 25.0712 1.95116 24.8923 2.08567 24.7578L24.5098 2.3337C24.6443 2.1992 24.8233 2.12508 25.0135 2.12508C25.2038 2.12508 25.3826 2.1992 25.5172 2.3337L29.9197 6.73627C30.0542 6.87071 30.1283 7.0496 30.1283 7.23986C30.1283 7.43011 30.0542 7.60899 29.9197 7.74357L29.0602 8.60304L26.2003 5.74304C25.8342 5.3769 25.2406 5.3769 24.8744 5.74304C24.5083 6.10912 24.5083 6.70277 24.8744 7.06891L27.7343 9.92891L26.2881 11.3751L24.8142 9.90122C24.4481 9.53502 23.8545 9.53514 23.4883 9.90122C23.1222 10.2674 23.1222 10.8609 23.4883 11.2271L24.9623 12.701L23.5161 14.1471L20.6562 11.2872C20.29 10.921 19.6964 10.921 19.3302 11.2872C18.9641 11.6533 18.9641 12.2469 19.3302 12.613L22.1902 15.4729L20.7441 16.9192L19.2701 15.4453C18.904 15.0792 18.3104 15.0792 17.9443 15.4453C17.5781 15.8113 17.5781 16.405 17.9443 16.7711L19.4181 18.245L17.997 19.6661L15.137 16.8062C14.7709 16.44 14.1773 16.44 13.8112 16.8062C13.445 17.1723 13.445 17.7659 13.8112 18.132L16.6711 20.992L15.2249 22.4381L13.751 20.9643C13.3849 20.5983 12.7913 20.5983 12.4252 20.9643C12.059 21.3304 12.059 21.924 12.4252 22.2902L13.8991 23.7641L12.4528 25.2102L9.59299 22.3504C9.22691 21.9843 8.63325 21.9843 8.26712 22.3504C7.90098 22.7165 7.90098 23.3101 8.26712 23.6763L11.127 26.5361L9.6808 27.9823L8.20693 26.5084C7.84085 26.1423 7.2472 26.1423 6.88106 26.5084C6.51491 26.8745 6.51491 27.4681 6.88106 27.8343L8.35494 29.3082L7.49546 30.1676C7.36095 30.3022 7.18207 30.3763 6.99187 30.3763ZM18.6561 21.6588C18.6575 21.6575 18.6586 21.6562 18.66 21.655C18.6613 21.6537 18.6626 21.6524 18.6638 21.6511L21.406 18.9089C21.4063 18.9086 21.4067 18.9083 21.407 18.9079C21.4073 18.9075 21.4077 18.9072 21.4081 18.9069L22.0669 18.248L26.0396 22.2209L21.9728 26.2877L17.9999 22.3149L18.6561 21.6588ZM29.286 29.534C28.1648 30.6552 26.3402 30.6552 25.219 29.534L23.2986 27.6135L27.3656 23.5466L29.286 25.467C30.4072 26.5884 30.4072 28.4128 29.286 29.534Z" fill="white"/>
</g>
</g>
</g>
<defs>
<clipPath id="clip0_370_8271">
<rect width="32.0014" height="32.0014" fill="white" transform="translate(0 0.25)"/>
</clipPath>
<clipPath id="clip1_370_8271">
<rect width="32.0014" height="32.0014" fill="white" transform="translate(0 0.25)"/>
</clipPath>
<clipPath id="clip2_370_8271">
<rect width="32.0014" height="32.0014" fill="white" transform="translate(0 0.25)"/>
</clipPath>
</defs>
</svg>
