<svg width="32" height="32" viewBox="0 0 32 32" fill="none" xmlns="http://www.w3.org/2000/svg">
<g clip-path="url(#clip0_370_7991)">
<g clip-path="url(#clip1_370_7991)">
<path d="M6.90504 28.3259C8.02731 28.3216 9.11656 27.9472 10.0025 27.2612C10.8885 26.575 11.5212 25.6159 11.8017 24.5337H19.7775C20.0203 25.5255 20.5558 26.4221 21.315 27.1081C22.0742 27.794 23.0223 28.2378 24.0371 28.3823C25.0519 28.5267 26.0867 28.3651 27.0085 27.9184C27.9302 27.4717 28.6964 26.7602 29.2084 25.8757C29.7204 24.9914 29.9548 23.9746 29.8812 22.9563C29.8078 21.9381 29.4297 20.9651 28.7958 20.1628C28.162 19.3605 27.3013 18.7656 26.3248 18.4548C25.3485 18.1441 24.301 18.1317 23.3174 18.4193L19.3638 11.6856C20.0786 10.9804 20.5669 10.0796 20.7666 9.09743C20.9666 8.11531 20.8688 7.09622 20.4859 6.16951C20.1031 5.2428 19.4523 4.45029 18.6165 3.89258C17.7805 3.33488 16.797 3.03711 15.791 3.03711C14.7848 3.03711 13.8013 3.33488 12.9653 3.89258C12.1294 4.45029 11.4787 5.2428 11.0958 6.16951C10.713 7.09622 10.6153 8.11531 10.8151 9.09743C11.0149 10.0796 11.5032 10.9804 12.218 11.6856L8.27327 18.4232C7.82909 18.2907 7.36866 18.22 6.90504 18.2133C5.55855 18.2133 4.26723 18.746 3.31511 19.6942C2.36302 20.6425 1.82812 21.9286 1.82812 23.2696C1.82812 24.6105 2.36302 25.8966 3.31511 26.8449C4.26723 27.7931 5.55855 28.3259 6.90504 28.3259ZM24.6742 20.7415C25.1763 20.7415 25.667 20.8898 26.0845 21.1675C26.5019 21.4453 26.8274 21.8401 27.0195 22.3021C27.2116 22.764 27.2618 23.2724 27.164 23.7627C27.066 24.2532 26.8242 24.7038 26.4691 25.0573C26.1142 25.4109 25.6618 25.6516 25.1694 25.7491C24.677 25.8467 24.1666 25.7966 23.7028 25.6052C23.239 25.4138 22.8425 25.0899 22.5637 24.6741C22.2846 24.2584 22.1358 23.7696 22.1358 23.2696C22.1358 22.5991 22.4032 21.956 22.8793 21.4818C23.3554 21.0079 24.001 20.7415 24.6742 20.7415ZM15.7896 5.57257C16.2917 5.57257 16.7825 5.72085 17.1999 5.99864C17.6173 6.27645 17.9428 6.67128 18.135 7.13324C18.327 7.5952 18.3772 8.10352 18.2794 8.59393C18.1814 9.08435 17.9396 9.53481 17.5845 9.88838C17.2295 10.2419 16.7772 10.4827 16.2848 10.5803C15.7924 10.6779 15.282 10.6278 14.8182 10.4364C14.3544 10.2451 13.9579 9.92103 13.6791 9.50527C13.4 9.08953 13.2512 8.60074 13.2512 8.10072C13.2512 7.43021 13.5186 6.78717 13.9947 6.31305C14.4707 5.83894 15.1164 5.57257 15.7896 5.57257ZM14.4214 12.9471C14.8656 13.0796 15.326 13.1502 15.7896 13.157C16.2552 13.1507 16.7174 13.0792 17.1629 12.9446L21.1128 19.6733C20.4649 20.3166 20.0035 21.1225 19.7775 22.0056H11.8017C11.5775 21.1266 11.1198 20.324 10.4766 19.6822L14.4214 12.9471ZM6.90504 20.7415C7.4071 20.7415 7.89789 20.8898 8.31533 21.1675C8.73278 21.4453 9.05814 21.8401 9.25028 22.3021C9.4424 22.764 9.49267 23.2724 9.39472 23.7627C9.29678 24.2532 9.05502 24.7038 8.7 25.0573C8.345 25.4109 7.89269 25.6516 7.40028 25.7491C6.90787 25.8467 6.39746 25.7966 5.93362 25.6052C5.46978 25.4138 5.07331 25.0899 4.79439 24.6741C4.51546 24.2584 4.36658 23.7696 4.36658 23.2696C4.36658 22.5991 4.63403 21.956 5.11009 21.4818C5.58613 21.0079 6.2318 20.7415 6.90504 20.7415Z" fill="white"/>
</g>
</g>
<defs>
<clipPath id="clip0_370_7991">
<rect width="31.4769" height="31.4769" fill="white" transform="translate(0.291504 0.269531)"/>
</clipPath>
<clipPath id="clip1_370_7991">
<rect width="31.4769" height="31.4769" fill="white" transform="translate(0.291504 0.269531)"/>
</clipPath>
</defs>
</svg>
