<svg width="113" height="523" viewBox="0 0 113 523" fill="none" xmlns="http://www.w3.org/2000/svg">
<path d="M79.25 6.75C79.25 10.0637 76.5637 12.75 73.25 12.75C69.9363 12.75 67.25 10.0637 67.25 6.75C67.25 3.43629 69.9363 0.75 73.25 0.75C76.5637 0.75 79.25 3.43629 79.25 6.75ZM112.295 512.954C112.735 513.394 112.735 514.106 112.295 514.546L105.136 521.705C104.697 522.144 103.984 522.144 103.545 521.705C103.106 521.266 103.106 520.553 103.545 520.114L109.909 513.75L103.545 507.386C103.106 506.947 103.106 506.234 103.545 505.795C103.984 505.356 104.697 505.356 105.136 505.795L112.295 512.954ZM111.5 514.875H110.023V512.625H111.5V514.875ZM107.07 514.875H104.117V512.625H107.07V514.875ZM101.164 514.875H98.2109V512.625H101.164V514.875ZM95.2578 514.875H92.3047V512.625H95.2578V514.875ZM89.3516 514.875H86.3984V512.625H89.3516V514.875ZM83.4453 514.875H80.4922V512.625H83.4453V514.875ZM77.5391 514.875H74.5859V512.625H77.5391V514.875ZM71.6328 514.875H68.6797V512.625H71.6328V514.875ZM65.7266 514.875H62.7734V512.625H65.7266V514.875ZM59.8203 514.875H56.8672V512.625H59.8203V514.875ZM53.9141 514.875H50.9609V512.625H53.9141V514.875ZM48.0078 514.875H45.0547V512.625H48.0078V514.875ZM42.1016 514.875H39.1484V512.625H42.1016V514.875ZM36.1953 514.875H33.2422V512.625H36.1953V514.875ZM30.2891 514.875H27.3359V512.625H30.2891V514.875ZM24.3828 514.875H21.4297V512.625H24.3828V514.875ZM18.4766 514.875H17V512.625H18.4766V514.875ZM17 514.875C16.4673 514.875 15.9403 514.849 15.4202 514.799L15.6381 512.559C16.0859 512.603 16.5402 512.625 17 512.625V514.875ZM12.3181 514.184C11.2976 513.875 10.3201 513.468 9.39661 512.973L10.459 510.99C11.2533 511.415 12.0936 511.765 12.9705 512.031L12.3181 514.184ZM6.76978 511.215C5.95406 510.545 5.20536 509.796 4.53516 508.98L6.27364 507.552C6.85081 508.254 7.49565 508.899 8.19814 509.476L6.76978 511.215ZM2.77681 506.353C2.28217 505.43 1.87469 504.452 1.56553 503.432L3.71887 502.78C3.98454 503.656 4.33478 504.497 4.76022 505.291L2.77681 506.353ZM0.951485 500.33C0.900871 499.81 0.875 499.283 0.875 498.75H3.125C3.125 499.21 3.14733 499.664 3.1909 500.112L0.951485 500.33ZM0.875 498.75V497.259H3.125V498.75H0.875ZM0.875 494.278V491.297H3.125V494.278H0.875ZM0.875 488.316V485.334H3.125V488.316H0.875ZM0.875 482.353V479.372H3.125V482.353H0.875ZM0.875 476.391V473.409H3.125V476.391H0.875ZM0.875 470.428V467.447H3.125V470.428H0.875ZM0.875 464.466V461.484H3.125V464.466H0.875ZM0.875 458.503V455.522H3.125V458.503H0.875ZM0.875 452.541V449.559H3.125V452.541H0.875ZM0.875 446.578V443.597H3.125V446.578H0.875ZM0.875 440.616V437.634H3.125V440.616H0.875ZM0.875 434.653V431.672H3.125V434.653H0.875ZM0.875 428.691V425.709H3.125V428.691H0.875ZM0.875 422.728V419.747H3.125V422.728H0.875ZM0.875 416.766V413.784H3.125V416.766H0.875ZM0.875 410.803V407.822H3.125V410.803H0.875ZM0.875 404.841V401.859H3.125V404.841H0.875ZM0.875 398.878V395.897H3.125V398.878H0.875ZM0.875 392.916V389.934H3.125V392.916H0.875ZM0.875 386.953V383.972H3.125V386.953H0.875ZM0.875 380.991V378.009H3.125V380.991H0.875ZM0.875 375.028V372.047H3.125V375.028H0.875ZM0.875 369.066V366.084H3.125V369.066H0.875ZM0.875 363.103V360.122H3.125V363.103H0.875ZM0.875 357.141V354.159H3.125V357.141H0.875ZM0.875 351.178V348.197H3.125V351.178H0.875ZM0.875 345.216V342.234H3.125V345.216H0.875ZM0.875 339.253V336.272H3.125V339.253H0.875ZM0.875 333.291V330.309H3.125V333.291H0.875ZM0.875 327.328V324.347H3.125V327.328H0.875ZM0.875 321.366V318.384H3.125V321.366H0.875ZM0.875 315.403V312.422H3.125V315.403H0.875ZM0.875 309.441V306.46H3.125V309.441H0.875ZM0.875 303.478V300.497H3.125V303.478H0.875ZM0.875 297.516V294.535H3.125V297.516H0.875ZM0.875 291.553V288.572H3.125V291.553H0.875ZM0.875 285.591V282.61H3.125V285.591H0.875ZM0.875 279.628V276.647H3.125V279.628H0.875ZM0.875 273.666V270.685H3.125V273.666H0.875ZM0.875 267.703V264.722H3.125V267.703H0.875ZM0.875 261.741V258.76H3.125V261.741H0.875ZM0.875 255.778V252.797H3.125V255.778H0.875ZM0.875 249.816V246.835H3.125V249.816H0.875ZM0.875 243.853V240.872H3.125V243.853H0.875ZM0.875 237.891V234.91H3.125V237.891H0.875ZM0.875 231.928V228.947H3.125V231.928H0.875ZM0.875 225.966V222.984H3.125V225.966H0.875ZM0.875 220.003V217.022H3.125V220.003H0.875ZM0.875 214.041V211.059H3.125V214.041H0.875ZM0.875 208.078V205.097H3.125V208.078H0.875ZM0.875 202.116V199.134H3.125V202.116H0.875ZM0.875 196.153V193.172H3.125V196.153H0.875ZM0.875 190.191V187.209H3.125V190.191H0.875ZM0.875 184.228V181.247H3.125V184.228H0.875ZM0.875 178.266V175.284H3.125V178.266H0.875ZM0.875 172.303V169.322H3.125V172.303H0.875ZM0.875 166.34V163.359H3.125V166.34H0.875ZM0.875 160.378V157.397H3.125V160.378H0.875ZM0.875 154.415V151.434H3.125V154.415H0.875ZM0.875 148.453V145.472H3.125V148.453H0.875ZM0.875 142.49V139.509H3.125V142.49H0.875ZM0.875 136.528V133.547H3.125V136.528H0.875ZM0.875 130.565V127.584H3.125V130.565H0.875ZM0.875 124.603V121.622H3.125V124.603H0.875ZM0.875 118.64V115.659H3.125V118.64H0.875ZM0.875 112.678V109.697H3.125V112.678H0.875ZM0.875 106.715V103.734H3.125V106.715H0.875ZM0.875 100.753V97.7715H3.125V100.753H0.875ZM0.875 94.7902V91.8089H3.125V94.7902H0.875ZM0.875 88.8277V85.8464H3.125V88.8277H0.875ZM0.875 82.8652V79.8839H3.125V82.8652H0.875ZM0.875 76.9026V73.9214H3.125V76.9026H0.875ZM0.875 70.9401V67.9588H3.125V70.9401H0.875ZM0.875 64.9776V61.9963H3.125V64.9776H0.875ZM0.875 59.0151V56.0338H3.125V59.0151H0.875ZM0.875 53.0525V50.0713H3.125V53.0525H0.875ZM0.875 47.09V44.1087H3.125V47.09H0.875ZM0.875 41.1275V38.1462H3.125V41.1275H0.875ZM0.875 35.1649V32.1837H3.125V35.1649H0.875ZM0.875 29.2024V26.2212H3.125V29.2024H0.875ZM0.875 23.2399V21.75H3.125V23.2399H0.875ZM0.875 21.75C0.875 21.2173 0.900871 20.6903 0.951485 20.1702L3.1909 20.3881C3.14733 20.8359 3.125 21.2902 3.125 21.75H0.875ZM1.56553 17.0681C1.87469 16.0476 2.28217 15.0701 2.77681 14.1466L4.76022 15.209C4.33478 16.0033 3.98454 16.8436 3.71887 17.7205L1.56553 17.0681ZM4.53516 11.5198C5.20536 10.7041 5.95406 9.95536 6.76978 9.28516L8.19814 11.0236C7.49565 11.6008 6.85081 12.2456 6.27364 12.9481L4.53516 11.5198ZM9.39661 7.52681C10.3201 7.03216 11.2976 6.62469 12.3181 6.31553L12.9705 8.46887C12.0936 8.73454 11.2533 9.08478 10.459 9.51022L9.39661 7.52681ZM15.4202 5.70149C15.9403 5.65087 16.4673 5.625 17 5.625V7.875C16.5402 7.875 16.0859 7.89733 15.6381 7.9409L15.4202 5.70149ZM17 5.625H18.5625V7.875H17V5.625ZM21.6875 5.625H24.8125V7.875H21.6875V5.625ZM27.9375 5.625H31.0625V7.875H27.9375V5.625ZM34.1875 5.625H37.3125V7.875H34.1875V5.625ZM40.4375 5.625H43.5625V7.875H40.4375V5.625ZM46.6875 5.625H49.8125V7.875H46.6875V5.625ZM52.9375 5.625H56.0625V7.875H52.9375V5.625ZM59.1875 5.625H62.3125V7.875H59.1875V5.625ZM65.4375 5.625H68.5625V7.875H65.4375V5.625ZM71.6875 5.625H73.25V7.875H71.6875V5.625ZM79.25 6.75C79.25 10.0637 76.5637 12.75 73.25 12.75C69.9363 12.75 67.25 10.0637 67.25 6.75C67.25 3.43629 69.9363 0.75 73.25 0.75C76.5637 0.75 79.25 3.43629 79.25 6.75ZM112.295 512.954C112.735 513.394 112.735 514.106 112.295 514.546L105.136 521.705C104.697 522.144 103.984 522.144 103.545 521.705C103.106 521.266 103.106 520.553 103.545 520.114L109.909 513.75L103.545 507.386C103.106 506.947 103.106 506.234 103.545 505.795C103.984 505.356 104.697 505.356 105.136 505.795L112.295 512.954ZM111.5 514.875H110.023V512.625H111.5V514.875ZM107.07 514.875H104.117V512.625H107.07V514.875ZM101.164 514.875H98.2109V512.625H101.164V514.875ZM95.2578 514.875H92.3047V512.625H95.2578V514.875ZM89.3516 514.875H86.3984V512.625H89.3516V514.875ZM83.4453 514.875H80.4922V512.625H83.4453V514.875ZM77.5391 514.875H74.5859V512.625H77.5391V514.875ZM71.6328 514.875H68.6797V512.625H71.6328V514.875ZM65.7266 514.875H62.7734V512.625H65.7266V514.875ZM59.8203 514.875H56.8672V512.625H59.8203V514.875ZM53.9141 514.875H50.9609V512.625H53.9141V514.875ZM48.0078 514.875H45.0547V512.625H48.0078V514.875ZM42.1016 514.875H39.1484V512.625H42.1016V514.875ZM36.1953 514.875H33.2422V512.625H36.1953V514.875ZM30.2891 514.875H27.3359V512.625H30.2891V514.875ZM24.3828 514.875H21.4297V512.625H24.3828V514.875ZM18.4766 514.875H17V512.625H18.4766V514.875ZM17 514.875C16.4673 514.875 15.9403 514.849 15.4202 514.799L15.6381 512.559C16.0859 512.603 16.5402 512.625 17 512.625V514.875ZM12.3181 514.184C11.2976 513.875 10.3201 513.468 9.39661 512.973L10.459 510.99C11.2533 511.415 12.0936 511.765 12.9705 512.031L12.3181 514.184ZM6.76978 511.215C5.95406 510.545 5.20536 509.796 4.53516 508.98L6.27364 507.552C6.85081 508.254 7.49565 508.899 8.19814 509.476L6.76978 511.215ZM2.77681 506.353C2.28217 505.43 1.87469 504.452 1.56553 503.432L3.71887 502.78C3.98454 503.656 4.33478 504.497 4.76022 505.291L2.77681 506.353ZM0.951485 500.33C0.900871 499.81 0.875 499.283 0.875 498.75H3.125C3.125 499.21 3.14733 499.664 3.1909 500.112L0.951485 500.33ZM0.875 498.75V497.259H3.125V498.75H0.875ZM0.875 494.278V491.297H3.125V494.278H0.875ZM0.875 488.316V485.334H3.125V488.316H0.875ZM0.875 482.353V479.372H3.125V482.353H0.875ZM0.875 476.391V473.409H3.125V476.391H0.875ZM0.875 470.428V467.447H3.125V470.428H0.875ZM0.875 464.466V461.484H3.125V464.466H0.875ZM0.875 458.503V455.522H3.125V458.503H0.875ZM0.875 452.541V449.559H3.125V452.541H0.875ZM0.875 446.578V443.597H3.125V446.578H0.875ZM0.875 440.616V437.634H3.125V440.616H0.875ZM0.875 434.653V431.672H3.125V434.653H0.875ZM0.875 428.691V425.709H3.125V428.691H0.875ZM0.875 422.728V419.747H3.125V422.728H0.875ZM0.875 416.766V413.784H3.125V416.766H0.875ZM0.875 410.803V407.822H3.125V410.803H0.875ZM0.875 404.841V401.859H3.125V404.841H0.875ZM0.875 398.878V395.897H3.125V398.878H0.875ZM0.875 392.916V389.934H3.125V392.916H0.875ZM0.875 386.953V383.972H3.125V386.953H0.875ZM0.875 380.991V378.009H3.125V380.991H0.875ZM0.875 375.028V372.047H3.125V375.028H0.875ZM0.875 369.066V366.084H3.125V369.066H0.875ZM0.875 363.103V360.122H3.125V363.103H0.875ZM0.875 357.141V354.159H3.125V357.141H0.875ZM0.875 351.178V348.197H3.125V351.178H0.875ZM0.875 345.216V342.234H3.125V345.216H0.875ZM0.875 339.253V336.272H3.125V339.253H0.875ZM0.875 333.291V330.309H3.125V333.291H0.875ZM0.875 327.328V324.347H3.125V327.328H0.875ZM0.875 321.366V318.384H3.125V321.366H0.875ZM0.875 315.403V312.422H3.125V315.403H0.875ZM0.875 309.441V306.46H3.125V309.441H0.875ZM0.875 303.478V300.497H3.125V303.478H0.875ZM0.875 297.516V294.535H3.125V297.516H0.875ZM0.875 291.553V288.572H3.125V291.553H0.875ZM0.875 285.591V282.61H3.125V285.591H0.875ZM0.875 279.628V276.647H3.125V279.628H0.875ZM0.875 273.666V270.685H3.125V273.666H0.875ZM0.875 267.703V264.722H3.125V267.703H0.875ZM0.875 261.741V258.76H3.125V261.741H0.875ZM0.875 255.778V252.797H3.125V255.778H0.875ZM0.875 249.816V246.835H3.125V249.816H0.875ZM0.875 243.853V240.872H3.125V243.853H0.875ZM0.875 237.891V234.91H3.125V237.891H0.875ZM0.875 231.928V228.947H3.125V231.928H0.875ZM0.875 225.966V222.984H3.125V225.966H0.875ZM0.875 220.003V217.022H3.125V220.003H0.875ZM0.875 214.041V211.059H3.125V214.041H0.875ZM0.875 208.078V205.097H3.125V208.078H0.875ZM0.875 202.116V199.134H3.125V202.116H0.875ZM0.875 196.153V193.172H3.125V196.153H0.875ZM0.875 190.191V187.209H3.125V190.191H0.875ZM0.875 184.228V181.247H3.125V184.228H0.875ZM0.875 178.266V175.284H3.125V178.266H0.875ZM0.875 172.303V169.322H3.125V172.303H0.875ZM0.875 166.34V163.359H3.125V166.34H0.875ZM0.875 160.378V157.397H3.125V160.378H0.875ZM0.875 154.415V151.434H3.125V154.415H0.875ZM0.875 148.453V145.472H3.125V148.453H0.875ZM0.875 142.49V139.509H3.125V142.49H0.875ZM0.875 136.528V133.547H3.125V136.528H0.875ZM0.875 130.565V127.584H3.125V130.565H0.875ZM0.875 124.603V121.622H3.125V124.603H0.875ZM0.875 118.64V115.659H3.125V118.64H0.875ZM0.875 112.678V109.697H3.125V112.678H0.875ZM0.875 106.715V103.734H3.125V106.715H0.875ZM0.875 100.753V97.7715H3.125V100.753H0.875ZM0.875 94.7902V91.8089H3.125V94.7902H0.875ZM0.875 88.8277V85.8464H3.125V88.8277H0.875ZM0.875 82.8652V79.8839H3.125V82.8652H0.875ZM0.875 76.9026V73.9214H3.125V76.9026H0.875ZM0.875 70.9401V67.9588H3.125V70.9401H0.875ZM0.875 64.9776V61.9963H3.125V64.9776H0.875ZM0.875 59.0151V56.0338H3.125V59.0151H0.875ZM0.875 53.0525V50.0713H3.125V53.0525H0.875ZM0.875 47.09V44.1087H3.125V47.09H0.875ZM0.875 41.1275V38.1462H3.125V41.1275H0.875ZM0.875 35.1649V32.1837H3.125V35.1649H0.875ZM0.875 29.2024V26.2212H3.125V29.2024H0.875ZM0.875 23.2399V21.75H3.125V23.2399H0.875ZM0.875 21.75C0.875 21.2173 0.900871 20.6903 0.951485 20.1702L3.1909 20.3881C3.14733 20.8359 3.125 21.2902 3.125 21.75H0.875ZM1.56553 17.0681C1.87469 16.0476 2.28217 15.0701 2.77681 14.1466L4.76022 15.209C4.33478 16.0033 3.98454 16.8436 3.71887 17.7205L1.56553 17.0681ZM4.53516 11.5198C5.20536 10.7041 5.95406 9.95536 6.76978 9.28516L8.19814 11.0236C7.49565 11.6008 6.85081 12.2456 6.27364 12.9481L4.53516 11.5198ZM9.39661 7.52681C10.3201 7.03216 11.2976 6.62469 12.3181 6.31553L12.9705 8.46887C12.0936 8.73454 11.2533 9.08478 10.459 9.51022L9.39661 7.52681ZM15.4202 5.70149C15.9403 5.65087 16.4673 5.625 17 5.625V7.875C16.5402 7.875 16.0859 7.89733 15.6381 7.9409L15.4202 5.70149ZM17 5.625H18.5625V7.875H17V5.625ZM21.6875 5.625H24.8125V7.875H21.6875V5.625ZM27.9375 5.625H31.0625V7.875H27.9375V5.625ZM34.1875 5.625H37.3125V7.875H34.1875V5.625ZM40.4375 5.625H43.5625V7.875H40.4375V5.625ZM46.6875 5.625H49.8125V7.875H46.6875V5.625ZM52.9375 5.625H56.0625V7.875H52.9375V5.625ZM59.1875 5.625H62.3125V7.875H59.1875V5.625ZM65.4375 5.625H68.5625V7.875H65.4375V5.625ZM71.6875 5.625H73.25V7.875H71.6875V5.625Z" fill="url(#paint0_linear_147_792)"/>
<defs>
<linearGradient id="paint0_linear_147_792" x1="55.759" y1="35.7531" x2="55.759" y2="513.751" gradientUnits="userSpaceOnUse">
<stop stop-color="#3284FF"/>
<stop offset="1" stop-color="#01D1FF"/>
</linearGradient>
</defs>
</svg>
