<svg width="99" height="414" viewBox="0 0 99 414" fill="none" xmlns="http://www.w3.org/2000/svg">
<g clip-path="url(#clip0_165_83)">
<path d="M0.626389 404.827C0.235865 405.224 0.235865 405.866 0.626389 406.262L6.99035 412.719C7.38087 413.116 8.01404 413.116 8.40456 412.719C8.79509 412.324 8.79509 411.681 8.40456 411.285L2.74771 405.544L8.40456 399.805C8.79509 399.409 8.79509 398.766 8.40456 398.369C8.01404 397.974 7.38087 397.974 6.99035 398.369L0.626389 404.827ZM1.3335 2.70654H2.63558V0.677124H1.3335V2.70654ZM5.23975 2.70654H7.84391V0.677124H5.23975V2.70654ZM10.4481 2.70654H13.0522V0.677124H10.4481V2.70654ZM15.6564 2.70654H18.2606V0.677124H15.6564V2.70654ZM20.8647 2.70654H23.4689V0.677124H20.8647V2.70654ZM26.0731 2.70654H28.6773V0.677124H26.0731V2.70654ZM31.2814 2.70654H33.8856V0.677124H31.2814V2.70654ZM36.4898 2.70654H39.0939V0.677124H36.4898V2.70654ZM41.6981 2.70654H44.3023V0.677124H41.6981V2.70654ZM46.9064 2.70654H49.5106V0.677124H46.9064V2.70654ZM52.1148 2.70654H54.7189V0.677124H52.1148V2.70654ZM57.3231 2.70654H59.9273V0.677124H57.3231V2.70654ZM62.5314 2.70654H65.1356V0.677124H62.5314V2.70654ZM67.7398 2.70654H70.3439V0.677124H67.7398V2.70654ZM72.9481 2.70654H75.5523V0.677124H72.9481V2.70654ZM78.1564 2.70654H80.7606V0.677124H78.1564V2.70654ZM83.3648 2.70654H84.6668V0.677124H83.3648V2.70654ZM84.6668 2.70654C85.0756 2.70654 85.4794 2.72668 85.8774 2.76598L86.0711 0.746111C85.6088 0.700459 85.1404 0.677124 84.6668 0.677124V2.70654ZM88.2487 3.24218C89.0281 3.4818 89.775 3.79771 90.4811 4.18144L91.4254 2.39249C90.6045 1.94633 89.7356 1.5788 88.8286 1.29995L88.2487 3.24218ZM92.4907 5.54649C93.1151 6.06707 93.6883 6.64869 94.2014 7.2823L95.7467 5.99398C95.151 5.25825 94.4854 4.58294 93.7604 3.97845L92.4907 5.54649ZM95.5466 9.32149C95.9248 10.0379 96.2361 10.7958 96.4723 11.5868L98.3864 10.9983C98.1115 10.0779 97.7494 9.19626 97.3097 8.36329L95.5466 9.32149ZM96.9416 13.993C96.9803 14.3968 97.0002 14.8065 97.0002 15.2213H99.0002C99.0002 14.7408 98.9772 14.2654 98.9322 13.7963L96.9416 13.993ZM97.0002 15.2213V16.567H99.0002V15.2213H97.0002ZM97.0002 19.2584V21.9497H99.0002V19.2584H97.0002ZM97.0002 24.6411V27.3325H99.0002V24.6411H97.0002ZM97.0002 30.0239V32.7153H99.0002V30.0239H97.0002ZM97.0002 35.4066V38.098H99.0002V35.4066H97.0002ZM97.0002 40.7894V43.4808H99.0002V40.7894H97.0002ZM97.0002 46.1722V48.8636H99.0002V46.1722H97.0002ZM97.0002 51.5549V54.2463H99.0002V51.5549H97.0002ZM97.0002 56.9377V59.6291H99.0002V56.9377H97.0002ZM97.0002 62.3206V65.012H99.0002V62.3206H97.0002ZM97.0002 67.7033V70.3947H99.0002V67.7033H97.0002ZM97.0002 73.0861V75.7775H99.0002V73.0861H97.0002ZM97.0002 78.4689V81.1602H99.0002V78.4689H97.0002ZM97.0002 83.8516V86.543H99.0002V83.8516H97.0002ZM97.0002 89.2344V91.9258H99.0002V89.2344H97.0002ZM97.0002 94.6171V97.3085H99.0002V94.6171H97.0002ZM97.0002 99.9999V102.691H99.0002V99.9999H97.0002ZM97.0002 105.382V108.074H99.0002V105.382H97.0002ZM97.0002 110.765V113.457H99.0002V110.765H97.0002ZM97.0002 116.148V118.839H99.0002V116.148H97.0002ZM97.0002 121.531V124.222H99.0002V121.531H97.0002ZM97.0002 126.914V129.605H99.0002V126.914H97.0002ZM97.0002 132.296V134.988H99.0002V132.296H97.0002ZM97.0002 137.679V140.37H99.0002V137.679H97.0002ZM97.0002 143.062V145.753H99.0002V143.062H97.0002ZM97.0002 148.445V151.136H99.0002V148.445H97.0002ZM97.0002 153.827V156.519H99.0002V153.827H97.0002ZM97.0002 159.21V161.901H99.0002V159.21H97.0002ZM97.0002 164.593V167.284H99.0002V164.593H97.0002ZM97.0002 169.976V172.667H99.0002V169.976H97.0002ZM97.0002 175.358V178.05H99.0002V175.358H97.0002ZM97.0002 180.741V183.432H99.0002V180.741H97.0002ZM97.0002 186.124V188.815H99.0002V186.124H97.0002ZM97.0002 191.507V194.198H99.0002V191.507H97.0002ZM97.0002 196.889V199.581H99.0002V196.889H97.0002ZM97.0002 202.272V204.963H99.0002V202.272H97.0002ZM97.0002 207.655V210.346H99.0002V207.655H97.0002ZM97.0002 213.038V215.729H99.0002V213.038H97.0002ZM97.0002 218.42V221.113H99.0002V218.42H97.0002ZM97.0002 223.804V226.495H99.0002V223.804H97.0002ZM97.0002 229.187V231.878H99.0002V229.187H97.0002ZM97.0002 234.57V237.261H99.0002V234.57H97.0002ZM97.0002 239.952V242.644H99.0002V239.952H97.0002ZM97.0002 245.335V248.026H99.0002V245.335H97.0002ZM97.0002 250.718V253.409H99.0002V250.718H97.0002ZM97.0002 256.101V258.792H99.0002V256.101H97.0002ZM97.0002 261.483V264.175H99.0002V261.483H97.0002ZM97.0002 266.866V269.557H99.0002V266.866H97.0002ZM97.0002 272.249V274.94H99.0002V272.249H97.0002ZM97.0002 277.632V280.323H99.0002V277.632H97.0002ZM97.0002 283.014V285.706H99.0002V283.014H97.0002ZM97.0002 288.397V291.088H99.0002V288.397H97.0002ZM97.0002 293.78V296.471H99.0002V293.78H97.0002ZM97.0002 299.163V301.854H99.0002V299.163H97.0002ZM97.0002 304.545V307.237H99.0002V304.545H97.0002ZM97.0002 309.928V312.619H99.0002V309.928H97.0002ZM97.0002 315.311V318.002H99.0002V315.311H97.0002ZM97.0002 320.694V323.385H99.0002V320.694H97.0002ZM97.0002 326.076V328.768H99.0002V326.076H97.0002ZM97.0002 331.459V334.15H99.0002V331.459H97.0002ZM97.0002 336.842V339.533H99.0002V336.842H97.0002ZM97.0002 342.225V344.916H99.0002V342.225H97.0002ZM97.0002 347.607V350.299H99.0002V347.607H97.0002ZM97.0002 352.99V355.681H99.0002V352.99H97.0002ZM97.0002 358.373V361.064H99.0002V358.373H97.0002ZM97.0002 363.756V366.447H99.0002V363.756H97.0002ZM97.0002 369.138V371.83H99.0002V369.138H97.0002ZM97.0002 374.521V377.212H99.0002V374.521H97.0002ZM97.0002 379.904V382.595H99.0002V379.904H97.0002ZM97.0002 385.287V387.978H99.0002V385.287H97.0002ZM97.0002 390.669V392.015H99.0002V390.669H97.0002ZM97.0002 392.015C97.0002 392.43 96.9803 392.84 96.9416 393.244L98.9322 393.44C98.9772 392.971 99.0002 392.496 99.0002 392.015H97.0002ZM96.4723 395.65C96.2361 396.441 95.9248 397.199 95.5466 397.915L97.3097 398.874C97.7494 398.041 98.1115 397.159 98.3864 396.239L96.4723 395.65ZM94.2014 399.954C93.6883 400.588 93.1151 401.17 92.4907 401.691L93.7604 403.258C94.4854 402.654 95.1509 401.979 95.7467 401.243L94.2014 399.954ZM90.4811 403.055C89.775 403.439 89.0281 403.755 88.2486 403.994L88.8286 405.937C89.7356 405.658 90.6045 405.291 91.4254 404.844L90.4811 403.055ZM85.8774 404.471C85.4794 404.51 85.0756 404.53 84.6668 404.53V406.559C85.1404 406.559 85.6088 406.536 86.0711 406.49L85.8774 404.471ZM84.6668 404.53H83.3647V406.559H84.6668V404.53ZM80.7606 404.53H78.1564V406.559H80.7606V404.53ZM75.5522 404.53H72.9481V406.559H75.5522V404.53ZM70.3439 404.53H67.7397V406.559H70.3439V404.53ZM65.1356 404.53H62.5314V406.559H65.1356V404.53ZM59.9272 404.53H57.3231V406.559H59.9272V404.53ZM54.7189 404.53H52.1147V406.559H54.7189V404.53ZM49.5106 404.53H46.9064V406.559H49.5106V404.53ZM44.3022 404.53H41.6981V406.559H44.3022V404.53ZM39.0939 404.53H36.4897V406.559H39.0939V404.53ZM33.8856 404.53H31.2814V406.559H33.8856V404.53ZM28.6772 404.53H26.0731V406.559H28.6772V404.53ZM23.4689 404.53H20.8647V406.559H23.4689V404.53ZM18.2606 404.53H15.6564V406.559H18.2606V404.53ZM13.0522 404.53H10.4481V406.559H13.0522V404.53ZM7.84391 404.53H5.23975V406.559H7.84391V404.53ZM2.63558 404.53H1.3335V406.559H2.63558V404.53ZM0.626389 404.827C0.235865 405.224 0.235865 405.866 0.626389 406.262L6.99035 412.719C7.38087 413.116 8.01404 413.116 8.40456 412.719C8.79509 412.324 8.79509 411.681 8.40456 411.285L2.74771 405.544L8.40456 399.805C8.79509 399.409 8.79509 398.766 8.40456 398.369C8.01404 397.974 7.38087 397.974 6.99035 398.369L0.626389 404.827ZM1.3335 2.70654H2.63558V0.677124H1.3335V2.70654ZM5.23975 2.70654H7.84391V0.677124H5.23975V2.70654ZM10.4481 2.70654H13.0522V0.677124H10.4481V2.70654ZM15.6564 2.70654H18.2606V0.677124H15.6564V2.70654ZM20.8647 2.70654H23.4689V0.677124H20.8647V2.70654ZM26.0731 2.70654H28.6773V0.677124H26.0731V2.70654ZM31.2814 2.70654H33.8856V0.677124H31.2814V2.70654ZM36.4898 2.70654H39.0939V0.677124H36.4898V2.70654ZM41.6981 2.70654H44.3023V0.677124H41.6981V2.70654ZM46.9064 2.70654H49.5106V0.677124H46.9064V2.70654ZM52.1148 2.70654H54.7189V0.677124H52.1148V2.70654ZM57.3231 2.70654H59.9273V0.677124H57.3231V2.70654ZM62.5314 2.70654H65.1356V0.677124H62.5314V2.70654ZM67.7398 2.70654H70.3439V0.677124H67.7398V2.70654ZM72.9481 2.70654H75.5523V0.677124H72.9481V2.70654ZM78.1564 2.70654H80.7606V0.677124H78.1564V2.70654ZM83.3648 2.70654H84.6668V0.677124H83.3648V2.70654ZM84.6668 2.70654C85.0756 2.70654 85.4794 2.72668 85.8774 2.76598L86.0711 0.746111C85.6088 0.700459 85.1404 0.677124 84.6668 0.677124V2.70654ZM88.2487 3.24218C89.0281 3.4818 89.775 3.79771 90.4811 4.18144L91.4254 2.39249C90.6045 1.94633 89.7356 1.5788 88.8286 1.29995L88.2487 3.24218ZM92.4907 5.54649C93.1151 6.06707 93.6883 6.64869 94.2014 7.2823L95.7467 5.99398C95.151 5.25825 94.4854 4.58294 93.7604 3.97845L92.4907 5.54649ZM95.5466 9.32149C95.9248 10.0379 96.2361 10.7958 96.4723 11.5868L98.3864 10.9983C98.1115 10.0779 97.7494 9.19626 97.3097 8.36329L95.5466 9.32149ZM96.9416 13.993C96.9803 14.3968 97.0002 14.8065 97.0002 15.2213H99.0002C99.0002 14.7408 98.9772 14.2654 98.9322 13.7963L96.9416 13.993ZM97.0002 15.2213V16.567H99.0002V15.2213H97.0002ZM97.0002 19.2584V21.9497H99.0002V19.2584H97.0002ZM97.0002 24.6411V27.3325H99.0002V24.6411H97.0002ZM97.0002 30.0239V32.7153H99.0002V30.0239H97.0002ZM97.0002 35.4066V38.098H99.0002V35.4066H97.0002ZM97.0002 40.7894V43.4808H99.0002V40.7894H97.0002ZM97.0002 46.1722V48.8636H99.0002V46.1722H97.0002ZM97.0002 51.5549V54.2463H99.0002V51.5549H97.0002ZM97.0002 56.9377V59.6291H99.0002V56.9377H97.0002ZM97.0002 62.3206V65.012H99.0002V62.3206H97.0002ZM97.0002 67.7033V70.3947H99.0002V67.7033H97.0002ZM97.0002 73.0861V75.7775H99.0002V73.0861H97.0002ZM97.0002 78.4689V81.1602H99.0002V78.4689H97.0002ZM97.0002 83.8516V86.543H99.0002V83.8516H97.0002ZM97.0002 89.2344V91.9258H99.0002V89.2344H97.0002ZM97.0002 94.6171V97.3085H99.0002V94.6171H97.0002ZM97.0002 99.9999V102.691H99.0002V99.9999H97.0002ZM97.0002 105.382V108.074H99.0002V105.382H97.0002ZM97.0002 110.765V113.457H99.0002V110.765H97.0002ZM97.0002 116.148V118.839H99.0002V116.148H97.0002ZM97.0002 121.531V124.222H99.0002V121.531H97.0002ZM97.0002 126.914V129.605H99.0002V126.914H97.0002ZM97.0002 132.296V134.988H99.0002V132.296H97.0002ZM97.0002 137.679V140.37H99.0002V137.679H97.0002ZM97.0002 143.062V145.753H99.0002V143.062H97.0002ZM97.0002 148.445V151.136H99.0002V148.445H97.0002ZM97.0002 153.827V156.519H99.0002V153.827H97.0002ZM97.0002 159.21V161.901H99.0002V159.21H97.0002ZM97.0002 164.593V167.284H99.0002V164.593H97.0002ZM97.0002 169.976V172.667H99.0002V169.976H97.0002ZM97.0002 175.358V178.05H99.0002V175.358H97.0002ZM97.0002 180.741V183.432H99.0002V180.741H97.0002ZM97.0002 186.124V188.815H99.0002V186.124H97.0002ZM97.0002 191.507V194.198H99.0002V191.507H97.0002ZM97.0002 196.889V199.581H99.0002V196.889H97.0002ZM97.0002 202.272V204.963H99.0002V202.272H97.0002ZM97.0002 207.655V210.346H99.0002V207.655H97.0002ZM97.0002 213.038V215.729H99.0002V213.038H97.0002ZM97.0002 218.42V221.113H99.0002V218.42H97.0002ZM97.0002 223.804V226.495H99.0002V223.804H97.0002ZM97.0002 229.187V231.878H99.0002V229.187H97.0002ZM97.0002 234.57V237.261H99.0002V234.57H97.0002ZM97.0002 239.952V242.644H99.0002V239.952H97.0002ZM97.0002 245.335V248.026H99.0002V245.335H97.0002ZM97.0002 250.718V253.409H99.0002V250.718H97.0002ZM97.0002 256.101V258.792H99.0002V256.101H97.0002ZM97.0002 261.483V264.175H99.0002V261.483H97.0002ZM97.0002 266.866V269.557H99.0002V266.866H97.0002ZM97.0002 272.249V274.94H99.0002V272.249H97.0002ZM97.0002 277.632V280.323H99.0002V277.632H97.0002ZM97.0002 283.014V285.706H99.0002V283.014H97.0002ZM97.0002 288.397V291.088H99.0002V288.397H97.0002ZM97.0002 293.78V296.471H99.0002V293.78H97.0002ZM97.0002 299.163V301.854H99.0002V299.163H97.0002ZM97.0002 304.545V307.237H99.0002V304.545H97.0002ZM97.0002 309.928V312.619H99.0002V309.928H97.0002ZM97.0002 315.311V318.002H99.0002V315.311H97.0002ZM97.0002 320.694V323.385H99.0002V320.694H97.0002ZM97.0002 326.076V328.768H99.0002V326.076H97.0002ZM97.0002 331.459V334.15H99.0002V331.459H97.0002ZM97.0002 336.842V339.533H99.0002V336.842H97.0002ZM97.0002 342.225V344.916H99.0002V342.225H97.0002ZM97.0002 347.607V350.299H99.0002V347.607H97.0002ZM97.0002 352.99V355.681H99.0002V352.99H97.0002ZM97.0002 358.373V361.064H99.0002V358.373H97.0002ZM97.0002 363.756V366.447H99.0002V363.756H97.0002ZM97.0002 369.138V371.83H99.0002V369.138H97.0002ZM97.0002 374.521V377.212H99.0002V374.521H97.0002ZM97.0002 379.904V382.595H99.0002V379.904H97.0002ZM97.0002 385.287V387.978H99.0002V385.287H97.0002ZM97.0002 390.669V392.015H99.0002V390.669H97.0002ZM97.0002 392.015C97.0002 392.43 96.9803 392.84 96.9416 393.244L98.9322 393.44C98.9772 392.971 99.0002 392.496 99.0002 392.015H97.0002ZM96.4723 395.65C96.2361 396.441 95.9248 397.199 95.5466 397.915L97.3097 398.874C97.7494 398.041 98.1115 397.159 98.3864 396.239L96.4723 395.65ZM94.2014 399.954C93.6883 400.588 93.1151 401.17 92.4907 401.691L93.7604 403.258C94.4854 402.654 95.1509 401.979 95.7467 401.243L94.2014 399.954ZM90.4811 403.055C89.775 403.439 89.0281 403.755 88.2486 403.994L88.8286 405.937C89.7356 405.658 90.6045 405.291 91.4254 404.844L90.4811 403.055ZM85.8774 404.471C85.4794 404.51 85.0756 404.53 84.6668 404.53V406.559C85.1404 406.559 85.6088 406.536 86.0711 406.49L85.8774 404.471ZM84.6668 404.53H83.3647V406.559H84.6668V404.53ZM80.7606 404.53H78.1564V406.559H80.7606V404.53ZM75.5522 404.53H72.9481V406.559H75.5522V404.53ZM70.3439 404.53H67.7397V406.559H70.3439V404.53ZM65.1356 404.53H62.5314V406.559H65.1356V404.53ZM59.9272 404.53H57.3231V406.559H59.9272V404.53ZM54.7189 404.53H52.1147V406.559H54.7189V404.53ZM49.5106 404.53H46.9064V406.559H49.5106V404.53ZM44.3022 404.53H41.6981V406.559H44.3022V404.53ZM39.0939 404.53H36.4897V406.559H39.0939V404.53ZM33.8856 404.53H31.2814V406.559H33.8856V404.53ZM28.6772 404.53H26.0731V406.559H28.6772V404.53ZM23.4689 404.53H20.8647V406.559H23.4689V404.53ZM18.2606 404.53H15.6564V406.559H18.2606V404.53ZM13.0522 404.53H10.4481V406.559H13.0522V404.53ZM7.84391 404.53H5.23975V406.559H7.84391V404.53ZM2.63558 404.53H1.3335V406.559H2.63558V404.53Z" fill="url(#paint0_linear_165_83)"/>
</g>
<defs>
<linearGradient id="paint0_linear_165_83" x1="50.5416" y1="24.7943" x2="50.5416" y2="405.545" gradientUnits="userSpaceOnUse">
<stop stop-color="#3284FF"/>
<stop offset="1" stop-color="#01D1FF"/>
</linearGradient>
<clipPath id="clip0_165_83">
<rect width="99" height="414" fill="white"/>
</clipPath>
</defs>
</svg>
