<svg width="80" height="495" viewBox="0 0 80 495" fill="none" xmlns="http://www.w3.org/2000/svg">
<path d="M77.0666 485.714C77.4178 486.131 77.4178 486.811 77.0666 487.228L71.3435 493.046C70.9923 493.464 70.423 493.464 70.0717 493.046C69.7205 492.628 69.7205 491.949 70.0717 491.531L75.1589 486.471L70.0717 481.411C69.7205 480.993 69.7205 480.314 70.0717 479.896C70.423 479.478 70.9923 479.478 71.3435 479.896L77.0666 485.714ZM76.4307 487.542H75.2504V485.4H76.4307V487.542ZM51.8897 487.542H49.5291V485.4H51.8897V487.542ZM47.1684 487.542H44.8078V485.4H47.1684V487.542ZM42.4471 487.542H40.0865V485.4H42.4471V487.542ZM37.7258 487.542H35.3652V485.4H37.7258V487.542ZM33.0045 487.542H30.6439V485.4H33.0045V487.542ZM28.2832 487.542H25.9226V485.4H28.2832V487.542ZM23.5619 487.542H21.2013V485.4H23.5619V487.542ZM18.8406 487.542H16.48V485.4H18.8406V487.542ZM14.1193 487.542H11.7587V485.4H14.1193V487.542ZM42.398 487.542H40.0374V485.4H42.398V487.542ZM37.6767 487.542H35.3161V485.4H37.6767V487.542ZM32.9554 487.542H30.5948V485.4H32.9554V487.542ZM28.2341 487.542H25.8735V485.4H28.2341V487.542ZM23.5128 487.542H21.1522V485.4H23.5128V487.542ZM18.7915 487.542H16.4309V485.4H18.7915V487.542ZM14.0702 487.542H12.8899V485.4H14.0702V487.542ZM12.8899 487.542C12.4641 487.542 12.0428 487.518 11.627 487.469L11.8013 485.337C12.1592 485.378 12.5224 485.4 12.8899 485.4V487.542ZM9.1473 486.884C8.33158 486.59 7.55019 486.202 6.81196 485.732L7.66117 483.842C8.29612 484.248 8.9678 484.581 9.6688 484.834L9.1473 486.884ZM4.71213 484.058C4.06007 483.419 3.46158 482.706 2.92584 481.929L4.31553 480.57C4.77691 481.238 5.29237 481.852 5.85392 482.401L4.71213 484.058ZM1.52026 479.428C1.12485 478.548 0.799125 477.617 0.551988 476.646L2.27331 476.026C2.48568 476.86 2.76565 477.66 3.10575 478.417L1.52026 479.428ZM0.0611391 473.693C0.0206789 473.198 0 472.695 0 472.189H1.79859C1.79859 472.626 1.81644 473.058 1.85127 473.485L0.0611391 473.693ZM0 472.189V470.769H1.79859V472.189H0ZM0 467.931V465.092H1.79859V467.931H0ZM0 462.253V459.414H1.79859V462.253H0ZM0 456.576V453.737H1.79859V456.576H0ZM0 450.898V448.06H1.79859V450.898H0ZM0 445.221V442.382H1.79859V445.221H0ZM0 439.543V436.705H1.79859V439.543H0ZM0 433.866V431.027H1.79859V433.866H0ZM0 428.189V425.35H1.79859V428.189H0ZM0 422.511V419.673H1.79859V422.511H0ZM0 416.834V413.995H1.79859V416.834H0ZM0 411.156V408.318H1.79859V411.156H0ZM0 405.479V402.64H1.79859V405.479H0ZM0 399.802V396.963H1.79859V399.802H0ZM0 394.124V391.285H1.79859V394.124H0ZM0 388.447V385.608H1.79859V388.447H0ZM0 382.769V379.931H1.79859V382.769H0ZM0 377.092V374.253H1.79859V377.092H0ZM0 371.415V368.576H1.79859V371.415H0ZM0 365.737V362.898H1.79859V365.737H0ZM0 360.06V357.221H1.79859V360.06H0ZM0 354.382V351.544H1.79859V354.382H0ZM0 348.705V345.866H1.79859V348.705H0ZM0 343.028V340.189H1.79859V343.028H0ZM0 337.35V334.511H1.79859V337.35H0ZM0 331.673V328.834H1.79859V331.673H0ZM0 325.995V323.157H1.79859V325.995H0ZM0 320.318V317.479H1.79859V320.318H0ZM0 314.64V311.802H1.79859V314.64H0ZM0 308.963V306.124H1.79859V308.963H0ZM0 303.286V300.447H1.79859V303.286H0ZM0 297.608V294.77H1.79859V297.608H0ZM0 291.931V289.092H1.79859V291.931H0ZM0 286.253V283.415H1.79859V286.253H0ZM0 280.576V277.737H1.79859V280.576H0ZM0 274.899V272.06H1.79859V274.899H0ZM0 269.221V266.383H1.79859V269.221H0ZM0 263.544V260.705H1.79859V263.544H0ZM0 257.866V255.028H1.79859V257.866H0ZM0 252.189V249.35H1.79859V252.189H0ZM0 246.512V243.673H1.79859V246.512H0ZM0 240.834V237.995H1.79859V240.834H0ZM0 235.157V232.318H1.79859V235.157H0ZM0 229.479V226.641H1.79859V229.479H0ZM0 223.802V220.963H1.79859V223.802H0ZM0 218.125V215.286H1.79859V218.125H0ZM0 212.447V209.608H1.79859V212.447H0ZM0 206.77V203.931H1.79859V206.77H0ZM0 201.092V198.254H1.79859V201.092H0ZM0 195.415V192.576H1.79859V195.415H0ZM0 189.738V186.899H1.79859V189.738H0ZM0 184.06V181.221H1.79859V184.06H0ZM0 178.383V175.544H1.79859V178.383H0ZM0 172.705V169.867H1.79859V172.705H0ZM0 167.028V164.189H1.79859V167.028H0ZM0 161.35V158.512H1.79859V161.35H0ZM0 155.673V152.834H1.79859V155.673H0ZM0 149.996V147.157H1.79859V149.996H0ZM0 144.318V141.48H1.79859V144.318H0ZM0 138.641V135.802H1.79859V138.641H0ZM0 132.963V130.125H1.79859V132.963H0ZM0 127.286V124.447H1.79859V127.286H0ZM0 121.609V118.77H1.79859V121.609H0ZM0 115.931V113.093H1.79859V115.931H0ZM0 110.254V107.415H1.79859V110.254H0ZM0 104.577V101.738H1.79859V104.577H0ZM0 98.8991V96.0604H1.79859V98.8991H0ZM0 93.2218V90.3831H1.79859V93.2218H0ZM0 87.5444V84.7057H1.79859V87.5444H0ZM0 81.867V79.0283H1.79859V81.867H0ZM0 76.1896V73.3509H1.79859V76.1896H0ZM0 70.5122V67.6735H1.79859V70.5122H0ZM0 64.8347V61.996H1.79859V64.8347H0ZM0 59.1573V56.3186H1.79859V59.1573H0ZM0 53.4799V50.6412H1.79859V53.4799H0ZM0 47.8026V44.9639H1.79859V47.8026H0ZM0 42.1252V39.2865H1.79859V42.1252H0ZM0 36.4478V33.6091H1.79859V36.4478H0ZM0 30.7704V27.9317H1.79859V30.7704H0ZM0 25.093V22.2543H1.79859V25.093H0ZM0 19.4156V17.9956H1.79859V19.4156H0ZM0 17.9956C0 17.4884 0.0206789 16.9865 0.0611391 16.4913L1.85127 16.6989C1.81644 17.1252 1.79859 17.5578 1.79859 17.9956H0ZM0.551988 13.5376C0.799125 12.5659 1.12485 11.6351 1.52026 10.7557L3.10575 11.7673C2.76565 12.5237 2.48568 13.3237 2.27331 14.1587L0.551988 13.5376ZM2.92583 8.25452C3.46157 7.47782 4.06007 6.76491 4.71212 6.12676L5.85391 7.78211C5.29237 8.33168 4.77691 8.94571 4.31552 9.61457L2.92583 8.25452ZM6.81195 4.45248C7.55018 3.98148 8.33157 3.59349 9.1473 3.29911L9.6688 5.34949C8.9678 5.60246 8.2961 5.93596 7.66116 6.34105L6.81195 4.45248ZM11.627 2.71443C12.0428 2.66624 12.4641 2.6416 12.8899 2.6416V4.78402C12.5224 4.78402 12.1592 4.80528 11.8013 4.84677L11.627 2.71443ZM12.8899 2.6416H14.1389V4.78402H12.8899V2.6416ZM16.637 2.6416H19.135V4.78402H16.637V2.6416ZM77.0666 485.714C77.4178 486.131 77.4178 486.811 77.0666 487.228L71.3435 493.046C70.9923 493.464 70.423 493.464 70.0717 493.046C69.7205 492.628 69.7205 491.949 70.0717 491.531L75.1589 486.471L70.0717 481.411C69.7205 480.993 69.7205 480.314 70.0717 479.896C70.423 479.478 70.9923 479.478 71.3435 479.896L77.0666 485.714ZM76.4307 487.542H75.2504V485.4H76.4307V487.542ZM51.8897 487.542H49.5291V485.4H51.8897V487.542ZM47.1684 487.542H44.8078V485.4H47.1684V487.542ZM42.4471 487.542H40.0865V485.4H42.4471V487.542ZM37.7258 487.542H35.3652V485.4H37.7258V487.542ZM33.0045 487.542H30.6439V485.4H33.0045V487.542ZM28.2832 487.542H25.9226V485.4H28.2832V487.542ZM23.5619 487.542H21.2013V485.4H23.5619V487.542ZM18.8406 487.542H16.48V485.4H18.8406V487.542ZM14.1193 487.542H11.7587V485.4H14.1193V487.542ZM42.398 487.542H40.0374V485.4H42.398V487.542ZM37.6767 487.542H35.3161V485.4H37.6767V487.542ZM32.9554 487.542H30.5948V485.4H32.9554V487.542ZM28.2341 487.542H25.8735V485.4H28.2341V487.542ZM23.5128 487.542H21.1522V485.4H23.5128V487.542ZM18.7915 487.542H16.4309V485.4H18.7915V487.542ZM14.0702 487.542H12.8899V485.4H14.0702V487.542ZM12.8899 487.542C12.4641 487.542 12.0428 487.518 11.627 487.469L11.8013 485.337C12.1592 485.378 12.5224 485.4 12.8899 485.4V487.542ZM9.1473 486.884C8.33158 486.59 7.55019 486.202 6.81196 485.732L7.66117 483.842C8.29612 484.248 8.9678 484.581 9.6688 484.834L9.1473 486.884ZM4.71213 484.058C4.06007 483.419 3.46158 482.706 2.92584 481.929L4.31553 480.57C4.77691 481.238 5.29237 481.852 5.85392 482.401L4.71213 484.058ZM1.52026 479.428C1.12485 478.548 0.799125 477.617 0.551988 476.646L2.27331 476.026C2.48568 476.86 2.76565 477.66 3.10575 478.417L1.52026 479.428ZM0.0611391 473.693C0.0206789 473.198 0 472.695 0 472.189H1.79859C1.79859 472.626 1.81644 473.058 1.85127 473.485L0.0611391 473.693ZM0 472.189V470.769H1.79859V472.189H0ZM0 467.931V465.092H1.79859V467.931H0ZM0 462.253V459.414H1.79859V462.253H0ZM0 456.576V453.737H1.79859V456.576H0ZM0 450.898V448.06H1.79859V450.898H0ZM0 445.221V442.382H1.79859V445.221H0ZM0 439.543V436.705H1.79859V439.543H0ZM0 433.866V431.027H1.79859V433.866H0ZM0 428.189V425.35H1.79859V428.189H0ZM0 422.511V419.673H1.79859V422.511H0ZM0 416.834V413.995H1.79859V416.834H0ZM0 411.156V408.318H1.79859V411.156H0ZM0 405.479V402.64H1.79859V405.479H0ZM0 399.802V396.963H1.79859V399.802H0ZM0 394.124V391.285H1.79859V394.124H0ZM0 388.447V385.608H1.79859V388.447H0ZM0 382.769V379.931H1.79859V382.769H0ZM0 377.092V374.253H1.79859V377.092H0ZM0 371.415V368.576H1.79859V371.415H0ZM0 365.737V362.898H1.79859V365.737H0ZM0 360.06V357.221H1.79859V360.06H0ZM0 354.382V351.544H1.79859V354.382H0ZM0 348.705V345.866H1.79859V348.705H0ZM0 343.028V340.189H1.79859V343.028H0ZM0 337.35V334.511H1.79859V337.35H0ZM0 331.673V328.834H1.79859V331.673H0ZM0 325.995V323.157H1.79859V325.995H0ZM0 320.318V317.479H1.79859V320.318H0ZM0 314.64V311.802H1.79859V314.64H0ZM0 308.963V306.124H1.79859V308.963H0ZM0 303.286V300.447H1.79859V303.286H0ZM0 297.608V294.77H1.79859V297.608H0ZM0 291.931V289.092H1.79859V291.931H0ZM0 286.253V283.415H1.79859V286.253H0ZM0 280.576V277.737H1.79859V280.576H0ZM0 274.899V272.06H1.79859V274.899H0ZM0 269.221V266.383H1.79859V269.221H0ZM0 263.544V260.705H1.79859V263.544H0ZM0 257.866V255.028H1.79859V257.866H0ZM0 252.189V249.35H1.79859V252.189H0ZM0 246.512V243.673H1.79859V246.512H0ZM0 240.834V237.995H1.79859V240.834H0ZM0 235.157V232.318H1.79859V235.157H0ZM0 229.479V226.641H1.79859V229.479H0ZM0 223.802V220.963H1.79859V223.802H0ZM0 218.125V215.286H1.79859V218.125H0ZM0 212.447V209.608H1.79859V212.447H0ZM0 206.77V203.931H1.79859V206.77H0ZM0 201.092V198.254H1.79859V201.092H0ZM0 195.415V192.576H1.79859V195.415H0ZM0 189.738V186.899H1.79859V189.738H0ZM0 184.06V181.221H1.79859V184.06H0ZM0 178.383V175.544H1.79859V178.383H0ZM0 172.705V169.867H1.79859V172.705H0ZM0 167.028V164.189H1.79859V167.028H0ZM0 161.35V158.512H1.79859V161.35H0ZM0 155.673V152.834H1.79859V155.673H0ZM0 149.996V147.157H1.79859V149.996H0ZM0 144.318V141.48H1.79859V144.318H0ZM0 138.641V135.802H1.79859V138.641H0ZM0 132.963V130.125H1.79859V132.963H0ZM0 127.286V124.447H1.79859V127.286H0ZM0 121.609V118.77H1.79859V121.609H0ZM0 115.931V113.093H1.79859V115.931H0ZM0 110.254V107.415H1.79859V110.254H0ZM0 104.577V101.738H1.79859V104.577H0ZM0 98.8991V96.0604H1.79859V98.8991H0ZM0 93.2218V90.3831H1.79859V93.2218H0ZM0 87.5444V84.7057H1.79859V87.5444H0ZM0 81.867V79.0283H1.79859V81.867H0ZM0 76.1896V73.3509H1.79859V76.1896H0ZM0 70.5122V67.6735H1.79859V70.5122H0ZM0 64.8347V61.996H1.79859V64.8347H0ZM0 59.1573V56.3186H1.79859V59.1573H0ZM0 53.4799V50.6412H1.79859V53.4799H0ZM0 47.8026V44.9639H1.79859V47.8026H0ZM0 42.1252V39.2865H1.79859V42.1252H0ZM0 36.4478V33.6091H1.79859V36.4478H0ZM0 30.7704V27.9317H1.79859V30.7704H0ZM0 25.093V22.2543H1.79859V25.093H0ZM0 19.4156V17.9956H1.79859V19.4156H0ZM0 17.9956C0 17.4884 0.0206789 16.9865 0.0611391 16.4913L1.85127 16.6989C1.81644 17.1252 1.79859 17.5578 1.79859 17.9956H0ZM0.551988 13.5376C0.799125 12.5659 1.12485 11.6351 1.52026 10.7557L3.10575 11.7673C2.76565 12.5237 2.48568 13.3237 2.27331 14.1587L0.551988 13.5376ZM2.92583 8.25452C3.46157 7.47782 4.06007 6.76491 4.71212 6.12676L5.85391 7.78211C5.29237 8.33168 4.77691 8.94571 4.31552 9.61457L2.92583 8.25452ZM6.81195 4.45248C7.55018 3.98148 8.33157 3.59349 9.1473 3.29911L9.6688 5.34949C8.9678 5.60246 8.2961 5.93596 7.66116 6.34105L6.81195 4.45248ZM11.627 2.71443C12.0428 2.66624 12.4641 2.6416 12.8899 2.6416V4.78402C12.5224 4.78402 12.1592 4.80528 11.8013 4.84677L11.627 2.71443ZM12.8899 2.6416H14.1389V4.78402H12.8899V2.6416ZM16.637 2.6416H19.135V4.78402H16.637V2.6416Z" fill="url(#paint0_linear_181_141)"/>
<path d="M69.53 487.542H71.8906V485.4H69.53V487.542Z" fill="url(#paint1_linear_181_141)"/>
<path d="M64.8087 487.542H67.1693V485.4H64.8087V487.542Z" fill="url(#paint2_linear_181_141)"/>
<path d="M62.448 487.542H62.3989H60.0874H60.0383V485.4H60.0874H62.3989H62.448V487.542Z" fill="url(#paint3_linear_181_141)"/>
<path d="M57.7267 487.542H57.6776H55.3661H55.317V485.4H55.3661H57.6776H57.7267V487.542Z" fill="url(#paint4_linear_181_141)"/>
<path d="M25 8C27.2091 8 29 6.20914 29 4C29 1.79086 27.2091 0 25 0C22.7909 0 21 1.79086 21 4C21 6.20914 22.7909 8 25 8Z" fill="#3284FF"/>
<defs>
<linearGradient id="paint0_linear_181_141" x1="10.8729" y1="31.3294" x2="10.8729" y2="486.472" gradientUnits="userSpaceOnUse">
<stop stop-color="#3284FF"/>
<stop offset="1" stop-color="#01D1FF"/>
</linearGradient>
<linearGradient id="paint1_linear_181_141" x1="10.8729" y1="31.3294" x2="10.8729" y2="486.472" gradientUnits="userSpaceOnUse">
<stop stop-color="#3284FF"/>
<stop offset="1" stop-color="#01D1FF"/>
</linearGradient>
<linearGradient id="paint2_linear_181_141" x1="10.8729" y1="31.3294" x2="10.8729" y2="486.472" gradientUnits="userSpaceOnUse">
<stop stop-color="#3284FF"/>
<stop offset="1" stop-color="#01D1FF"/>
</linearGradient>
<linearGradient id="paint3_linear_181_141" x1="10.8729" y1="31.3294" x2="10.8729" y2="486.472" gradientUnits="userSpaceOnUse">
<stop stop-color="#3284FF"/>
<stop offset="1" stop-color="#01D1FF"/>
</linearGradient>
<linearGradient id="paint4_linear_181_141" x1="10.8729" y1="31.3294" x2="10.8729" y2="486.472" gradientUnits="userSpaceOnUse">
<stop stop-color="#3284FF"/>
<stop offset="1" stop-color="#01D1FF"/>
</linearGradient>
</defs>
</svg>
