<svg width="100" height="464" viewBox="0 0 100 464" fill="none" xmlns="http://www.w3.org/2000/svg">
<path d="M69.9998 5.66736C69.9998 8.61288 67.612 11.0007 64.6665 11.0007C61.721 11.0007 59.3332 8.61288 59.3332 5.66736C59.3332 2.72184 61.721 0.334025 64.6665 0.334025C67.612 0.334025 69.9998 2.72184 69.9998 5.66736ZM99.3736 455.627C99.7641 456.017 99.7641 456.651 99.3736 457.041L93.0096 463.405C92.6191 463.796 91.986 463.796 91.5954 463.405C91.2049 463.015 91.2049 462.381 91.5954 461.991L97.2523 456.334L91.5954 450.677C91.2049 450.287 91.2049 449.653 91.5954 449.263C91.986 448.872 92.6191 448.872 93.0096 449.263L99.3736 455.627ZM98.6665 457.334H97.354V455.334H98.6665V457.334ZM94.729 457.334H92.104V455.334H94.729V457.334ZM89.479 457.334H86.854V455.334H89.479V457.334ZM84.229 457.334H81.604V455.334H84.229V457.334ZM78.979 457.334H76.354V455.334H78.979V457.334ZM73.729 457.334H71.104V455.334H73.729V457.334ZM68.479 457.334H65.854V455.334H68.479V457.334ZM63.229 457.334H60.604V455.334H63.229V457.334ZM57.979 457.334H55.354V455.334H57.979V457.334ZM52.729 457.334H50.104V455.334H52.729V457.334ZM47.479 457.334H44.854V455.334H47.479V457.334ZM42.229 457.334H39.604V455.334H42.229V457.334ZM36.979 457.334H34.354V455.334H36.979V457.334ZM31.729 457.334H29.104V455.334H31.729V457.334ZM26.479 457.334H23.854V455.334H26.479V457.334ZM21.229 457.334H18.604V455.334H21.229V457.334ZM15.979 457.334H14.6665V455.334H15.979V457.334ZM14.6665 457.334C14.193 457.334 13.7245 457.311 13.2622 457.266L13.456 455.275C13.854 455.314 14.2578 455.334 14.6665 455.334V457.334ZM10.5048 456.72C9.59773 456.445 8.72884 456.083 7.90794 455.644L8.85225 453.88C9.5583 454.259 10.3052 454.57 11.0847 454.806L10.5048 456.72ZM5.57297 454.081C4.84789 453.485 4.18238 452.819 3.58665 452.094L5.13196 450.825C5.645 451.449 6.21819 452.022 6.84262 452.535L5.57297 454.081ZM2.02367 449.759C1.58398 448.938 1.22178 448.069 0.946968 447.162L2.86105 446.583C3.0972 447.362 3.40852 448.109 3.7867 448.815L2.02367 449.759ZM0.401154 444.405C0.356163 443.943 0.333168 443.474 0.333168 443.001H2.33317C2.33317 443.409 2.35302 443.813 2.39175 444.211L0.401154 444.405ZM0.333168 443.001V441.676H2.33317V443.001H0.333168ZM0.333168 439.026V436.376H2.33317V439.026H0.333168ZM0.333168 433.726V431.076H2.33317V433.726H0.333168ZM0.333168 428.426V425.776H2.33317V428.426H0.333168ZM0.333168 423.126V420.476H2.33317V423.126H0.333168ZM0.333168 417.826V415.176H2.33317V417.826H0.333168ZM0.333168 412.526V409.876H2.33317V412.526H0.333168ZM0.333168 407.226V404.576H2.33317V407.226H0.333168ZM0.333168 401.926V399.276H2.33317V401.926H0.333168ZM0.333168 396.626V393.976H2.33317V396.626H0.333168ZM0.333168 391.326V388.676H2.33317V391.326H0.333168ZM0.333168 386.026V383.376H2.33317V386.026H0.333168ZM0.333168 380.726V378.076H2.33317V380.726H0.333168ZM0.333168 375.426V372.776H2.33317V375.426H0.333168ZM0.333168 370.126V367.476H2.33317V370.126H0.333168ZM0.333168 364.826V362.176H2.33317V364.826H0.333168ZM0.333168 359.526V356.876H2.33317V359.526H0.333168ZM0.333168 354.226V351.576H2.33317V354.226H0.333168ZM0.333168 348.926V346.276H2.33317V348.926H0.333168ZM0.333168 343.626V340.976H2.33317V343.626H0.333168ZM0.333168 338.326V335.676H2.33317V338.326H0.333168ZM0.333168 333.026V330.376H2.33317V333.026H0.333168ZM0.333168 327.726V325.076H2.33317V327.726H0.333168ZM0.333168 322.426V319.776H2.33317V322.426H0.333168ZM0.333168 317.126V314.476H2.33317V317.126H0.333168ZM0.333168 311.826V309.176H2.33317V311.826H0.333168ZM0.333168 306.526V303.876H2.33317V306.526H0.333168ZM0.333168 301.226V298.576H2.33317V301.226H0.333168ZM0.333168 295.926V293.276H2.33317V295.926H0.333168ZM0.333168 290.626V287.976H2.33317V290.626H0.333168ZM0.333168 285.326V282.676H2.33317V285.326H0.333168ZM0.333168 280.026V277.376H2.33317V280.026H0.333168ZM0.333168 274.726V272.076H2.33317V274.726H0.333168ZM0.333168 269.426V266.776H2.33317V269.426H0.333168ZM0.333168 264.126V261.476H2.33317V264.126H0.333168ZM0.333168 258.826V256.176H2.33317V258.826H0.333168ZM0.333168 253.526V250.876H2.33317V253.526H0.333168ZM0.333168 248.226V245.576H2.33317V248.226H0.333168ZM0.333168 242.926V240.276H2.33317V242.926H0.333168ZM0.333168 237.626V234.976H2.33317V237.626H0.333168ZM0.333168 232.326V229.676H2.33317V232.326H0.333168ZM0.333168 227.026V224.376H2.33317V227.026H0.333168ZM0.333168 221.726V219.076H2.33317V221.726H0.333168ZM0.333168 216.426V213.776H2.33317V216.426H0.333168ZM0.333168 211.126V208.476H2.33317V211.126H0.333168ZM0.333168 205.826V203.176H2.33317V205.826H0.333168ZM0.333168 200.526V197.876H2.33317V200.526H0.333168ZM0.333168 195.226V192.576H2.33317V195.226H0.333168ZM0.333168 189.926V187.276H2.33317V189.926H0.333168ZM0.333168 184.626V181.976H2.33317V184.626H0.333168ZM0.333168 179.326V176.676H2.33317V179.326H0.333168ZM0.333168 174.026V171.376H2.33317V174.026H0.333168ZM0.333168 168.726V166.076H2.33317V168.726H0.333168ZM0.333168 163.426V160.776H2.33317V163.426H0.333168ZM0.333168 158.126V155.476H2.33317V158.126H0.333168ZM0.333168 152.826V150.176H2.33317V152.826H0.333168ZM0.333168 147.526V144.876H2.33317V147.526H0.333168ZM0.333168 142.226V139.576H2.33317V142.226H0.333168ZM0.333168 136.926V134.276H2.33317V136.926H0.333168ZM0.333168 131.626V128.976H2.33317V131.626H0.333168ZM0.333168 126.326V123.676H2.33317V126.326H0.333168ZM0.333168 121.026V118.376H2.33317V121.026H0.333168ZM0.333168 115.726V113.076H2.33317V115.726H0.333168ZM0.333168 110.426V107.776H2.33317V110.426H0.333168ZM0.333168 105.126V102.476H2.33317V105.126H0.333168ZM0.333168 99.8261V97.1761H2.33317V99.8261H0.333168ZM0.333168 94.5261V91.8761H2.33317V94.5261H0.333168ZM0.333168 89.2262V86.5762H2.33317V89.2262H0.333168ZM0.333168 83.9262V81.2762H2.33317V83.9262H0.333168ZM0.333168 78.6262V75.9762H2.33317V78.6262H0.333168ZM0.333168 73.3262V70.6762H2.33317V73.3262H0.333168ZM0.333168 68.0262V65.3762H2.33317V68.0262H0.333168ZM0.333168 62.7262V60.0762H2.33317V62.7262H0.333168ZM0.333168 57.4262V54.7762H2.33317V57.4262H0.333168ZM0.333168 52.1262V49.4762H2.33317V52.1262H0.333168ZM0.333168 46.8263V44.1763H2.33317V46.8263H0.333168ZM0.333168 41.5263V38.8763H2.33317V41.5263H0.333168ZM0.333168 36.2263V33.5763H2.33317V36.2263H0.333168ZM0.333168 30.9263V28.2763H2.33317V30.9263H0.333168ZM0.333168 25.6263V22.9763H2.33317V25.6263H0.333168ZM0.333168 20.3263V19.0007H2.33317V20.3263H0.333168ZM0.333168 19.0007C0.333168 18.5272 0.356163 18.0587 0.401154 17.5964L2.39175 17.7902C2.35302 18.1882 2.33317 18.592 2.33317 19.0007H0.333168ZM0.946968 14.839C1.22178 13.9319 1.58398 13.063 2.02367 12.2421L3.7867 13.1864C3.40852 13.8925 3.0972 14.6394 2.86105 15.4189L0.946968 14.839ZM3.58664 9.90716C4.18237 9.18209 4.84789 8.51657 5.57296 7.92084L6.84261 9.46615C6.21819 9.97919 5.645 10.5524 5.13195 11.1768L3.58664 9.90716ZM7.90793 6.35786C8.72883 5.91817 9.59772 5.55597 10.5048 5.28116L11.0847 7.19524C10.3052 7.43139 9.55828 7.74272 8.85224 8.12089L7.90793 6.35786ZM13.2622 4.73535C13.7245 4.69036 14.193 4.66736 14.6665 4.66736V6.66736C14.2578 6.66736 13.854 6.68721 13.456 6.72594L13.2622 4.73535ZM14.6665 4.66736H16.0554V6.66736H14.6665V4.66736ZM18.8332 4.66736H21.6109V6.66736H18.8332V4.66736ZM24.3887 4.66736H27.1665V6.66736H24.3887V4.66736ZM29.9443 4.66736H32.722V6.66736H29.9443V4.66736ZM35.4998 4.66736H38.2776V6.66736H35.4998V4.66736ZM41.0554 4.66736H43.8332V6.66736H41.0554V4.66736ZM46.6109 4.66736H49.3887V6.66736H46.6109V4.66736ZM52.1665 4.66736H54.9443V6.66736H52.1665V4.66736ZM57.7221 4.66736H60.4998V6.66736H57.7221V4.66736ZM63.2776 4.66736H64.6665V6.66736H63.2776V4.66736ZM69.9998 5.66736C69.9998 8.61288 67.612 11.0007 64.6665 11.0007C61.721 11.0007 59.3332 8.61288 59.3332 5.66736C59.3332 2.72184 61.721 0.334025 64.6665 0.334025C67.612 0.334025 69.9998 2.72184 69.9998 5.66736ZM99.3736 455.627C99.7641 456.017 99.7641 456.651 99.3736 457.041L93.0096 463.405C92.6191 463.796 91.986 463.796 91.5954 463.405C91.2049 463.015 91.2049 462.381 91.5954 461.991L97.2523 456.334L91.5954 450.677C91.2049 450.287 91.2049 449.653 91.5954 449.263C91.986 448.872 92.6191 448.872 93.0096 449.263L99.3736 455.627ZM98.6665 457.334H97.354V455.334H98.6665V457.334ZM94.729 457.334H92.104V455.334H94.729V457.334ZM89.479 457.334H86.854V455.334H89.479V457.334ZM84.229 457.334H81.604V455.334H84.229V457.334ZM78.979 457.334H76.354V455.334H78.979V457.334ZM73.729 457.334H71.104V455.334H73.729V457.334ZM68.479 457.334H65.854V455.334H68.479V457.334ZM63.229 457.334H60.604V455.334H63.229V457.334ZM57.979 457.334H55.354V455.334H57.979V457.334ZM52.729 457.334H50.104V455.334H52.729V457.334ZM47.479 457.334H44.854V455.334H47.479V457.334ZM42.229 457.334H39.604V455.334H42.229V457.334ZM36.979 457.334H34.354V455.334H36.979V457.334ZM31.729 457.334H29.104V455.334H31.729V457.334ZM26.479 457.334H23.854V455.334H26.479V457.334ZM21.229 457.334H18.604V455.334H21.229V457.334ZM15.979 457.334H14.6665V455.334H15.979V457.334ZM14.6665 457.334C14.193 457.334 13.7245 457.311 13.2622 457.266L13.456 455.275C13.854 455.314 14.2578 455.334 14.6665 455.334V457.334ZM10.5048 456.72C9.59773 456.445 8.72884 456.083 7.90794 455.644L8.85225 453.88C9.5583 454.259 10.3052 454.57 11.0847 454.806L10.5048 456.72ZM5.57297 454.081C4.84789 453.485 4.18238 452.819 3.58665 452.094L5.13196 450.825C5.645 451.449 6.21819 452.022 6.84262 452.535L5.57297 454.081ZM2.02367 449.759C1.58398 448.938 1.22178 448.069 0.946968 447.162L2.86105 446.583C3.0972 447.362 3.40852 448.109 3.7867 448.815L2.02367 449.759ZM0.401154 444.405C0.356163 443.943 0.333168 443.474 0.333168 443.001H2.33317C2.33317 443.409 2.35302 443.813 2.39175 444.211L0.401154 444.405ZM0.333168 443.001V441.676H2.33317V443.001H0.333168ZM0.333168 439.026V436.376H2.33317V439.026H0.333168ZM0.333168 433.726V431.076H2.33317V433.726H0.333168ZM0.333168 428.426V425.776H2.33317V428.426H0.333168ZM0.333168 423.126V420.476H2.33317V423.126H0.333168ZM0.333168 417.826V415.176H2.33317V417.826H0.333168ZM0.333168 412.526V409.876H2.33317V412.526H0.333168ZM0.333168 407.226V404.576H2.33317V407.226H0.333168ZM0.333168 401.926V399.276H2.33317V401.926H0.333168ZM0.333168 396.626V393.976H2.33317V396.626H0.333168ZM0.333168 391.326V388.676H2.33317V391.326H0.333168ZM0.333168 386.026V383.376H2.33317V386.026H0.333168ZM0.333168 380.726V378.076H2.33317V380.726H0.333168ZM0.333168 375.426V372.776H2.33317V375.426H0.333168ZM0.333168 370.126V367.476H2.33317V370.126H0.333168ZM0.333168 364.826V362.176H2.33317V364.826H0.333168ZM0.333168 359.526V356.876H2.33317V359.526H0.333168ZM0.333168 354.226V351.576H2.33317V354.226H0.333168ZM0.333168 348.926V346.276H2.33317V348.926H0.333168ZM0.333168 343.626V340.976H2.33317V343.626H0.333168ZM0.333168 338.326V335.676H2.33317V338.326H0.333168ZM0.333168 333.026V330.376H2.33317V333.026H0.333168ZM0.333168 327.726V325.076H2.33317V327.726H0.333168ZM0.333168 322.426V319.776H2.33317V322.426H0.333168ZM0.333168 317.126V314.476H2.33317V317.126H0.333168ZM0.333168 311.826V309.176H2.33317V311.826H0.333168ZM0.333168 306.526V303.876H2.33317V306.526H0.333168ZM0.333168 301.226V298.576H2.33317V301.226H0.333168ZM0.333168 295.926V293.276H2.33317V295.926H0.333168ZM0.333168 290.626V287.976H2.33317V290.626H0.333168ZM0.333168 285.326V282.676H2.33317V285.326H0.333168ZM0.333168 280.026V277.376H2.33317V280.026H0.333168ZM0.333168 274.726V272.076H2.33317V274.726H0.333168ZM0.333168 269.426V266.776H2.33317V269.426H0.333168ZM0.333168 264.126V261.476H2.33317V264.126H0.333168ZM0.333168 258.826V256.176H2.33317V258.826H0.333168ZM0.333168 253.526V250.876H2.33317V253.526H0.333168ZM0.333168 248.226V245.576H2.33317V248.226H0.333168ZM0.333168 242.926V240.276H2.33317V242.926H0.333168ZM0.333168 237.626V234.976H2.33317V237.626H0.333168ZM0.333168 232.326V229.676H2.33317V232.326H0.333168ZM0.333168 227.026V224.376H2.33317V227.026H0.333168ZM0.333168 221.726V219.076H2.33317V221.726H0.333168ZM0.333168 216.426V213.776H2.33317V216.426H0.333168ZM0.333168 211.126V208.476H2.33317V211.126H0.333168ZM0.333168 205.826V203.176H2.33317V205.826H0.333168ZM0.333168 200.526V197.876H2.33317V200.526H0.333168ZM0.333168 195.226V192.576H2.33317V195.226H0.333168ZM0.333168 189.926V187.276H2.33317V189.926H0.333168ZM0.333168 184.626V181.976H2.33317V184.626H0.333168ZM0.333168 179.326V176.676H2.33317V179.326H0.333168ZM0.333168 174.026V171.376H2.33317V174.026H0.333168ZM0.333168 168.726V166.076H2.33317V168.726H0.333168ZM0.333168 163.426V160.776H2.33317V163.426H0.333168ZM0.333168 158.126V155.476H2.33317V158.126H0.333168ZM0.333168 152.826V150.176H2.33317V152.826H0.333168ZM0.333168 147.526V144.876H2.33317V147.526H0.333168ZM0.333168 142.226V139.576H2.33317V142.226H0.333168ZM0.333168 136.926V134.276H2.33317V136.926H0.333168ZM0.333168 131.626V128.976H2.33317V131.626H0.333168ZM0.333168 126.326V123.676H2.33317V126.326H0.333168ZM0.333168 121.026V118.376H2.33317V121.026H0.333168ZM0.333168 115.726V113.076H2.33317V115.726H0.333168ZM0.333168 110.426V107.776H2.33317V110.426H0.333168ZM0.333168 105.126V102.476H2.33317V105.126H0.333168ZM0.333168 99.8261V97.1761H2.33317V99.8261H0.333168ZM0.333168 94.5261V91.8761H2.33317V94.5261H0.333168ZM0.333168 89.2262V86.5762H2.33317V89.2262H0.333168ZM0.333168 83.9262V81.2762H2.33317V83.9262H0.333168ZM0.333168 78.6262V75.9762H2.33317V78.6262H0.333168ZM0.333168 73.3262V70.6762H2.33317V73.3262H0.333168ZM0.333168 68.0262V65.3762H2.33317V68.0262H0.333168ZM0.333168 62.7262V60.0762H2.33317V62.7262H0.333168ZM0.333168 57.4262V54.7762H2.33317V57.4262H0.333168ZM0.333168 52.1262V49.4762H2.33317V52.1262H0.333168ZM0.333168 46.8263V44.1763H2.33317V46.8263H0.333168ZM0.333168 41.5263V38.8763H2.33317V41.5263H0.333168ZM0.333168 36.2263V33.5763H2.33317V36.2263H0.333168ZM0.333168 30.9263V28.2763H2.33317V30.9263H0.333168ZM0.333168 25.6263V22.9763H2.33317V25.6263H0.333168ZM0.333168 20.3263V19.0007H2.33317V20.3263H0.333168ZM0.333168 19.0007C0.333168 18.5272 0.356163 18.0587 0.401154 17.5964L2.39175 17.7902C2.35302 18.1882 2.33317 18.592 2.33317 19.0007H0.333168ZM0.946968 14.839C1.22178 13.9319 1.58398 13.063 2.02367 12.2421L3.7867 13.1864C3.40852 13.8925 3.0972 14.6394 2.86105 15.4189L0.946968 14.839ZM3.58664 9.90716C4.18237 9.18209 4.84789 8.51657 5.57296 7.92084L6.84261 9.46615C6.21819 9.97919 5.645 10.5524 5.13195 11.1768L3.58664 9.90716ZM7.90793 6.35786C8.72883 5.91817 9.59772 5.55597 10.5048 5.28116L11.0847 7.19524C10.3052 7.43139 9.55828 7.74272 8.85224 8.12089L7.90793 6.35786ZM13.2622 4.73535C13.7245 4.69036 14.193 4.66736 14.6665 4.66736V6.66736C14.2578 6.66736 13.854 6.68721 13.456 6.72594L13.2622 4.73535ZM14.6665 4.66736H16.0554V6.66736H14.6665V4.66736ZM18.8332 4.66736H21.6109V6.66736H18.8332V4.66736ZM24.3887 4.66736H27.1665V6.66736H24.3887V4.66736ZM29.9443 4.66736H32.722V6.66736H29.9443V4.66736ZM35.4998 4.66736H38.2776V6.66736H35.4998V4.66736ZM41.0554 4.66736H43.8332V6.66736H41.0554V4.66736ZM46.6109 4.66736H49.3887V6.66736H46.6109V4.66736ZM52.1665 4.66736H54.9443V6.66736H52.1665V4.66736ZM57.7221 4.66736H60.4998V6.66736H57.7221V4.66736ZM63.2776 4.66736H64.6665V6.66736H63.2776V4.66736Z" fill="url(#paint0_linear_147_1172)"/>
<defs>
<linearGradient id="paint0_linear_147_1172" x1="49.119" y1="31.4478" x2="49.119" y2="456.335" gradientUnits="userSpaceOnUse">
<stop stop-color="#3284FF"/>
<stop offset="1" stop-color="#01D1FF"/>
</linearGradient>
</defs>
</svg>