<svg width="150" height="696" viewBox="0 0 150 696" fill="none" xmlns="http://www.w3.org/2000/svg">
<path d="M105 8C105 12.4183 101.418 16 97 16C92.5817 16 89 12.4183 89 8C89 3.58172 92.5817 0 97 0C101.418 0 105 3.58172 105 8ZM149.061 682.939C149.646 683.525 149.646 684.475 149.061 685.061L139.515 694.607C138.929 695.192 137.979 695.192 137.393 694.607C136.808 694.021 136.808 693.071 137.393 692.485L145.879 684L137.393 675.515C136.808 674.929 136.808 673.979 137.393 673.393C137.979 672.808 138.929 672.808 139.515 673.393L149.061 682.939ZM148 685.5H146.031V682.5H148V685.5ZM142.094 685.5H138.156V682.5H142.094V685.5ZM134.219 685.5H130.281V682.5H134.219V685.5ZM126.344 685.5H122.406V682.5H126.344V685.5ZM118.469 685.5H114.531V682.5H118.469V685.5ZM110.594 685.5H106.656V682.5H110.594V685.5ZM102.719 685.5H98.7812V682.5H102.719V685.5ZM94.8438 685.5H90.9062V682.5H94.8438V685.5ZM86.9688 685.5H83.0312V682.5H86.9688V685.5ZM79.0938 685.5H75.1562V682.5H79.0938V685.5ZM71.2188 685.5H67.2812V682.5H71.2188V685.5ZM63.3438 685.5H59.4062V682.5H63.3438V685.5ZM55.4688 685.5H51.5312V682.5H55.4688V685.5ZM47.5938 685.5H43.6562V682.5H47.5938V685.5ZM39.7188 685.5H35.7812V682.5H39.7188V685.5ZM31.8438 685.5H27.9062V682.5H31.8438V685.5ZM23.9688 685.5H22V682.5H23.9688V685.5ZM22 685.5C21.2897 685.5 20.587 685.466 19.8936 685.398L20.1842 682.412C20.7812 682.47 21.3869 682.5 22 682.5V685.5ZM15.7574 684.579C14.3968 684.167 13.0935 683.624 11.8622 682.964L13.2786 680.32C14.3377 680.887 15.4581 681.354 16.6273 681.708L15.7574 684.579ZM8.3597 680.62C7.27208 679.726 6.27382 678.728 5.38022 677.64L7.69818 675.736C8.46774 676.672 9.32753 677.532 10.2642 678.302L8.3597 680.62ZM3.03575 674.138C2.37622 672.906 1.83292 671.603 1.4207 670.243L4.29182 669.373C4.64606 670.542 5.11304 671.662 5.6803 672.721L3.03575 674.138ZM0.601974 666.106C0.5345 665.413 0.5 664.71 0.5 664H3.5C3.5 664.613 3.52977 665.219 3.58788 665.816L0.601974 666.106ZM0.5 664V662.013H3.5V664H0.5ZM0.5 658.037V654.062H3.5V658.037H0.5ZM0.5 650.088V646.112H3.5V650.088H0.5ZM0.5 642.138V638.162H3.5V642.138H0.5ZM0.5 634.188V630.213H3.5V634.188H0.5ZM0.5 626.237V622.263H3.5V626.237H0.5ZM0.5 618.287V614.312H3.5V618.287H0.5ZM0.5 610.338V606.362H3.5V610.338H0.5ZM0.5 602.388V598.412H3.5V602.388H0.5ZM0.5 594.438V590.463H3.5V594.438H0.5ZM0.5 586.487V582.513H3.5V586.487H0.5ZM0.5 578.538V574.562H3.5V578.538H0.5ZM0.5 570.588V566.612H3.5V570.588H0.5ZM0.5 562.638V558.663H3.5V562.638H0.5ZM0.5 554.688V550.713H3.5V554.688H0.5ZM0.5 546.738V542.763H3.5V546.738H0.5ZM0.5 538.788V534.812H3.5V538.788H0.5ZM0.5 530.838V526.862H3.5V530.838H0.5ZM0.5 522.888V518.913H3.5V522.888H0.5ZM0.5 514.938V510.962H3.5V514.938H0.5ZM0.5 506.987V503.012H3.5V506.987H0.5ZM0.5 499.037V495.062H3.5V499.037H0.5ZM0.5 491.087V487.112H3.5V491.087H0.5ZM0.5 483.137V479.162H3.5V483.137H0.5ZM0.5 475.187V471.212H3.5V475.187H0.5ZM0.5 467.237V463.262H3.5V467.237H0.5ZM0.5 459.287V455.312H3.5V459.287H0.5ZM0.5 451.337V447.362H3.5V451.337H0.5ZM0.5 443.387V439.412H3.5V443.387H0.5ZM0.5 435.437V431.462H3.5V435.437H0.5ZM0.5 427.487V423.512H3.5V427.487H0.5ZM0.5 419.537V415.562H3.5V419.537H0.5ZM0.5 411.587V407.612H3.5V411.587H0.5ZM0.5 403.637V399.662H3.5V403.637H0.5ZM0.5 395.687V391.712H3.5V395.687H0.5ZM0.5 387.737V383.762H3.5V387.737H0.5ZM0.5 379.787V375.812H3.5V379.787H0.5ZM0.5 371.837V367.862H3.5V371.837H0.5ZM0.5 363.887V359.912H3.5V363.887H0.5ZM0.5 355.937V351.962H3.5V355.937H0.5ZM0.5 347.987V344.012H3.5V347.987H0.5ZM0.5 340.037V336.062H3.5V340.037H0.5ZM0.5 332.087V328.112H3.5V332.087H0.5ZM0.5 324.137V320.162H3.5V324.137H0.5ZM0.5 316.187V312.212H3.5V316.187H0.5ZM0.5 308.237V304.262H3.5V308.237H0.5ZM0.5 300.287V296.312H3.5V300.287H0.5ZM0.5 292.337V288.362H3.5V292.337H0.5ZM0.5 284.387V280.412H3.5V284.387H0.5ZM0.5 276.437V272.462H3.5V276.437H0.5ZM0.5 268.487V264.512H3.5V268.487H0.5ZM0.5 260.537V256.562H3.5V260.537H0.5ZM0.5 252.587V248.612H3.5V252.587H0.5ZM0.5 244.637V240.662H3.5V244.637H0.5ZM0.5 236.687V232.712H3.5V236.687H0.5ZM0.5 228.737V224.762H3.5V228.737H0.5ZM0.5 220.787V216.812H3.5V220.787H0.5ZM0.5 212.837V208.862H3.5V212.837H0.5ZM0.5 204.887V200.912H3.5V204.887H0.5ZM0.5 196.937V192.962H3.5V196.937H0.5ZM0.5 188.987V185.012H3.5V188.987H0.5ZM0.5 181.037V177.062H3.5V181.037H0.5ZM0.5 173.087V169.112H3.5V173.087H0.5ZM0.5 165.137V161.162H3.5V165.137H0.5ZM0.5 157.187V153.212H3.5V157.187H0.5ZM0.5 149.237V145.262H3.5V149.237H0.5ZM0.5 141.287V137.312H3.5V141.287H0.5ZM0.5 133.337V129.362H3.5V133.337H0.5ZM0.5 125.387V121.412H3.5V125.387H0.5ZM0.5 117.437V113.462H3.5V117.437H0.5ZM0.5 109.487V105.512H3.5V109.487H0.5ZM0.5 101.537V97.5623H3.5V101.537H0.5ZM0.5 93.5873V89.6123H3.5V93.5873H0.5ZM0.5 85.6373V81.6624H3.5V85.6373H0.5ZM0.5 77.6874V73.7124H3.5V77.6874H0.5ZM0.5 69.7374V65.7625H3.5V69.7374H0.5ZM0.5 61.7875V57.8125H3.5V61.7875H0.5ZM0.5 53.8375V49.8625H3.5V53.8375H0.5ZM0.5 45.8876V41.9126H3.5V45.8876H0.5ZM0.5 37.9376V33.9626H3.5V37.9376H0.5ZM0.5 29.9877V28H3.5V29.9877H0.5ZM0.5 28C0.5 27.2897 0.5345 26.587 0.601974 25.8936L3.58788 26.1842C3.52977 26.7812 3.5 27.3869 3.5 28H0.5ZM1.4207 21.7574C1.83292 20.3968 2.37622 19.0935 3.03575 17.8622L5.6803 19.2786C5.11304 20.3377 4.64606 21.4581 4.29182 22.6273L1.4207 21.7574ZM5.38022 14.3597C6.27382 13.2721 7.27209 12.2738 8.3597 11.3802L10.2642 13.6982C9.32753 14.4677 8.46774 15.3275 7.69818 16.2642L5.38022 14.3597ZM11.8622 9.03575C13.0935 8.37621 14.3969 7.83291 15.7574 7.4207L16.6273 10.2918C15.4581 10.646 14.3377 11.113 13.2786 11.6803L11.8622 9.03575ZM19.8936 6.60198C20.587 6.5345 21.2897 6.5 22 6.5V9.5C21.3869 9.5 20.7812 9.52977 20.1842 9.58787L19.8936 6.60198ZM22 6.5H24.0833V9.5H22V6.5ZM28.25 6.5H32.4167V9.5H28.25V6.5ZM36.5833 6.5H40.75V9.5H36.5833V6.5ZM44.9167 6.5H49.0833V9.5H44.9167V6.5ZM53.25 6.5H57.4167V9.5H53.25V6.5ZM61.5833 6.5H65.75V9.5H61.5833V6.5ZM69.9167 6.5H74.0833V9.5H69.9167V6.5ZM78.25 6.5H82.4167V9.5H78.25V6.5ZM86.5833 6.5H90.75V9.5H86.5833V6.5ZM94.9167 6.5H97V9.5H94.9167V6.5ZM105 8C105 12.4183 101.418 16 97 16C92.5817 16 89 12.4183 89 8C89 3.58172 92.5817 0 97 0C101.418 0 105 3.58172 105 8ZM149.061 682.939C149.646 683.525 149.646 684.475 149.061 685.061L139.515 694.607C138.929 695.192 137.979 695.192 137.393 694.607C136.808 694.021 136.808 693.071 137.393 692.485L145.879 684L137.393 675.515C136.808 674.929 136.808 673.979 137.393 673.393C137.979 672.808 138.929 672.808 139.515 673.393L149.061 682.939ZM148 685.5H146.031V682.5H148V685.5ZM142.094 685.5H138.156V682.5H142.094V685.5ZM134.219 685.5H130.281V682.5H134.219V685.5ZM126.344 685.5H122.406V682.5H126.344V685.5ZM118.469 685.5H114.531V682.5H118.469V685.5ZM110.594 685.5H106.656V682.5H110.594V685.5ZM102.719 685.5H98.7812V682.5H102.719V685.5ZM94.8438 685.5H90.9062V682.5H94.8438V685.5ZM86.9688 685.5H83.0312V682.5H86.9688V685.5ZM79.0938 685.5H75.1562V682.5H79.0938V685.5ZM71.2188 685.5H67.2812V682.5H71.2188V685.5ZM63.3438 685.5H59.4062V682.5H63.3438V685.5ZM55.4688 685.5H51.5312V682.5H55.4688V685.5ZM47.5938 685.5H43.6562V682.5H47.5938V685.5ZM39.7188 685.5H35.7812V682.5H39.7188V685.5ZM31.8438 685.5H27.9062V682.5H31.8438V685.5ZM23.9688 685.5H22V682.5H23.9688V685.5ZM22 685.5C21.2897 685.5 20.587 685.466 19.8936 685.398L20.1842 682.412C20.7812 682.47 21.3869 682.5 22 682.5V685.5ZM15.7574 684.579C14.3968 684.167 13.0935 683.624 11.8622 682.964L13.2786 680.32C14.3377 680.887 15.4581 681.354 16.6273 681.708L15.7574 684.579ZM8.3597 680.62C7.27208 679.726 6.27382 678.728 5.38022 677.64L7.69818 675.736C8.46774 676.672 9.32753 677.532 10.2642 678.302L8.3597 680.62ZM3.03575 674.138C2.37622 672.906 1.83292 671.603 1.4207 670.243L4.29182 669.373C4.64606 670.542 5.11304 671.662 5.6803 672.721L3.03575 674.138ZM0.601974 666.106C0.5345 665.413 0.5 664.71 0.5 664H3.5C3.5 664.613 3.52977 665.219 3.58788 665.816L0.601974 666.106ZM0.5 664V662.013H3.5V664H0.5ZM0.5 658.037V654.062H3.5V658.037H0.5ZM0.5 650.088V646.112H3.5V650.088H0.5ZM0.5 642.138V638.162H3.5V642.138H0.5ZM0.5 634.188V630.213H3.5V634.188H0.5ZM0.5 626.237V622.263H3.5V626.237H0.5ZM0.5 618.287V614.312H3.5V618.287H0.5ZM0.5 610.338V606.362H3.5V610.338H0.5ZM0.5 602.388V598.412H3.5V602.388H0.5ZM0.5 594.438V590.463H3.5V594.438H0.5ZM0.5 586.487V582.513H3.5V586.487H0.5ZM0.5 578.538V574.562H3.5V578.538H0.5ZM0.5 570.588V566.612H3.5V570.588H0.5ZM0.5 562.638V558.663H3.5V562.638H0.5ZM0.5 554.688V550.713H3.5V554.688H0.5ZM0.5 546.738V542.763H3.5V546.738H0.5ZM0.5 538.788V534.812H3.5V538.788H0.5ZM0.5 530.838V526.862H3.5V530.838H0.5ZM0.5 522.888V518.913H3.5V522.888H0.5ZM0.5 514.938V510.962H3.5V514.938H0.5ZM0.5 506.987V503.012H3.5V506.987H0.5ZM0.5 499.037V495.062H3.5V499.037H0.5ZM0.5 491.087V487.112H3.5V491.087H0.5ZM0.5 483.137V479.162H3.5V483.137H0.5ZM0.5 475.187V471.212H3.5V475.187H0.5ZM0.5 467.237V463.262H3.5V467.237H0.5ZM0.5 459.287V455.312H3.5V459.287H0.5ZM0.5 451.337V447.362H3.5V451.337H0.5ZM0.5 443.387V439.412H3.5V443.387H0.5ZM0.5 435.437V431.462H3.5V435.437H0.5ZM0.5 427.487V423.512H3.5V427.487H0.5ZM0.5 419.537V415.562H3.5V419.537H0.5ZM0.5 411.587V407.612H3.5V411.587H0.5ZM0.5 403.637V399.662H3.5V403.637H0.5ZM0.5 395.687V391.712H3.5V395.687H0.5ZM0.5 387.737V383.762H3.5V387.737H0.5ZM0.5 379.787V375.812H3.5V379.787H0.5ZM0.5 371.837V367.862H3.5V371.837H0.5ZM0.5 363.887V359.912H3.5V363.887H0.5ZM0.5 355.937V351.962H3.5V355.937H0.5ZM0.5 347.987V344.012H3.5V347.987H0.5ZM0.5 340.037V336.062H3.5V340.037H0.5ZM0.5 332.087V328.112H3.5V332.087H0.5ZM0.5 324.137V320.162H3.5V324.137H0.5ZM0.5 316.187V312.212H3.5V316.187H0.5ZM0.5 308.237V304.262H3.5V308.237H0.5ZM0.5 300.287V296.312H3.5V300.287H0.5ZM0.5 292.337V288.362H3.5V292.337H0.5ZM0.5 284.387V280.412H3.5V284.387H0.5ZM0.5 276.437V272.462H3.5V276.437H0.5ZM0.5 268.487V264.512H3.5V268.487H0.5ZM0.5 260.537V256.562H3.5V260.537H0.5ZM0.5 252.587V248.612H3.5V252.587H0.5ZM0.5 244.637V240.662H3.5V244.637H0.5ZM0.5 236.687V232.712H3.5V236.687H0.5ZM0.5 228.737V224.762H3.5V228.737H0.5ZM0.5 220.787V216.812H3.5V220.787H0.5ZM0.5 212.837V208.862H3.5V212.837H0.5ZM0.5 204.887V200.912H3.5V204.887H0.5ZM0.5 196.937V192.962H3.5V196.937H0.5ZM0.5 188.987V185.012H3.5V188.987H0.5ZM0.5 181.037V177.062H3.5V181.037H0.5ZM0.5 173.087V169.112H3.5V173.087H0.5ZM0.5 165.137V161.162H3.5V165.137H0.5ZM0.5 157.187V153.212H3.5V157.187H0.5ZM0.5 149.237V145.262H3.5V149.237H0.5ZM0.5 141.287V137.312H3.5V141.287H0.5ZM0.5 133.337V129.362H3.5V133.337H0.5ZM0.5 125.387V121.412H3.5V125.387H0.5ZM0.5 117.437V113.462H3.5V117.437H0.5ZM0.5 109.487V105.512H3.5V109.487H0.5ZM0.5 101.537V97.5623H3.5V101.537H0.5ZM0.5 93.5873V89.6123H3.5V93.5873H0.5ZM0.5 85.6373V81.6624H3.5V85.6373H0.5ZM0.5 77.6874V73.7124H3.5V77.6874H0.5ZM0.5 69.7374V65.7625H3.5V69.7374H0.5ZM0.5 61.7875V57.8125H3.5V61.7875H0.5ZM0.5 53.8375V49.8625H3.5V53.8375H0.5ZM0.5 45.8876V41.9126H3.5V45.8876H0.5ZM0.5 37.9376V33.9626H3.5V37.9376H0.5ZM0.5 29.9877V28H3.5V29.9877H0.5ZM0.5 28C0.5 27.2897 0.5345 26.587 0.601974 25.8936L3.58788 26.1842C3.52977 26.7812 3.5 27.3869 3.5 28H0.5ZM1.4207 21.7574C1.83292 20.3968 2.37622 19.0935 3.03575 17.8622L5.6803 19.2786C5.11304 20.3377 4.64606 21.4581 4.29182 22.6273L1.4207 21.7574ZM5.38022 14.3597C6.27382 13.2721 7.27209 12.2738 8.3597 11.3802L10.2642 13.6982C9.32753 14.4677 8.46774 15.3275 7.69818 16.2642L5.38022 14.3597ZM11.8622 9.03575C13.0935 8.37621 14.3969 7.83291 15.7574 7.4207L16.6273 10.2918C15.4581 10.646 14.3377 11.113 13.2786 11.6803L11.8622 9.03575ZM19.8936 6.60198C20.587 6.5345 21.2897 6.5 22 6.5V9.5C21.3869 9.5 20.7812 9.52977 20.1842 9.58787L19.8936 6.60198ZM22 6.5H24.0833V9.5H22V6.5ZM28.25 6.5H32.4167V9.5H28.25V6.5ZM36.5833 6.5H40.75V9.5H36.5833V6.5ZM44.9167 6.5H49.0833V9.5H44.9167V6.5ZM53.25 6.5H57.4167V9.5H53.25V6.5ZM61.5833 6.5H65.75V9.5H61.5833V6.5ZM69.9167 6.5H74.0833V9.5H69.9167V6.5ZM78.25 6.5H82.4167V9.5H78.25V6.5ZM86.5833 6.5H90.75V9.5H86.5833V6.5ZM94.9167 6.5H97V9.5H94.9167V6.5Z" fill="url(#paint0_linear_147_412)"/>
<defs>
<linearGradient id="paint0_linear_147_412" x1="73.6787" y1="46.6707" x2="73.6787" y2="684.001" gradientUnits="userSpaceOnUse">
<stop stop-color="#3284FF"/>
<stop offset="1" stop-color="#01D1FF"/>
</linearGradient>
</defs>
</svg>
