<svg width="112" height="458" viewBox="0 0 112 458" fill="none" xmlns="http://www.w3.org/2000/svg">
<path d="M0.954505 448.204C0.515165 448.644 0.515165 449.356 0.954505 449.796L8.11396 456.955C8.5533 457.394 9.26561 457.394 9.70495 456.955C10.1443 456.516 10.1443 455.803 9.70495 455.364L3.34099 449L9.70495 442.636C10.1443 442.197 10.1443 441.484 9.70495 441.045C9.26561 440.606 8.5533 440.606 8.11396 441.045L0.954505 448.204ZM1.75 2.375H3.21484V0.125H1.75V2.375ZM6.14453 2.375H9.07422V0.125H6.14453V2.375ZM12.0039 2.375H14.9336V0.125H12.0039V2.375ZM17.8633 2.375H20.793V0.125H17.8633V2.375ZM23.7227 2.375H26.6523V0.125H23.7227V2.375ZM29.582 2.375H32.5117V0.125H29.582V2.375ZM35.4414 2.375H38.3711V0.125H35.4414V2.375ZM41.3008 2.375H44.2305V0.125H41.3008V2.375ZM47.1602 2.375H50.0898V0.125H47.1602V2.375ZM53.0195 2.375H55.9492V0.125H53.0195V2.375ZM58.8789 2.375H61.8086V0.125H58.8789V2.375ZM64.7383 2.375H67.668V0.125H64.7383V2.375ZM70.5976 2.375H73.5273V0.125H70.5976V2.375ZM76.457 2.375H79.3867V0.125H76.457V2.375ZM82.3164 2.375H85.2461V0.125H82.3164V2.375ZM88.1758 2.375H91.1055V0.125H88.1758V2.375ZM94.0351 2.375H95.5V0.125H94.0351V2.375ZM95.5 2.375C95.9598 2.375 96.4141 2.39733 96.8618 2.4409L97.0798 0.201485C96.5597 0.150871 96.0327 0.125 95.5 0.125V2.375ZM99.5295 2.96887C100.406 3.23454 101.247 3.58478 102.041 4.01022L103.103 2.02681C102.18 1.53216 101.202 1.12469 100.182 0.815529L99.5295 2.96887ZM104.302 5.52363C105.004 6.10081 105.649 6.74565 106.226 7.44813L107.965 6.01977C107.295 5.20407 106.546 4.45536 105.73 3.78516L104.302 5.52363ZM107.74 9.70897C108.165 10.5033 108.515 11.3436 108.781 12.2205L110.934 11.5681C110.625 10.5476 110.218 9.57013 109.723 8.64662L107.74 9.70897ZM109.309 14.8881C109.353 15.3359 109.375 15.7902 109.375 16.25H111.625C111.625 15.7173 111.599 15.1903 111.549 14.6702L109.309 14.8881ZM109.375 16.25V17.742H111.625V16.25H109.375ZM109.375 20.7259V23.7098H111.625V20.7259H109.375ZM109.375 26.6937V29.6777H111.625V26.6937H109.375ZM109.375 32.6616V35.6455H111.625V32.6616H109.375ZM109.375 38.6295V41.6134H111.625V38.6295H109.375ZM109.375 44.5973V47.5812H111.625V44.5973H109.375ZM109.375 50.5652V53.5491H111.625V50.5652H109.375ZM109.375 56.533V59.517H111.625V56.533H109.375ZM109.375 62.5009V65.4848H111.625V62.5009H109.375ZM109.375 68.4688V71.4527H111.625V68.4688H109.375ZM109.375 74.4366V77.4205H111.625V74.4366H109.375ZM109.375 80.4045V83.3884H111.625V80.4045H109.375ZM109.375 86.3723V89.3562H111.625V86.3723H109.375ZM109.375 92.3402V95.3241H111.625V92.3402H109.375ZM109.375 98.308V101.292H111.625V98.308H109.375ZM109.375 104.276V107.26H111.625V104.276H109.375ZM109.375 110.244V113.228H111.625V110.244H109.375ZM109.375 116.212V119.195H111.625V116.212H109.375ZM109.375 122.179V125.163H111.625V122.179H109.375ZM109.375 128.147V131.131H111.625V128.147H109.375ZM109.375 134.115V137.099H111.625V134.115H109.375ZM109.375 140.083V143.067H111.625V140.083H109.375ZM109.375 146.051V149.035H111.625V146.051H109.375ZM109.375 152.019V155.003H111.625V152.019H109.375ZM109.375 157.987V160.97H111.625V157.987H109.375ZM109.375 163.954V166.938H111.625V163.954H109.375ZM109.375 169.922V172.906H111.625V169.922H109.375ZM109.375 175.89V178.874H111.625V175.89H109.375ZM109.375 181.858V184.842H111.625V181.858H109.375ZM109.375 187.826V190.81H111.625V187.826H109.375ZM109.375 193.794V196.778H111.625V193.794H109.375ZM109.375 199.762V202.746H111.625V199.762H109.375ZM109.375 205.729V208.713H111.625V205.729H109.375ZM109.375 211.697V214.681H111.625V211.697H109.375ZM109.375 217.665V220.649H111.625V217.665H109.375ZM109.375 223.633V226.617H111.625V223.633H109.375ZM109.375 229.601V232.585H111.625V229.601H109.375ZM109.375 235.569V238.553H111.625V235.569H109.375ZM109.375 241.537V244.521H111.625V241.537H109.375ZM109.375 247.505V250.488H111.625V247.505H109.375ZM109.375 253.472V256.456H111.625V253.472H109.375ZM109.375 259.44V262.424H111.625V259.44H109.375ZM109.375 265.408V268.392H111.625V265.408H109.375ZM109.375 271.376V274.36H111.625V271.376H109.375ZM109.375 277.344V280.328H111.625V277.344H109.375ZM109.375 283.312V286.296H111.625V283.312H109.375ZM109.375 289.279V292.263H111.625V289.279H109.375ZM109.375 295.247V298.231H111.625V295.247H109.375ZM109.375 301.215V304.199H111.625V301.215H109.375ZM109.375 307.183V310.167H111.625V307.183H109.375ZM109.375 313.151V316.135H111.625V313.151H109.375ZM109.375 319.119V322.103H111.625V319.119H109.375ZM109.375 325.086V328.07H111.625V325.086H109.375ZM109.375 331.054V334.038H111.625V331.054H109.375ZM109.375 337.022V340.006H111.625V337.022H109.375ZM109.375 342.99V345.974H111.625V342.99H109.375ZM109.375 348.958V351.942H111.625V348.958H109.375ZM109.375 354.926V357.91H111.625V354.926H109.375ZM109.375 360.893V363.877H111.625V360.893H109.375ZM109.375 366.861V369.845H111.625V366.861H109.375ZM109.375 372.829V375.813H111.625V372.829H109.375ZM109.375 378.797V381.781H111.625V378.797H109.375ZM109.375 384.765V387.749H111.625V384.765H109.375ZM109.375 390.733V393.717H111.625V390.733H109.375ZM109.375 396.701V399.684H111.625V396.701H109.375ZM109.375 402.668V405.652H111.625V402.668H109.375ZM109.375 408.636V411.62H111.625V408.636H109.375ZM109.375 414.604V417.588H111.625V414.604H109.375ZM109.375 420.572V423.556H111.625V420.572H109.375ZM109.375 426.54V429.524H111.625V426.54H109.375ZM109.375 432.508V434H111.625V432.508H109.375ZM109.375 434C109.375 434.46 109.353 434.914 109.309 435.362L111.549 435.58C111.599 435.06 111.625 434.533 111.625 434H109.375ZM108.781 438.03C108.515 438.906 108.165 439.747 107.74 440.541L109.723 441.603C110.218 440.68 110.625 439.702 110.934 438.682L108.781 438.03ZM106.226 442.802C105.649 443.504 105.004 444.149 104.302 444.726L105.73 446.465C106.546 445.795 107.295 445.046 107.965 444.23L106.226 442.802ZM102.041 446.24C101.247 446.665 100.406 447.015 99.5295 447.281L100.182 449.434C101.202 449.125 102.18 448.718 103.103 448.223L102.041 446.24ZM96.8618 447.809C96.4141 447.853 95.9598 447.875 95.5 447.875V450.125C96.0327 450.125 96.5597 450.099 97.0798 450.049L96.8618 447.809ZM95.5 447.875H94.0351V450.125H95.5V447.875ZM91.1055 447.875H88.1758V450.125H91.1055V447.875ZM85.2461 447.875H82.3164V450.125H85.2461V447.875ZM79.3867 447.875H76.457V450.125H79.3867V447.875ZM73.5273 447.875H70.5976V450.125H73.5273V447.875ZM67.668 447.875H64.7383V450.125H67.668V447.875ZM61.8086 447.875H58.8789V450.125H61.8086V447.875ZM55.9492 447.875H53.0195V450.125H55.9492V447.875ZM50.0898 447.875H47.1602V450.125H50.0898V447.875ZM44.2305 447.875H41.3008V450.125H44.2305V447.875ZM38.3711 447.875H35.4414V450.125H38.3711V447.875ZM32.5117 447.875H29.582V450.125H32.5117V447.875ZM26.6523 447.875H23.7227V450.125H26.6523V447.875ZM20.793 447.875H17.8633V450.125H20.793V447.875ZM14.9336 447.875H12.0039V450.125H14.9336V447.875ZM9.07422 447.875H6.14453V450.125H9.07422V447.875ZM3.21484 447.875H1.75V450.125H3.21484V447.875ZM0.954505 448.204C0.515165 448.644 0.515165 449.356 0.954505 449.796L8.11396 456.955C8.5533 457.394 9.26561 457.394 9.70495 456.955C10.1443 456.516 10.1443 455.803 9.70495 455.364L3.34099 449L9.70495 442.636C10.1443 442.197 10.1443 441.484 9.70495 441.045C9.26561 440.606 8.5533 440.606 8.11396 441.045L0.954505 448.204ZM1.75 2.375H3.21484V0.125H1.75V2.375ZM6.14453 2.375H9.07422V0.125H6.14453V2.375ZM12.0039 2.375H14.9336V0.125H12.0039V2.375ZM17.8633 2.375H20.793V0.125H17.8633V2.375ZM23.7227 2.375H26.6523V0.125H23.7227V2.375ZM29.582 2.375H32.5117V0.125H29.582V2.375ZM35.4414 2.375H38.3711V0.125H35.4414V2.375ZM41.3008 2.375H44.2305V0.125H41.3008V2.375ZM47.1602 2.375H50.0898V0.125H47.1602V2.375ZM53.0195 2.375H55.9492V0.125H53.0195V2.375ZM58.8789 2.375H61.8086V0.125H58.8789V2.375ZM64.7383 2.375H67.668V0.125H64.7383V2.375ZM70.5976 2.375H73.5273V0.125H70.5976V2.375ZM76.457 2.375H79.3867V0.125H76.457V2.375ZM82.3164 2.375H85.2461V0.125H82.3164V2.375ZM88.1758 2.375H91.1055V0.125H88.1758V2.375ZM94.0351 2.375H95.5V0.125H94.0351V2.375ZM95.5 2.375C95.9598 2.375 96.4141 2.39733 96.8618 2.4409L97.0798 0.201485C96.5597 0.150871 96.0327 0.125 95.5 0.125V2.375ZM99.5295 2.96887C100.406 3.23454 101.247 3.58478 102.041 4.01022L103.103 2.02681C102.18 1.53216 101.202 1.12469 100.182 0.815529L99.5295 2.96887ZM104.302 5.52363C105.004 6.10081 105.649 6.74565 106.226 7.44813L107.965 6.01977C107.295 5.20407 106.546 4.45536 105.73 3.78516L104.302 5.52363ZM107.74 9.70897C108.165 10.5033 108.515 11.3436 108.781 12.2205L110.934 11.5681C110.625 10.5476 110.218 9.57013 109.723 8.64662L107.74 9.70897ZM109.309 14.8881C109.353 15.3359 109.375 15.7902 109.375 16.25H111.625C111.625 15.7173 111.599 15.1903 111.549 14.6702L109.309 14.8881ZM109.375 16.25V17.742H111.625V16.25H109.375ZM109.375 20.7259V23.7098H111.625V20.7259H109.375ZM109.375 26.6937V29.6777H111.625V26.6937H109.375ZM109.375 32.6616V35.6455H111.625V32.6616H109.375ZM109.375 38.6295V41.6134H111.625V38.6295H109.375ZM109.375 44.5973V47.5812H111.625V44.5973H109.375ZM109.375 50.5652V53.5491H111.625V50.5652H109.375ZM109.375 56.533V59.517H111.625V56.533H109.375ZM109.375 62.5009V65.4848H111.625V62.5009H109.375ZM109.375 68.4688V71.4527H111.625V68.4688H109.375ZM109.375 74.4366V77.4205H111.625V74.4366H109.375ZM109.375 80.4045V83.3884H111.625V80.4045H109.375ZM109.375 86.3723V89.3562H111.625V86.3723H109.375ZM109.375 92.3402V95.3241H111.625V92.3402H109.375ZM109.375 98.308V101.292H111.625V98.308H109.375ZM109.375 104.276V107.26H111.625V104.276H109.375ZM109.375 110.244V113.228H111.625V110.244H109.375ZM109.375 116.212V119.195H111.625V116.212H109.375ZM109.375 122.179V125.163H111.625V122.179H109.375ZM109.375 128.147V131.131H111.625V128.147H109.375ZM109.375 134.115V137.099H111.625V134.115H109.375ZM109.375 140.083V143.067H111.625V140.083H109.375ZM109.375 146.051V149.035H111.625V146.051H109.375ZM109.375 152.019V155.003H111.625V152.019H109.375ZM109.375 157.987V160.97H111.625V157.987H109.375ZM109.375 163.954V166.938H111.625V163.954H109.375ZM109.375 169.922V172.906H111.625V169.922H109.375ZM109.375 175.89V178.874H111.625V175.89H109.375ZM109.375 181.858V184.842H111.625V181.858H109.375ZM109.375 187.826V190.81H111.625V187.826H109.375ZM109.375 193.794V196.778H111.625V193.794H109.375ZM109.375 199.762V202.746H111.625V199.762H109.375ZM109.375 205.729V208.713H111.625V205.729H109.375ZM109.375 211.697V214.681H111.625V211.697H109.375ZM109.375 217.665V220.649H111.625V217.665H109.375ZM109.375 223.633V226.617H111.625V223.633H109.375ZM109.375 229.601V232.585H111.625V229.601H109.375ZM109.375 235.569V238.553H111.625V235.569H109.375ZM109.375 241.537V244.521H111.625V241.537H109.375ZM109.375 247.505V250.488H111.625V247.505H109.375ZM109.375 253.472V256.456H111.625V253.472H109.375ZM109.375 259.44V262.424H111.625V259.44H109.375ZM109.375 265.408V268.392H111.625V265.408H109.375ZM109.375 271.376V274.36H111.625V271.376H109.375ZM109.375 277.344V280.328H111.625V277.344H109.375ZM109.375 283.312V286.296H111.625V283.312H109.375ZM109.375 289.279V292.263H111.625V289.279H109.375ZM109.375 295.247V298.231H111.625V295.247H109.375ZM109.375 301.215V304.199H111.625V301.215H109.375ZM109.375 307.183V310.167H111.625V307.183H109.375ZM109.375 313.151V316.135H111.625V313.151H109.375ZM109.375 319.119V322.103H111.625V319.119H109.375ZM109.375 325.086V328.07H111.625V325.086H109.375ZM109.375 331.054V334.038H111.625V331.054H109.375ZM109.375 337.022V340.006H111.625V337.022H109.375ZM109.375 342.99V345.974H111.625V342.99H109.375ZM109.375 348.958V351.942H111.625V348.958H109.375ZM109.375 354.926V357.91H111.625V354.926H109.375ZM109.375 360.893V363.877H111.625V360.893H109.375ZM109.375 366.861V369.845H111.625V366.861H109.375ZM109.375 372.829V375.813H111.625V372.829H109.375ZM109.375 378.797V381.781H111.625V378.797H109.375ZM109.375 384.765V387.749H111.625V384.765H109.375ZM109.375 390.733V393.717H111.625V390.733H109.375ZM109.375 396.701V399.684H111.625V396.701H109.375ZM109.375 402.668V405.652H111.625V402.668H109.375ZM109.375 408.636V411.62H111.625V408.636H109.375ZM109.375 414.604V417.588H111.625V414.604H109.375ZM109.375 420.572V423.556H111.625V420.572H109.375ZM109.375 426.54V429.524H111.625V426.54H109.375ZM109.375 432.508V434H111.625V432.508H109.375ZM109.375 434C109.375 434.46 109.353 434.914 109.309 435.362L111.549 435.58C111.599 435.06 111.625 434.533 111.625 434H109.375ZM108.781 438.03C108.515 438.906 108.165 439.747 107.74 440.541L109.723 441.603C110.218 440.68 110.625 439.702 110.934 438.682L108.781 438.03ZM106.226 442.802C105.649 443.504 105.004 444.149 104.302 444.726L105.73 446.465C106.546 445.795 107.295 445.046 107.965 444.23L106.226 442.802ZM102.041 446.24C101.247 446.665 100.406 447.015 99.5295 447.281L100.182 449.434C101.202 449.125 102.18 448.718 103.103 448.223L102.041 446.24ZM96.8618 447.809C96.4141 447.853 95.9598 447.875 95.5 447.875V450.125C96.0327 450.125 96.5597 450.099 97.0798 450.049L96.8618 447.809ZM95.5 447.875H94.0351V450.125H95.5V447.875ZM91.1055 447.875H88.1758V450.125H91.1055V447.875ZM85.2461 447.875H82.3164V450.125H85.2461V447.875ZM79.3867 447.875H76.457V450.125H79.3867V447.875ZM73.5273 447.875H70.5976V450.125H73.5273V447.875ZM67.668 447.875H64.7383V450.125H67.668V447.875ZM61.8086 447.875H58.8789V450.125H61.8086V447.875ZM55.9492 447.875H53.0195V450.125H55.9492V447.875ZM50.0898 447.875H47.1602V450.125H50.0898V447.875ZM44.2305 447.875H41.3008V450.125H44.2305V447.875ZM38.3711 447.875H35.4414V450.125H38.3711V447.875ZM32.5117 447.875H29.582V450.125H32.5117V447.875ZM26.6523 447.875H23.7227V450.125H26.6523V447.875ZM20.793 447.875H17.8633V450.125H20.793V447.875ZM14.9336 447.875H12.0039V450.125H14.9336V447.875ZM9.07422 447.875H6.14453V450.125H9.07422V447.875ZM3.21484 447.875H1.75V450.125H3.21484V447.875Z" fill="url(#paint0_linear_147_488)"/>
<defs>
<linearGradient id="paint0_linear_147_488" x1="57.1092" y1="26.8636" x2="57.1092" y2="449.001" gradientUnits="userSpaceOnUse">
<stop stop-color="#3284FF"/>
<stop offset="1" stop-color="#01D1FF"/>
</linearGradient>
</defs>
</svg>
