<svg width="149" height="611" viewBox="0 0 149 611" fill="none" xmlns="http://www.w3.org/2000/svg">
<path d="M0.93934 597.939C0.353553 598.525 0.353553 599.475 0.93934 600.061L10.4853 609.607C11.0711 610.192 12.0208 610.192 12.6066 609.607C13.1924 609.021 13.1924 608.071 12.6066 607.485L4.12132 599L12.6066 590.515C13.1924 589.929 13.1924 588.979 12.6066 588.393C12.0208 587.808 11.0711 587.808 10.4853 588.393L0.93934 597.939ZM2 3.5H3.95312V0.5H2V3.5ZM7.85937 3.5H11.7656V0.5H7.85937V3.5ZM15.6719 3.5H19.5781V0.5H15.6719V3.5ZM23.4844 3.5H27.3906V0.5H23.4844V3.5ZM31.2969 3.5H35.2031V0.5H31.2969V3.5ZM39.1094 3.5H43.0156V0.5H39.1094V3.5ZM46.9219 3.5H50.8281V0.5H46.9219V3.5ZM54.7344 3.5H58.6406V0.5H54.7344V3.5ZM62.5469 3.5H66.4531V0.5H62.5469V3.5ZM70.3594 3.5H74.2656V0.5H70.3594V3.5ZM78.1719 3.5H82.0781V0.5H78.1719V3.5ZM85.9844 3.5H89.8906V0.5H85.9844V3.5ZM93.7969 3.5H97.7031V0.5H93.7969V3.5ZM101.609 3.5H105.516V0.5H101.609V3.5ZM109.422 3.5H113.328V0.5H109.422V3.5ZM117.234 3.5H121.141V0.5H117.234V3.5ZM125.047 3.5H127V0.5H125.047V3.5ZM127 3.5C127.613 3.5 128.219 3.52977 128.816 3.58787L129.106 0.60198C128.413 0.534495 127.71 0.5 127 0.5V3.5ZM132.373 4.29183C133.542 4.64605 134.662 5.11304 135.721 5.68029L137.138 3.03575C135.906 2.37622 134.603 1.83292 133.243 1.42071L132.373 4.29183ZM138.736 7.69818C139.672 8.46775 140.532 9.32753 141.302 10.2642L143.62 8.3597C142.726 7.27209 141.728 6.27382 140.64 5.38022L138.736 7.69818ZM143.32 13.2786C143.887 14.3377 144.354 15.4581 144.708 16.6273L147.579 15.7574C147.167 14.3968 146.624 13.0935 145.964 11.8622L143.32 13.2786ZM145.412 20.1842C145.47 20.7812 145.5 21.3869 145.5 22H148.5C148.5 21.2897 148.465 20.587 148.398 19.8936L145.412 20.1842ZM145.5 22V23.9893H148.5V22H145.5ZM145.5 27.9679V31.9464H148.5V27.9679H145.5ZM145.5 35.925V39.9036H148.5V35.925H145.5ZM145.5 43.8821V47.8607H148.5V43.8821H145.5ZM145.5 51.8393V55.8179H148.5V51.8393H145.5ZM145.5 59.7964V63.775H148.5V59.7964H145.5ZM145.5 67.7536V71.7321H148.5V67.7536H145.5ZM145.5 75.7107V79.6893H148.5V75.7107H145.5ZM145.5 83.6679V87.6464H148.5V83.6679H145.5ZM145.5 91.625V95.6036H148.5V91.625H145.5ZM145.5 99.5821V103.561H148.5V99.5821H145.5ZM145.5 107.539V111.518H148.5V107.539H145.5ZM145.5 115.496V119.475H148.5V115.496H145.5ZM145.5 123.454V127.432H148.5V123.454H145.5ZM145.5 131.411V135.389H148.5V131.411H145.5ZM145.5 139.368V143.346H148.5V139.368H145.5ZM145.5 147.325V151.304H148.5V147.325H145.5ZM145.5 155.282V159.261H148.5V155.282H145.5ZM145.5 163.239V167.218H148.5V163.239H145.5ZM145.5 171.196V175.175H148.5V171.196H145.5ZM145.5 179.154V183.132H148.5V179.154H145.5ZM145.5 187.111V191.089H148.5V187.111H145.5ZM145.5 195.068V199.046H148.5V195.068H145.5ZM145.5 203.025V207.004H148.5V203.025H145.5ZM145.5 210.982V214.961H148.5V210.982H145.5ZM145.5 218.939V222.918H148.5V218.939H145.5ZM145.5 226.896V230.875H148.5V226.896H145.5ZM145.5 234.854V238.832H148.5V234.854H145.5ZM145.5 242.811V246.789H148.5V242.811H145.5ZM145.5 250.768V254.747H148.5V250.768H145.5ZM145.5 258.725V262.704H148.5V258.725H145.5ZM145.5 266.682V270.661H148.5V266.682H145.5ZM145.5 274.639V278.618H148.5V274.639H145.5ZM145.5 282.597V286.575H148.5V282.597H145.5ZM145.5 290.554V294.532H148.5V290.554H145.5ZM145.5 298.511V302.489H148.5V298.511H145.5ZM145.5 306.468V310.447H148.5V306.468H145.5ZM145.5 314.425V318.404H148.5V314.425H145.5ZM145.5 322.382V326.361H148.5V322.382H145.5ZM145.5 330.339V334.318H148.5V330.339H145.5ZM145.5 338.297V342.275H148.5V338.297H145.5ZM145.5 346.254V350.232H148.5V346.254H145.5ZM145.5 354.211V358.19H148.5V354.211H145.5ZM145.5 362.168V366.147H148.5V362.168H145.5ZM145.5 370.125V374.104H148.5V370.125H145.5ZM145.5 378.082V382.061H148.5V378.082H145.5ZM145.5 386.04V390.018H148.5V386.04H145.5ZM145.5 393.997V397.975H148.5V393.997H145.5ZM145.5 401.954V405.932H148.5V401.954H145.5ZM145.5 409.911V413.89H148.5V409.911H145.5ZM145.5 417.868V421.847H148.5V417.868H145.5ZM145.5 425.825V429.804H148.5V425.825H145.5ZM145.5 433.782V437.761H148.5V433.782H145.5ZM145.5 441.74V445.718H148.5V441.74H145.5ZM145.5 449.697V453.675H148.5V449.697H145.5ZM145.5 457.654V461.633H148.5V457.654H145.5ZM145.5 465.611V469.59H148.5V465.611H145.5ZM145.5 473.568V477.547H148.5V473.568H145.5ZM145.5 481.525V485.504H148.5V481.525H145.5ZM145.5 489.483V493.461H148.5V489.483H145.5ZM145.5 497.44V501.418H148.5V497.44H145.5ZM145.5 505.397V509.375H148.5V505.397H145.5ZM145.5 513.354V517.333H148.5V513.354H145.5ZM145.5 521.311V525.29H148.5V521.311H145.5ZM145.5 529.268V533.247H148.5V529.268H145.5ZM145.5 537.225V541.204H148.5V537.225H145.5ZM145.5 545.183V549.161H148.5V545.183H145.5ZM145.5 553.14V557.118H148.5V553.14H145.5ZM145.5 561.097V565.076H148.5V561.097H145.5ZM145.5 569.054V573.033H148.5V569.054H145.5ZM145.5 577.011V579H148.5V577.011H145.5ZM145.5 579C145.5 579.613 145.47 580.219 145.412 580.816L148.398 581.106C148.465 580.413 148.5 579.71 148.5 579H145.5ZM144.708 584.373C144.354 585.542 143.887 586.662 143.32 587.721L145.964 589.138C146.624 587.906 147.167 586.603 147.579 585.243L144.708 584.373ZM141.302 590.736C140.532 591.672 139.672 592.532 138.736 593.302L140.64 595.62C141.728 594.726 142.726 593.728 143.62 592.64L141.302 590.736ZM135.721 595.32C134.662 595.887 133.542 596.354 132.373 596.708L133.243 599.579C134.603 599.167 135.906 598.624 137.138 597.964L135.721 595.32ZM128.816 597.412C128.219 597.47 127.613 597.5 127 597.5V600.5C127.71 600.5 128.413 600.466 129.106 600.398L128.816 597.412ZM127 597.5H125.047V600.5H127V597.5ZM121.141 597.5H117.234V600.5H121.141V597.5ZM113.328 597.5H109.422V600.5H113.328V597.5ZM105.516 597.5H101.609V600.5H105.516V597.5ZM97.7031 597.5H93.7969V600.5H97.7031V597.5ZM89.8906 597.5H85.9844V600.5H89.8906V597.5ZM82.0781 597.5H78.1719V600.5H82.0781V597.5ZM74.2656 597.5H70.3594V600.5H74.2656V597.5ZM66.4531 597.5H62.5469V600.5H66.4531V597.5ZM58.6406 597.5H54.7344V600.5H58.6406V597.5ZM50.8281 597.5H46.9219V600.5H50.8281V597.5ZM43.0156 597.5H39.1094V600.5H43.0156V597.5ZM35.2031 597.5H31.2969V600.5H35.2031V597.5ZM27.3906 597.5H23.4844V600.5H27.3906V597.5ZM19.5781 597.5H15.6719V600.5H19.5781V597.5ZM11.7656 597.5H7.85937V600.5H11.7656V597.5ZM3.95312 597.5H2V600.5H3.95312V597.5ZM0.93934 597.939C0.353553 598.525 0.353553 599.475 0.93934 600.061L10.4853 609.607C11.0711 610.192 12.0208 610.192 12.6066 609.607C13.1924 609.021 13.1924 608.071 12.6066 607.485L4.12132 599L12.6066 590.515C13.1924 589.929 13.1924 588.979 12.6066 588.393C12.0208 587.808 11.0711 587.808 10.4853 588.393L0.93934 597.939ZM2 3.5H3.95312V0.5H2V3.5ZM7.85937 3.5H11.7656V0.5H7.85937V3.5ZM15.6719 3.5H19.5781V0.5H15.6719V3.5ZM23.4844 3.5H27.3906V0.5H23.4844V3.5ZM31.2969 3.5H35.2031V0.5H31.2969V3.5ZM39.1094 3.5H43.0156V0.5H39.1094V3.5ZM46.9219 3.5H50.8281V0.5H46.9219V3.5ZM54.7344 3.5H58.6406V0.5H54.7344V3.5ZM62.5469 3.5H66.4531V0.5H62.5469V3.5ZM70.3594 3.5H74.2656V0.5H70.3594V3.5ZM78.1719 3.5H82.0781V0.5H78.1719V3.5ZM85.9844 3.5H89.8906V0.5H85.9844V3.5ZM93.7969 3.5H97.7031V0.5H93.7969V3.5ZM101.609 3.5H105.516V0.5H101.609V3.5ZM109.422 3.5H113.328V0.5H109.422V3.5ZM117.234 3.5H121.141V0.5H117.234V3.5ZM125.047 3.5H127V0.5H125.047V3.5ZM127 3.5C127.613 3.5 128.219 3.52977 128.816 3.58787L129.106 0.60198C128.413 0.534495 127.71 0.5 127 0.5V3.5ZM132.373 4.29183C133.542 4.64605 134.662 5.11304 135.721 5.68029L137.138 3.03575C135.906 2.37622 134.603 1.83292 133.243 1.42071L132.373 4.29183ZM138.736 7.69818C139.672 8.46775 140.532 9.32753 141.302 10.2642L143.62 8.3597C142.726 7.27209 141.728 6.27382 140.64 5.38022L138.736 7.69818ZM143.32 13.2786C143.887 14.3377 144.354 15.4581 144.708 16.6273L147.579 15.7574C147.167 14.3968 146.624 13.0935 145.964 11.8622L143.32 13.2786ZM145.412 20.1842C145.47 20.7812 145.5 21.3869 145.5 22H148.5C148.5 21.2897 148.465 20.587 148.398 19.8936L145.412 20.1842ZM145.5 22V23.9893H148.5V22H145.5ZM145.5 27.9679V31.9464H148.5V27.9679H145.5ZM145.5 35.925V39.9036H148.5V35.925H145.5ZM145.5 43.8821V47.8607H148.5V43.8821H145.5ZM145.5 51.8393V55.8179H148.5V51.8393H145.5ZM145.5 59.7964V63.775H148.5V59.7964H145.5ZM145.5 67.7536V71.7321H148.5V67.7536H145.5ZM145.5 75.7107V79.6893H148.5V75.7107H145.5ZM145.5 83.6679V87.6464H148.5V83.6679H145.5ZM145.5 91.625V95.6036H148.5V91.625H145.5ZM145.5 99.5821V103.561H148.5V99.5821H145.5ZM145.5 107.539V111.518H148.5V107.539H145.5ZM145.5 115.496V119.475H148.5V115.496H145.5ZM145.5 123.454V127.432H148.5V123.454H145.5ZM145.5 131.411V135.389H148.5V131.411H145.5ZM145.5 139.368V143.346H148.5V139.368H145.5ZM145.5 147.325V151.304H148.5V147.325H145.5ZM145.5 155.282V159.261H148.5V155.282H145.5ZM145.5 163.239V167.218H148.5V163.239H145.5ZM145.5 171.196V175.175H148.5V171.196H145.5ZM145.5 179.154V183.132H148.5V179.154H145.5ZM145.5 187.111V191.089H148.5V187.111H145.5ZM145.5 195.068V199.046H148.5V195.068H145.5ZM145.5 203.025V207.004H148.5V203.025H145.5ZM145.5 210.982V214.961H148.5V210.982H145.5ZM145.5 218.939V222.918H148.5V218.939H145.5ZM145.5 226.896V230.875H148.5V226.896H145.5ZM145.5 234.854V238.832H148.5V234.854H145.5ZM145.5 242.811V246.789H148.5V242.811H145.5ZM145.5 250.768V254.747H148.5V250.768H145.5ZM145.5 258.725V262.704H148.5V258.725H145.5ZM145.5 266.682V270.661H148.5V266.682H145.5ZM145.5 274.639V278.618H148.5V274.639H145.5ZM145.5 282.597V286.575H148.5V282.597H145.5ZM145.5 290.554V294.532H148.5V290.554H145.5ZM145.5 298.511V302.489H148.5V298.511H145.5ZM145.5 306.468V310.447H148.5V306.468H145.5ZM145.5 314.425V318.404H148.5V314.425H145.5ZM145.5 322.382V326.361H148.5V322.382H145.5ZM145.5 330.339V334.318H148.5V330.339H145.5ZM145.5 338.297V342.275H148.5V338.297H145.5ZM145.5 346.254V350.232H148.5V346.254H145.5ZM145.5 354.211V358.19H148.5V354.211H145.5ZM145.5 362.168V366.147H148.5V362.168H145.5ZM145.5 370.125V374.104H148.5V370.125H145.5ZM145.5 378.082V382.061H148.5V378.082H145.5ZM145.5 386.04V390.018H148.5V386.04H145.5ZM145.5 393.997V397.975H148.5V393.997H145.5ZM145.5 401.954V405.932H148.5V401.954H145.5ZM145.5 409.911V413.89H148.5V409.911H145.5ZM145.5 417.868V421.847H148.5V417.868H145.5ZM145.5 425.825V429.804H148.5V425.825H145.5ZM145.5 433.782V437.761H148.5V433.782H145.5ZM145.5 441.74V445.718H148.5V441.74H145.5ZM145.5 449.697V453.675H148.5V449.697H145.5ZM145.5 457.654V461.633H148.5V457.654H145.5ZM145.5 465.611V469.59H148.5V465.611H145.5ZM145.5 473.568V477.547H148.5V473.568H145.5ZM145.5 481.525V485.504H148.5V481.525H145.5ZM145.5 489.483V493.461H148.5V489.483H145.5ZM145.5 497.44V501.418H148.5V497.44H145.5ZM145.5 505.397V509.375H148.5V505.397H145.5ZM145.5 513.354V517.333H148.5V513.354H145.5ZM145.5 521.311V525.29H148.5V521.311H145.5ZM145.5 529.268V533.247H148.5V529.268H145.5ZM145.5 537.225V541.204H148.5V537.225H145.5ZM145.5 545.183V549.161H148.5V545.183H145.5ZM145.5 553.14V557.118H148.5V553.14H145.5ZM145.5 561.097V565.076H148.5V561.097H145.5ZM145.5 569.054V573.033H148.5V569.054H145.5ZM145.5 577.011V579H148.5V577.011H145.5ZM145.5 579C145.5 579.613 145.47 580.219 145.412 580.816L148.398 581.106C148.465 580.413 148.5 579.71 148.5 579H145.5ZM144.708 584.373C144.354 585.542 143.887 586.662 143.32 587.721L145.964 589.138C146.624 587.906 147.167 586.603 147.579 585.243L144.708 584.373ZM141.302 590.736C140.532 591.672 139.672 592.532 138.736 593.302L140.64 595.62C141.728 594.726 142.726 593.728 143.62 592.64L141.302 590.736ZM135.721 595.32C134.662 595.887 133.542 596.354 132.373 596.708L133.243 599.579C134.603 599.167 135.906 598.624 137.138 597.964L135.721 595.32ZM128.816 597.412C128.219 597.47 127.613 597.5 127 597.5V600.5C127.71 600.5 128.413 600.466 129.106 600.398L128.816 597.412ZM127 597.5H125.047V600.5H127V597.5ZM121.141 597.5H117.234V600.5H121.141V597.5ZM113.328 597.5H109.422V600.5H113.328V597.5ZM105.516 597.5H101.609V600.5H105.516V597.5ZM97.7031 597.5H93.7969V600.5H97.7031V597.5ZM89.8906 597.5H85.9844V600.5H89.8906V597.5ZM82.0781 597.5H78.1719V600.5H82.0781V597.5ZM74.2656 597.5H70.3594V600.5H74.2656V597.5ZM66.4531 597.5H62.5469V600.5H66.4531V597.5ZM58.6406 597.5H54.7344V600.5H58.6406V597.5ZM50.8281 597.5H46.9219V600.5H50.8281V597.5ZM43.0156 597.5H39.1094V600.5H43.0156V597.5ZM35.2031 597.5H31.2969V600.5H35.2031V597.5ZM27.3906 597.5H23.4844V600.5H27.3906V597.5ZM19.5781 597.5H15.6719V600.5H19.5781V597.5ZM11.7656 597.5H7.85937V600.5H11.7656V597.5ZM3.95312 597.5H2V600.5H3.95312V597.5Z" fill="url(#paint0_linear_147_108)"/>
<defs>
<linearGradient id="paint0_linear_147_108" x1="75.8122" y1="36.1515" x2="75.8122" y2="599.001" gradientUnits="userSpaceOnUse">
<stop stop-color="#3284FF"/>
<stop offset="1" stop-color="#01D1FF"/>
</linearGradient>
</defs>
</svg>
