<svg width="32" height="33" viewBox="0 0 32 33" fill="none" xmlns="http://www.w3.org/2000/svg">
<g clip-path="url(#clip0_370_8281)">
<g clip-path="url(#clip1_370_8281)">
<g clip-path="url(#clip2_370_8281)">
<mask id="mask0_370_8281" style="mask-type:luminance" maskUnits="userSpaceOnUse" x="0" y="0" width="33" height="33">
<path d="M32.0062 0.0625H0.00488281V32.0639H32.0062V0.0625Z" fill="white"/>
</mask>
<g mask="url(#mask0_370_8281)">
<path d="M19.5681 32.0639H7.4426C4.68539 32.0639 2.44238 29.8209 2.44238 27.0637V5.06271C2.44238 2.30552 4.68539 0.0625 7.4426 0.0625H19.5681C22.3253 0.0625 24.5683 2.30552 24.5683 5.06271V7.00786C24.5683 7.69832 24.0087 8.25792 23.3183 8.25792C22.6278 8.25792 22.0682 7.69832 22.0682 7.00786V5.06271C22.0682 3.68423 20.9466 2.56261 19.5681 2.56261H7.4426C6.06412 2.56261 4.94249 3.68423 4.94249 5.06271V27.0637C4.94249 28.4422 6.06412 29.5637 7.4426 29.5637H19.5681C20.9466 29.5637 22.0682 28.4422 22.0682 27.0637V24.6961C22.0682 24.0057 22.6278 23.4461 23.3183 23.4461C24.0087 23.4461 24.5683 24.0057 24.5683 24.6961V27.0637C24.5683 29.8209 22.3253 32.0639 19.5681 32.0639ZM14.7554 26.3837C14.7554 25.6932 14.1958 25.1336 13.5053 25.1336C12.8149 25.1336 12.2553 25.6932 12.2553 26.3837C12.2553 27.0741 12.8149 27.6337 13.5053 27.6337C14.1958 27.6337 14.7554 27.0741 14.7554 26.3837ZM16.0055 5.75781C16.0055 5.06735 15.4459 4.50776 14.7554 4.50776H12.2553C11.5648 4.50776 11.0052 5.06735 11.0052 5.75781C11.0052 6.44827 11.5648 7.00786 12.2553 7.00786H14.7554C15.4459 7.00786 16.0055 6.44827 16.0055 5.75781ZM17.7108 22.3211C18.2785 22.3211 18.8393 21.947 18.9931 21.4055L21.8324 11.4178C22.0604 10.6162 21.4527 9.82048 20.6128 9.82048C20.0452 9.82048 19.5468 10.1945 19.393 10.736L16.5539 20.7241C16.326 21.5256 16.871 22.3211 17.7108 22.3211ZM14.4632 20.8117C14.9067 20.2826 14.8374 19.4939 14.3083 19.0506L11.2169 16.4585C11.0873 16.3469 11.0678 16.207 11.0678 16.1333C11.0678 16.0596 11.0873 15.9196 11.2169 15.808L14.3083 13.2159C14.8374 12.7725 14.9067 11.9839 14.4632 11.4549C14.0198 10.926 13.2312 10.8565 12.7021 11.3L9.60674 13.8954C9.60479 13.8971 9.60259 13.8988 9.60064 13.9007C8.94412 14.4581 8.56764 15.2719 8.56764 16.1333C8.56764 16.9946 8.94412 17.8083 9.60064 18.3658C9.60259 18.3675 9.60455 18.3692 9.60674 18.3711L12.7021 20.9664C12.9362 21.1628 13.2211 21.2585 13.5047 21.2585C13.8616 21.2585 14.216 21.1064 14.4632 20.8117ZM28.6913 22.4675L31.7207 19.8751C32.3773 19.3177 32.7537 18.5039 32.7537 17.6426C32.7537 16.7812 32.3773 15.9675 31.7241 15.413L28.6913 12.8177C28.1666 12.3687 27.3776 12.4302 26.9288 12.9547C26.4798 13.4793 26.5413 14.2684 27.0658 14.7172L30.1023 17.3154C30.2338 17.4273 30.2536 17.5684 30.2536 17.6426C30.2536 17.7166 30.2341 17.8577 30.0989 17.9725L27.0658 20.568C26.5413 21.0168 26.4798 21.8058 26.9288 22.3303C27.1761 22.6194 27.5265 22.7678 27.8792 22.7678C28.1666 22.7678 28.4557 22.6692 28.6913 22.4675Z" fill="white"/>
</g>
</g>
</g>
</g>
<defs>
<clipPath id="clip0_370_8281">
<rect width="32.0014" height="32.0014" fill="white" transform="translate(0 0.0644531)"/>
</clipPath>
<clipPath id="clip1_370_8281">
<rect width="32.0014" height="32.0014" fill="white" transform="translate(0 0.0644531)"/>
</clipPath>
<clipPath id="clip2_370_8281">
<rect width="32.0014" height="32.0014" fill="white" transform="translate(0 0.0644531)"/>
</clipPath>
</defs>
</svg>
