<svg width="34" height="34" viewBox="0 0 34 34" fill="none" xmlns="http://www.w3.org/2000/svg">
<g clip-path="url(#clip0_370_8071)">
<g clip-path="url(#clip1_370_8071)">
<g clip-path="url(#clip2_370_8071)">
<mask id="mask0_370_8071" style="mask-type:luminance" maskUnits="userSpaceOnUse" x="1" y="0" width="32" height="34">
<path d="M32.5426 0.523438H1.04883V33.067H32.5426V0.523438Z" fill="white"/>
</mask>
<g mask="url(#mask0_370_8071)">
<path d="M22.646 20.4927C23.4555 19.331 23.931 17.9185 23.931 16.3964C23.931 12.4459 20.73 9.23192 16.7957 9.23192C12.8614 9.23192 9.6604 12.4459 9.6604 16.3964C9.6604 20.347 12.8614 23.5608 16.7957 23.5608C18.3275 23.5608 19.748 23.0734 20.9119 22.2454L25.5678 26.9203C25.8079 27.1614 26.1228 27.282 26.4376 27.282C26.7524 27.282 27.0674 27.1614 27.3074 26.9203C27.788 26.4378 27.788 25.6557 27.3074 25.1734L22.646 20.4927ZM12.1209 16.3964C12.1209 13.8081 14.218 11.7025 16.7957 11.7025C19.3734 11.7025 21.4705 13.8081 21.4705 16.3964C21.4705 18.9846 19.3734 21.0903 16.7957 21.0903C14.218 21.0903 12.1209 18.9846 12.1209 16.3964ZM32.5426 15.717V16.9523C32.5426 18.9957 30.8871 20.6579 28.8519 20.6579H28.2322C28.1323 20.6579 28.0561 20.6958 28.01 20.7276C27.4496 21.1137 26.6839 20.9703 26.2997 20.4075C25.9152 19.8452 26.0579 19.076 26.6183 18.6902C27.0962 18.3614 27.6541 18.1874 28.2322 18.1874H28.8519C29.5302 18.1874 30.0821 17.6333 30.0821 16.9523V15.717C30.0821 15.0359 29.5302 14.4817 28.8519 14.4817H28.2322C27.0693 14.4817 26.0292 13.7789 25.5817 12.6916L25.5743 12.6735C25.1248 11.5864 25.3653 10.3504 26.1875 9.52482L26.6257 9.085C27.1053 8.6032 27.1053 7.8196 26.6257 7.33804L25.7557 6.46468C25.5234 6.23139 25.2143 6.1028 24.8859 6.1028C24.5571 6.1028 24.2482 6.23115 24.0161 6.46468L23.5778 6.90449C22.7556 7.73009 21.5246 7.97183 20.4419 7.51995L20.4237 7.51247C19.3409 7.06348 18.641 6.01908 18.641 4.85138V4.22917C18.641 3.5481 18.0892 2.99393 17.4108 2.99393H16.1806C15.5023 2.99393 14.9504 3.5481 14.9504 4.22917V4.85138C14.9504 6.01908 14.2505 7.06348 13.1675 7.51247L13.1519 7.51899C12.0665 7.97159 10.8358 7.73009 10.0136 6.90449L9.57534 6.46444C9.34323 6.23115 9.03424 6.1028 8.70554 6.1028C8.37708 6.1028 8.06808 6.23115 7.83573 6.46444L6.96569 7.33804C6.48609 7.8196 6.48609 8.6032 6.96569 9.085L7.40395 9.52482C8.22618 10.3504 8.4667 11.5864 8.0169 12.6737L8.00945 12.6921C7.56229 13.779 6.52213 14.4817 5.35918 14.4817H4.7395C4.0612 14.4817 3.50928 15.0359 3.50928 15.717V16.9523C3.50928 17.6333 4.0612 18.1874 4.7395 18.1874H5.35918C6.52189 18.1874 7.56229 18.8903 8.00945 19.9776L8.01859 19.9993C8.4667 21.0828 8.22618 22.3188 7.40395 23.1444L6.96569 23.5842C6.73334 23.8175 6.6055 24.1277 6.6055 24.4578C6.6055 24.7876 6.73334 25.0978 6.96569 25.3312L7.83573 26.2047C8.31532 26.6862 9.09575 26.6866 9.57558 26.2047L10.0136 25.7646C10.8354 24.9398 12.0653 24.6978 13.1478 25.1485L13.1636 25.155C14.2507 25.6057 14.9504 26.6503 14.9504 27.8178V28.44C14.9504 29.121 15.5023 29.6752 16.1806 29.6752H17.4108C18.0892 29.6752 18.641 29.121 18.641 28.44V27.8178C18.641 27.2373 18.8142 26.6769 19.142 26.1973C19.5262 25.6347 20.292 25.4914 20.8523 25.8774C21.4127 26.2631 21.5554 27.032 21.1709 27.5946C21.1392 27.6409 21.1015 27.7175 21.1015 27.8178V28.44C21.1015 30.4834 19.446 32.1457 17.4108 32.1457H16.1806C14.1454 32.1457 12.4899 30.4834 12.4899 28.44V27.8178C12.4899 27.6543 12.3873 27.5058 12.2283 27.44L12.2059 27.4305C12.0461 27.364 11.8685 27.3958 11.7535 27.5116L11.3152 27.9517C9.87641 29.3964 7.5349 29.3964 6.09587 27.9517L5.22582 27.0781C4.52878 26.3782 4.14505 25.4477 4.14505 24.4578C4.14505 23.4679 4.52878 22.5374 5.22607 21.8375L5.66409 21.3974C5.77919 21.2818 5.8109 21.1036 5.74483 20.9434L5.73473 20.9192C5.66987 20.761 5.52209 20.6579 5.35918 20.6579H4.7395C2.70435 20.6579 1.04883 18.9957 1.04883 16.9523V15.717C1.04883 13.6736 2.70435 12.0112 4.7395 12.0112H5.35918C5.52209 12.0112 5.66987 11.9082 5.73546 11.7488L5.74459 11.7263C5.81115 11.5659 5.77943 11.3875 5.66409 11.2717L5.22607 10.832C3.78704 9.38705 3.78704 7.03598 5.22607 5.59109L6.09587 4.71772C6.79316 4.01784 7.71992 3.6323 8.70554 3.6323C9.6914 3.6323 10.6182 4.01784 11.3154 4.71772L11.7535 5.15754C11.8688 5.27335 12.0463 5.30519 12.2059 5.2386L12.2281 5.22919C12.3873 5.16333 12.4899 5.01496 12.4899 4.85138V4.22917C12.4899 2.18571 14.1457 0.523438 16.1806 0.523438H17.4108C19.446 0.523438 21.1015 2.18571 21.1015 4.22917V4.85138C21.1015 5.01496 21.2041 5.16333 21.3629 5.22919L21.3879 5.23956C21.5453 5.30519 21.7229 5.27335 21.838 5.15754L22.2763 4.71772C22.9733 4.0176 23.9 3.6323 24.8859 3.6323C25.8715 3.6323 26.7985 4.0176 27.4955 4.71772L28.3654 5.59109C29.8044 7.03598 29.8044 9.38705 28.3654 10.8318L27.9273 11.2717C27.812 11.3873 27.7803 11.5657 27.8465 11.7261L27.8557 11.7482C27.9215 11.908 28.0693 12.0112 28.2322 12.0112H28.8519C30.8871 12.0112 32.5426 13.6736 32.5426 15.717Z" fill="white"/>
</g>
</g>
</g>
</g>
<defs>
<clipPath id="clip0_370_8071">
<rect width="33.5933" height="33.5933" fill="white"/>
</clipPath>
<clipPath id="clip1_370_8071">
<rect width="33.5933" height="33.5933" fill="white"/>
</clipPath>
<clipPath id="clip2_370_8071">
<rect width="31.4938" height="33.5933" fill="white" transform="translate(1.0498)"/>
</clipPath>
</defs>
</svg>
