<svg width="1920" height="1212" viewBox="0 0 1920 1212" fill="none" xmlns="http://www.w3.org/2000/svg">
<g clip-path="url(#clip0_126_110)">
<mask id="mask0_126_110" style="mask-type:alpha" maskUnits="userSpaceOnUse" x="0" y="343" width="1921" height="867">
<rect x="0.000113748" y="344" width="1920" height="866" fill="url(#paint0_linear_126_110)"/>
</mask>
<g mask="url(#mask0_126_110)">
<line y1="-0.5" x2="1929" y2="-0.5" transform="matrix(-0.866026 0.5 -0.866025 -0.5 942.32 -201)" stroke="#D4E4FE" stroke-opacity="0.5"/>
<line y1="-0.5" x2="1929" y2="-0.5" transform="matrix(-0.866025 0.5 -0.866025 -0.5 1001.21 -167)" stroke="#D4E4FE" stroke-opacity="0.5"/>
<line y1="-0.5" x2="1929" y2="-0.5" transform="matrix(-0.866025 0.5 -0.866025 -0.5 1060.1 -133)" stroke="#D4E4FE" stroke-opacity="0.5"/>
<line y1="-0.5" x2="1929" y2="-0.5" transform="matrix(-0.866026 0.5 -0.866025 -0.5 1118.99 -98.9999)" stroke="#D4E4FE" stroke-opacity="0.5"/>
<line y1="-0.5" x2="1929" y2="-0.5" transform="matrix(-0.866026 0.5 -0.866025 -0.5 1177.88 -64.9999)" stroke="#D4E4FE" stroke-opacity="0.5"/>
<line y1="-0.5" x2="1929" y2="-0.5" transform="matrix(-0.866026 0.5 -0.866025 -0.5 1236.77 -30.9998)" stroke="#D4E4FE" stroke-opacity="0.5"/>
<line y1="-0.5" x2="1929" y2="-0.5" transform="matrix(-0.866025 0.5 -0.866025 -0.5 1295.66 3.00024)" stroke="#D4E4FE" stroke-opacity="0.5"/>
<line y1="-0.5" x2="1929" y2="-0.5" transform="matrix(-0.866026 0.5 -0.866025 -0.5 1354.55 37.0002)" stroke="#D4E4FE" stroke-opacity="0.5"/>
<line y1="-0.5" x2="1929" y2="-0.5" transform="matrix(-0.866026 0.5 -0.866025 -0.5 1413.44 71.0002)" stroke="#D4E4FE" stroke-opacity="0.5"/>
<line y1="-0.5" x2="1929" y2="-0.5" transform="matrix(-0.866026 0.5 -0.866025 -0.5 1472.33 105)" stroke="#D4E4FE" stroke-opacity="0.5"/>
<line y1="-0.5" x2="1929" y2="-0.5" transform="matrix(-0.866025 0.5 -0.866025 -0.5 1531.22 139)" stroke="#D4E4FE" stroke-opacity="0.5"/>
<line y1="-0.5" x2="1929" y2="-0.5" transform="matrix(-0.866025 0.5 -0.866025 -0.5 1590.11 173)" stroke="#D4E4FE" stroke-opacity="0.5"/>
<line y1="-0.5" x2="1929" y2="-0.5" transform="matrix(-0.866026 0.5 -0.866025 -0.5 1649 207)" stroke="#D4E4FE" stroke-opacity="0.5"/>
<line y1="-0.5" x2="1929" y2="-0.5" transform="matrix(-0.866026 0.5 -0.866025 -0.5 1707.89 241)" stroke="#D4E4FE" stroke-opacity="0.5"/>
<line y1="-0.5" x2="1929" y2="-0.5" transform="matrix(-0.866026 0.5 -0.866025 -0.5 1766.78 275)" stroke="#D4E4FE" stroke-opacity="0.5"/>
<line y1="-0.5" x2="1929" y2="-0.5" transform="matrix(-0.866025 0.5 -0.866025 -0.5 1825.67 309)" stroke="#D4E4FE" stroke-opacity="0.5"/>
<line y1="-0.5" x2="1929" y2="-0.5" transform="matrix(-0.866026 0.5 -0.866025 -0.5 1884.56 343)" stroke="#D4E4FE" stroke-opacity="0.5"/>
<line y1="-0.5" x2="1929" y2="-0.5" transform="matrix(-0.866026 0.5 -0.866025 -0.5 1943.45 377)" stroke="#D4E4FE" stroke-opacity="0.5"/>
<line y1="-0.5" x2="1929" y2="-0.5" transform="matrix(-0.866026 0.5 -0.866025 -0.5 2002.34 411)" stroke="#D4E4FE" stroke-opacity="0.5"/>
<line y1="-0.5" x2="1929" y2="-0.5" transform="matrix(-0.866025 0.5 -0.866025 -0.5 2061.23 445)" stroke="#D4E4FE" stroke-opacity="0.5"/>
<line y1="-0.5" x2="1929" y2="-0.5" transform="matrix(-0.866025 0.5 -0.866025 -0.5 2120.12 479)" stroke="#D4E4FE" stroke-opacity="0.5"/>
<line y1="-0.5" x2="1929" y2="-0.5" transform="matrix(-0.866026 0.5 -0.866025 -0.5 2179.01 513)" stroke="#D4E4FE" stroke-opacity="0.5"/>
<line y1="-0.5" x2="1929" y2="-0.5" transform="matrix(-0.866026 0.5 -0.866025 -0.5 2237.9 547.001)" stroke="#D4E4FE" stroke-opacity="0.5"/>
<line y1="-0.5" x2="1929" y2="-0.5" transform="matrix(-0.866026 0.5 -0.866025 -0.5 2296.79 581.001)" stroke="#D4E4FE" stroke-opacity="0.5"/>
<line y1="-0.5" x2="1929" y2="-0.5" transform="matrix(-0.866025 0.5 -0.866025 -0.5 2355.68 615.001)" stroke="#D4E4FE" stroke-opacity="0.5"/>
<line y1="-0.5" x2="1929" y2="-0.5" transform="matrix(-0.866026 0.5 -0.866025 -0.5 2414.56 649.001)" stroke="#D4E4FE" stroke-opacity="0.5"/>
<line y1="-0.5" x2="1929" y2="-0.5" transform="matrix(-0.866026 0.5 -0.866025 -0.5 2473.45 683.001)" stroke="#D4E4FE" stroke-opacity="0.5"/>
<line y1="-0.5" x2="1929" y2="-0.5" transform="matrix(-0.866026 0.5 -0.866025 -0.5 2532.34 717.001)" stroke="#D4E4FE" stroke-opacity="0.5"/>
<line y1="-0.5" x2="1929" y2="-0.5" transform="matrix(-0.866025 0.5 -0.866025 -0.5 2591.23 751.001)" stroke="#D4E4FE" stroke-opacity="0.5"/>
<line y1="-0.5" x2="1929" y2="-0.5" transform="matrix(-0.866025 0.5 -0.866025 -0.5 2650.12 785.001)" stroke="#D4E4FE" stroke-opacity="0.5"/>
<line y1="-0.5" x2="2001" y2="-0.5" transform="matrix(0.866025 0.5 -0.866025 0.5 -786.7 798.25)" stroke="#D4E4FE" stroke-opacity="0.5"/>
<line y1="-0.5" x2="2001" y2="-0.5" transform="matrix(0.866025 0.5 -0.866025 0.5 -726.944 763.75)" stroke="#D4E4FE" stroke-opacity="0.5"/>
<line y1="-0.5" x2="2001" y2="-0.5" transform="matrix(0.866025 0.5 -0.866025 0.5 -667.188 729.25)" stroke="#D4E4FE" stroke-opacity="0.5"/>
<line y1="-0.5" x2="2001" y2="-0.5" transform="matrix(0.866025 0.5 -0.866025 0.5 -607.432 694.75)" stroke="#D4E4FE" stroke-opacity="0.5"/>
<line y1="-0.5" x2="2001" y2="-0.5" transform="matrix(0.866025 0.5 -0.866025 0.5 -547.677 660.25)" stroke="#D4E4FE" stroke-opacity="0.5"/>
<line y1="-0.5" x2="2001" y2="-0.5" transform="matrix(0.866025 0.5 -0.866025 0.5 -487.921 625.75)" stroke="#D4E4FE" stroke-opacity="0.5"/>
<line y1="-0.5" x2="2001" y2="-0.5" transform="matrix(0.866025 0.5 -0.866025 0.5 -428.165 591.25)" stroke="#D4E4FE" stroke-opacity="0.5"/>
<line y1="-0.5" x2="2001" y2="-0.5" transform="matrix(0.866025 0.5 -0.866025 0.5 -368.409 556.75)" stroke="#D4E4FE" stroke-opacity="0.5"/>
<line y1="-0.5" x2="2001" y2="-0.5" transform="matrix(0.866025 0.5 -0.866025 0.5 -308.654 522.25)" stroke="#D4E4FE" stroke-opacity="0.5"/>
<line y1="-0.5" x2="2001" y2="-0.5" transform="matrix(0.866025 0.5 -0.866025 0.5 -248.898 487.75)" stroke="#D4E4FE" stroke-opacity="0.5"/>
<line y1="-0.5" x2="2001" y2="-0.5" transform="matrix(0.866025 0.5 -0.866025 0.5 -189.142 453.25)" stroke="#D4E4FE" stroke-opacity="0.5"/>
<line y1="-0.5" x2="2001" y2="-0.5" transform="matrix(0.866025 0.5 -0.866025 0.5 -129.386 418.75)" stroke="#D4E4FE" stroke-opacity="0.5"/>
<line y1="-0.5" x2="2001" y2="-0.5" transform="matrix(0.866025 0.5 -0.866025 0.5 -69.6307 384.25)" stroke="#D4E4FE" stroke-opacity="0.5"/>
<line y1="-0.5" x2="2001" y2="-0.5" transform="matrix(0.866025 0.5 -0.866025 0.5 -9.87491 349.75)" stroke="#D4E4FE" stroke-opacity="0.5"/>
<line y1="-0.5" x2="2001" y2="-0.5" transform="matrix(0.866025 0.5 -0.866025 0.5 49.8808 315.25)" stroke="#D4E4FE" stroke-opacity="0.5"/>
<line y1="-0.5" x2="2001" y2="-0.5" transform="matrix(0.866025 0.5 -0.866025 0.5 109.637 280.75)" stroke="#D4E4FE" stroke-opacity="0.5"/>
<line y1="-0.5" x2="2001" y2="-0.5" transform="matrix(0.866025 0.5 -0.866025 0.5 169.392 246.25)" stroke="#D4E4FE" stroke-opacity="0.5"/>
<line y1="-0.5" x2="2001" y2="-0.5" transform="matrix(0.866025 0.5 -0.866025 0.5 229.148 211.75)" stroke="#D4E4FE" stroke-opacity="0.5"/>
<line y1="-0.5" x2="2001" y2="-0.5" transform="matrix(0.866025 0.5 -0.866025 0.5 288.904 177.25)" stroke="#D4E4FE" stroke-opacity="0.5"/>
<line y1="-0.5" x2="2001" y2="-0.5" transform="matrix(0.866025 0.5 -0.866025 0.5 348.66 142.75)" stroke="#D4E4FE" stroke-opacity="0.5"/>
<line y1="-0.5" x2="2001" y2="-0.5" transform="matrix(0.866025 0.5 -0.866025 0.5 408.415 108.25)" stroke="#D4E4FE" stroke-opacity="0.5"/>
<line y1="-0.5" x2="2001" y2="-0.5" transform="matrix(0.866025 0.5 -0.866025 0.5 468.171 73.7499)" stroke="#D4E4FE" stroke-opacity="0.5"/>
<line y1="-0.5" x2="2001" y2="-0.5" transform="matrix(0.866025 0.5 -0.866025 0.5 527.927 39.2499)" stroke="#D4E4FE" stroke-opacity="0.5"/>
<line y1="-0.5" x2="2001" y2="-0.5" transform="matrix(0.866025 0.5 -0.866025 0.5 587.683 4.74988)" stroke="#D4E4FE" stroke-opacity="0.5"/>
<line y1="-0.5" x2="2001" y2="-0.5" transform="matrix(0.866025 0.5 -0.866025 0.5 647.438 -29.7501)" stroke="#D4E4FE" stroke-opacity="0.5"/>
<line y1="-0.5" x2="2001" y2="-0.5" transform="matrix(0.866025 0.5 -0.866025 0.5 707.194 -64.2501)" stroke="#D4E4FE" stroke-opacity="0.5"/>
<line y1="-0.5" x2="2001" y2="-0.5" transform="matrix(0.866025 0.5 -0.866025 0.5 766.95 -98.7501)" stroke="#D4E4FE" stroke-opacity="0.5"/>
<line y1="-0.5" x2="2001" y2="-0.5" transform="matrix(0.866025 0.5 -0.866025 0.5 826.706 -133.25)" stroke="#D4E4FE" stroke-opacity="0.5"/>
<line y1="-0.5" x2="2001" y2="-0.5" transform="matrix(0.866025 0.5 -0.866025 0.5 886.461 -167.75)" stroke="#D4E4FE" stroke-opacity="0.5"/>
<line y1="-0.5" x2="2001" y2="-0.5" transform="matrix(0.866025 0.5 -0.866025 0.5 946.217 -202.25)" stroke="#D4E4FE" stroke-opacity="0.5"/>
</g>
</g>
<g clip-path="url(#clip1_126_110)">
<mask id="mask1_126_110" style="mask-type:alpha" maskUnits="userSpaceOnUse" x="0" y="-1" width="1921" height="867">
<rect x="0.000113748" y="-0.00012207" width="1920" height="866" fill="url(#paint1_linear_126_110)"/>
</mask>
<g mask="url(#mask1_126_110)">
<line y1="-0.5" x2="1929" y2="-0.5" transform="matrix(-0.866026 0.5 -0.866025 -0.5 942.32 -545)" stroke="#D4E4FE" stroke-opacity="0.5"/>
<line y1="-0.5" x2="1929" y2="-0.5" transform="matrix(-0.866025 0.5 -0.866025 -0.5 1001.21 -511)" stroke="#D4E4FE" stroke-opacity="0.5"/>
<line y1="-0.5" x2="1929" y2="-0.5" transform="matrix(-0.866025 0.5 -0.866025 -0.5 1060.1 -477)" stroke="#D4E4FE" stroke-opacity="0.5"/>
<line y1="-0.5" x2="1929" y2="-0.5" transform="matrix(-0.866026 0.5 -0.866025 -0.5 1118.99 -443)" stroke="#D4E4FE" stroke-opacity="0.5"/>
<line y1="-0.5" x2="1929" y2="-0.5" transform="matrix(-0.866026 0.5 -0.866025 -0.5 1177.88 -409)" stroke="#D4E4FE" stroke-opacity="0.5"/>
<line y1="-0.5" x2="1929" y2="-0.5" transform="matrix(-0.866026 0.5 -0.866025 -0.5 1236.77 -375)" stroke="#D4E4FE" stroke-opacity="0.5"/>
<line y1="-0.5" x2="1929" y2="-0.5" transform="matrix(-0.866025 0.5 -0.866025 -0.5 1295.66 -341)" stroke="#D4E4FE" stroke-opacity="0.5"/>
<line y1="-0.5" x2="1929" y2="-0.5" transform="matrix(-0.866026 0.5 -0.866025 -0.5 1354.55 -307)" stroke="#D4E4FE" stroke-opacity="0.5"/>
<line y1="-0.5" x2="1929" y2="-0.5" transform="matrix(-0.866026 0.5 -0.866025 -0.5 1413.44 -273)" stroke="#D4E4FE" stroke-opacity="0.5"/>
<line y1="-0.5" x2="1929" y2="-0.5" transform="matrix(-0.866026 0.5 -0.866025 -0.5 1472.33 -239)" stroke="#D4E4FE" stroke-opacity="0.5"/>
<line y1="-0.5" x2="1929" y2="-0.5" transform="matrix(-0.866025 0.5 -0.866025 -0.5 1531.22 -205)" stroke="#D4E4FE" stroke-opacity="0.5"/>
<line y1="-0.5" x2="1929" y2="-0.5" transform="matrix(-0.866025 0.5 -0.866025 -0.5 1590.11 -171)" stroke="#D4E4FE" stroke-opacity="0.5"/>
<line y1="-0.5" x2="1929" y2="-0.5" transform="matrix(-0.866026 0.5 -0.866025 -0.5 1649 -137)" stroke="#D4E4FE" stroke-opacity="0.5"/>
<line y1="-0.5" x2="1929" y2="-0.5" transform="matrix(-0.866026 0.5 -0.866025 -0.5 1707.89 -103)" stroke="#D4E4FE" stroke-opacity="0.5"/>
<line y1="-0.5" x2="1929" y2="-0.5" transform="matrix(-0.866026 0.5 -0.866025 -0.5 1766.78 -68.9996)" stroke="#D4E4FE" stroke-opacity="0.5"/>
<line y1="-0.5" x2="1929" y2="-0.5" transform="matrix(-0.866025 0.5 -0.866025 -0.5 1825.67 -34.9996)" stroke="#D4E4FE" stroke-opacity="0.5"/>
<line y1="-0.5" x2="1929" y2="-0.5" transform="matrix(-0.866026 0.5 -0.866025 -0.5 1884.56 -0.999512)" stroke="#D4E4FE" stroke-opacity="0.5"/>
<line y1="-0.5" x2="1929" y2="-0.5" transform="matrix(-0.866026 0.5 -0.866025 -0.5 1943.45 33.0005)" stroke="#D4E4FE" stroke-opacity="0.5"/>
<line y1="-0.5" x2="1929" y2="-0.5" transform="matrix(-0.866026 0.5 -0.866025 -0.5 2002.34 67.0005)" stroke="#D4E4FE" stroke-opacity="0.5"/>
<line y1="-0.5" x2="1929" y2="-0.5" transform="matrix(-0.866025 0.5 -0.866025 -0.5 2061.23 101)" stroke="#D4E4FE" stroke-opacity="0.5"/>
<line y1="-0.5" x2="1929" y2="-0.5" transform="matrix(-0.866025 0.5 -0.866025 -0.5 2120.12 135)" stroke="#D4E4FE" stroke-opacity="0.5"/>
<line y1="-0.5" x2="1929" y2="-0.5" transform="matrix(-0.866026 0.5 -0.866025 -0.5 2179.01 169.001)" stroke="#D4E4FE" stroke-opacity="0.5"/>
<line y1="-0.5" x2="1929" y2="-0.5" transform="matrix(-0.866026 0.5 -0.866025 -0.5 2237.9 203.001)" stroke="#D4E4FE" stroke-opacity="0.5"/>
<line y1="-0.5" x2="1929" y2="-0.5" transform="matrix(-0.866026 0.5 -0.866025 -0.5 2296.79 237.001)" stroke="#D4E4FE" stroke-opacity="0.5"/>
<line y1="-0.5" x2="1929" y2="-0.5" transform="matrix(-0.866025 0.5 -0.866025 -0.5 2355.68 271.001)" stroke="#D4E4FE" stroke-opacity="0.5"/>
<line y1="-0.5" x2="1929" y2="-0.5" transform="matrix(-0.866026 0.5 -0.866025 -0.5 2414.56 305.001)" stroke="#D4E4FE" stroke-opacity="0.5"/>
<line y1="-0.5" x2="1929" y2="-0.5" transform="matrix(-0.866026 0.5 -0.866025 -0.5 2473.45 339.001)" stroke="#D4E4FE" stroke-opacity="0.5"/>
<line y1="-0.5" x2="1929" y2="-0.5" transform="matrix(-0.866026 0.5 -0.866025 -0.5 2532.34 373.001)" stroke="#D4E4FE" stroke-opacity="0.5"/>
<line y1="-0.5" x2="1929" y2="-0.5" transform="matrix(-0.866025 0.5 -0.866025 -0.5 2591.23 407.001)" stroke="#D4E4FE" stroke-opacity="0.5"/>
<line y1="-0.5" x2="1929" y2="-0.5" transform="matrix(-0.866025 0.5 -0.866025 -0.5 2650.12 441.001)" stroke="#D4E4FE" stroke-opacity="0.5"/>
<line y1="-0.5" x2="2001" y2="-0.5" transform="matrix(0.866025 0.5 -0.866025 0.5 -786.7 454.25)" stroke="#D4E4FE" stroke-opacity="0.5"/>
<line y1="-0.5" x2="2001" y2="-0.5" transform="matrix(0.866025 0.5 -0.866025 0.5 -726.944 419.75)" stroke="#D4E4FE" stroke-opacity="0.5"/>
<line y1="-0.5" x2="2001" y2="-0.5" transform="matrix(0.866025 0.5 -0.866025 0.5 -667.188 385.25)" stroke="#D4E4FE" stroke-opacity="0.5"/>
<line y1="-0.5" x2="2001" y2="-0.5" transform="matrix(0.866025 0.5 -0.866025 0.5 -607.432 350.75)" stroke="#D4E4FE" stroke-opacity="0.5"/>
<line y1="-0.5" x2="2001" y2="-0.5" transform="matrix(0.866025 0.5 -0.866025 0.5 -547.677 316.25)" stroke="#D4E4FE" stroke-opacity="0.5"/>
<line y1="-0.5" x2="2001" y2="-0.5" transform="matrix(0.866025 0.5 -0.866025 0.5 -487.921 281.75)" stroke="#D4E4FE" stroke-opacity="0.5"/>
<line y1="-0.5" x2="2001" y2="-0.5" transform="matrix(0.866025 0.5 -0.866025 0.5 -428.165 247.25)" stroke="#D4E4FE" stroke-opacity="0.5"/>
<line y1="-0.5" x2="2001" y2="-0.5" transform="matrix(0.866025 0.5 -0.866025 0.5 -368.409 212.75)" stroke="#D4E4FE" stroke-opacity="0.5"/>
<line y1="-0.5" x2="2001" y2="-0.5" transform="matrix(0.866025 0.5 -0.866025 0.5 -308.654 178.25)" stroke="#D4E4FE" stroke-opacity="0.5"/>
<line y1="-0.5" x2="2001" y2="-0.5" transform="matrix(0.866025 0.5 -0.866025 0.5 -248.898 143.75)" stroke="#D4E4FE" stroke-opacity="0.5"/>
<line y1="-0.5" x2="2001" y2="-0.5" transform="matrix(0.866025 0.5 -0.866025 0.5 -189.142 109.25)" stroke="#D4E4FE" stroke-opacity="0.5"/>
<line y1="-0.5" x2="2001" y2="-0.5" transform="matrix(0.866025 0.5 -0.866025 0.5 -129.386 74.7499)" stroke="#D4E4FE" stroke-opacity="0.5"/>
<line y1="-0.5" x2="2001" y2="-0.5" transform="matrix(0.866025 0.5 -0.866025 0.5 -69.6307 40.2499)" stroke="#D4E4FE" stroke-opacity="0.5"/>
<line y1="-0.5" x2="2001" y2="-0.5" transform="matrix(0.866025 0.5 -0.866025 0.5 -9.87491 5.74988)" stroke="#D4E4FE" stroke-opacity="0.5"/>
<line y1="-0.5" x2="2001" y2="-0.5" transform="matrix(0.866025 0.5 -0.866025 0.5 49.8808 -28.7501)" stroke="#D4E4FE" stroke-opacity="0.5"/>
<line y1="-0.5" x2="2001" y2="-0.5" transform="matrix(0.866025 0.5 -0.866025 0.5 109.637 -63.2501)" stroke="#D4E4FE" stroke-opacity="0.5"/>
<line y1="-0.5" x2="2001" y2="-0.5" transform="matrix(0.866025 0.5 -0.866025 0.5 169.392 -97.7501)" stroke="#D4E4FE" stroke-opacity="0.5"/>
<line y1="-0.5" x2="2001" y2="-0.5" transform="matrix(0.866025 0.5 -0.866025 0.5 229.148 -132.25)" stroke="#D4E4FE" stroke-opacity="0.5"/>
<line y1="-0.5" x2="2001" y2="-0.5" transform="matrix(0.866025 0.5 -0.866025 0.5 288.904 -166.75)" stroke="#D4E4FE" stroke-opacity="0.5"/>
<line y1="-0.5" x2="2001" y2="-0.5" transform="matrix(0.866025 0.5 -0.866025 0.5 348.66 -201.25)" stroke="#D4E4FE" stroke-opacity="0.5"/>
<line y1="-0.5" x2="2001" y2="-0.5" transform="matrix(0.866025 0.5 -0.866025 0.5 408.415 -235.75)" stroke="#D4E4FE" stroke-opacity="0.5"/>
<line y1="-0.5" x2="2001" y2="-0.5" transform="matrix(0.866025 0.5 -0.866025 0.5 468.171 -270.25)" stroke="#D4E4FE" stroke-opacity="0.5"/>
<line y1="-0.5" x2="2001" y2="-0.5" transform="matrix(0.866025 0.5 -0.866025 0.5 527.927 -304.75)" stroke="#D4E4FE" stroke-opacity="0.5"/>
<line y1="-0.5" x2="2001" y2="-0.5" transform="matrix(0.866025 0.5 -0.866025 0.5 587.683 -339.25)" stroke="#D4E4FE" stroke-opacity="0.5"/>
<line y1="-0.5" x2="2001" y2="-0.5" transform="matrix(0.866025 0.5 -0.866025 0.5 647.438 -373.75)" stroke="#D4E4FE" stroke-opacity="0.5"/>
<line y1="-0.5" x2="2001" y2="-0.5" transform="matrix(0.866025 0.5 -0.866025 0.5 707.194 -408.25)" stroke="#D4E4FE" stroke-opacity="0.5"/>
<line y1="-0.5" x2="2001" y2="-0.5" transform="matrix(0.866025 0.5 -0.866025 0.5 766.95 -442.75)" stroke="#D4E4FE" stroke-opacity="0.5"/>
<line y1="-0.5" x2="2001" y2="-0.5" transform="matrix(0.866025 0.5 -0.866025 0.5 826.706 -477.25)" stroke="#D4E4FE" stroke-opacity="0.5"/>
<line y1="-0.5" x2="2001" y2="-0.5" transform="matrix(0.866025 0.5 -0.866025 0.5 886.461 -511.75)" stroke="#D4E4FE" stroke-opacity="0.5"/>
<line y1="-0.5" x2="2001" y2="-0.5" transform="matrix(0.866025 0.5 -0.866025 0.5 946.217 -546.25)" stroke="#D4E4FE" stroke-opacity="0.5"/>
</g>
</g>
<defs>
<linearGradient id="paint0_linear_126_110" x1="960" y1="344" x2="960" y2="1210" gradientUnits="userSpaceOnUse">
<stop stop-color="#C4C4C4" stop-opacity="0"/>
<stop offset="0.526042" stop-color="#C4C4C4"/>
<stop offset="1" stop-color="#C4C4C4" stop-opacity="0"/>
</linearGradient>
<linearGradient id="paint1_linear_126_110" x1="960" y1="-0.00012207" x2="960" y2="866" gradientUnits="userSpaceOnUse">
<stop stop-color="#C4C4C4" stop-opacity="0"/>
<stop offset="0.526042" stop-color="#C4C4C4"/>
<stop offset="1" stop-color="#C4C4C4" stop-opacity="0"/>
</linearGradient>
<clipPath id="clip0_126_110">
<rect width="1920" height="868" fill="white" transform="translate(0 344)"/>
</clipPath>
<clipPath id="clip1_126_110">
<rect width="1920" height="868" fill="white"/>
</clipPath>
</defs>
</svg>
