<svg width="64" height="65" viewBox="0 0 64 65" fill="none" xmlns="http://www.w3.org/2000/svg">
<g clip-path="url(#clip0_154_56)">
<mask id="mask0_154_56" style="mask-type:luminance" maskUnits="userSpaceOnUse" x="0" y="0" width="64" height="65">
<path d="M64 0.123047H0V64.123H64V0.123047Z" fill="white"/>
</mask>
<g mask="url(#mask0_154_56)">
<path d="M35.7101 30.9798C35.83 31.0246 35.9571 31.0475 36.0851 31.0473H48.1726C48.4504 31.0473 48.7168 30.937 48.9133 30.7405C49.1097 30.5441 49.2201 30.2776 49.2201 29.9998C49.2201 29.722 49.1097 29.4556 48.9133 29.2591C48.7168 29.0627 48.4504 28.9523 48.1726 28.9523H36.0851C35.9694 28.9527 35.8545 28.9721 35.7451 29.0098C35.5817 28.3535 35.2482 27.7519 34.7782 27.2656C34.3082 26.7792 33.7183 26.4254 33.0679 26.2397C32.4176 26.054 31.7298 26.043 31.0739 26.2079C30.4179 26.3727 29.8171 26.7075 29.3318 27.1786C28.8465 27.6496 28.4939 28.2403 28.3096 28.891C28.1254 29.5418 28.1159 30.2296 28.2821 30.8852C28.4484 31.5407 28.7845 32.1409 29.2566 32.6252C29.7288 33.1094 30.3202 33.4607 30.9713 33.6436C30.9713 33.6823 30.9651 33.7211 30.9651 33.7598V45.8473C30.9651 46.1251 31.0754 46.3916 31.2719 46.588C31.4683 46.7845 31.7348 46.8948 32.0126 46.8948C32.2904 46.8948 32.5568 46.7845 32.7533 46.588C32.9497 46.3916 33.0601 46.1251 33.0601 45.8473V33.7598C33.0601 33.7211 33.0601 33.6823 33.0538 33.6436C33.6869 33.4628 34.2633 33.1231 34.7282 32.6569C35.1931 32.1907 35.5311 31.6134 35.7101 30.9798ZM32.0063 31.6923C31.6602 31.6923 31.3219 31.5897 31.0341 31.3974C30.7463 31.2051 30.522 30.9318 30.3895 30.612C30.2571 30.2922 30.2224 29.9404 30.29 29.6009C30.3575 29.2614 30.5242 28.9496 30.7689 28.7049C31.0136 28.4601 31.3255 28.2935 31.6649 28.2259C32.0044 28.1584 32.3563 28.1931 32.676 28.3255C32.9958 28.458 33.2691 28.6823 33.4614 28.9701C33.6537 29.2579 33.7563 29.5962 33.7563 29.9423C33.7563 30.4064 33.572 30.8516 33.2438 31.1798C32.9156 31.5079 32.4705 31.6923 32.0063 31.6923Z" fill="white"/>
<path d="M53.0603 8.84742C47.4742 3.26129 39.8978 0.123047 31.9978 0.123047C24.0978 0.123047 16.5214 3.26129 10.9353 8.84742C5.34919 14.4335 2.21094 22.0099 2.21094 29.9099C2.21094 37.8098 5.34919 45.3863 10.9353 50.9724C13.6952 53.7466 16.978 55.9457 20.5936 57.4425C24.2092 58.9393 28.0859 59.704 31.9991 59.6924C34.0591 59.693 36.1138 59.4811 38.1303 59.0599C38.2678 59.0347 38.3988 58.9822 38.5157 58.9056C38.6325 58.829 38.7329 58.7297 38.8108 58.6138C38.8888 58.4978 38.9427 58.3673 38.9695 58.2302C38.9962 58.093 38.9953 57.9519 38.9667 57.8151C38.9381 57.6783 38.8824 57.5487 38.8029 57.4337C38.7234 57.3188 38.6217 57.2209 38.5038 57.1459C38.3859 57.0708 38.2542 57.0202 38.1164 56.9968C37.9787 56.9734 37.8376 56.9779 37.7016 57.0099C36.1645 57.3297 34.6031 57.5192 33.0341 57.5761V50.9361C33.0341 50.6583 32.9237 50.3919 32.7273 50.1954C32.5308 49.999 32.2644 49.8886 31.9866 49.8886C31.7087 49.8886 31.4423 49.999 31.2459 50.1954C31.0494 50.3919 30.9391 50.6583 30.9391 50.9361V57.5749C16.4991 57.0286 4.86531 45.3811 4.33156 30.9436H10.9703C11.2481 30.9436 11.5146 30.8333 11.711 30.6368C11.9074 30.4404 12.0178 30.1739 12.0178 29.8961C12.0178 29.6183 11.9074 29.3519 11.711 29.1554C11.5146 28.959 11.2481 28.8486 10.9703 28.8486H4.33156C4.87406 14.4136 16.5253 2.77367 30.9641 2.23992V8.87992C30.9641 9.15773 31.0744 9.42417 31.2709 9.62061C31.4673 9.81705 31.7337 9.92742 32.0116 9.92742C32.2894 9.92742 32.5558 9.81705 32.7523 9.62061C32.9487 9.42417 33.0591 9.15773 33.0591 8.87992V2.24117C47.4991 2.78742 59.1328 14.4349 59.6666 28.8736H53.0278C52.75 28.8736 52.4836 28.984 52.2871 29.1804C52.0907 29.3769 51.9803 29.6433 51.9803 29.9211C51.9803 30.1989 52.0907 30.4654 52.2871 30.6618C52.4836 30.8583 52.75 30.9686 53.0278 30.9686H59.6666C59.6061 32.5872 59.405 34.1974 59.0653 35.7811C59.033 35.9168 59.0281 36.0576 59.0509 36.1952C59.0736 36.3328 59.1237 36.4644 59.198 36.5824C59.2724 36.7004 59.3696 36.8024 59.4839 36.8823C59.5982 36.9623 59.7273 37.0186 59.8636 37.048C59.9999 37.0773 60.1408 37.0792 60.2778 37.0534C60.4149 37.0277 60.5455 36.9748 60.6618 36.8979C60.7782 36.821 60.878 36.7216 60.9555 36.6056C61.0329 36.4896 61.0864 36.3593 61.1128 36.2224C61.5594 34.1479 61.7844 32.0319 61.7841 29.9099C61.7949 25.9967 61.0294 22.1202 59.532 18.5048C58.0345 14.8894 55.8349 11.6069 53.0603 8.84742Z" fill="white"/>
<path d="M22.0662 10.6035L20.885 8.55724C20.7461 8.31656 20.5172 8.14092 20.2488 8.06895C19.9804 7.99698 19.6944 8.03459 19.4537 8.1735C19.213 8.3124 19.0374 8.54123 18.9654 8.80964C18.8935 9.07805 18.9311 9.36406 19.07 9.60474L20.2512 11.651C20.3183 11.7732 20.4092 11.8809 20.5185 11.9676C20.6277 12.0542 20.7532 12.1182 20.8875 12.1558C21.0219 12.1933 21.1623 12.2037 21.3007 12.1862C21.4391 12.1687 21.5726 12.1238 21.6934 12.054C21.8142 11.9843 21.9198 11.8911 22.0041 11.78C22.0884 11.6689 22.1496 11.542 22.1842 11.4069C22.2189 11.2718 22.2261 11.1311 22.2057 10.9931C22.1852 10.8552 22.1374 10.7227 22.065 10.6035H22.0662Z" fill="white"/>
<path d="M13.7466 18.1594L11.7004 16.9782C11.5811 16.9058 11.4486 16.858 11.3107 16.8375C11.1727 16.817 11.032 16.8243 10.8969 16.8589C10.7618 16.8935 10.635 16.9548 10.5238 17.039C10.4127 17.1233 10.3195 17.229 10.2498 17.3498C10.18 17.4705 10.1351 17.604 10.1176 17.7424C10.1002 17.8808 10.1105 18.0213 10.148 18.1556C10.1856 18.2899 10.2496 18.4154 10.3363 18.5247C10.423 18.6339 10.5306 18.7248 10.6529 18.7919L12.6991 19.9744C12.9398 20.1133 13.2258 20.1509 13.4942 20.079C13.7626 20.007 13.9915 19.8313 14.1304 19.5907C14.2693 19.35 14.3069 19.064 14.2349 18.7956C14.163 18.5271 13.9873 18.2983 13.7466 18.1594Z" fill="white"/>
<path d="M50.7809 20.1144C50.9643 20.1145 51.1446 20.0662 51.3034 19.9744L53.3497 18.7919C53.4719 18.7248 53.5796 18.6339 53.6663 18.5247C53.7529 18.4154 53.8169 18.2899 53.8545 18.1556C53.892 18.0213 53.9024 17.8808 53.8849 17.7424C53.8674 17.604 53.8225 17.4705 53.7527 17.3498C53.683 17.229 53.5898 17.1233 53.4787 17.039C53.3675 16.9548 53.2407 16.8935 53.1056 16.8589C52.9705 16.8243 52.8298 16.817 52.6918 16.8375C52.5539 16.858 52.4214 16.9058 52.3022 16.9782L50.2509 18.1594C50.0509 18.2747 49.8947 18.4528 49.8063 18.666C49.718 18.8792 49.7025 19.1157 49.7624 19.3386C49.8223 19.5615 49.9541 19.7584 50.1373 19.8987C50.3206 20.039 50.5451 20.1148 50.7759 20.1144H50.7809Z" fill="white"/>
<path d="M12.6991 39.8415L10.6529 41.024C10.5306 41.0911 10.423 41.182 10.3363 41.2913C10.2496 41.4005 10.1856 41.526 10.148 41.6603C10.1105 41.7947 10.1002 41.9351 10.1176 42.0735C10.1351 42.2119 10.18 42.3454 10.2498 42.4662C10.3195 42.587 10.4127 42.6926 10.5238 42.7769C10.635 42.8612 10.7618 42.9224 10.8969 42.957C11.032 42.9916 11.1727 42.9989 11.3107 42.9784C11.4486 42.958 11.5811 42.9101 11.7004 42.8378L13.7516 41.6565C13.8708 41.5877 13.9753 41.4962 14.059 41.387C14.1428 41.2779 14.2043 41.1533 14.2399 41.0204C14.2756 40.8875 14.2847 40.7488 14.2667 40.6124C14.2488 40.476 14.2042 40.3444 14.1354 40.2253C14.0666 40.1061 13.975 40.0016 13.8659 39.9179C13.7567 39.8341 13.6321 39.7726 13.4992 39.737C13.3663 39.7013 13.2277 39.6922 13.0913 39.7102C12.9548 39.7281 12.8233 39.7727 12.7041 39.8415H12.6991Z" fill="white"/>
<path d="M42.8422 12.1747C43.0264 12.1752 43.2075 12.1271 43.3671 12.0351C43.5266 11.9431 43.6591 11.8106 43.751 11.651L44.9335 9.60474C45.0724 9.36406 45.11 9.07805 45.038 8.80964C44.966 8.54123 44.7904 8.3124 44.5497 8.1735C44.309 8.03459 44.023 7.99698 43.7546 8.06895C43.4862 8.14092 43.2574 8.31656 43.1185 8.55724L41.9372 10.6035C41.8453 10.7626 41.7969 10.9432 41.7969 11.127C41.7968 11.3108 41.8452 11.4913 41.937 11.6506C42.0288 11.8098 42.1609 11.942 42.32 12.034C42.4791 12.126 42.6597 12.1745 42.8435 12.1747H42.8422Z" fill="white"/>
<path d="M21.6759 47.7795C21.5568 47.7105 21.4252 47.6657 21.2888 47.6477C21.1523 47.6296 21.0136 47.6387 20.8807 47.6743C20.7477 47.71 20.6231 47.7715 20.5139 47.8554C20.4048 47.9393 20.3133 48.0439 20.2447 48.1632L19.0622 50.2095C18.9233 50.4502 18.8857 50.7362 18.9576 51.0046C19.0296 51.273 19.2052 51.5018 19.4459 51.6407C19.6866 51.7796 19.9726 51.8173 20.241 51.7453C20.5094 51.6733 20.7383 51.4977 20.8772 51.257L22.0584 49.2107C22.1273 49.0916 22.172 48.9602 22.1901 48.8238C22.2081 48.6874 22.1991 48.5488 22.1636 48.4159C22.1281 48.283 22.0667 48.1584 21.9831 48.0492C21.8994 47.94 21.795 47.8483 21.6759 47.7795Z" fill="white"/>
<path d="M59.5434 50.8712H55.6559V36.545C55.6555 36.2382 55.5334 35.9441 55.3164 35.7273C55.0994 35.5105 54.8051 35.3887 54.4984 35.3887H44.8421C44.5354 35.3891 44.2414 35.5109 44.0244 35.7277C43.8075 35.9444 43.6853 36.2383 43.6846 36.545V50.8712H39.7971C39.5734 50.8714 39.3545 50.9365 39.1669 51.0585C38.9794 51.1805 38.8312 51.3542 38.7404 51.5587C38.6495 51.7631 38.6199 51.9896 38.655 52.2105C38.6901 52.4315 38.7886 52.6375 38.9384 52.8037L48.8134 63.7387C48.9218 63.8589 49.0543 63.9551 49.2022 64.021C49.3501 64.0869 49.5102 64.121 49.6721 64.1212C49.8339 64.121 49.9939 64.087 50.1418 64.0213C50.2897 63.9557 50.4222 63.8598 50.5309 63.74L60.4059 52.8037C60.5559 52.6373 60.6544 52.4309 60.6894 52.2096C60.7244 51.9883 60.6944 51.7616 60.6031 51.557C60.5118 51.3524 60.3631 51.1787 60.1749 51.0569C59.9868 50.9352 59.7674 50.8707 59.5434 50.8712ZM49.6684 61.5637L41.9059 52.9675H45.7809V37.4837H53.5609V52.9675H57.4359L49.6684 61.5637Z" fill="white"/>
</g>
</g>
<defs>
<clipPath id="clip0_154_56">
<rect width="64" height="65" fill="white"/>
</clipPath>
</defs>
</svg>
