<svg width="65" height="65" viewBox="0 0 65 65" fill="none" xmlns="http://www.w3.org/2000/svg">
<path fill-rule="evenodd" clip-rule="evenodd" d="M25.7712 52.9451C25.9702 53.4621 25.7119 54.0436 25.1949 54.2425C24.6778 54.4415 24.0964 54.1833 23.8974 53.6663L23.24 51.9582C21.1267 51.4066 19.1069 50.565 17.2245 49.467L13.3525 51.182C12.9732 51.3501 12.5295 51.2674 12.2361 50.974L7.11555 45.8535C6.82178 45.5597 6.73934 45.1154 6.90812 44.7357L8.62859 40.8664C7.52628 38.9893 6.68952 36.9654 6.13322 34.8577L2.18392 33.3376C1.79628 33.1885 1.54053 32.8161 1.54053 32.4007V25.1575C1.54053 24.7423 1.79628 24.3698 2.18392 24.2206L6.13284 22.7009C6.68914 20.5874 7.52616 18.5678 8.62884 16.6853L6.90812 12.8152C6.73934 12.4356 6.82178 11.9912 7.11555 11.6974L12.2361 6.57698C12.5298 6.2832 12.9742 6.20076 13.3538 6.36954L17.2239 8.09039C19.1063 6.98758 21.1255 6.15106 23.2331 5.60029L24.7596 1.64446C24.9089 1.25732 25.2811 1.00195 25.6961 1.00195H32.9393C33.3548 1.00195 33.7274 1.25795 33.8765 1.64584L35.3959 5.60041C37.5033 6.15131 39.5221 6.98771 41.4042 8.09026L45.2744 6.36954C45.654 6.20076 46.0983 6.2832 46.3921 6.57698L51.5126 11.6974C51.806 11.9908 51.8887 12.4346 51.7207 12.8139L50.0061 16.6845C51.1093 18.5674 51.9459 20.5877 52.497 22.7014L56.4444 24.2206C56.832 24.3698 57.0876 24.7423 57.0876 25.1575V32.4007C57.0876 32.8161 56.832 33.1885 56.4444 33.3376L54.0559 34.2568C53.5388 34.4558 52.9574 34.1976 52.7585 33.6806C52.5594 33.1634 52.8177 32.582 53.3347 32.383L55.0798 31.7114V25.847L51.2884 24.3876C50.979 24.2687 50.7484 24.0046 50.6721 23.6821C50.1351 21.416 49.2426 19.2616 48.0225 17.2814C47.8489 16.9997 47.8252 16.6505 47.9592 16.3481L49.606 12.6303L45.46 8.48443L41.7428 10.1371C41.44 10.2717 41.0904 10.2483 40.8083 10.0745C38.8279 8.85425 36.6733 7.96164 34.4141 7.42479C34.0917 7.34811 33.8279 7.11746 33.7091 6.80813L32.2496 3.00979H26.3848L24.9187 6.80938C24.7995 7.11809 24.5361 7.34824 24.2142 7.42479C21.9549 7.96164 19.8002 8.85425 17.82 10.0745C17.5379 10.2483 17.1882 10.2717 16.8855 10.1371L13.1682 8.48443L9.02301 12.6296L10.6757 16.3469C10.8104 16.6495 10.7869 16.9993 10.6131 17.2814C9.39232 19.2624 8.49959 21.4179 7.95546 23.685C7.87841 24.0063 7.64826 24.269 7.33993 24.3876L3.54837 25.847V31.7114L7.33993 33.1706C7.64801 33.2892 7.87803 33.5517 7.95534 33.8726C8.49934 36.1323 9.3917 38.2946 10.6122 40.2683C10.7868 40.5506 10.8106 40.9009 10.6757 41.2042L9.02301 44.9213L13.169 49.0674L16.8867 47.4206C17.1884 47.287 17.5364 47.31 17.8177 47.4825C19.7987 48.6961 21.9539 49.5964 24.2207 50.1335C24.5433 50.2097 24.8073 50.4404 24.9263 50.7497L25.7712 52.9451ZM46.8944 26.1368C46.976 26.685 46.5974 27.1961 46.0493 27.2777C45.5012 27.3594 44.9901 26.9806 44.9084 26.4326C43.7775 18.8366 37.2247 13.0157 29.3129 13.0157C20.6056 13.0157 13.5543 20.067 13.5543 28.7743C13.5543 37.0992 19.9993 43.9194 28.1751 44.5021C28.7279 44.5415 29.1445 45.0222 29.1052 45.5749C29.0658 46.1276 28.585 46.5443 28.0324 46.5049C18.8145 45.848 11.5465 38.1601 11.5465 28.7743C11.5465 18.9577 19.4963 11.0079 29.3129 11.0079C38.2331 11.0079 45.6193 17.5728 46.8944 26.1368ZM34.9923 31.9522C35.2574 31.5767 35.7564 31.4211 36.1983 31.6051C36.7098 31.8182 36.952 32.4065 36.7389 32.9178L35.7616 35.264C35.6463 35.541 35.4131 35.7518 35.1258 35.8387C34.8387 35.9257 34.5278 35.8796 34.278 35.7132L32.1053 34.265C31.6442 33.9576 31.5194 33.3338 31.8267 32.8728C32.1005 32.4619 32.6257 32.3181 33.063 32.509L31.0029 25.7531L28.3285 32.6971C28.177 33.0905 27.7958 33.3473 27.3744 33.3401C26.9529 33.3328 26.5808 33.063 26.4429 32.6647L24.9926 28.475L23.5435 31.0849C23.3665 31.4038 23.0305 31.6016 22.6658 31.6016H19.4167C18.8627 31.6016 18.4128 31.1517 18.4128 30.5976C18.4128 30.0435 18.8627 29.5937 19.4167 29.5937H22.0749L24.3283 25.5351C24.5205 25.1888 24.8984 24.988 25.2929 25.0222C25.6876 25.0566 26.025 25.3197 26.1547 25.694L27.442 29.4125L30.1764 22.3123C30.3304 21.9125 30.7211 21.6545 31.1492 21.6698C31.5774 21.6852 31.9486 21.9704 32.0735 22.3803L34.9923 31.9522ZM50.591 32.0174L62.8907 53.3166C64.0826 55.3798 64.0827 57.8724 62.8909 59.9356C61.699 62.0016 59.5395 63.245 57.1559 63.245H32.5615C30.1778 63.245 28.0211 62.0017 26.8291 59.9356C25.6373 57.8724 25.6374 55.3798 26.8292 53.3169L39.1262 32.0178C40.318 29.9517 42.4749 28.7055 44.8587 28.7055C47.2423 28.7055 49.3991 29.9515 50.591 32.0174ZM48.8521 33.0211C48.0217 31.5817 46.5194 30.7133 44.8587 30.7133C43.1981 30.7133 41.6956 31.5817 40.8653 33.0212L28.5679 54.3211C27.7376 55.7581 27.7376 57.4945 28.568 58.9318C29.3982 60.3711 30.901 61.2372 32.5615 61.2372H57.1559C58.8166 61.2372 60.3215 60.3714 61.152 58.9318C61.9823 57.4947 61.9824 55.7582 61.1521 54.3209L48.8521 33.0211ZM44.8587 55.8672C43.4588 55.8672 42.3177 54.7261 42.3177 53.3262C42.3177 51.9263 43.4588 50.7851 44.8587 50.7851C46.2586 50.7851 47.3998 51.9263 47.3998 53.3262C47.3998 54.7261 46.2586 55.8672 44.8587 55.8672ZM44.8587 53.8594C45.1525 53.8594 45.3919 53.62 45.3919 53.3262C45.3919 53.0324 45.1525 52.793 44.8587 52.793C44.565 52.793 44.3255 53.0324 44.3255 53.3262C44.3255 53.62 44.565 53.8594 44.8587 53.8594ZM44.8587 50.5634C43.6708 50.5634 42.6994 49.6257 42.657 48.4386L42.3516 40.0338L42.3514 40.0307C42.3328 39.4122 42.5397 38.8735 42.968 38.4263L42.9699 38.4243C43.4028 37.9773 43.9348 37.7518 44.5559 37.7518H45.1615C45.7836 37.7518 46.3202 37.9792 46.7494 38.4262C47.1823 38.8742 47.3893 39.4163 47.3658 40.0365L47.063 48.438C47.0206 49.6252 46.046 50.5634 44.8587 50.5634ZM44.8587 48.5555C44.9648 48.5555 45.0526 48.4723 45.0564 48.3661L45.3593 39.9632C45.3613 39.9088 45.3431 39.8603 45.3032 39.8192L45.3013 39.8172C45.2638 39.778 45.216 39.7597 45.1615 39.7597H44.5559C44.5005 39.7597 44.4532 39.7799 44.413 39.8205C44.3749 39.8618 44.357 39.9116 44.3584 39.9684L44.6636 48.3659C44.6674 48.4715 44.7532 48.5555 44.8587 48.5555Z" fill="white"/>
</svg>
