<svg width="65" height="65" viewBox="0 0 65 65" fill="none" xmlns="http://www.w3.org/2000/svg">
<g clip-path="url(#clip0_154_44)">
<mask id="mask0_154_44" style="mask-type:luminance" maskUnits="userSpaceOnUse" x="0" y="0" width="65" height="65">
<path d="M64.3345 0.123047H0.334473V64.123H64.3345V0.123047Z" fill="white"/>
</mask>
<g mask="url(#mask0_154_44)">
<path d="M11.3345 42.123C9.15888 42.123 7.03215 42.7681 5.22321 43.9768C3.41426 45.1855 2.00437 46.9035 1.1718 48.9135C0.339239 50.9235 0.121402 53.1352 0.54584 55.269C0.970277 57.4028 2.01793 59.3628 3.5563 60.9012C5.09468 62.4396 7.05469 63.4872 9.18848 63.9116C11.3223 64.3361 13.534 64.1182 15.544 63.2857C17.554 62.4531 19.2719 61.0432 20.4806 59.2343C21.6893 57.4253 22.3345 55.2986 22.3345 53.123C22.3312 50.2066 21.1712 47.4107 19.109 45.3485C17.0468 43.2863 14.2508 42.1263 11.3345 42.123ZM11.3345 62.123C9.55445 62.123 7.81439 61.5952 6.33435 60.6062C4.8543 59.6173 3.70075 58.2117 3.01956 56.5672C2.33837 54.9226 2.16014 53.113 2.50741 51.3672C2.85468 49.6214 3.71184 48.0177 4.97052 46.759C6.22919 45.5004 7.83284 44.6432 9.57866 44.2959C11.3245 43.9487 13.1341 44.1269 14.7786 44.8081C16.4232 45.4893 17.8288 46.6428 18.8177 48.1229C19.8066 49.6029 20.3345 51.343 20.3345 53.123C20.3317 55.5091 19.3826 57.7967 17.6954 59.4839C16.0082 61.1711 13.7206 62.1202 11.3345 62.123Z" fill="white"/>
<path d="M13.0781 49.5698C13.2257 49.7091 13.3165 49.8982 13.333 50.1005C13.3269 50.3614 13.4229 50.6142 13.6006 50.8052C13.7783 50.9962 14.0236 51.1103 14.2842 51.123C14.547 51.1277 14.8017 51.0319 14.9963 50.8553C15.1909 50.6786 15.3108 50.4344 15.3315 50.1723C15.3366 49.4336 15.0493 48.7229 14.5322 48.1953C13.9342 47.6203 13.1593 47.2644 12.3335 47.1853V47.123C12.3335 46.8578 12.2281 46.6034 12.0406 46.4159C11.853 46.2284 11.5987 46.123 11.3335 46.123C11.0683 46.123 10.8139 46.2284 10.6264 46.4159C10.4388 46.6034 10.3335 46.8578 10.3335 47.123V47.2079C9.50409 47.3162 8.74243 47.7225 8.19061 48.351C7.63878 48.9796 7.33447 49.7874 7.33447 50.6239C7.33447 51.4603 7.63878 52.2681 8.19061 52.8967C8.74243 53.5252 9.50409 53.9315 10.3335 54.0398V57.0297C10.0583 56.98 9.80129 56.858 9.58884 56.6762C9.4477 56.5421 9.35745 56.3631 9.33347 56.1699C9.34452 55.906 9.25073 55.6489 9.07257 55.4539C8.8944 55.2589 8.64633 55.1423 8.3825 55.1295C8.11867 55.1167 7.8605 55.2088 7.66434 55.3857C7.46818 55.5626 7.34995 55.8099 7.33547 56.0737C7.33036 56.8124 7.61771 57.5231 8.13479 58.0507C8.73271 58.6259 9.50758 58.9819 10.3335 59.061V59.123C10.3335 59.3882 10.4388 59.6426 10.6264 59.8301C10.8139 60.0176 11.0683 60.123 11.3335 60.123C11.5987 60.123 11.853 60.0176 12.0406 59.8301C12.2281 59.6426 12.3335 59.3882 12.3335 59.123V59.0381C13.1629 58.9298 13.9245 58.5235 14.4763 57.895C15.0282 57.2664 15.3325 56.4586 15.3325 55.6221C15.3325 54.7857 15.0282 53.9779 14.4763 53.3493C13.9245 52.7208 13.1629 52.3145 12.3335 52.2062V49.2173C12.6086 49.2666 12.8656 49.3882 13.0781 49.5698ZM9.33447 50.6235C9.33434 50.3202 9.43122 50.0249 9.61097 49.7806C9.79071 49.5363 10.0439 49.356 10.3335 49.2659V51.9816C10.0439 51.8913 9.79082 51.7108 9.6111 51.4665C9.43139 51.2222 9.33446 50.9268 9.33447 50.6235ZM13.3325 55.6225C13.3326 55.9258 13.2357 56.2211 13.056 56.4654C12.8762 56.7097 12.6231 56.89 12.3335 56.9801V54.2644C12.623 54.3547 12.8761 54.5352 13.0558 54.7795C13.2356 55.0238 13.3325 55.3192 13.3325 55.6225Z" fill="white"/>
<path d="M63.3335 57.123H58.3335V15.123C58.3336 14.9917 58.3077 14.8616 58.2575 14.7403C58.2072 14.6189 58.1336 14.5087 58.0407 14.4158C57.9479 14.323 57.8376 14.2493 57.7163 14.1991C57.5949 14.1488 57.4649 14.123 57.3335 14.123H49.3335C49.2022 14.123 49.0722 14.1488 48.9508 14.1991C48.8295 14.2493 48.7192 14.323 48.6264 14.4158C48.5335 14.5087 48.4598 14.6189 48.4096 14.7403C48.3593 14.8616 48.3335 14.9917 48.3335 15.123V57.123H44.3335V21.123C44.3336 20.9917 44.3077 20.8616 44.2575 20.7403C44.2072 20.6189 44.1336 20.5087 44.0407 20.4158C43.9479 20.323 43.8376 20.2493 43.7163 20.1991C43.5949 20.1488 43.4649 20.123 43.3335 20.123H35.3335C35.2022 20.123 35.0722 20.1488 34.9508 20.1991C34.8295 20.2493 34.7192 20.323 34.6264 20.4158C34.5335 20.5087 34.4598 20.6189 34.4096 20.7403C34.3593 20.8616 34.3335 20.9917 34.3335 21.123V57.123H30.3335V27.123C30.3335 26.8578 30.2282 26.6034 30.0406 26.4159C29.8531 26.2284 29.5988 26.123 29.3335 26.123H21.3335C21.0683 26.123 20.814 26.2284 20.6264 26.4159C20.4389 26.6034 20.3335 26.8578 20.3335 27.123V43.333C20.3335 43.5982 20.4389 43.8526 20.6264 44.0401C20.814 44.2276 21.0683 44.333 21.3335 44.333C21.5988 44.333 21.8531 44.2276 22.0406 44.0401C22.2282 43.8526 22.3335 43.5982 22.3335 43.333V28.123H28.3335V57.123H24.4034C24.1381 57.123 23.8838 57.2284 23.6962 57.4159C23.5087 57.6034 23.4034 57.8578 23.4034 58.123C23.4034 58.3882 23.5087 58.6426 23.6962 58.8301C23.8838 59.0176 24.1381 59.123 24.4034 59.123H62.3335V62.123H21.1235C20.8583 62.123 20.604 62.2284 20.4164 62.4159C20.2289 62.6034 20.1235 62.8578 20.1235 63.123C20.1235 63.3882 20.2289 63.6426 20.4164 63.8301C20.604 64.0176 20.8583 64.1231 21.1235 64.1231H63.3335C63.4649 64.1231 63.5949 64.0972 63.7163 64.047C63.8376 63.9967 63.9479 63.9231 64.0407 63.8302C64.1336 63.7373 64.2072 63.6271 64.2575 63.5057C64.3077 63.3844 64.3336 63.2543 64.3335 63.123V58.123C64.3336 57.9917 64.3077 57.8616 64.2575 57.7403C64.2072 57.6189 64.1336 57.5087 64.0407 57.4158C63.9479 57.323 63.8376 57.2493 63.7163 57.1991C63.5949 57.1488 63.4649 57.123 63.3335 57.123ZM50.3335 16.123H56.3335V57.123H50.3335V16.123ZM36.3335 22.123H42.3335V57.123H36.3335V22.123Z" fill="white"/>
<path d="M7.33447 40.7031C7.59969 40.7031 7.85403 40.5977 8.04156 40.4102C8.2291 40.2226 8.33446 39.9683 8.33447 39.7031V33.123H14.3345V39.7031C14.3345 39.9683 14.4398 40.2227 14.6274 40.4102C14.8149 40.5977 15.0693 40.7031 15.3345 40.7031C15.5997 40.7031 15.854 40.5977 16.0416 40.4102C16.2291 40.2227 16.3345 39.9683 16.3345 39.7031V32.123C16.3345 31.8578 16.2291 31.6034 16.0416 31.4159C15.854 31.2284 15.5997 31.123 15.3345 31.123H7.33447C7.06926 31.123 6.8149 31.2284 6.62737 31.4159C6.43983 31.6034 6.33447 31.8578 6.33447 32.123V39.7031C6.33449 39.9683 6.43985 40.2226 6.62738 40.4102C6.81491 40.5977 7.06926 40.7031 7.33447 40.7031Z" fill="white"/>
<path d="M11.3332 25.123L11.3815 25.122C29.3014 24.2684 46.8534 8.79583 52.3342 3.52709V10.123C52.3342 10.3882 52.4395 10.6426 52.6271 10.8301C52.8146 11.0176 53.069 11.123 53.3342 11.123C53.5994 11.123 53.8538 11.0176 54.0413 10.8301C54.2288 10.6426 54.3342 10.3882 54.3342 10.123V1.12304L54.3319 1.11144C54.3228 0.850584 54.2146 0.60301 54.0291 0.419306C53.8437 0.235602 53.5951 0.129632 53.3342 0.123047H44.3342C44.069 0.123047 43.8146 0.228404 43.6271 0.41594C43.4395 0.603476 43.3342 0.85783 43.3342 1.12304C43.3342 1.38826 43.4395 1.64261 43.6271 1.83015C43.8146 2.01769 44.069 2.12304 44.3342 2.12304H50.888C45.4992 7.24194 28.2543 22.3163 11.2868 23.124C11.0261 23.1365 10.7806 23.2503 10.6028 23.4413C10.4249 23.6323 10.3287 23.8852 10.3347 24.1461C10.3408 24.407 10.4486 24.6552 10.6351 24.8378C10.8217 25.0203 11.0722 25.1226 11.3332 25.123Z" fill="white"/>
</g>
</g>
<defs>
<clipPath id="clip0_154_44">
<rect width="65" height="65" fill="white"/>
</clipPath>
</defs>
</svg>
