<svg width="65" height="65" viewBox="0 0 65 65" fill="none" xmlns="http://www.w3.org/2000/svg">
<mask id="mask0_154_70" style="mask-type:luminance" maskUnits="userSpaceOnUse" x="0" y="0" width="65" height="65">
<path d="M64.6689 0.123047H0.668945V64.123H64.6689V0.123047Z" fill="white"/>
</mask>
<g mask="url(#mask0_154_70)">
<path d="M62.3314 7.31649C62.3396 7.29855 62.3446 7.28206 62.3475 7.2724C62.3512 7.25999 62.3516 7.25831 62.3527 7.25509C62.3751 7.19189 62.3889 7.12651 62.3939 7.05976C62.3951 7.05576 62.3966 7.04999 62.398 7.04353C62.4001 7.03338 62.4021 7.01983 62.4021 7.00387V3.00737C62.4021 1.8744 61.4809 0.953125 60.3479 0.953125H4.98723C3.85426 0.953125 2.93298 1.8744 2.93298 3.00737V7.00387C2.93298 7.01982 2.93502 7.03334 2.93712 7.04344C2.93848 7.04996 2.94003 7.05579 2.94116 7.05979C2.94616 7.12647 2.95982 7.19109 2.98199 7.25405C2.98285 7.25649 2.98338 7.25829 2.98462 7.26253C2.98531 7.26489 2.98623 7.26804 2.98757 7.27255C2.99049 7.28235 2.99553 7.29884 3.00368 7.31671C3.03627 7.38837 3.07976 7.46109 3.14173 7.52632L22.4809 27.8676C17.0833 31.2646 13.4871 37.2746 13.4871 44.1107C13.4871 54.687 22.0913 63.2912 32.6676 63.2912C43.244 63.2912 51.8481 54.687 51.8481 44.1107C51.8481 37.2776 48.2551 31.2701 42.8614 27.8722L62.1936 7.52619C62.2553 7.46104 62.299 7.38813 62.3314 7.31649ZM60.8855 6.24562H4.44935V3.00737C4.44935 2.71096 4.6907 2.46962 4.9871 2.46962H60.3478C60.6442 2.46962 60.8855 2.71096 60.8855 3.00737V6.24562ZM28.6558 47.457C29.6003 48.3286 30.797 48.7589 31.9901 48.7589C33.3157 48.7589 34.6385 48.2273 35.6065 47.1783C35.9058 46.854 36.2569 46.2876 36.6312 45.5843C37.0076 44.8773 37.4137 44.0197 37.8215 43.1032C38.5984 41.3576 39.3843 39.3923 39.9862 37.8355C41.4384 39.5254 42.3235 41.7141 42.3235 44.1107C42.3235 44.5294 42.663 44.8689 43.0818 44.8689C43.5005 44.8689 43.84 44.5294 43.84 44.1107C43.84 41.0453 42.5973 38.266 40.5919 36.2458C40.8025 35.6847 40.9525 35.2765 41.0168 35.1006C41.1215 34.8134 41.0435 34.4909 40.8187 34.2835C40.5939 34.0761 40.2663 34.0228 39.9883 34.1517C39.8028 34.2368 39.3523 34.4445 38.7314 34.737C36.9836 33.6023 34.9027 32.9382 32.6676 32.9382C26.5069 32.9383 21.4951 37.9501 21.4951 44.1107C21.4951 44.5294 21.8347 44.8689 22.2534 44.8689C22.6721 44.8689 23.0116 44.5294 23.0116 44.1107C23.0116 38.7864 27.3433 34.4547 32.6676 34.4547C34.2566 34.4547 35.7554 34.8432 37.0787 35.5264C35.5827 36.2505 33.7529 37.1636 32.1414 38.0462C31.2874 38.5139 30.4931 38.974 29.8415 39.3936C29.1934 39.8109 28.6753 40.1952 28.383 40.512C27.4927 41.4767 27.0307 42.7315 27.0824 44.0437C27.1342 45.3556 27.6931 46.5683 28.6558 47.457ZM29.4974 41.5404C29.7261 41.2925 30.2021 40.9476 30.8555 40.5398C31.5042 40.135 32.3137 39.6765 33.1971 39.2011C34.934 38.2663 36.95 37.2693 38.5755 36.4909C38.6548 36.5512 38.7322 36.6101 38.8076 36.6708C38.1632 38.3509 37.3307 40.442 36.5371 42.2523C36.1322 43.1757 35.7382 44.0244 35.3849 44.7075C35.029 45.3956 34.7218 45.9008 34.4922 46.1498C33.2202 47.5281 31.0631 47.6151 29.6842 46.3427C29.019 45.7289 28.6332 44.8919 28.5974 43.9841C28.5616 43.0756 28.8811 42.2082 29.4974 41.5404ZM50.3315 44.1107C50.3315 53.8505 42.4073 61.7747 32.6675 61.7747C22.9277 61.7747 15.0035 53.8505 15.0035 44.1107C15.0035 34.3709 22.9277 26.4469 32.6675 26.4469C42.4073 26.4469 50.3315 34.3709 50.3315 44.1107ZM23.8358 27.0919L5.45819 7.76212H59.8774L41.5069 27.0959C38.8597 25.7151 35.854 24.9304 32.6675 24.9304C29.484 24.9304 26.4811 25.7136 23.8358 27.0919ZM16.9979 44.1107C16.9979 52.751 24.0272 59.7803 32.6675 59.7803C41.3078 59.7803 48.3371 52.751 48.3371 44.1107C48.3371 35.4703 41.3078 28.4414 32.6675 28.4414C24.0272 28.4414 16.9979 35.4703 16.9979 44.1107ZM46.8206 44.1107C46.8206 51.9147 40.4715 58.2638 32.6675 58.2638C24.8635 58.2638 18.5144 51.9147 18.5144 44.1107C18.5144 36.3069 24.8635 29.9578 32.6675 29.9578C40.4715 29.9578 46.8206 36.3069 46.8206 44.1107Z" fill="white"/>
<path d="M62.3314 7.31649C62.3396 7.29855 62.3446 7.28206 62.3475 7.2724C62.3512 7.25999 62.3516 7.25831 62.3527 7.25509C62.3751 7.19189 62.3889 7.12651 62.3939 7.05976C62.3951 7.05576 62.3966 7.04999 62.398 7.04353C62.4001 7.03338 62.4021 7.01983 62.4021 7.00387V3.00737C62.4021 1.8744 61.4809 0.953125 60.3479 0.953125H4.98723C3.85426 0.953125 2.93298 1.8744 2.93298 3.00737V7.00387C2.93298 7.01982 2.93502 7.03334 2.93712 7.04344C2.93848 7.04996 2.94003 7.05579 2.94116 7.05979C2.94616 7.12647 2.95982 7.19109 2.98199 7.25405C2.98285 7.25649 2.98338 7.25829 2.98462 7.26253C2.98531 7.26489 2.98623 7.26804 2.98757 7.27255C2.99049 7.28235 2.99553 7.29884 3.00368 7.31671C3.03627 7.38837 3.07976 7.46109 3.14173 7.52632L22.4809 27.8676C17.0833 31.2646 13.4871 37.2746 13.4871 44.1107C13.4871 54.687 22.0913 63.2912 32.6676 63.2912C43.244 63.2912 51.8481 54.687 51.8481 44.1107C51.8481 37.2776 48.2551 31.2701 42.8614 27.8722L62.1936 7.52619C62.2553 7.46104 62.299 7.38813 62.3314 7.31649ZM62.3314 7.31649C62.3315 7.3164 62.3314 7.31658 62.3314 7.31649ZM62.3314 7.31649L62.1949 7.25437M29.4974 41.5404L29.3871 41.4387M29.4974 41.5404C29.7261 41.2925 30.2021 40.9476 30.8555 40.5398C31.5042 40.135 32.3137 39.6765 33.1971 39.2011C34.934 38.2663 36.95 37.2693 38.5755 36.4909C38.6548 36.5512 38.7322 36.6101 38.8076 36.6708C38.1632 38.3509 37.3307 40.442 36.5371 42.2523C36.1322 43.1757 35.7382 44.0244 35.3849 44.7075C35.029 45.3956 34.7218 45.9008 34.4922 46.1498C33.2202 47.5281 31.0631 47.6151 29.6842 46.3427M29.4974 41.5404C28.8811 42.2082 28.5616 43.0756 28.5974 43.9841C28.6332 44.8919 29.019 45.7289 29.6842 46.3427M29.6842 46.3427L29.5825 46.4529M60.8855 6.24562H4.44935V3.00737C4.44935 2.71096 4.6907 2.46962 4.9871 2.46962H60.3478C60.6442 2.46962 60.8855 2.71096 60.8855 3.00737V6.24562ZM28.6558 47.457C29.6003 48.3286 30.797 48.7589 31.9901 48.7589C33.3157 48.7589 34.6385 48.2273 35.6065 47.1783C35.9058 46.854 36.2569 46.2876 36.6312 45.5843C37.0076 44.8773 37.4137 44.0197 37.8215 43.1032C38.5984 41.3576 39.3843 39.3923 39.9862 37.8355C41.4384 39.5254 42.3235 41.7141 42.3235 44.1107C42.3235 44.5294 42.663 44.8689 43.0818 44.8689C43.5005 44.8689 43.84 44.5294 43.84 44.1107C43.84 41.0453 42.5973 38.266 40.5919 36.2458C40.8025 35.6847 40.9525 35.2765 41.0168 35.1006C41.1215 34.8134 41.0435 34.4909 40.8187 34.2835C40.5939 34.0761 40.2663 34.0228 39.9883 34.1517C39.8028 34.2368 39.3523 34.4445 38.7314 34.737C36.9836 33.6023 34.9027 32.9382 32.6676 32.9382C26.5069 32.9383 21.4951 37.9501 21.4951 44.1107C21.4951 44.5294 21.8347 44.8689 22.2534 44.8689C22.6721 44.8689 23.0116 44.5294 23.0116 44.1107C23.0116 38.7864 27.3433 34.4547 32.6676 34.4547C34.2566 34.4547 35.7554 34.8432 37.0787 35.5264C35.5827 36.2505 33.7529 37.1636 32.1414 38.0462C31.2874 38.5139 30.4931 38.974 29.8415 39.3936C29.1934 39.8109 28.6753 40.1952 28.383 40.512C27.4927 41.4767 27.0307 42.7315 27.0824 44.0437C27.1342 45.3556 27.6931 46.5683 28.6558 47.457ZM50.3315 44.1107C50.3315 53.8505 42.4073 61.7747 32.6675 61.7747C22.9277 61.7747 15.0035 53.8505 15.0035 44.1107C15.0035 34.3709 22.9277 26.4469 32.6675 26.4469C42.4073 26.4469 50.3315 34.3709 50.3315 44.1107ZM23.8358 27.0919L5.45819 7.76212H59.8774L41.5069 27.0959C38.8597 25.7151 35.854 24.9304 32.6675 24.9304C29.484 24.9304 26.4811 25.7136 23.8358 27.0919ZM16.9979 44.1107C16.9979 52.751 24.0272 59.7803 32.6675 59.7803C41.3078 59.7803 48.3371 52.751 48.3371 44.1107C48.3371 35.4703 41.3078 28.4414 32.6675 28.4414C24.0272 28.4414 16.9979 35.4703 16.9979 44.1107ZM46.8206 44.1107C46.8206 51.9147 40.4715 58.2638 32.6675 58.2638C24.8635 58.2638 18.5144 51.9147 18.5144 44.1107C18.5144 36.3069 24.8635 29.9578 32.6675 29.9578C40.4715 29.9578 46.8206 36.3069 46.8206 44.1107Z" stroke="white" stroke-width="0.3"/>
</g>
</svg>
