<svg width="33" height="34" viewBox="0 0 33 34" fill="none" xmlns="http://www.w3.org/2000/svg">
<g clip-path="url(#clip0_370_8014)">
<g clip-path="url(#clip1_370_8014)">
<g clip-path="url(#clip2_370_8014)">
<mask id="mask0_370_8014" style="mask-type:luminance" maskUnits="userSpaceOnUse" x="0" y="0" width="33" height="34">
<path d="M32.9623 0.277344H0.000976562V33.2387H32.9623V0.277344Z" fill="white"/>
</mask>
<g mask="url(#mask0_370_8014)">
<path d="M10.8822 21.3146C10.2281 21.9687 10.2281 23.0294 10.8822 23.6833C11.5366 24.3375 12.597 24.3375 13.2512 23.6833C15.0334 21.9011 17.9339 21.9011 19.7161 23.6833C20.0433 24.0103 20.472 24.174 20.9006 24.174C21.3292 24.174 21.7581 24.0105 22.0853 23.6833C22.7393 23.0292 22.7393 21.9685 22.0853 21.3146C18.9964 18.2259 13.9709 18.2259 10.8822 21.3146Z" fill="white"/>
<path d="M5.97206 16.4092C5.31791 17.0634 5.31791 18.124 5.97206 18.7779C6.62621 19.4319 7.68661 19.4323 8.34099 18.7779C12.8305 14.2884 20.1356 14.2884 24.6249 18.7779C24.9521 19.1049 25.3809 19.2686 25.8095 19.2686C26.2381 19.2686 26.6668 19.1051 26.994 18.7779C27.6482 18.1237 27.6482 17.0632 26.994 16.4092C21.1982 10.6136 11.7678 10.6136 5.97206 16.4092Z" fill="white"/>
<path d="M32.4719 10.9292C23.6547 2.11213 9.30847 2.11213 0.49159 10.9292C-0.162561 11.5834 -0.162561 12.644 0.49159 13.298C1.14597 13.9521 2.20636 13.9521 2.86053 13.298C6.49868 9.65956 11.3362 7.65602 16.4815 7.65602C21.627 7.65602 26.4645 9.65979 30.1027 13.298C30.4299 13.6249 30.8586 13.7886 31.2872 13.7886C31.7158 13.7886 32.1447 13.6252 32.4719 13.298C33.1259 12.644 33.1259 11.5834 32.4719 10.9292Z" fill="white"/>
<path d="M16.4829 29.1981C17.4981 29.1981 18.3211 28.3751 18.3211 27.3597C18.3211 26.3445 17.4981 25.5215 16.4829 25.5215C15.4676 25.5215 14.6445 26.3445 14.6445 27.3597C14.6445 28.3751 15.4676 29.1981 16.4829 29.1981Z" fill="white"/>
</g>
</g>
</g>
</g>
<defs>
<clipPath id="clip0_370_8014">
<rect width="32.9613" height="32.9613" fill="white" transform="translate(0 0.279297)"/>
</clipPath>
<clipPath id="clip1_370_8014">
<rect width="32.9613" height="32.9613" fill="white" transform="translate(0 0.279297)"/>
</clipPath>
<clipPath id="clip2_370_8014">
<rect width="32.9613" height="32.9613" fill="white" transform="translate(0 0.279297)"/>
</clipPath>
</defs>
</svg>
