<svg width="74" height="74" viewBox="0 0 74 74" fill="none" xmlns="http://www.w3.org/2000/svg">
<rect x="0.542969" y="0.542969" width="72.9471" height="72.9471" rx="36.4736" fill="#70A1E5"/>
<path d="M37.0226 54.4613C34.6113 54.4613 32.3435 54.0038 30.219 53.0889C28.0959 52.1728 26.2487 50.9296 24.6773 49.3596C23.106 47.7895 21.8622 45.9442 20.9461 43.8237C20.0299 41.7032 19.5718 39.436 19.5718 37.0221C19.5718 34.6082 20.0299 32.3404 20.9461 30.2186C21.8609 28.0954 23.1021 26.2482 24.6696 24.6769C26.2371 23.1055 28.083 21.8618 30.2074 20.9456C32.3318 20.0294 34.5997 19.5713 37.011 19.5713C39.4222 19.5713 41.6901 20.0294 43.8145 20.9456C45.9376 21.8605 47.7849 23.1023 49.3562 24.671C50.9275 26.2398 52.1713 28.0857 53.0875 30.2089C54.0037 32.332 54.4618 34.5992 54.4618 37.0105C54.4618 39.4218 54.0043 41.6896 53.0894 43.814C52.1745 45.9384 50.9314 47.7857 49.3601 49.3557C47.7887 50.9258 45.9434 52.1695 43.8242 53.087C41.705 54.0045 39.4378 54.4626 37.0226 54.4613ZM37.0168 52.523C41.3457 52.523 45.0124 51.0207 48.0168 48.0163C51.0212 45.0119 52.5234 41.3452 52.5234 37.0163C52.5234 36.7901 52.5215 36.5621 52.5176 36.3321C52.5137 36.102 52.4995 35.8817 52.475 35.6711C52.3884 36.533 52.046 37.2463 51.4477 37.811C50.8481 38.3744 50.1134 38.6561 49.2438 38.6561H44.3224C43.4204 38.6561 42.6483 38.3356 42.006 37.6947C41.3638 37.0538 41.0427 36.2829 41.0427 35.3823V33.7444H34.4814V30.4686C34.4814 29.5679 34.8032 28.7939 35.4467 28.1465C36.089 27.4991 36.8611 27.1754 37.763 27.1754H39.4029V25.6829C39.4029 24.7421 39.7104 24.0017 40.3255 23.4615C40.9406 22.9214 41.6752 22.6099 42.5294 22.5272C41.6597 22.1913 40.7681 21.938 39.8545 21.7674C38.9409 21.5968 37.995 21.5109 37.0168 21.5096C32.6878 21.5096 29.0212 23.0118 26.0167 26.0162C23.0123 29.0207 21.5101 32.6873 21.5101 37.0163V37.5765C21.5101 37.7496 21.523 37.9357 21.5489 38.1347H30.2326C32.0676 38.1347 33.6195 38.7698 34.8885 40.0401C36.1587 41.309 36.7939 42.8552 36.7939 44.6785V46.3358H31.8724V51.6274C32.6684 51.9143 33.4993 52.1353 34.3651 52.2903C35.2309 52.4454 36.1148 52.523 37.0168 52.523Z" fill="white"/>
</svg>
