<svg width="74" height="74" viewBox="0 0 74 74" fill="none" xmlns="http://www.w3.org/2000/svg">
<rect x="0.571289" y="0.542969" width="72.9429" height="72.9429" rx="36.4714" fill="#F0C274"/>
<path fill-rule="evenodd" clip-rule="evenodd" d="M23.0506 29.4802C24.3377 27.9501 26.5442 27.2021 29.7755 27.2021H44.3113C47.5426 27.2021 49.7491 27.9501 51.0361 29.4802C52.3107 30.9955 52.4319 32.9861 52.2276 34.8423L51.1369 46.4764C50.9768 47.9708 50.6017 49.6091 49.2674 50.8281C47.943 52.038 45.8911 52.6396 42.8577 52.6396H31.2291C28.1957 52.6396 26.1438 52.038 24.8194 50.8281C23.4851 49.6091 23.1101 47.9707 22.95 46.4764L22.9484 46.462L21.8592 34.8423C21.6549 32.9862 21.7761 30.9955 23.0506 29.4802ZM24.7192 30.8837C24.0335 31.6989 23.8405 32.9238 24.0273 34.6117L24.0293 34.6299L25.1187 46.2511C25.2641 47.602 25.5651 48.5561 26.29 49.2184C27.0261 49.8908 28.4191 50.4593 31.2291 50.4593H42.8577C45.6677 50.4593 47.0607 49.8908 47.7968 49.2184C48.5216 48.5561 48.8227 47.602 48.9681 46.2511L50.0593 34.6117C50.2461 32.9238 50.0532 31.6989 49.3676 30.8837C48.6922 30.0808 47.2867 29.3825 44.3113 29.3825H29.7755C26.8001 29.3825 25.3945 30.0808 24.7192 30.8837Z" fill="white"/>
<path fill-rule="evenodd" clip-rule="evenodd" d="M32.3825 25.4582C32.3208 25.9312 32.319 26.4687 32.319 27.1293V28.2922C32.319 28.8942 31.8309 29.3823 31.2289 29.3823C30.6268 29.3823 30.1387 28.8942 30.1387 28.2922L30.1387 27.0915C30.1386 26.4759 30.1386 25.8035 30.2205 25.176C30.3054 24.5258 30.4873 23.8355 30.9135 23.2189C31.8099 21.9219 33.4521 21.3877 35.8803 21.3877H38.206C40.6342 21.3877 42.2764 21.9219 43.1728 23.2189C43.599 23.8355 43.7809 24.5258 43.8658 25.176C43.9477 25.8035 43.9476 26.4759 43.9476 27.0915L43.9476 28.2922C43.9476 28.8942 43.4595 29.3823 42.8574 29.3823C42.2553 29.3823 41.7672 28.8942 41.7672 28.2922V27.1293C41.7672 26.4687 41.7655 25.9312 41.7037 25.4582C41.6433 24.9951 41.5345 24.6833 41.3792 24.4586C41.1128 24.0732 40.4292 23.5681 38.206 23.5681H35.8803C33.657 23.5681 32.9735 24.0732 32.7071 24.4586C32.5518 24.6833 32.443 24.9951 32.3825 25.4582Z" fill="white"/>
<path fill-rule="evenodd" clip-rule="evenodd" d="M35.2279 38.1054C35.2268 38.2091 35.2268 38.3274 35.2268 38.4676V39.9648C35.2268 40.374 35.2303 40.675 35.2659 40.9303C35.3 41.1759 35.3543 41.2954 35.4003 41.3603C35.4516 41.4327 35.7073 41.7381 37.0437 41.7381C38.3862 41.7381 38.6388 41.4297 38.6891 41.358C38.7353 41.292 38.7894 41.1706 38.8231 40.9222C38.858 40.6639 38.8607 40.3615 38.8607 39.9502V38.4676C38.8607 38.3274 38.8607 38.2091 38.8595 38.1054C38.7558 38.1042 38.6375 38.1042 38.4973 38.1042H35.5902C35.45 38.1042 35.3317 38.1042 35.2279 38.1054ZM35.5424 35.9238C35.5583 35.9238 35.5743 35.9238 35.5902 35.9238H38.4973C38.5132 35.9238 38.5291 35.9238 38.545 35.9238C38.8665 35.9238 39.1922 35.9237 39.458 35.9532C39.729 35.9833 40.179 36.0638 40.54 36.4248C40.9011 36.7859 40.9816 37.2359 41.0117 37.5069C41.0412 37.7727 41.0411 38.0984 41.0411 38.4198C41.041 38.4358 41.041 38.4517 41.041 38.4676V39.9665C41.0411 40.3441 41.0411 40.7908 40.9837 41.2145C40.9242 41.6543 40.7939 42.1534 40.475 42.6088C39.7948 43.58 38.5938 43.9185 37.0437 43.9185C35.5021 43.9185 34.3042 43.5844 33.6214 42.6211C33.3004 42.1682 33.1675 41.6708 33.1063 41.2309C33.0465 40.8008 33.0464 40.3478 33.0464 39.9648V38.4676C33.0464 38.4517 33.0464 38.4358 33.0464 38.4198C33.0463 38.0984 33.0462 37.7727 33.0758 37.5069C33.1059 37.2359 33.1864 36.7859 33.5474 36.4248C33.9084 36.0638 34.3585 35.9833 34.6294 35.9532C34.8952 35.9237 35.221 35.9238 35.5424 35.9238Z" fill="white"/>
<path fill-rule="evenodd" clip-rule="evenodd" d="M51.9521 34.9188C52.3063 35.4057 52.1986 36.0875 51.7117 36.4416C48.1996 38.9959 44.1871 40.5151 40.0869 41.0314C39.4895 41.1066 38.9442 40.6833 38.869 40.086C38.7938 39.4886 39.2171 38.9434 39.8144 38.8681C43.5635 38.396 47.2258 37.0081 50.4293 34.6783C50.9162 34.3242 51.598 34.4318 51.9521 34.9188Z" fill="white"/>
<path fill-rule="evenodd" clip-rule="evenodd" d="M22.509 35.3359C22.8491 34.839 23.5275 34.7119 24.0244 35.052C27.148 37.1899 30.6703 38.4784 34.2573 38.8801C34.8557 38.9471 35.2864 39.4864 35.2194 40.0848C35.1524 40.6831 34.613 41.1139 34.0147 41.0469C30.0722 40.6054 26.2104 39.1903 22.7929 36.8512C22.296 36.5112 22.1689 35.8327 22.509 35.3359Z" fill="white"/>
</svg>
